<svg width="121" height="81" viewBox="0 0 121 81" fill="none" xmlns="http://www.w3.org/2000/svg">
<g clip-path="url(#clip0_1898_71)">
<path d="M32.5591 33.4499C29.873 34.7147 28.5018 37.1337 30.0009 39.5445C30.3386 40.0889 30.7582 39.8802 30.6303 39.4177C29.8474 36.8635 30.7735 34.6983 33.1885 33.6873C35.7466 34.5305 39.0006 34.42 41.4616 33.7405C47.6013 36.1186 47.7036 43.8259 40.377 48.2506C36.9183 50.3504 32.6461 50.6615 31.413 47.2232C29.7911 42.5489 36.7341 34.8334 40.8477 35.8403C41.1905 35.9262 41.4514 35.7134 41.0575 35.5456C35.895 33.2207 27.3813 41.6852 30.2874 47.477C32.0168 50.9766 36.995 50.7515 40.4281 48.9669C48.0106 44.9679 50.1032 35.8362 43.0784 33.1756C47.1357 31.4197 48.9623 27.916 50.2414 25.0999C52.0056 25.228 53.7824 25.1936 55.5368 24.9976C56.3503 24.8298 56.3759 24.5351 55.4857 24.5883C53.8417 24.6443 52.1947 24.6018 50.5586 24.4614C51.2902 23.0984 52.3647 20.5811 54.0429 19.0503C54.5545 19.2181 57.1127 20.4542 60.1826 20.8554C61.9682 21.0641 63.3547 20.4461 63.5133 19.5742C63.6719 19.0503 63.4059 18.8006 63.0426 19.4719C62.0193 21.1705 56.202 19.4064 54.447 18.6737C54.6359 18.4959 54.8827 18.3635 55.16 18.2912C55.4373 18.219 55.7343 18.2097 56.0178 18.2644C56.596 18.7883 56.6983 17.9288 56.0178 17.761C55.6118 17.6807 55.185 17.6997 54.7927 17.8158C54.4004 17.9318 54.0608 18.1395 53.8177 18.4118C51.6333 17.3311 49.2681 16.5043 46.7929 15.9559C38.1718 14.0076 33.6642 20.8676 38.0132 22.8323C40.1109 23.7983 43.411 23.0452 44.1529 21.0109C44.465 20.2537 43.7333 20.6343 43.7077 21.0928C43.7077 21.6822 40.8784 23.6714 38.2281 22.3534C35.8438 21.1583 39.1746 15.8945 46.3273 16.7541C48.8855 17.0488 51.2289 17.8674 53.4545 18.7474C51.941 20.4614 50.6678 22.3035 49.6581 24.2404C47.1408 23.8843 44.3627 23.7983 43.1552 25.9349C43.0273 26.1682 43.2626 26.4629 43.5747 26.1273C44.8078 24.6988 48.292 25.014 49.2897 25.014C47.4632 28.3662 44.7361 31.3542 41.1035 32.6272C38.7887 32.2775 36.4043 32.3587 34.135 32.8646C31.1163 32.0459 28.4404 29.9748 29.1516 26.7986C29.2536 26.3018 29.486 25.8279 29.8334 25.4081C30.1809 24.9883 30.6355 24.6322 31.1674 24.3632C31.9554 23.9252 32.5079 23.61 31.6791 23.8188C31.0561 24.0055 30.4903 24.2968 30.0199 24.6731C29.5495 25.0494 29.1854 25.502 28.9521 26.0004C27.6269 29.2913 29.2692 32.1155 32.5591 33.4499ZM39.149 33.147C37.8768 33.3597 36.5635 33.3597 35.2913 33.147C36.5687 32.9794 37.8716 32.9794 39.149 33.147Z" fill="#F67A45"/>
<path d="M62.6388 27.5271C61.9021 28.6978 61.0374 29.983 60.1728 30.6911C59.8631 30.9461 59.4403 31.0932 58.996 31.1004C58.2592 31.0595 58.2081 30.4742 58.4434 29.7825C58.4844 29.6719 58.0955 30.4087 60.8532 25.2514C61.3649 24.3754 60.7662 24.5105 58.8629 24.5392C58.9983 24.6551 59.0935 24.7972 59.1392 24.9515C59.185 25.1058 59.1797 25.267 59.1239 25.4192L57.4457 28.8369C56.8982 29.9298 56.8982 31.5629 58.8629 31.5629C60.4951 31.5629 61.4672 29.6187 60.1472 31.7103C60.4253 31.6074 60.732 31.5637 61.0374 31.5834C61.59 31.5834 61.8253 31.5834 62.0607 31.2683C63.5291 28.9434 64.8133 27.7686 65.7036 27.1178C67.7194 25.6075 68.1901 26.1764 67.5608 26.9909C66.9782 27.6787 66.4958 28.4175 66.1231 29.193C65.3352 31.1455 66.5938 31.6489 67.5097 31.6489C68.8502 31.6489 69.9707 30.4742 70.7995 29.3117C70.5591 31.919 74.1968 32.3652 76.2433 30.5397C76.4787 31.1291 77.1439 31.6366 78.4639 31.6366C78.8361 31.6234 79.2014 31.5511 79.5383 31.4238C81.6565 31.9354 83.0635 30.642 84.051 29.2258C84.051 29.279 84.0254 29.3363 84.0203 29.3936C83.6263 31.698 86.2203 32.0541 87.6376 30.9654C88.6046 30.1877 89.0497 29.6228 90.1958 27.6909C90.4618 27.2816 90.0679 27.1874 89.8581 27.564C89.1521 28.6937 88.2874 30.0199 87.0799 30.728C86.2152 31.2314 85.0333 31.0431 85.4017 29.6392C85.4017 29.6392 85.7701 28.047 86.0055 27.4985C87.385 26.4978 88.5605 25.3308 89.4897 24.0398H91.0246C91.2855 24.0398 91.3418 23.5814 91.0758 23.5814H89.8223C90.2111 22.992 90.5795 22.4067 90.9478 21.7763C92.887 18.424 90.0576 18.0679 88.2464 20.6016C87.5915 21.5021 86.9366 22.5335 86.3329 23.5814H84.7621C84.4756 23.5814 84.4194 24.0398 84.711 24.0398H86.072C85.4501 25.2504 84.9154 26.4886 84.4705 27.7482C83.5496 29.1971 82.296 31.3992 80.3364 31.17H80.1523C80.6525 30.9111 81.0772 30.5691 81.3977 30.1672C81.7182 29.7654 81.9268 29.3131 82.0095 28.841C82.0658 27.9201 81.4979 27.1629 81.0681 26.3852C80.2341 24.7848 81.0681 23.303 82.4546 23.741C83.1761 24.0316 82.9663 23.1311 81.5951 23.2826C80.6742 23.3849 79.8914 24.2649 79.4155 25.0835C78.863 26.0577 77.9983 27.4535 77.1643 28.7101C76.5861 28.7101 76.141 29.3568 76.141 30.028C75.4503 30.7034 74.6061 31.2273 73.5163 31.2273C71.787 31.2273 72.2321 29.1112 72.6261 28.3621C73.7757 28.2608 74.8796 27.9454 75.8494 27.4412C77.5276 26.4138 78.2848 24.9853 77.2871 24.3795C76.1359 23.6878 74.1456 24.486 72.8102 25.7425C72.1013 26.4181 71.547 27.1885 71.173 28.0183C70.4516 29.148 69.0548 31.1741 67.8831 31.1741C66.0771 31.1741 69.7046 25.9799 70.6051 24.7152C69.7149 24.4655 67.0236 25.7835 65.7598 26.6881C64.9702 27.2657 64.2428 27.8955 63.5854 28.5709C64.5268 27.0646 65.9696 24.9648 66.7576 24.6333C66.386 24.6463 66.0139 24.6174 65.6524 24.5473C64.6291 24.4982 64.3119 24.9566 62.7924 27.4125C62.7318 27.4418 62.6796 27.4809 62.6388 27.5271ZM89.7557 20.5238C91.3828 18.6983 91.0144 20.5648 90.5181 21.4448C90.1284 22.1761 89.6912 22.8906 89.2083 23.5855H87.9087C88.4163 22.5254 89.0341 21.5012 89.7557 20.5238ZM87.6376 24.0439H88.8655C88.1197 25.052 87.2322 25.9886 86.2203 26.8354C86.5887 26.0986 87.085 25.0713 87.6376 24.0439ZM78.2541 31.2764C77.2308 31.2764 76.8931 30.2941 77.7425 29.6392C77.7369 29.9485 77.8274 30.2541 78.006 30.5284C78.1846 30.8028 78.4457 31.0373 78.7657 31.2109C78.6034 31.2629 78.4286 31.2853 78.2541 31.2764ZM80.0346 24.8421C79.8248 25.7835 80.4542 27.5026 80.3774 28.8246C80.3007 29.938 79.7993 30.6502 79.2211 31.0063C78.8607 30.8529 78.5645 30.6185 78.369 30.3318C78.1734 30.0452 78.0873 29.719 78.1211 29.3936C78.1211 28.8533 77.7987 28.7469 77.6452 28.7264C78.6992 27.0155 76.8573 29.9257 80.0346 24.8421ZM74.3503 25.9963C77.5736 22.8733 77.7066 25.587 75.5526 27.0442C74.754 27.5525 73.7934 27.8715 72.7796 27.9651C73.2259 27.2714 73.7517 26.6123 74.3503 25.9963Z" fill="#F67A45"/>
<path d="M62.1357 22.7873C62.1652 22.6805 62.1633 22.5696 62.1302 22.4634C62.0971 22.3572 62.0337 22.2586 61.945 22.1753C61.8563 22.092 61.7446 22.0263 61.6188 21.9834C61.493 21.9404 61.3564 21.9214 61.2198 21.9278C60.9198 21.937 60.6324 22.0268 60.404 22.1828C60.1756 22.3387 60.0197 22.5517 59.9612 22.7873C59.9359 22.8938 59.9408 23.0035 59.9754 23.1082C60.0101 23.213 60.0737 23.3102 60.1616 23.3927C60.2495 23.4752 60.3594 23.5408 60.4832 23.5848C60.607 23.6288 60.7416 23.65 60.8771 23.6469C61.1785 23.6414 61.4682 23.5529 61.6975 23.3963C61.9268 23.2397 62.0816 23.0246 62.1357 22.7873Z" fill="#F67A45"/>
<path d="M44.0548 51.1772C43.5432 51.1158 43.6097 51.5128 44.1366 51.5865C49.1405 52.2373 50.2763 56.9076 44.6074 56.0316C36.7435 54.8078 34.7532 50.1907 30.0922 50.1907C29.58 50.216 29.0925 50.3751 28.7043 50.6435C28.3161 50.9119 28.0488 51.2748 27.9433 51.6765C27.9433 52.0859 28.3117 52.225 28.3628 51.8034C28.4447 51.1976 29.4373 50.817 30.0922 50.817C34.1853 50.817 35.3876 56.6456 44.6125 56.6456C51.2894 56.6497 50.1638 51.9549 44.0548 51.1772Z" fill="#F67A45"/>
<path d="M74.3256 40.1503C74.2993 40.2569 74.3035 40.3669 74.3378 40.472C74.3721 40.5771 74.4356 40.6746 74.5237 40.7573C74.6118 40.84 74.7221 40.9056 74.8464 40.9494C74.9707 40.9931 75.1057 41.0138 75.2414 41.0099C75.5428 41.0044 75.8326 40.9159 76.0619 40.7593C76.2912 40.6027 76.446 40.3876 76.5001 40.1503C76.5285 40.0435 76.5258 39.933 76.4923 39.8272C76.4588 39.7214 76.3954 39.6231 76.3069 39.54C76.2184 39.457 76.1072 39.3913 75.9819 39.3481C75.8566 39.3049 75.7205 39.2852 75.5843 39.2908C75.284 39.2993 74.9961 39.3888 74.7675 39.5449C74.539 39.701 74.3832 39.9144 74.3256 40.1503Z" fill="#F67A45"/>
<path d="M92.6917 44.9106C92.205 45.7063 91.6548 46.4761 91.0442 47.2151C90.1042 48.2203 88.7776 48.9509 87.2683 49.2944C89.5093 44.4031 89.8265 42.5571 91.4074 41.7016H89.9953C89.7881 41.6786 89.5772 41.709 89.3931 41.7885C89.2091 41.868 89.0615 41.9925 88.972 42.1437C87.9743 43.781 86.3268 46.2368 84.8789 47.6162C83.1751 49.188 82.0751 48.3489 83.344 46.1672C86.0403 41.5543 86.0096 42.1764 86.6748 41.7016C84.8738 41.7016 84.3929 41.5993 84.0552 42.1437C83.4668 43.1138 82.9091 43.9488 82.1161 45.1808C79.7677 49.2453 77.3169 48.8646 77.8439 47.0063C77.8439 47.0063 78.2123 45.4141 78.4476 44.8697C79.826 43.8682 81.0014 42.7013 81.9319 41.411H83.4668C83.7277 41.411 83.784 40.9485 83.518 40.9485H82.2593C82.6533 40.3632 83.0217 39.7738 83.3901 39.1434C85.3292 35.7912 82.4998 35.4351 80.6886 37.9728C80.0337 38.8733 79.3788 39.9007 78.7751 40.9485H77.1634C76.8769 40.9485 76.8206 41.411 77.1123 41.411H78.4732C77.8557 42.6138 77.3244 43.8437 76.882 45.0948C76.1759 46.2163 75.3471 47.4115 74.5438 48.0664C74.2316 48.321 73.8075 48.4678 73.3619 48.4758C72.6302 48.4348 72.5791 47.8495 72.8145 47.1578C72.8452 47.0677 72.6712 47.4075 75.2243 42.6267C75.7359 41.7385 75.0912 41.8899 73.234 41.9186C73.3697 42.0334 73.4654 42.1748 73.5112 42.3286C73.557 42.4823 73.5513 42.643 73.4949 42.7945L72.441 44.9475C71.8743 45.8652 71.228 46.7501 70.507 47.5957C69.1204 49.1511 67.0227 48.7909 67.8106 46.2777C67.9641 45.7538 68.2251 45.2504 68.3581 44.8943C70.6812 43.1223 72.5117 40.9787 73.7303 38.6032C75.6183 35.2509 72.7889 34.9562 70.9265 37.4489C69.2216 39.7999 67.8765 42.3066 66.9204 44.9147C66.3678 45.8152 64.6385 48.4758 63.5384 48.4348C63.1956 48.4348 63.0677 48.0255 63.2775 47.1782C63.7834 45.7632 64.6088 44.4342 65.7129 43.257C65.3432 43.2736 64.9724 43.246 64.6129 43.1752C63.0472 43.0974 63.0779 44.9966 60.5197 47.4484C58.6471 49.233 56.8564 48.4635 59.1792 45.2054C60.1258 43.9774 61.4868 42.7495 62.6687 42.2092C63.6357 41.7999 64.6078 41.9554 64.8943 42.7331C65.3394 42.7945 65.5492 42.4384 65.1808 42.1273C63.6868 40.8257 60.6732 41.6034 59.1025 43.0892C58.2193 43.9061 57.5542 44.8589 57.1481 45.8889C56.3243 47.1537 55.2959 48.3939 54.2829 48.3939C53.9145 48.3939 53.5461 48.0378 53.7712 47.1373C53.9299 46.4251 54.7945 44.9761 55.5313 43.8014C56.3141 42.5039 56.5546 42.2092 57.3374 41.7262C55.8383 41.7262 55.2499 41.6075 54.9019 42.1683C53.8787 43.8055 52.4614 46.2614 50.993 47.6408C49.2893 49.2125 48.1892 48.3734 49.4581 46.1918C49.9288 45.3977 51.1107 43.4903 51.1107 43.4903C51.8167 42.3361 52.1851 42.0823 52.7889 41.7262H51.1874C50.9802 41.7025 50.7689 41.7326 50.5847 41.8122C50.4005 41.8918 50.253 42.0166 50.1642 42.1683C49.5604 43.1629 49.013 43.9815 48.22 45.2054C48.0665 45.4796 48.3018 45.541 48.4604 45.541C47.9846 46.2982 47.3297 47.0718 47.5651 47.9764C47.6502 48.2673 47.865 48.5234 48.1692 48.6967C48.4734 48.87 48.8462 48.9486 49.2176 48.9178C50.5019 48.9178 51.868 47.4934 52.7582 46.2368C52.0726 47.9314 52.7582 48.9178 53.9605 48.9178C55.1629 48.9178 56.1197 48.0132 56.8974 46.9859C56.7746 48.7909 58.2583 49.6914 60.1463 48.2465C60.8677 47.6503 61.5012 46.9897 62.0342 46.2777C61.2463 48.4758 62.4793 49.0242 63.344 48.9833C64.4696 48.9055 65.6055 47.5998 66.4497 46.3923C66.1376 47.6407 66.1836 48.9833 68.1892 48.9833C69.6832 48.9833 70.7474 48.0828 71.5456 47.0964C71.4075 48.0173 71.7707 48.9383 73.2493 48.9383C74.5796 48.9383 75.7052 47.6817 76.4931 46.5152C76.4931 46.6052 76.4573 46.6952 76.4471 46.7812C76.0531 49.0856 78.6472 49.4417 80.0593 48.353C80.7255 47.8311 81.2803 47.2255 81.7016 46.5602C80.9444 47.9805 81.6607 48.9178 83.1035 48.9178C85.1194 48.9178 86.8232 46.3187 87.7083 45.0621C87.2887 46.1508 86.4496 48.3939 85.4519 49.7774C82.2286 50.51 77.9564 50.9275 76.621 53.0068C75.8382 54.1816 76.1094 55.565 78.7188 55.565C82.597 55.565 85.1911 52.356 86.8436 49.9861C90.6196 48.8973 91.3 48.0173 93.0805 45.1235C93.321 44.6814 92.927 44.5341 92.6917 44.9106ZM82.1826 37.8869C83.8096 36.0654 83.4412 37.9278 82.945 38.8078C82.5552 39.5391 82.118 40.2537 81.6351 40.9485H80.3254C80.8362 39.8881 81.4575 38.864 82.1826 37.8869ZM80.0593 41.411H81.2923C80.5451 42.4172 79.6578 43.3523 78.6472 44.1984C79.0156 43.4658 79.5118 42.4384 80.0593 41.411ZM72.6968 37.3179C74.114 35.7011 73.8531 37.3179 73.3261 38.2593C72.1727 40.4413 70.5598 42.4488 68.5576 44.1943C69.3712 42.5203 71.4126 38.7669 72.6968 37.322V37.3179ZM84.3878 51.1977C83.1803 52.5157 80.4021 55.1148 78.0946 55.1148C75.7871 55.1148 76.8359 52.6589 79.5118 51.7175C81.2895 51.1873 83.11 50.7538 84.9608 50.42L84.3878 51.1977Z" fill="#F67A45"/>
<path d="M53.8894 75.9774C50.2619 71.8147 45.5701 68.2823 40.5049 64.6231C40.1928 64.398 39.9267 64.488 39.9472 64.8278C40.1209 67.2917 41.3122 69.6399 43.3343 71.5036C45.5599 73.7139 48.9623 75.1874 51.4335 76.0061C51.8275 76.137 51.807 76.1862 51.3926 76.1248C47.3033 75.5143 43.3246 74.4996 39.5481 73.104C37.696 72.4287 39.804 70.554 31.0549 58.5898C30.8451 58.2992 30.5432 58.3197 30.446 58.6471C29.6975 60.997 29.8999 63.4763 31.0242 65.7282C32.2112 68.2987 34.6057 70.4067 36.4885 71.7369C36.8006 71.9621 36.7648 72.0112 36.3913 71.8474C32.5947 70.1768 29.0903 68.1124 25.9692 65.7078C24.4905 64.574 27.3404 62.6502 23.718 50.6778C23.6208 50.3463 23.3343 50.3013 23.1143 50.5919C20.6021 53.8664 20.1775 58.4875 23.718 63.653C23.9176 63.9477 23.8613 63.9846 23.5747 63.7349C20.6679 61.1686 18.1724 58.3224 16.1457 55.2621C15.1838 53.8091 18.7602 52.5566 19.7272 40.5269C19.7579 40.1872 19.5021 40.0767 19.1798 40.2977C15.6955 42.6758 13.3982 46.9531 14.8206 52.8472C14.9025 53.1787 14.8206 53.1992 14.6568 52.8881C13.1747 50.2724 12.0213 47.5452 11.2135 44.7469C10.7581 43.1547 14.4983 42.7986 18.8574 31.9109C18.9853 31.5875 18.7704 31.4279 18.3918 31.5834C14.5085 33.147 11.1879 36.6262 10.7172 42.2951C10.6916 42.6308 10.62 42.6349 10.5484 42.2951C9.9349 39.4412 9.68799 36.5446 9.81162 33.6505C9.87813 32.0542 13.2089 32.6313 19.6556 23.958C19.8705 23.6673 19.7068 23.4791 19.2974 23.5486C15.629 24.3673 12.0884 26.7331 10.1544 31.2683C10.0163 31.5875 9.94462 31.5753 9.98044 31.2396C10.2806 28.6053 10.9009 26.0007 11.8326 23.4627C12.375 21.9769 15.1531 23.1926 23.6924 16.2179C23.9892 15.9764 23.8817 15.7676 23.4622 15.784C19.8244 15.9477 15.9053 17.5686 12.8252 21.3711C12.4159 21.8746 12.4261 21.8705 12.4926 21.7149C13.654 19.018 15.1773 16.4296 17.036 13.9953C17.6039 13.2217 20.3053 14.3391 28.9776 9.68118C29.3307 9.49289 29.2795 9.27186 28.86 9.23911C25.8362 8.97715 22.1268 9.76713 18.489 12.444C17.3839 13.2627 20.0239 10.5203 20.8528 9.67708C22.2086 8.34272 25.8669 7.34399 33.168 0.835929C33.4494 0.582155 33.3419 0.447082 32.9428 0.553503C30.2674 1.27527 27.7942 2.40849 25.6622 3.8894C22.1677 6.36983 21.5691 8.39182 20.4895 9.48059C18.3611 11.5845 17.389 13.0212 17.8239 12.137C19.3077 9.11633 20.6379 5.89094 20.7096 2.65737C20.7096 2.32174 20.464 2.24805 20.1979 2.52229C19.2616 3.51283 17.2355 5.9155 16.5704 8.44914C15.6494 11.8423 16.99 13.3609 16.7495 13.6883C10.0982 22.4844 12.2931 25.3865 12.6154 15.5875C12.6748 13.638 12.4446 11.6897 11.9298 9.7835C11.8326 9.45606 11.5615 9.43148 11.3824 9.74256C9.16187 13.6842 8.3125 18.4937 11.1367 22.2348C11.367 22.5705 11.4379 22.9616 11.3363 23.3358C10.3879 25.9176 9.75898 28.5676 9.45862 31.2478C9.24884 33.102 9.06464 25.2759 5.28362 19.5456C5.08408 19.2468 4.81288 19.2795 4.74125 19.6152C3.71797 24.2076 4.55707 29.3527 8.71158 32.5781C9.03294 32.8576 9.21498 33.2216 9.22322 33.6013C9.11428 36.5534 9.38694 39.5066 10.0368 42.4138C10.4563 44.3908 7.2125 35.4965 1.12398 29.9257C0.847699 29.6679 0.612345 29.7538 0.612345 30.0936C0.965376 35.5292 3.75379 41.3578 9.73486 43.9529C10.1471 44.1467 10.4524 44.4582 10.5893 44.8247C11.4127 47.6815 12.5919 50.4651 14.1094 53.1337C15.1941 55.0452 8.8753 46.6543 0.903952 42.2665C0.556037 42.0741 0.330913 42.2051 0.453707 42.5285C2.58213 48.0992 7.42228 53.5512 14.4369 54.8446C14.8966 54.9439 15.2918 55.1795 15.542 55.5036C17.6058 58.6214 20.1497 61.5201 23.1143 64.1319C24.8692 65.6791 15.6392 59.2488 6.50645 57.0263C6.10225 56.928 5.93851 57.1081 6.17387 57.3865C10.267 62.1754 16.9183 66.2399 24.1784 65.7364C24.655 65.7171 25.123 65.8429 25.4883 66.0884C28.665 68.5352 32.2332 70.6341 36.0997 72.3305C38.4941 73.3824 25.7697 69.2483 16.1048 69.191C15.6802 69.191 15.5932 69.4039 15.9104 69.6003C17.5579 70.6768 22.5617 73.5829 28.159 74.2992C31.404 74.7881 34.7552 74.5414 37.8341 73.587C38.2817 73.4477 38.7782 73.4477 39.2258 73.587C46.7622 76.3581 53.1782 76.7346 51.321 76.7469C43.8971 76.7878 36.2634 76.7838 29.914 78.2041C29.5047 78.2941 29.4893 78.5151 29.8832 78.642C39.63 81.8429 48.5786 80.5453 53.6182 77.4141C54.0097 77.1878 54.4868 77.0764 54.969 77.0989L55.8183 77.1726C56.2378 77.2053 56.5806 77.1071 56.5806 76.9516C56.5806 76.796 56.2378 76.6446 55.8183 76.6077L55.0815 76.5382C54.6115 76.4748 54.1871 76.2752 53.8894 75.9774Z" fill="#F67A45"/>
<path d="M67.1968 75.9774C70.8141 71.8311 75.4905 68.2946 80.5813 64.6231C80.8934 64.398 81.1595 64.488 81.139 64.8278C80.9654 67.2917 79.774 69.6399 77.7519 71.5036C75.5263 73.7139 72.1239 75.1874 69.6476 76.0061C69.2587 76.137 69.2792 76.1862 69.6936 76.1248C73.7827 75.5135 77.7612 74.4989 81.5381 73.104C83.38 72.4328 81.3232 70.4926 90.0262 58.5899C90.2411 58.2992 90.5378 58.3197 90.6401 58.6471C91.3871 60.9974 91.1828 63.4767 90.0568 65.7283C88.875 68.2987 86.4754 70.4067 84.5977 71.7369C84.2856 71.9621 84.3214 72.0112 84.6949 71.8474C88.4915 70.1768 91.9959 68.1124 95.117 65.7078C96.5803 64.5863 93.7509 62.6134 97.3682 50.6778C97.4654 50.3463 97.752 50.3013 97.972 50.5919C100.469 53.8214 100.924 58.4752 97.3682 63.653C97.1635 63.9477 97.225 63.9846 97.5115 63.7349C100.418 61.1686 102.914 58.3224 104.94 55.2621C105.907 53.805 102.331 52.5648 101.359 40.5269C101.328 40.1872 101.584 40.0767 101.906 40.2977C105.406 42.684 107.683 46.9777 106.261 52.8472C106.184 53.1787 106.26 53.1992 106.424 52.8881C107.908 50.2725 109.063 47.5453 109.873 44.7469C110.333 43.1629 106.593 42.8068 102.229 31.9109C102.101 31.5875 102.316 31.4279 102.694 31.5834C106.568 33.1429 109.893 36.6139 110.369 42.2951C110.395 42.6308 110.466 42.6349 110.538 42.2951C111.15 39.4411 111.399 36.5447 111.28 33.6505C111.198 32.0542 107.857 32.6067 101.431 23.958C101.216 23.6673 101.379 23.4791 101.789 23.5486C105.447 24.3673 108.993 26.7249 110.932 31.2683C111.07 31.5875 111.142 31.5753 111.101 31.2396C110.805 28.6052 110.186 26.0004 109.254 23.4627C108.701 21.9646 105.902 23.1762 97.3938 16.2179C97.0971 15.9764 97.2045 15.7676 97.624 15.784C101.272 15.9477 105.196 17.585 108.261 21.3711C108.701 21.9114 108.65 21.85 108.594 21.7149C107.431 19.0183 105.908 16.4301 104.05 13.9953C103.477 13.2176 100.822 14.3596 92.1085 9.68118C91.7555 9.49289 91.8066 9.27186 92.2262 9.23911C95.2449 8.97715 98.9492 9.75895 102.597 12.444C103.702 13.2627 101.098 10.5284 100.233 9.67708C98.8826 8.34272 95.25 7.36445 87.9182 0.835929C87.6368 0.582155 87.7442 0.447082 88.1433 0.553503C90.8183 1.27613 93.2913 2.40927 95.4239 3.8894C98.9287 6.37802 99.5171 8.41638 100.597 9.48059C102.7 11.5558 103.702 13.0293 103.262 12.137C101.789 9.1327 100.443 5.89094 100.377 2.65737C100.377 2.32174 100.622 2.24805 100.888 2.52229C107.028 9.07128 104.081 13.3404 104.337 13.6883C110.988 22.6031 108.788 25.2637 108.471 15.5875C108.411 13.638 108.642 11.6897 109.156 9.78351C109.254 9.45606 109.525 9.43148 109.699 9.74256C111.929 13.6965 112.769 18.5018 109.949 22.2348C109.716 22.5698 109.645 22.9616 109.75 23.3358C110.698 25.9176 111.327 28.5676 111.628 31.2478C111.837 33.1102 112.027 25.2596 115.803 19.5456C116.002 19.2468 116.273 19.2795 116.345 19.6152C117.368 24.1749 116.544 29.3404 112.375 32.5781C112.044 32.8551 111.852 33.2189 111.832 33.6013C111.959 36.5505 111.706 39.5023 111.075 42.4097C110.645 44.4072 113.884 35.5046 119.988 29.9216C120.264 29.6638 120.499 29.7497 120.499 30.0895C120.152 35.5292 117.343 41.3578 111.377 43.9488C110.965 44.1426 110.659 44.4541 110.522 44.8206C109.697 47.6769 108.518 50.4603 107.002 53.1296C105.948 54.9756 112.293 46.6257 120.208 42.2624C120.556 42.07 120.781 42.201 120.658 42.5244C118.53 48.091 113.705 53.543 106.675 54.8405C106.215 54.9398 105.82 55.1754 105.57 55.4995C103.506 58.6173 100.962 61.516 97.9975 64.1278C96.2682 65.6505 105.519 59.2161 114.605 57.0222C115.01 56.9239 115.173 57.104 114.938 57.3824C110.845 62.1754 104.193 66.2358 96.9333 65.7323C96.4568 65.713 95.9888 65.8388 95.6235 66.0844C92.4468 68.5311 88.8785 70.63 85.0121 72.3264C82.6176 73.3783 95.337 69.2442 105.007 69.1869C105.432 69.1869 105.519 69.3998 105.201 69.5962C103.554 70.6727 98.5501 73.5789 92.9579 74.2951C89.7112 74.7844 86.3583 74.5377 83.2776 73.5829C82.8301 73.4436 82.3335 73.4436 81.886 73.5829C74.3853 76.3376 67.9591 76.7305 69.7908 76.7428C77.1993 76.7838 84.8586 76.7797 91.1979 78.2C91.6021 78.29 91.6225 78.5111 91.2285 78.6379C81.3999 81.8592 72.4769 80.5085 67.4935 77.41C67.1021 77.1837 66.625 77.0724 66.1428 77.0948L65.2935 77.1685C64.874 77.2012 64.5312 77.103 64.5312 76.9475C64.5312 76.7919 64.874 76.6405 65.2935 76.6037L66.0303 76.5341C66.4903 76.4671 66.9046 76.2694 67.1968 75.9774Z" fill="#F67A45"/>
</g>
<defs>
<clipPath id="clip0_1898_71">
<rect width="120.251" height="80" fill="white" transform="translate(0.417908 0.520752)"/>
</clipPath>
</defs>
</svg>
