<svg width="105" height="81" viewBox="0 0 105 81" fill="none" xmlns="http://www.w3.org/2000/svg">
<g clip-path="url(#clip0_1898_81)">
<path d="M36.2315 33.1828C35.8993 33.2861 35.5529 33.3371 35.205 33.3339C35.1653 33.3339 35.0658 33.2902 35.026 33.2902V33.1589C36.8203 29.7017 38.5747 26.2406 40.349 22.8152C39.3653 23.7959 38.2903 24.6804 37.1385 25.4568H37.0589C36.9635 25.25 36.9675 25.3176 37.0192 25.1585C38.3116 24.1585 39.5173 23.0513 40.6235 21.8485C41.2799 21.0528 41.3356 21.1563 42.1233 21.0767C42.1631 21.0528 42.2029 21.0767 42.2427 21.0767C42.2228 21.2796 42.6843 20.2652 36.2315 33.1828Z" fill="#F67A45"/>
<path d="M45.3775 33.5249C43.8975 33.5249 43.2292 32.1921 43.2292 30.7401C43.2292 27.4739 47.0125 20.8579 50.3225 20.8579C51.6831 20.8579 52.1565 21.9082 52.1565 23.2449C52.1565 26.6265 48.942 33.5249 45.3775 33.5249ZM50.3424 21.2557C47.7605 21.2557 44.4107 29.0572 44.4107 31.484C44.4107 32.3632 44.6852 33.0753 45.6042 33.0753C48.2856 33.0753 51.4006 25.3852 51.4006 22.8073C51.4086 22.0315 51.1898 21.2557 50.3424 21.2557Z" fill="#F67A45"/>
<path d="M56.2095 33.5249C54.7296 33.5249 54.0612 32.1921 54.0612 30.7401C54.0612 27.4739 57.8446 20.8579 61.1546 20.8579C62.5151 20.8579 62.9886 21.9082 62.9886 23.2449C62.9726 26.6265 59.7661 33.5249 56.2095 33.5249ZM61.1744 21.2557C58.5925 21.2557 55.2427 29.0572 55.2427 31.484C55.2427 32.3632 55.5172 33.0753 56.4362 33.0753C59.1176 33.0753 62.2327 25.3852 62.2327 22.8073C62.2287 22.0315 62.0099 21.2557 61.1625 21.2557H61.1744Z" fill="#F67A45"/>
<path d="M63.896 34.2171H63.5221C63.4863 34.0301 63.4743 34.5393 68.2761 28.0626C67.4805 28.8026 66.6053 29.3118 66.0642 28.7032C64.9702 29.6301 64.0154 28.7668 64.6877 27.0561C65.0856 26.0496 65.9329 25.1903 66.6132 25.2022C68.125 25.246 66.9673 27.7961 66.2592 28.5162C66.5416 29.0692 67.2935 28.6713 68.0335 28.0308C68.491 27.633 69.7282 26.0417 69.8675 25.9422C69.8993 25.9183 70.1301 25.8626 70.1301 25.986L63.896 34.2171ZM65.3879 27.0243C64.6201 28.8305 65.2685 29.1726 65.9528 28.548C65.7221 28.1502 65.738 27.5335 66.1478 27.5335C66.1997 27.5372 66.2501 27.5532 66.2948 27.5801C66.3394 27.607 66.377 27.6441 66.4046 27.6883C66.4321 27.7326 66.4488 27.7827 66.4533 27.8346C66.4577 27.8865 66.4498 27.9388 66.4302 27.987C66.7246 27.5335 67.4765 25.7751 66.828 25.5762C66.3904 25.4449 65.7579 26.1411 65.3879 27.0243ZM67.377 33.6084C66.6052 33.5885 66.4939 32.582 66.8798 31.5994C67.2656 30.6167 68.125 29.7216 68.8053 29.7415C70.5995 29.7853 68.8053 33.6522 67.385 33.6084H67.377ZM69.0281 30.1194C68.0733 29.8091 66.6808 33.1191 67.4367 33.3538C68.4472 33.6601 69.8556 30.3741 69.036 30.1194H69.0281Z" fill="#F67A45"/>
<path d="M32.5825 44.2623C32.292 44.1682 31.9837 44.1421 31.6815 44.1863C31.3794 44.2305 31.0914 44.3436 30.84 44.5169C30.649 44.7278 30.7843 44.9665 31.0509 45.0421C31.6715 45.2251 32.1608 44.5368 32.2444 45.6587C31.6714 46.2373 30.9524 46.6498 30.1637 46.8522C29.7132 46.9854 29.2338 46.9854 28.7832 46.8522C28.5523 46.787 28.3403 46.6674 28.1652 46.5033C27.99 46.3393 27.8568 46.1356 27.7767 45.9094C27.4569 45.2643 27.347 44.5354 27.4624 43.8247C27.5702 43.2377 27.839 42.6922 28.2387 42.2489C28.6384 41.8057 29.1533 41.4821 29.7261 41.3144C29.9229 41.2547 30.1352 41.2736 30.3184 41.3671C30.5016 41.4605 30.6415 41.6213 30.7087 41.8157C30.7764 41.9987 30.6729 42.2135 30.7366 42.3726C30.8718 42.7267 31.4805 42.9455 31.7908 42.2652C31.9858 41.6525 31.5163 40.9245 30.8837 40.6739C29.7778 40.2522 28.1666 41.0359 27.3033 41.8674C24.6656 44.4771 26.6747 48.718 30.2114 47.7195C31.4049 47.3734 31.9142 46.9875 32.4035 46.3947C32.4473 46.9795 32.4393 48.3242 31.8743 48.4754C31.5044 48.5708 30.8559 48.4356 30.5814 48.5629C30.5243 48.5866 30.4727 48.6216 30.4295 48.6658C30.3864 48.7101 30.3526 48.7626 30.3303 48.8202C30.308 48.8778 30.2976 48.9394 30.2997 49.0011C30.3019 49.0629 30.3165 49.1236 30.3427 49.1795C30.4819 49.4898 31.0349 49.4302 31.3214 49.4182C31.697 49.409 32.064 49.304 32.3878 49.1132C32.7115 48.9225 32.9812 48.6522 33.1713 48.3282C33.6885 47.3734 33.5015 46.0008 33.1355 44.9784C33.0963 44.828 33.0271 44.687 32.9321 44.5639C32.8371 44.4408 32.7182 44.3383 32.5825 44.2623Z" fill="#F67A45"/>
<path d="M42.4524 44.3101C41.784 44.4056 42.5717 41.6287 42.0864 41.2667C41.967 41.1791 41.8039 41.2348 41.6209 41.2667C41.1355 41.3462 41.2628 40.9643 40.8849 41.024C39.6198 41.2189 38.8083 42.9256 38.8242 44.2067C38.5479 44.5574 38.2191 44.8633 37.8494 45.1137C37.5471 45.3007 37.4277 45.245 37.3442 44.9108C37.1811 44.3061 37.2885 42.9217 37.1851 42.3289C37.1334 42.0265 37.1493 41.8913 36.9464 41.8236C36.64 41.7202 36.0672 41.943 36.0672 42.1976C36.1109 44.8432 36.2024 45.0341 35.9836 45.3803C35.8563 45.619 35.5858 45.7781 35.4107 45.5951C35.2357 45.4121 35.2636 45.1495 35.2437 44.8313C35.1681 43.6656 35.1283 42.8421 35.0885 42.4443C35.0448 42.2573 34.7583 42.2851 34.5673 42.3249C34.0462 42.4681 34.0104 43.1922 34.0422 43.7332C34.2531 45.4041 34.0422 45.0381 34.2929 46.0526C34.6907 47.441 35.8165 46.9477 36.461 45.5434C36.8589 46.3828 37.2567 46.5141 38.1001 45.9412C38.3446 45.7779 38.5748 45.5943 38.7883 45.3922C39.0867 45.1097 39.0111 45.1177 39.0668 45.2052C39.2175 45.466 39.4654 45.6565 39.7562 45.7348C40.0471 45.8131 40.3571 45.7728 40.6184 45.6229C40.9804 45.4283 41.287 45.145 41.5095 44.7994C41.6169 44.9942 41.7631 45.1648 41.9392 45.3007C42.6314 45.79 43.5106 44.8193 43.9283 44.0634C43.8169 43.7372 43.7056 43.415 43.5902 43.0887C43.3793 43.415 42.8701 44.2544 42.4524 44.3101ZM41.0202 43.3871C41.0202 43.8048 40.877 44.7238 40.4513 44.7954C39.5959 44.9466 39.9301 42.0464 41.1355 41.8674C41.0918 42.3726 41.056 42.8819 41.0202 43.3871Z" fill="#F67A45"/>
<path d="M51.6457 43.6576C50.9615 43.6576 52.1351 41.0081 51.6975 40.5904C51.594 40.4909 51.4428 40.5227 51.236 40.5227C50.7506 40.5227 50.9217 40.1766 50.5398 40.1806C49.6168 40.1806 48.841 41.02 48.4392 41.8833C48.4392 41.7878 48.483 41.8515 48.0414 42.1658C47.7509 42.3647 47.19 42.671 46.9473 42.4084C46.7046 42.1459 46.8041 41.6645 46.8518 41.3582C46.8996 41.0518 46.999 40.65 46.7484 40.467C46.6488 40.4004 46.5296 40.3695 46.4103 40.3795C45.6663 40.4352 45.4197 41.3502 45.1889 41.9271H45.1372C45.0378 41.2229 45.181 40.5386 44.8866 40.5187C44.7608 40.518 44.6354 40.5314 44.5126 40.5585C44.4694 40.5679 44.429 40.5872 44.3945 40.6148C44.36 40.6424 44.3323 40.6776 44.3137 40.7176C44.1148 41.1155 43.9835 42.8023 44.0073 43.7213C44.0073 44.139 44.0551 44.8272 44.4052 45.0262C44.4744 45.0605 44.5507 45.0784 44.628 45.0784C44.7053 45.0784 44.7815 45.0605 44.8507 45.0262C45.1014 44.8909 45.0974 44.497 45.7578 42.0623C45.8851 42.0623 45.7857 41.9828 45.9806 42.6153C46.2631 43.5502 46.9871 43.8764 48.0732 43.1603C47.9658 44.3777 48.8331 44.9745 49.6645 44.6641C50.0474 44.5199 50.388 44.2819 50.6551 43.9719C50.9177 44.6005 51.3315 44.9227 52.0038 44.5886C52.4566 44.3383 52.848 43.9904 53.1496 43.5701L52.9467 42.5636C52.6841 42.8978 52.0674 43.6536 51.6457 43.6576ZM50.3528 42.5477C50.305 42.9734 50.0345 43.8486 49.6009 43.8645C48.7336 43.8924 49.4576 41.0797 50.675 41.0558C50.5636 41.5544 50.4562 42.0517 50.3528 42.5477Z" fill="#F67A45"/>
<path d="M74.6857 46.725C74.2336 46.9132 73.7566 47.0352 73.2695 47.087C72.999 47.087 72.8438 46.9756 72.9234 46.5658C73.0626 45.8099 73.6554 45.2729 74.2283 44.708C74.7823 44.1411 75.2992 43.5391 75.7759 42.9058C76.2214 42.3607 76.7465 41.2269 76.6312 40.5705C76.4481 39.56 74.7057 39.5481 73.4047 41.5929C72.9942 42.1469 72.6672 42.7581 72.4341 43.407C71.9582 43.2993 71.4601 43.3525 71.0177 43.5582C70.5887 43.7715 70.2134 44.0788 69.9197 44.4573C69.7621 44.634 69.6283 44.8306 69.5219 45.0421C68.9013 45.3326 67.493 45.7781 67.0474 45.3246C66.9541 45.2078 66.8876 45.072 66.8525 44.9268C68.4438 44.8711 69.8322 43.6497 69.1042 42.6154C68.5592 41.8396 67.1588 41.7521 66.3194 43.041C66.1093 43.3524 65.937 43.6876 65.8062 44.0396C65.2213 44.3857 64.2148 44.7875 63.5146 44.6721C63.2839 44.6284 63.1526 44.5369 63.0134 44.1749C64.3541 44.0436 65.2015 43.2002 65.3168 42.6154C65.5834 41.2548 63.4351 40.483 62.3729 42.321C62.188 42.6317 62.0398 42.9627 61.9313 43.3076C61.434 43.6815 60.34 44.1908 59.9103 44.1391C59.3971 44.0754 59.2817 43.6855 59.3414 43.1723C59.3653 42.9416 59.4608 42.2494 59.5642 41.6924C59.783 41.4815 59.9421 41.3224 60.1768 41.0797C60.7855 41.1513 61.3704 41.2349 61.9949 41.3224C62.3649 41.3741 62.4922 40.67 62.2257 40.6182C62.0347 40.5785 60.8452 40.3716 60.8015 40.3795C61.2311 39.8942 61.8318 39.186 61.9193 38.5296C62.1023 37.2168 60.9805 36.3495 59.8387 37.9249C59.3915 38.5748 59.0479 39.2901 58.8203 40.0454C58.6333 40.0454 57.3642 39.8067 57.3443 40.1011C57.3443 40.3199 57.3443 40.4591 57.6228 40.4989C58.3826 40.654 58.2315 40.658 58.6174 40.7495C58.4444 41.463 58.3628 42.1956 58.3746 42.9297L57.4756 43.4031C57.3738 43.4632 57.2674 43.5151 57.1573 43.5582C57.0793 43.5969 57.0048 43.6422 56.9345 43.6935C56.826 43.756 56.7052 43.794 56.5805 43.8049C55.924 43.7571 56.7515 41.3463 56.7674 41.0439C56.7953 40.6739 56.668 40.3119 56.298 40.292C56.1414 40.2771 55.9838 40.3065 55.8431 40.3769C55.7024 40.4472 55.5843 40.5557 55.5023 40.6899C55.1729 41.1905 54.8752 41.7114 54.6112 42.2494H54.5197C54.5714 41.5253 54.9175 40.7694 54.6828 40.3795C54.5829 40.2778 54.4483 40.2176 54.3059 40.2109C54.1635 40.2043 54.0238 40.2517 53.915 40.3438C53.7121 40.5228 53.6763 40.7416 53.549 41.3344C53.3564 42.2421 53.2577 43.1673 53.2545 44.0953C53.257 44.1948 53.2798 44.2927 53.3215 44.383C53.3633 44.4733 53.4231 44.5541 53.4973 44.6204C53.5793 44.674 53.6741 44.7048 53.7719 44.7097C53.8698 44.7146 53.9672 44.6934 54.0542 44.6483C54.2531 44.5369 54.2213 44.3897 55.57 42.0823C55.6853 42.0823 55.6535 41.9828 55.5182 42.7626C55.401 43.3112 55.416 43.8798 55.562 44.4215C55.6614 44.6682 55.7927 44.7955 55.9598 44.8194C56.4651 44.8512 56.8748 44.6363 57.6307 44.3101C57.8751 44.2256 58.1068 44.1078 58.319 43.96C58.5656 41.573 57.9212 45.4798 59.9103 45.1138C60.583 44.9331 61.2402 44.6989 61.8756 44.4136C61.9631 43.8407 61.8239 44.334 62.1461 44.8989C62.8503 46.1322 64.5331 45.7781 65.7783 45.0859C65.8201 45.419 65.966 45.7303 66.1954 45.9754C66.4248 46.2205 66.7258 46.3868 67.0554 46.4505C67.7566 46.5722 68.4782 46.4822 69.128 46.1919C69.4344 46.0765 69.1997 46.0685 69.3827 46.5698C69.7248 47.5365 70.8586 47.4053 71.8612 46.8642C71.8623 47.1043 71.9323 47.3391 72.0627 47.5408C72.1932 47.7424 72.3786 47.9025 72.5971 48.002C73.0546 48.1492 74.085 47.827 74.5425 47.6678C74.5624 47.3535 74.6221 47.0393 74.6857 46.725ZM60.8969 38.096C60.9303 38.0979 60.9629 38.1067 60.9927 38.1218C61.0226 38.1369 61.049 38.158 61.0703 38.1837C61.0915 38.2095 61.1073 38.2394 61.1165 38.2715C61.1257 38.3037 61.1281 38.3374 61.1237 38.3705C61.1237 38.8678 60.328 39.8266 60.0098 40.2403L59.7154 40.1846C59.8626 39.7828 60.4752 38.0443 60.8969 38.096ZM63.4032 42.5398C63.4792 42.3935 63.6005 42.2757 63.7489 42.204C63.8973 42.1323 64.065 42.1105 64.2268 42.1419C64.4177 42.1777 64.4496 42.4562 64.4138 42.6432C64.3541 42.9495 63.5863 43.5145 63.0174 43.419C63.0723 43.0988 63.2047 42.7969 63.4032 42.5398ZM67.3378 43.3354C67.4261 43.197 67.5563 43.0903 67.7094 43.0309C67.8625 42.9715 68.0306 42.9625 68.1892 43.0052C68.3762 43.053 68.3881 43.3315 68.3443 43.5184C68.2727 43.8128 67.4691 44.338 66.9042 44.2107C66.9762 43.8811 67.1293 43.5748 67.3498 43.3195L67.3378 43.3354ZM70.7671 46.3987C70.4847 46.3152 70.3016 46.16 70.3693 45.8696C70.5213 45.4814 70.7408 45.1231 71.0177 44.8114C71.1624 44.6174 71.3448 44.4546 71.554 44.3329C71.7632 44.2112 71.995 44.1331 72.2351 44.1032C72.2749 44.0794 71.8015 45.5633 71.7856 45.8259C71.5588 46.0805 71.1092 46.4823 70.7671 46.3828V46.3987ZM73.2814 44.6841C73.5755 43.7147 73.9758 42.7808 74.4749 41.8993C74.6599 41.5488 74.9034 41.2326 75.195 40.9644C75.3661 40.841 75.5928 40.8172 75.6406 41.024C75.6024 41.3025 75.5148 41.572 75.382 41.8197C75.0438 42.6193 73.8503 44.0277 73.2814 44.6682V44.6841Z" fill="#F67A45"/>
<path d="M19.9236 12.022C20.454 14.1253 20.9937 16.2311 21.5427 18.3396C21.4632 18.4908 21.3796 18.642 21.2961 18.7931C20.1821 19.0849 19.0722 19.3912 17.9662 19.7121L17.7514 18.9642L18.376 18.7852L14.8433 6.37283L14.151 6.57175L13.9362 5.8278C15.1734 5.46578 16.4187 5.12761 17.6679 4.80139L18.1492 5.08782C19.8758 11.851 19.7604 11.3378 19.7405 11.3139L19.474 11.7714C19.9832 12.1096 19.9116 12.0857 19.9236 12.022ZM17.461 5.65674C16.8483 5.81985 16.2357 5.98296 15.623 6.15403C16.1667 8.10341 16.7091 10.0515 17.2501 11.9982C17.8309 11.8351 18.4158 11.6759 19.0006 11.5248L17.461 5.65674ZM19.1995 12.2727C18.6187 12.4278 18.0378 12.583 17.457 12.7461L19.0802 18.5863L20.7391 18.1367L19.1995 12.2727Z" fill="#F67A45"/>
<path d="M25.6244 5.92329L25.2265 3.88639C24.6059 4.00972 23.9892 4.13703 23.3686 4.28422C23.793 6.25747 24.2174 8.23335 24.6417 10.2119L25.7 9.98912C25.6164 9.5714 25.5289 9.15369 25.4414 8.73596L26.2052 8.5808L26.8616 11.8748L26.1216 12.0221L25.8591 10.749L24.8088 10.9718C25.2305 12.945 25.6549 14.9209 26.0819 16.8995C26.6388 16.7801 27.1958 16.6647 27.7567 16.5533C27.6215 15.8731 27.4822 15.1928 27.3589 14.5164L28.087 14.3732C28.266 15.3042 28.449 16.2391 28.628 17.1581C27.3828 17.3968 26.1376 17.6593 24.9003 17.9537C24.8406 17.6991 24.7849 17.4485 24.7292 17.1978L25.3817 17.0506C24.4508 12.8495 23.5225 8.64976 22.5969 4.45131L21.8768 4.61441C21.8171 4.35979 21.7614 4.10917 21.7057 3.85456C23.0955 3.5416 24.4879 3.24852 25.883 2.97534C26.066 3.91025 26.245 4.84515 26.428 5.76016L25.6244 5.92329Z" fill="#F67A45"/>
<path d="M32.5431 1.84952L33.0086 2.18368C33.124 3.00322 33.2354 3.81879 33.3507 4.63832L32.5551 4.7497C32.4556 4.05748 32.3562 3.36526 32.2527 2.67303C31.6321 2.76453 31.0075 2.85602 30.3869 2.95548C30.7051 4.95259 31.0221 6.94838 31.3377 8.94284C32.0578 8.83145 32.7739 8.72404 33.4939 8.6206L33.9355 8.95877C34.2485 11.2185 34.5615 13.4728 34.8744 15.7219L34.5601 16.1476C33.7644 16.259 32.9688 16.3783 32.1731 16.5096L31.7753 16.1953L31.3775 13.7526C31.6201 13.7089 31.8668 13.6731 32.1095 13.6333C32.2169 14.3176 32.3283 15.0018 32.4357 15.6821C32.9966 15.5946 33.5616 15.5071 34.1225 15.4275C33.8308 13.4251 33.5417 11.424 33.2553 9.42423C32.5352 9.53164 31.8151 9.63907 31.095 9.75842L30.6654 9.44411C30.2967 7.19504 29.9254 4.94066 29.5514 2.68097L29.8737 2.22348C30.7489 2.11209 31.652 1.97285 32.5431 1.84952Z" fill="#F67A45"/>
<path d="M37.7395 4.10525L36.9439 4.1888C36.8365 3.23799 36.7331 2.28317 36.6256 1.33235C38.1692 1.15996 39.7115 1.01676 41.2524 0.90271C41.324 1.85751 41.3996 2.81231 41.4712 3.7671L40.6755 3.83075C40.6159 3.13454 40.5602 2.43435 40.5045 1.73815L39.4025 1.83362L40.5602 14.6836L41.1052 14.6358C41.1291 14.8944 41.149 15.153 41.1728 15.4315L39.3707 15.5986C39.3428 15.34 39.3189 15.0854 39.2911 14.8268L39.8361 14.7711C39.425 10.4905 39.0139 6.20977 38.6029 1.9291L37.5009 2.03652C37.5963 2.71284 37.6679 3.40905 37.7395 4.10525Z" fill="#F67A45"/>
<path d="M52.7687 14.9859C51.973 14.9859 51.1694 14.9859 50.3578 14.9859L49.9838 14.6119C49.9334 10.0528 49.8804 5.49234 49.8247 0.930531L50.2225 0.5327C51.1256 0.5327 52.0247 0.5327 52.9238 0.5327L53.3216 0.930531L53.2859 3.40503H52.4902C52.4902 2.70485 52.4902 2.00468 52.4902 1.30449H50.6403L50.7119 14.2062C51.2808 14.2062 51.8457 14.2062 52.4146 14.2062C52.4146 13.5139 52.4146 12.8177 52.4146 12.1255H53.1506C53.1506 12.949 53.1267 13.7765 53.1148 14.6L52.7687 14.9859Z" fill="#F67A45"/>
<path d="M59.4485 0.763434C60.1249 0.803217 60.7972 0.850967 61.4735 0.898707L61.4138 1.69437L60.8091 1.65062C60.5041 5.93924 60.1991 10.2292 59.8941 14.5205L60.4431 14.5602L60.3834 15.3559C59.7827 15.3082 59.1899 15.2684 58.5812 15.2326C58.5812 14.974 58.6091 14.7154 58.625 14.4568L59.174 14.4926C59.304 12.4743 59.4366 10.4573 59.5718 8.44161C58.9791 8.40182 58.3784 8.36999 57.7856 8.33817C57.6875 10.3538 57.5867 12.3722 57.4832 14.3932L58.0283 14.425C58.0283 14.6796 58.0004 14.9382 57.9845 15.1968C57.3838 15.165 56.791 15.1371 56.1784 15.1132C56.1784 14.8546 56.1784 14.596 56.2102 14.3176L56.7592 14.3414L57.332 1.44772L56.7274 1.42385C56.7274 1.16526 56.7274 0.906662 56.7552 0.648071C57.4315 0.674593 58.1078 0.706416 58.7841 0.743547C58.7841 1.00214 58.7523 1.26073 58.7404 1.51932L58.1317 1.48749C58.0336 3.50582 57.9315 5.52417 57.8254 7.5425C58.4261 7.57433 59.0189 7.60616 59.6236 7.64594L60.0214 1.59491L59.4127 1.5591L59.4485 0.763434Z" fill="#F67A45"/>
<path d="M64.0668 15.6503L63.7565 15.2525L65.1648 1.64662L65.5985 1.29254C66.4936 1.38802 67.3927 1.49145 68.2878 1.60682L68.6459 2.05241L66.8795 15.6185L66.4816 15.9447C65.6727 15.836 64.8678 15.7378 64.0668 15.6503ZM64.5204 14.9183C65.0853 14.9819 65.6502 15.0456 66.2111 15.1172C66.7416 10.8471 67.272 6.5784 67.8025 2.31099C67.1779 2.2354 66.5533 2.15982 65.9287 2.09219L64.5204 14.9183Z" fill="#F67A45"/>
<path d="M72.1584 2.13995C72.8825 2.25135 73.6105 2.37071 74.3346 2.49801L74.2033 3.26184L73.519 3.14648C72.8029 7.39002 72.0881 11.6336 71.3747 15.8771L71.9953 15.9845L71.864 16.7483C71.2155 16.6369 70.5671 16.5295 69.9186 16.4301L70.038 15.6623L70.6586 15.7617L72.7233 3.03109L72.0391 2.91971L72.1584 2.13995Z" fill="#F67A45"/>
<path d="M77.6291 17.8901C76.8335 17.711 76.0378 17.5439 75.2421 17.3808L74.9557 16.9392L77.6411 3.52435L78.1264 3.21405C79.0123 3.39705 79.8981 3.58668 80.784 3.78295L81.0823 4.26035C80.8954 5.05601 80.7123 5.85168 80.5293 6.67519L79.7575 6.50015L80.2111 4.4513L78.3572 4.05347L75.7434 16.6886C76.3044 16.804 76.8614 16.9233 77.4183 17.0466C77.5695 16.3703 77.7193 15.694 77.8678 15.0177L78.5919 15.1808L78.0429 17.5957L77.6291 17.8901Z" fill="#F67A45"/>
<path d="M87.2408 8.36996C87.4278 7.7016 87.6386 7.03722 87.8057 6.3808C87.1971 6.20973 86.5844 6.03868 85.9757 5.87557L84.3843 11.7316L85.4306 12.0181C85.546 11.6203 85.6614 11.1946 85.7728 10.7848L86.5247 10.9957L85.6495 14.2141L84.9175 14.0073C85.0368 13.5895 85.1522 13.1718 85.2676 12.7541L84.2252 12.4716C83.6948 14.421 83.1644 16.373 82.6339 18.3277C83.1869 18.4749 83.7399 18.6261 84.2889 18.7852L84.8578 16.7961L85.5739 17.0029L84.7782 19.744C83.5529 19.3859 82.3236 19.0518 81.0903 18.7335C81.154 18.4829 81.2176 18.2322 81.2853 17.9816L81.9337 18.1527L85.2039 5.66869L84.4838 5.48172C84.5514 5.23109 84.6151 4.98045 84.6788 4.72981C86.0632 5.08521 87.441 5.46181 88.8122 5.85964C88.5496 6.77465 88.2831 7.6857 88.0165 8.60071L87.2408 8.36996Z" fill="#F67A45"/>
<path d="M51.1938 67.5833C51.4484 67.3565 51.711 67.1298 51.9895 66.911C50.8632 66.0592 49.6728 65.2957 48.4288 64.6274C48.6631 62.982 48.4714 61.3041 47.8719 59.754C46.7938 57.1601 44.3232 55.7319 44.1283 55.7319C44.0852 55.7317 44.0426 55.7421 44.0045 55.7622C43.9663 55.7823 43.9337 55.8115 43.9095 55.8473C43.6129 57.5852 43.8516 59.3721 44.5938 60.9713C45.0569 61.9137 45.6341 62.7955 46.3124 63.597C45.0325 63.0114 43.7232 62.4922 42.3898 62.0415C42.5394 60.5032 42.2453 58.9542 41.5424 57.5778C40.3489 55.4136 38.0932 54.244 37.6396 54.0252C37.5828 53.9954 37.5171 53.9874 37.4548 54.0028C37.3925 54.0182 37.3379 54.0559 37.3015 54.1087C37.0208 55.7941 37.3285 57.5247 38.1728 59.01C38.6883 59.8718 39.3322 60.6498 40.0823 61.3174C38.67 60.8918 37.0986 60.4701 35.2527 60.0165C35.4516 56.627 33.5301 54.1923 30.5384 52.6686C30.501 52.6467 30.4589 52.6342 30.4157 52.6323C30.3725 52.6303 30.3294 52.6389 30.2902 52.6573C30.251 52.6757 30.217 52.7034 30.1909 52.7379C30.1648 52.7725 30.1475 52.8128 30.1405 52.8556C29.9276 54.4324 30.2423 56.0354 31.0357 57.4147C31.525 58.1919 32.144 58.8795 32.8657 59.4476C31.1311 59.0498 29.5756 58.6878 27.7695 58.2541C27.9684 54.8328 26.1344 52.5134 23.3217 50.5839C23.2839 50.5589 23.2404 50.5435 23.1952 50.5393C23.15 50.5352 23.1045 50.5423 23.0627 50.56C23.0209 50.5777 22.9842 50.6056 22.9558 50.641C22.9274 50.6764 22.9082 50.7183 22.9 50.763C22.6435 52.3917 22.8993 54.0599 23.632 55.5369C24.0882 56.3616 24.6955 57.0931 25.4222 57.6932C23.9264 57.2954 22.6374 56.9453 21.4439 56.5753C21.6468 53.9775 20.7318 51.2841 17.772 48.6187C17.7364 48.5847 17.6922 48.5611 17.6443 48.5504C17.5963 48.5397 17.5463 48.5422 17.4997 48.5578C17.4531 48.5733 17.4115 48.6013 17.3796 48.6386C17.3477 48.676 17.3265 48.7214 17.3184 48.7698C17.0151 50.3866 17.1665 52.0558 17.756 53.5916C18.1153 54.4407 18.6339 55.2131 19.2837 55.8671C17.9311 55.3858 16.7058 54.8885 15.5719 54.3554C15.8464 52.0161 15.2736 49.4979 13.0537 46.6096C13.0222 46.5679 12.9793 46.5362 12.9301 46.5184C12.881 46.5006 12.8278 46.4973 12.7769 46.5091C12.7259 46.5209 12.6795 46.5472 12.6432 46.5848C12.6069 46.6224 12.5823 46.6697 12.5723 46.721C12.0671 49.0045 12.3415 51.4671 13.6822 53.4125C12.6677 52.8561 11.6897 52.2355 10.7542 51.5547C10.9618 50.2349 10.9416 48.8893 10.6945 47.5763C10.3779 46.0846 9.87537 44.6384 9.19866 43.2718C9.17923 43.2175 9.14251 43.1711 9.0941 43.1398C9.04569 43.1085 8.98831 43.0939 8.93083 43.0985C8.87335 43.103 8.81896 43.1263 8.77606 43.1648C8.73315 43.2033 8.70414 43.2549 8.69345 43.3116C8.69345 43.411 7.58746 46.8921 9.11911 50.2577C8.29869 49.5411 7.53398 48.763 6.83158 47.9304C7.40445 45.1456 7.00663 42.5358 6.24279 39.8146C6.22838 39.757 6.19509 39.7058 6.14824 39.6692C6.10138 39.6326 6.04364 39.6127 5.98419 39.6127C5.92475 39.6127 5.867 39.6326 5.82014 39.6692C5.77329 39.7058 5.74001 39.757 5.72559 39.8146C5.12509 41.8666 5.03765 44.0346 5.47097 46.1282C5.3198 45.9054 5.16862 45.6787 5.0254 45.4519C4.7539 44.2154 4.36632 43.0072 3.86775 41.8436C3.20735 40.3716 2.05758 38.6251 1.74727 38.6251C1.67796 38.6261 1.61175 38.6541 1.56273 38.7032C1.51371 38.7522 1.48572 38.8184 1.48469 38.8877C1.48469 41.5173 2.16101 44.6324 4.42069 46.0009C4.63154 46.3351 4.85434 46.6653 5.08111 46.9875C4.3508 46.6063 3.5417 46.4006 2.71801 46.3868C1.71945 46.3868 0.816372 46.7369 0.728849 46.8841C0.704506 46.9214 0.689592 46.9641 0.685433 47.0085C0.681275 47.0528 0.687973 47.0975 0.704956 47.1387C1.3932 48.0836 2.40619 48.741 3.54946 48.9847C4.49666 49.1301 5.46571 48.9917 6.33429 48.5868C9.23448 52.0201 9.64028 50.7908 6.64062 50.6754C4.71114 50.6158 2.98056 51.4234 2.85326 51.6064C2.82871 51.6472 2.81572 51.694 2.81572 51.7416C2.81572 51.7893 2.82871 51.8361 2.85326 51.8769C3.90176 52.7626 5.22837 53.2512 6.60085 53.2574C7.89313 53.2281 9.15936 52.8884 10.2927 52.2668C14.0602 55.0237 14.092 53.7706 10.6905 54.1326C9.13837 54.29 7.64211 54.7973 6.31438 55.6165C6.28989 55.6581 6.27698 55.7055 6.27698 55.7538C6.27698 55.802 6.28989 55.8494 6.31438 55.891C6.44566 56.1456 10.3484 57.9677 15.1582 55.0953C20.0913 57.4187 19.6259 56.0661 15.4049 56.9214C13.5042 57.2937 11.6921 58.0255 10.066 59.0776C10.0426 59.1196 10.0304 59.1669 10.0304 59.2149C10.0304 59.2629 10.0426 59.3102 10.066 59.3522C10.233 59.6744 13.2486 60.1239 15.9459 59.5033C17.7474 59.0743 19.4663 58.3526 21.0342 57.367C22.16 57.721 23.3734 58.0672 24.7618 58.4292C23.5306 58.534 22.3104 58.7416 21.1137 59.0498C19.0148 59.5899 17.0235 60.4846 15.2258 61.6954C15.2013 61.737 15.1884 61.7844 15.1884 61.8326C15.1884 61.8809 15.2013 61.9283 15.2258 61.9699C15.2656 62.0415 15.3531 62.2126 17.1712 62.2126C20.8032 62.1847 24.3487 61.101 27.3756 59.0936C28.9232 59.4675 30.3951 59.8057 32.1774 60.2234C30.9401 60.3505 29.7166 60.5875 28.5214 60.9316C26.3661 61.5468 24.327 62.5132 22.4862 63.7919C22.4573 63.8318 22.4398 63.8788 22.4355 63.9279C22.4313 63.9769 22.4407 64.0262 22.4624 64.0704C22.542 64.2216 22.5499 64.2336 23.4053 64.2336C27.4667 64.2324 31.4417 63.0611 34.8548 60.8599C36.5973 61.2856 38.0892 61.6834 39.4379 62.0813C35.7911 62.3296 32.2793 63.5584 29.2733 65.6379C29.2355 65.6615 29.2042 65.6943 29.1826 65.7333C29.161 65.7723 29.1496 65.8161 29.1496 65.8607C29.1496 65.9052 29.161 65.9491 29.1826 65.9881C29.2042 66.0271 29.2355 66.0599 29.2733 66.0835C29.325 66.1153 29.3608 66.1352 30.1167 66.1352C34.2516 66.1736 38.315 65.0561 41.8487 62.9088C43.3605 63.4259 44.7052 63.9551 45.6401 64.3728C42.1233 64.2415 38.5547 65.4947 35.7778 67.3884C35.7308 67.4144 35.6931 67.4544 35.6699 67.5029C35.6467 67.5514 35.6392 67.6058 35.6484 67.6588C35.6575 67.7117 35.683 67.7604 35.7212 67.7983C35.7594 67.8361 35.8083 67.861 35.8614 67.8697C38.0386 68.4548 40.3185 68.5499 42.537 68.1482C44.5205 67.7126 46.3713 66.8097 47.9355 65.5146C49.0692 66.1262 50.158 66.8175 51.1938 67.5833Z" fill="#F67A45"/>
<path d="M53.9975 68.6216C53.7309 68.8364 53.4684 69.0512 53.2018 69.27C56.293 72.1583 58.4015 75.7746 59.6825 80.3298C59.6982 80.3851 59.7316 80.4337 59.7776 80.4682C59.8236 80.5027 59.8796 80.5212 59.9371 80.5207C60.1082 80.5207 60.136 80.4332 60.4344 80.0115C60.4558 79.979 60.4701 79.9424 60.4763 79.904C60.4825 79.8656 60.4804 79.8263 60.4702 79.7887C59.1932 75.2057 57.0807 71.5536 53.9975 68.6216Z" fill="#F67A45"/>
<path d="M44.7606 79.7887C46.714 72.8346 50.5531 68.0129 56.8269 64.6274C56.5906 62.982 56.7824 61.3036 57.3838 59.7539C58.4619 57.1601 60.9325 55.7319 61.1274 55.7319C61.1706 55.7316 61.2131 55.742 61.2512 55.7622C61.2894 55.7823 61.3221 55.8115 61.3462 55.8472C61.6426 57.5855 61.4025 59.3728 60.658 60.9713C60.1977 61.9143 59.6217 62.7963 58.9433 63.597C60.2236 63.0123 61.5329 62.4931 62.8659 62.0415C62.7164 60.5036 63.009 58.955 63.7093 57.5778C64.9028 55.4136 67.1586 54.2439 67.6161 54.0251C67.6729 53.9953 67.7387 53.9874 67.801 54.0028C67.8633 54.0182 67.9178 54.0558 67.9542 54.1087C68.2349 55.794 67.9273 57.5246 67.0829 59.01C66.5661 59.8708 65.9224 60.6487 65.1734 61.3174C66.5857 60.8917 68.1531 60.47 70.0031 60.0165C69.8041 56.6429 71.7137 54.1962 74.7134 52.6685C74.7587 52.6448 74.8095 52.6338 74.8606 52.6367C74.9198 52.6404 74.976 52.664 75.0201 52.7038C75.0642 52.7435 75.0935 52.797 75.1032 52.8555C75.3211 54.432 75.0075 56.0362 74.2121 57.4147C73.7228 58.1919 73.1038 58.8795 72.3821 59.4476C74.0013 59.0696 75.696 58.6798 77.4783 58.2541C77.2794 54.8327 79.0696 52.5373 81.9221 50.5839C81.9591 50.563 82.0004 50.551 82.0429 50.5491C82.0853 50.5471 82.1276 50.5552 82.1664 50.5726C82.2051 50.5901 82.2392 50.6164 82.2659 50.6494C82.2925 50.6825 82.3111 50.7214 82.3199 50.7629C82.5777 52.3912 82.3233 54.0594 81.5919 55.5369C81.1348 56.361 80.5276 57.0923 79.8017 57.6932C81.2975 57.2953 82.5865 56.9452 83.78 56.5753C83.6693 55.1792 83.9086 53.7777 84.4762 52.4975C85.2198 51.0374 86.2273 49.7276 87.448 48.6345C87.4835 48.6006 87.5277 48.577 87.5757 48.5663C87.6236 48.5556 87.6736 48.5581 87.7202 48.5736C87.7669 48.5892 87.8084 48.6171 87.8403 48.6545C87.8723 48.6919 87.8934 48.7372 87.9015 48.7857C88.2068 50.4021 88.0566 52.0715 87.4678 53.6074C87.1073 54.4568 86.5874 55.2293 85.9362 55.883C87.2888 55.4017 88.5182 54.9043 89.648 54.3713C89.3815 52.0519 89.9344 49.5336 92.1663 46.6255C92.1978 46.5838 92.2407 46.5521 92.2898 46.5343C92.3389 46.5164 92.3922 46.5132 92.4431 46.525C92.494 46.5368 92.5404 46.5631 92.5767 46.6007C92.613 46.6383 92.6376 46.6856 92.6476 46.7369C93.1529 49.0125 92.8864 51.475 91.5417 53.4284C92.5549 52.8719 93.5316 52.2514 94.4657 51.5705C94.1037 49.3268 94.3623 46.7528 95.9894 43.3672C96.0086 43.3166 96.034 43.2685 96.065 43.224C96.0968 43.1852 96.139 43.1563 96.1866 43.1408C96.2343 43.1252 96.2854 43.1236 96.3339 43.1361C96.3825 43.1487 96.4264 43.1749 96.4605 43.2116C96.4946 43.2483 96.5175 43.294 96.5265 43.3434C97.0755 45.7502 97.1073 48.0736 96.1048 50.2895C96.9228 49.5703 97.6874 48.7925 98.3923 47.9622C97.8115 45.1774 98.2213 42.5557 98.9811 39.8464C98.9968 39.7905 99.0304 39.7412 99.0767 39.7061C99.1231 39.671 99.1796 39.652 99.2377 39.652C99.2958 39.652 99.3523 39.671 99.3987 39.7061C99.445 39.7412 99.4786 39.7905 99.4943 39.8464C100.099 41.8976 100.188 44.0663 99.7529 46.16C99.9041 45.9372 100.051 45.7105 100.195 45.4837C101.102 41.3542 103.131 38.6569 103.473 38.6569C103.509 38.6568 103.546 38.6643 103.579 38.6789C103.613 38.6935 103.643 38.715 103.669 38.7419C103.694 38.7688 103.713 38.8005 103.725 38.8352C103.737 38.8699 103.742 38.9067 103.739 38.9433C103.739 41.581 103.067 44.6602 100.799 46.0327C100.588 46.3669 100.37 46.6971 100.143 47.0193C100.573 46.812 101.024 46.6493 101.487 46.534C102.916 46.1998 104.364 46.709 104.511 46.9318C104.532 46.9711 104.542 47.0148 104.542 47.0591C104.542 47.1034 104.532 47.1471 104.511 47.1864C103.826 48.1327 102.813 48.7906 101.67 49.0324C100.723 49.1785 99.754 49.0401 98.8856 48.6345C98.1487 49.4868 97.351 50.2846 96.4987 51.0215C97.2517 50.829 98.0249 50.7262 98.8021 50.7152C100.048 50.6926 101.276 51.0148 102.351 51.6461C102.376 51.6866 102.39 51.7335 102.39 51.7814C102.39 51.8292 102.376 51.8761 102.351 51.9166C102.271 52.0758 100.668 53.2971 98.6071 53.2971C97.3147 53.269 96.0482 52.9291 94.9153 52.3065C91.1359 55.0913 91.1279 53.8143 94.5175 54.1723C96.0698 54.3287 97.5663 54.8362 98.8936 55.6563C98.9198 55.6972 98.9338 55.7449 98.9338 55.7935C98.9338 55.8422 98.9198 55.8898 98.8936 55.9308C98.7663 56.1814 96.5384 57.0049 94.2111 56.6628C92.742 56.4294 91.3309 55.9176 90.0537 55.155C85.1206 57.4783 85.5781 56.1257 89.8071 56.981C91.7064 57.3539 93.5171 58.0857 95.142 59.1373C95.1665 59.1789 95.1794 59.2263 95.1794 59.2745C95.1794 59.3228 95.1665 59.3702 95.142 59.4118C95.0028 59.6783 93.2126 59.8812 92.1185 59.8812C89.2892 59.8216 86.533 58.9713 84.1619 57.4266C83.036 57.7807 81.8266 58.1268 80.4382 58.4888C81.6694 58.5939 82.8896 58.8015 84.0863 59.1094C86.1853 59.6495 88.1766 60.5443 89.9742 61.755C89.9995 61.7963 90.013 61.8438 90.013 61.8923C90.013 61.9407 89.9995 61.9882 89.9742 62.0295C89.7952 62.3836 86.2505 62.4273 83.3821 61.6556C81.4133 61.0981 79.5368 60.255 77.8125 59.1532C76.2649 59.5272 74.8128 59.8613 73.0146 60.2831C74.2519 60.4102 75.4755 60.6472 76.6707 60.9912C78.8252 61.6051 80.8632 62.5717 82.7018 63.8516C82.7325 63.8906 82.7511 63.9378 82.7554 63.9873C82.7596 64.0368 82.7493 64.0864 82.7257 64.1301C82.6501 64.2813 82.6422 64.2932 81.7868 64.2932C77.7254 64.2927 73.7501 63.1214 70.3372 60.9196C68.5947 61.3453 67.0989 61.7431 65.7542 62.1409C69.4009 62.3892 72.9128 63.6181 75.9188 65.6975C75.9566 65.7211 75.9878 65.754 76.0094 65.7929C76.0311 65.8319 76.0424 65.8757 76.0424 65.9203C76.0424 65.9649 76.0311 66.0087 76.0094 66.0477C75.9878 66.0867 75.9566 66.1195 75.9188 66.1431C75.708 66.2664 72.1712 66.2704 68.9687 65.419C66.9546 64.8735 65.0293 64.0415 63.2518 62.9485C61.8037 63.4418 60.3755 64.0028 59.4605 64.4125C60.7332 64.3596 62.0071 64.4787 63.2478 64.7666C65.4104 65.2952 67.4647 66.1958 69.3188 67.4281C69.3657 67.4539 69.4035 67.4936 69.427 67.5417C69.4504 67.5899 69.4582 67.6441 69.4495 67.697C69.4408 67.7498 69.4159 67.7986 69.3782 67.8367C69.3405 67.8748 69.292 67.9002 69.2392 67.9095C67.9051 68.2576 66.5323 68.4354 65.1535 68.4386C62.2299 68.472 59.3929 67.4477 57.165 65.5543C51.0503 68.8643 47.3147 73.5746 45.4051 80.3656C45.3919 80.4138 45.3652 80.4573 45.3281 80.4909C45.291 80.5244 45.2451 80.5467 45.1957 80.5551C45.1464 80.5634 45.0957 80.5575 45.0497 80.538C45.0036 80.5186 44.9641 80.4864 44.9357 80.4452L44.6532 80.0473C44.6444 79.9985 44.6498 79.9481 44.6689 79.9022C44.6879 79.8564 44.7198 79.817 44.7606 79.7887Z" fill="#F67A45"/>
</g>
<defs>
<clipPath id="clip0_1898_81">
<rect width="103.906" height="80" fill="white" transform="translate(0.66861 0.520752)"/>
</clipPath>
</defs>
</svg>
