<svg width="102" height="81" viewBox="0 0 102 81" fill="none" xmlns="http://www.w3.org/2000/svg">
<g clip-path="url(#clip0_1898_104)">
<path d="M28.6164 40.3767C28.7469 40.3767 28.6974 40.7684 28.7469 30.1381L27.5042 30.0705C27.5042 29.5122 27.5042 28.8684 27.5313 28.2695C33.434 28.1705 35.4151 28.1434 36.8469 28.8053C37.3594 29.0473 37.7972 29.423 38.1142 29.8929C38.4311 30.3628 38.6155 30.9094 38.6478 31.4753C38.6478 32.9341 37.5223 34.0687 36.1445 34.5775V34.7486C40.7685 35.5455 40.8856 42.2587 33.443 42.2272C32.2859 42.2272 33.1323 42.2272 27.4142 42.1777C27.4142 41.6239 27.4142 40.98 27.4412 40.4217L28.6164 40.3767ZM32.2183 39.967C32.2183 40.4397 32.6686 40.5478 33.1593 40.5523C36.5857 40.5523 36.3381 36.0138 32.8352 35.9958C32.6433 35.9841 32.4508 35.9841 32.2589 35.9958L32.2183 39.967ZM32.2858 34.2533C32.4649 34.2766 32.6456 34.2856 32.8262 34.2803C35.9779 34.2803 35.7753 29.9355 33.0603 29.922C32.814 29.9098 32.5671 29.931 32.3264 29.985L32.2858 34.2533Z" fill="#F67A45"/>
<path d="M42.2229 40.3947C42.358 40.3947 42.3085 40.8854 42.358 30.2235L41.1333 30.174C41.1333 29.5527 41.1334 28.9043 41.1649 28.328C51.7952 28.382 50.2284 28.328 51.1244 28.328C51.2054 29.5932 51.2639 30.8854 51.3 32.1506C50.6786 32.2136 49.9492 32.2947 49.2153 32.3577L48.8776 30.7233C48.8371 30.5297 48.7516 30.3991 48.4274 30.3541C47.6091 30.2513 46.7846 30.2046 45.96 30.2145V34.2667C46.6263 34.2667 47.2297 34.2668 47.8285 34.2352C47.9591 34.2352 48.0897 34.0867 48.1122 33.83L48.2428 33.0331C48.9316 33.0331 49.6385 33.0331 50.2599 33.0646C50.2599 33.5464 50.2013 36.6306 50.1968 37.4005C49.5755 37.4005 48.8461 37.459 48.1797 37.4545C48.0897 36.5225 48.1122 36.1443 47.7565 36.1443C47.1577 36.1173 46.5543 36.0948 45.9555 36.0948V39.8948C45.9555 40.3001 46.1041 40.3451 47.0676 40.3451C47.6368 40.3609 48.2061 40.3141 48.7651 40.2055C48.8626 40.1854 48.9525 40.1386 49.0249 40.0702C49.0973 40.0018 49.1492 39.9146 49.1747 39.8183L49.8051 38.1074C50.5345 38.2154 51.2639 38.3505 51.9078 38.5036C51.6466 39.7463 51.381 41.0115 51.0973 42.2767C49.6745 42.2406 41.8853 42.2136 41.1154 42.2091C41.1154 41.6328 41.1423 40.9844 41.1423 40.4081L42.2229 40.3947Z" fill="#F67A45"/>
<path d="M56.5227 40.0525C56.9373 40.3388 57.433 40.484 57.9365 40.4667C59.0531 40.4667 59.9356 40.0164 59.9401 38.8863C59.9446 37.7562 59.4133 37.5986 57.7609 36.9683C55.5952 36.1443 53.9293 34.8251 53.9383 32.7225C53.9436 32.1164 54.0775 31.5184 54.3313 30.9681C54.5852 30.4177 54.9531 29.9276 55.4106 29.5302C57.3917 27.7292 61.6825 28.0579 62.8442 28.5982C62.9657 29.8859 63.0468 31.2141 63.1278 32.5064C62.4615 32.6099 61.6645 32.6909 60.9351 32.7765L60.4489 30.7774C60.2012 30.0164 57.4277 29.9309 57.4187 31.8805C57.4187 32.9521 57.8689 33.1682 59.859 33.8661C62.2138 34.6901 63.461 35.8967 63.461 37.9183C63.4695 38.5738 63.3294 39.2226 63.0509 39.8161C62.7725 40.4096 62.3632 40.9323 61.8537 41.3447C60.8001 42.1552 59.4043 42.5558 57.2971 42.5468C56.1869 42.558 55.081 42.4063 54.0148 42.0966C53.8527 40.7459 53.7042 39.3951 53.5646 38.1029C54.2535 37.9543 55.0909 37.8103 55.8158 37.7247C56.4372 40.0165 56.3967 39.9715 56.5227 40.0525Z" fill="#F67A45"/>
<path d="M69.2513 40.4757C69.3504 40.4757 69.3143 41.016 69.3594 30.3857C68.8637 30.3763 68.3681 30.4095 67.878 30.4848C67.7724 30.4939 67.6734 30.54 67.5985 30.6149C67.5235 30.6899 67.4774 30.7888 67.4683 30.8944L67.0541 32.9746C66.3247 32.907 65.4872 32.8395 64.8029 32.772C64.8974 31.3087 64.9875 29.8499 65.082 28.4136C65.3837 28.4136 62.8758 28.4136 77.3828 28.4676C77.4593 29.9084 77.5403 31.3672 77.5538 32.808C76.8695 32.889 76.032 32.9476 75.3026 33.0106L74.9694 30.9485C74.9603 30.8429 74.9142 30.7439 74.8392 30.6689C74.7643 30.594 74.6653 30.5479 74.5597 30.5388C74.0668 30.4368 73.5631 30.3975 73.0604 30.4217L72.9704 40.4892L74.5147 40.5613C74.5147 41.1646 74.5147 41.786 74.4877 42.4073C73.5872 42.4073 72.277 42.3758 71.1604 42.3713C70.1293 42.3713 68.8596 42.3713 67.788 42.3713C67.788 41.7499 67.788 41.1241 67.8195 40.5252L69.2513 40.4757Z" fill="#F67A45"/>
<path d="M19.6997 33.2448L20.2895 34.4649L21.6313 34.663L20.6542 35.6086L20.8793 36.9413L19.6817 36.3064L18.4795 36.9323L18.7137 35.5995L17.7501 34.645L19.0919 34.4604L19.6997 33.2448Z" fill="#F67A45"/>
<path d="M83.0903 33.4609L83.6846 34.6765L85.0264 34.8792L84.0493 35.8202L84.2745 37.1574L83.0768 36.5226L81.8747 37.1484L82.1088 35.8157L81.1407 34.8611L82.487 34.672L83.0903 33.4609Z" fill="#F67A45"/>
<path d="M27.2821 14.4784L27.1426 14.6721L26.1025 14.0912C25.8636 14.2331 25.6467 14.409 25.4586 14.6135C23.8603 16.32 26.3591 18.6657 27.8089 18.8188C28.1756 18.8545 28.5447 18.7818 28.8704 18.6098C29.1961 18.4377 29.4642 18.1738 29.6414 17.8508C28.2366 16.5316 28.2907 16.5406 28.1556 16.6126L27.6468 16.9143L27.4848 16.7792C27.9845 16.2749 28.7274 15.487 29.2047 14.9467L29.3758 15.0727C29.0381 15.7121 29.0201 15.568 29.3758 15.9327C30.7265 17.2069 30.6049 17.0494 30.6049 17.1349C29.2542 19.4897 27.003 20.7369 25.1255 18.9629C23.2479 17.1889 24.1124 14.7981 26.3501 13.2988C26.4402 13.2808 26.3276 13.1502 27.2821 14.4784Z" fill="#F67A45"/>
<path d="M27.8593 11.7769C28.5392 11.3267 29.3767 10.7504 29.971 10.3091L30.1106 10.4712L29.7549 10.9215C29.6513 11.034 29.5838 10.8809 31.4433 13.5554C32.1367 14.5594 32.7941 15.0773 33.7846 14.3794C34.7752 13.6815 34.5771 12.8621 33.9107 11.9075C32.56 9.96696 32.5194 9.8949 32.3483 9.65626C32.0511 9.25104 32.2043 9.28257 31.4884 9.5257L31.3488 9.35461C31.9161 8.9854 32.2808 8.73777 32.9156 8.26501L33.0552 8.4271L32.6815 8.87734C32.5914 8.98991 32.5239 8.84582 34.2754 11.3717C35.2389 12.7585 35.302 13.9291 33.9107 14.8972C32.5194 15.8652 31.3893 15.6626 30.4213 14.2713C28.5798 11.6104 28.6788 11.7094 28.5437 11.7499L27.9899 11.939L27.8593 11.7769Z" fill="#F67A45"/>
<path d="M36.6618 10.9259C36.7564 12.7269 36.6393 12.5063 37.4002 12.4073L37.4993 12.6009C36.7564 12.907 36.3422 13.0917 35.7658 13.3618L35.6622 13.1817C36.0494 12.8485 36.1395 12.7945 36.171 12.6414C36.2025 12.4883 36.1981 12.5423 36.0495 6.78817L36.4367 6.54504C40.5249 10.8809 40.3628 10.8494 40.7546 10.7909L41.1778 10.7368L41.2724 10.9259C40.6465 11.1871 39.8721 11.5248 38.8815 11.9795L38.778 11.7949C39.3723 11.2952 39.4624 11.5383 38.2332 10.2236L36.6618 10.9259ZM36.5222 8.36403C36.5537 8.78727 36.5582 8.87733 36.6393 10.4577L37.918 9.89489C37.0625 8.96738 36.7563 8.62518 36.5222 8.36403Z" fill="#F67A45"/>
<path d="M43.0827 10.021C43.1277 10.1966 43.1952 10.1606 43.668 10.2056L43.7265 10.4037C43.0287 10.5433 42.0111 10.7774 41.3312 10.944L41.2637 10.7459C41.768 10.4757 41.8805 10.4577 41.8625 10.2956C41.8085 10.039 41.7724 9.84537 41.6869 9.48517C40.7279 5.24834 40.8135 5.43294 40.6649 5.43294L40.084 5.39694L40.0255 5.18982C42.2317 4.73957 43.3303 4.21279 44.2803 4.57749C44.454 4.66084 44.6092 4.77816 44.7367 4.92251C44.8642 5.06686 44.9614 5.23531 45.0227 5.41791C45.084 5.60051 45.108 5.79356 45.0934 5.98561C45.0788 6.17766 45.0259 6.36482 44.9377 6.53605C44.7446 6.86775 44.4643 7.14024 44.1273 7.32399C45.9913 9.07995 45.9643 9.48967 46.8693 9.45816L46.9323 9.66528C46.4567 9.84625 45.958 9.95991 45.451 10.003C44.7801 9.93993 44.4334 9.28257 43.0647 7.89581C42.9161 7.74723 42.8035 7.79225 42.5919 7.83728C43.0016 9.6968 42.9702 9.57072 43.0827 10.021ZM42.5109 7.51759C42.9611 7.44105 43.4609 7.3465 43.686 6.95929C43.8058 6.65395 43.8325 6.31998 43.7628 5.99949C43.6931 5.67899 43.5301 5.3863 43.2943 5.1583C42.9206 4.90616 42.3938 5.05025 41.9886 5.19883L42.5109 7.51759Z" fill="#F67A45"/>
<path d="M48.1208 7.83728C47.5355 9.53922 47.504 9.29157 48.2469 9.48517V9.70131C47.531 9.70131 47.0582 9.70131 46.3558 9.75534L46.3243 9.54822C46.7746 9.39513 46.9097 9.37712 46.9997 9.24205C47.0898 9.10698 47.0628 9.17001 49.0934 3.78505L49.5436 3.70401C51.7228 9.33211 51.5607 9.1655 51.9389 9.26456L52.3532 9.37712V9.58424C51.5247 9.58424 50.5522 9.62026 49.7417 9.66078L49.7147 9.44917C50.4531 9.21054 50.4486 9.44917 49.8002 7.78776L48.1208 7.83728ZM48.9583 5.41044C48.8412 5.77964 48.8277 5.80667 48.2784 7.39605L49.6742 7.35551C49.2509 6.21639 49.0798 5.76163 48.9583 5.41044Z" fill="#F67A45"/>
<path d="M53.618 9.27807C53.618 9.44016 53.6856 9.43566 54.1989 9.67429V9.8904C53.4605 9.74632 53.1768 9.69679 52.3574 9.57522V9.36813C52.8706 9.3141 53.0372 9.34111 53.0687 9.20154C53.1678 8.69276 53.1588 8.71524 53.7757 5.09525C53.8927 4.42438 53.9377 4.32083 53.8071 4.2578L53.2848 4.00115V3.78955C53.8927 3.91112 54.3204 3.99216 54.9373 4.0687C56.9724 7.75623 57.1885 8.15696 57.3596 8.46763C57.8099 5.20784 58.053 5.04574 57.8099 4.93768L57.3056 4.70354L57.3326 4.48292C58.071 4.6315 58.4537 4.69454 59.1741 4.79359V5.0097C58.5798 5.07724 58.4987 5.04574 58.4672 5.19432C58.3907 5.55002 58.4132 5.43295 57.5667 10.4577L57.085 10.4217C54.433 5.62655 54.5411 5.83367 54.2709 5.30238C54.1809 5.99576 53.7261 8.53516 53.618 9.27807Z" fill="#F67A45"/>
<path d="M59.3634 11.0521L59.4219 10.8495C60.1108 10.917 60.2009 10.962 60.2594 10.827C60.4395 10.3767 60.6331 9.87242 62.0018 6.25693L60.8762 5.80668L60.1244 6.70718L59.8902 6.65766L60.3405 5.15833C60.444 5.1043 61.0698 5.478 65.1626 6.95932C65.1626 7.01785 65.2617 6.85576 64.3747 8.31006L64.1405 8.26054L64.2982 7.0854L63.168 6.65766C61.277 11.6464 61.367 11.2952 61.4976 11.3988L62.0469 11.804L61.9839 12.0021C61.1149 11.7004 60.2639 11.3763 59.3634 11.0521Z" fill="#F67A45"/>
<path d="M69.909 9.7058C69.909 9.76884 70.0216 9.63375 69.0085 10.8179L68.7969 10.7324L69.0851 9.7193L67.6938 8.89533L66.5591 10.8044C66.8788 10.9935 67.0769 11.1106 67.4326 11.3132C67.5677 11.3852 67.6037 11.3132 68.036 10.8629L68.2791 10.9935C67.8649 11.6644 67.7568 11.8354 67.3786 12.5423L67.131 12.4208C67.284 11.8715 67.3606 11.7454 67.2435 11.6689C66.8653 11.4347 66.6267 11.2907 66.3746 11.1421C65.7262 12.2362 65.5101 12.6009 65.1859 13.1637L66.6267 14.0192L67.6397 13.3393L67.8784 13.4383L66.9779 14.7306C66.8833 14.7576 65.2535 13.6905 63.2814 12.5784L63.3714 12.3848L63.9297 12.5378C64.0648 12.5738 64.0783 12.5108 64.2899 12.1686C64.3304 12.0966 66.3025 8.79178 66.5681 8.30551C66.6402 8.17494 66.5682 8.15245 66.154 7.7067L66.253 7.51758C67.185 8.12991 69.1841 9.29157 69.909 9.7058Z" fill="#F67A45"/>
<path d="M74.5094 13.4113C74.5094 13.4744 74.631 13.3528 73.4108 14.3478L73.2172 14.2262L73.6674 13.2807L72.4293 12.2317L70.993 13.9291C71.2812 14.1678 71.3982 14.2713 71.7674 14.5729C71.889 14.6675 71.9385 14.5729 72.4338 14.2398L72.6544 14.4064C72.0916 15.0412 71.97 15.1943 71.4883 15.7841L71.2631 15.6221C71.5153 15.0953 71.6098 14.9917 71.5063 14.8972C71.1821 14.609 70.9614 14.4469 70.7363 14.2353C70.0249 15.0682 69.6332 15.5275 69.2235 16.0363L70.5022 17.1169L71.6143 16.6216L71.835 16.7567L70.7453 17.8868C70.6553 17.8868 69.1154 16.4865 67.463 15.1403L67.5801 14.9692L68.1114 15.2123C68.233 15.2708 68.2599 15.2123 68.5256 14.9061C68.5931 14.8251 71.1416 11.8309 71.4207 11.4797C71.5108 11.3672 71.4568 11.3447 71.1101 10.8224L71.2406 10.6513C72.042 11.3762 73.6584 12.7134 74.5094 13.4113Z" fill="#F67A45"/>
<path d="M71.2227 18.2785L71.3713 18.1299C71.8215 18.4496 71.9025 18.5802 72.0151 18.4811C72.1277 18.3821 72.4654 18.1434 72.668 17.9678C75.8197 15.3969 75.9278 15.46 75.8557 15.2664L75.6351 14.7261L75.7927 14.582C77.2425 16.518 78.5753 17.5356 78.5302 19.0394C78.5034 19.4074 78.3945 19.7646 78.2113 20.0849C78.0282 20.4051 77.7756 20.6802 77.4722 20.8899C77.1465 21.1843 76.7639 21.4085 76.3479 21.5487C75.932 21.6889 75.4916 21.7421 75.0543 21.7049C73.3929 21.5203 72.704 20.0525 71.2227 18.2785ZM72.758 19.4987C73.6585 21.1916 74.8877 21.1736 76.36 19.9804C77.5036 19.0799 78.0664 18.0894 77.1524 16.9503C77.0039 16.7657 76.8373 16.5721 76.6527 16.3785L72.758 19.4987Z" fill="#F67A45"/>
<path d="M38.3326 55.8472L38.112 55.7796L38.3731 54.564C38.1057 54.2674 37.7506 54.0638 37.3595 53.9828C36.9684 53.9018 36.5617 53.9477 36.1985 54.1137C35.1719 54.6315 34.3074 56.2479 34.5866 57.468C34.8342 58.5351 35.8608 59.0754 36.9504 59.206L36.8919 59.4401C34.7082 59.7193 32.2633 57.6391 33.5915 55.0367C34.5595 53.1367 36.7433 52.5739 39.2376 54.618C39.2421 54.69 39.3412 54.5505 38.3326 55.8472Z" fill="#F67A45"/>
<path d="M40.6286 58.1524C40.2188 59.6383 40.1108 60.0255 40.0072 60.4442C39.9757 60.5883 40.0432 60.5973 40.5025 60.8944L40.462 61.0971C39.7911 60.8945 38.7375 60.6108 38.0216 60.4307L38.0577 60.2236C38.598 60.2236 38.7375 60.2596 38.778 60.1245C38.9086 59.7058 39.9307 55.9777 40.0657 55.4374C40.0973 55.3024 40.0658 55.3024 39.5074 54.9872L39.5525 54.7801C40.3674 55.0277 41.376 55.3024 41.9838 55.4464L41.9523 55.6581H41.4255C41.2634 55.6581 41.3129 55.631 40.7366 57.7427L43.141 58.4001C43.4832 57.1394 43.5912 56.7927 43.6767 56.41C43.7038 56.2839 43.6362 56.2749 43.1725 55.9867L43.213 55.7796C43.8298 55.9687 44.8249 56.2299 45.6533 56.4505L45.6173 56.6576C44.996 56.6576 44.9374 56.6576 44.8924 56.7747C44.7753 57.1394 43.7353 60.9395 43.6092 61.4572C43.5822 61.6013 43.7127 61.6328 44.1675 61.9075L44.127 62.1101C43.5011 61.9255 42.3845 61.6149 41.6866 61.4438L41.7227 61.2366H42.2449C42.407 61.2366 42.353 61.2862 43.0239 58.8368L40.6286 58.1524Z" fill="#F67A45"/>
<path d="M52.1454 59.5032C52.0688 61.3762 50.8756 62.6549 48.7865 62.5783C46.8279 62.4973 45.7969 61.2726 45.8689 59.4266C45.9409 57.5806 47.1251 56.3425 49.2188 56.428C51.2134 56.5361 52.2309 57.7427 52.1454 59.5032ZM47.2782 59.3591C47.2196 60.7594 47.5528 62.1281 48.9441 62.1821C50.3353 62.2362 50.6775 60.9755 50.7451 59.5842C50.8126 58.193 50.4794 56.8828 49.0701 56.8287C47.6609 56.7747 47.3322 57.9903 47.2782 59.3726V59.3591Z" fill="#F67A45"/>
<path d="M55.1308 60.8179C55.1308 61.025 55.2074 61.4347 55.2389 61.6373C55.2389 61.7679 55.3514 61.7589 55.9277 61.8444L55.9638 62.0516C55.1353 62.1371 54.1087 62.2677 53.3928 62.3713L53.3478 62.1642C53.8746 61.948 53.9827 61.9435 53.9782 61.7994C53.9196 61.2051 53.4649 57.5446 53.3839 56.9773C53.3839 56.8377 53.3118 56.8602 52.6905 56.7612L52.6544 56.5495C53.3748 56.482 54.3924 56.3604 55.2254 56.2344L55.2704 56.4415L54.7346 56.6621C54.5905 56.7161 54.595 56.4865 55.1308 60.8179Z" fill="#F67A45"/>
<path d="M60.5743 56.5316L60.3627 56.6261L59.7414 55.5545C59.3438 55.5154 58.944 55.6038 58.6 55.807C58.256 56.0102 57.9855 56.3175 57.8278 56.6846C57.4136 57.7697 57.8684 59.5392 58.8904 60.2506C59.7909 60.8765 60.912 60.5793 61.808 59.9444L61.9251 60.1605C60.4708 61.8625 57.2785 61.912 56.5221 59.1205C55.9548 57.0403 57.256 55.1583 60.4212 55.0142C60.4662 55.0638 60.4393 54.8837 60.5743 56.5316Z" fill="#F67A45"/>
<path d="M64.6256 52.9656C64.6841 52.9926 64.6256 52.8395 65.0218 54.3568L64.8327 54.4829L64.1573 53.677L62.694 54.3658L63.6395 56.374C63.9772 56.2164 64.1483 56.1354 64.54 55.9237C64.6841 55.8517 64.6121 55.7256 64.513 55.1808L64.7561 55.0502C65.0668 55.7526 65.1794 55.9867 65.5261 56.6801L65.2829 56.8197C64.9137 56.3695 64.8327 56.2479 64.7246 56.3019C64.3239 56.4775 64.0493 56.6081 63.8241 56.7251C64.5445 58.2515 64.5716 58.3145 64.8327 58.8458L66.3455 58.1299V56.9098L66.5571 56.7702L67.1335 58.229C67.1019 58.3145 65.1164 59.1565 63.2749 60.075L63.1668 59.8949C63.7836 59.3681 63.7386 59.5257 63.5045 58.9944C63.4189 58.8188 61.7845 55.3249 61.5864 54.9422C61.5189 54.8116 61.4784 54.8521 60.8615 54.9422L60.7579 54.753C61.7665 54.3478 63.6351 53.4518 64.6256 52.9656Z" fill="#F67A45"/>
<path d="M46.144 72.9386C44.0421 73.0934 41.9298 73.0315 39.8406 72.754L37.837 65.2529L34.1315 64.5775L36.1215 72.0336C34.3093 71.5689 32.5408 70.9482 30.8356 70.1785L30.6195 62.3938L27.1931 60.6513L27.4092 68.4001C25.764 67.4186 24.1997 66.3075 22.7312 65.0773L24.3025 57.5176L21.3894 54.8161L19.8226 62.3577C18.4552 60.9376 17.1955 59.4176 16.054 57.8103L19.3138 50.944L17.1166 47.5041L13.8613 54.3568C12.8594 52.5904 11.988 50.753 11.2544 48.8593L16 43.1547L14.6492 39.188L9.92164 44.8701C9.35607 42.8746 8.93919 40.8399 8.67444 38.7828L14.5637 34.6585L14.1855 30.4352L8.33225 34.5504C8.25242 32.4638 8.31714 30.3742 8.52588 28.2965L15.1625 26.0453L15.7613 21.8535L9.15168 24.1047C9.55049 22.0764 10.0906 20.0784 10.7681 18.1254L17.6929 17.8823L19.2327 14.0101L12.3305 14.2533C12.9334 12.9438 13.6036 11.6664 14.3385 10.4262L18.7645 10.4847L20.4214 0.502747L12.2899 4.83413L13.4201 9.48967C12.6005 10.8526 11.8594 12.2612 11.2003 13.7085L6.74737 7.67068L5.20756 11.5428L9.64699 17.5581C8.92436 19.6302 8.35254 21.7519 7.93603 23.9066L2.25391 19.3951L1.65059 23.5869L7.3237 28.0894C7.09704 30.2909 7.02784 32.5057 7.1166 34.717L0.588013 32.0155L0.970712 36.2389L7.47677 38.9404C7.75792 41.1252 8.2004 43.2863 8.80053 45.4059L1.87571 44.6945L3.22646 48.6612L10.1287 49.3726C10.9055 51.3888 11.8295 53.3452 12.8933 55.2258L6.04051 56.5766L8.23321 60.0165L15.0679 58.6657C16.273 60.3845 17.6114 62.0059 19.0706 63.5149L12.7672 66.8107L15.6758 69.5122L21.9793 66.2254C23.5336 67.5404 25.1998 68.717 26.959 69.7418L21.6191 74.7666L25.0454 76.5091L30.3764 71.4888C32.1868 72.2964 34.0639 72.9457 35.9865 73.4294L31.9793 79.8499L35.6848 80.5297L39.6785 74.1317C41.8631 74.4236 44.0721 74.4885 46.2701 74.3254L46.144 72.9386Z" fill="#F67A45"/>
<path d="M56.0678 72.9386C58.1697 73.0934 60.282 73.0316 62.3712 72.754L64.3748 65.2529L68.0803 64.5775L66.0903 72.0336C67.9037 71.5682 69.6737 70.9475 71.3807 70.1785L71.5923 62.3938L75.0187 60.6513L74.8071 68.4001C76.4509 67.4186 78.0137 66.3075 79.4806 65.0773L77.9138 57.5176L80.8224 54.8161L82.3892 62.3577C83.7579 60.9387 85.0176 59.4186 86.1578 57.8103L82.898 50.944L85.0952 47.5041L88.3505 54.3568C89.3524 52.5904 90.2238 50.753 90.9575 48.8593L86.2118 43.1547L87.5626 39.188L92.2857 44.8701C92.8527 42.875 93.2696 40.8402 93.5329 38.7828L87.6436 34.6585L88.0218 30.4352L93.875 34.5504C93.9511 32.4637 93.885 30.3742 93.677 28.2965L87.0448 26.0453L86.4415 21.8535L93.0511 24.1047C92.6538 22.0765 92.1152 20.0785 91.4392 18.1254L84.5099 17.8823L82.9701 14.0101L89.8768 14.2533C89.2724 12.9438 88.6007 11.6663 87.8643 10.4262L83.4383 10.4847L81.7814 0.502747L89.9128 4.83413L88.7828 9.48967C89.6023 10.8526 90.3434 12.2612 91.0025 13.7085L95.4554 7.67068L96.9953 11.5428L92.5559 17.5581C93.2785 19.6302 93.8503 21.7519 94.2668 23.9066L99.9534 19.3771L100.557 23.5689L94.8881 28.0714C95.1103 30.2731 95.1795 32.4877 95.0952 34.6991L101.619 31.9976L101.241 36.2209L94.7305 38.9224C94.4508 41.1075 94.0083 43.2687 93.4068 45.3879L100.332 44.6765L98.9808 48.6432L92.0786 49.3546C91.3018 51.3708 90.3778 53.3271 89.314 55.2078L96.1713 56.5586L93.9741 59.9985L87.1394 58.6477C85.9343 60.3665 84.5959 61.9879 83.1367 63.4969L89.4401 66.7927L86.527 69.4942L80.2236 66.2074C78.6766 67.5195 77.0196 68.6959 75.2708 69.7238L80.6108 74.7486L77.1844 76.491L71.8489 71.4708C70.0387 72.2791 68.1616 72.9284 66.2388 73.4113L70.2461 79.8319L66.5405 80.5118L62.5468 74.1137C60.3622 74.4055 58.1532 74.4704 55.9552 74.3073L56.0678 72.9386Z" fill="#F67A45"/>
</g>
<defs>
<clipPath id="clip0_1898_104">
<rect width="101.058" height="80" fill="white" transform="translate(0.574341 0.520752)"/>
</clipPath>
</defs>
</svg>
