<svg width="121" height="81" viewBox="0 0 121 81" fill="none" xmlns="http://www.w3.org/2000/svg">
<g clip-path="url(#clip0_1898_130)">
<path d="M32.7736 33.4499C30.0875 34.7147 28.7163 37.1337 30.2154 39.5445C30.5531 40.0889 30.9727 39.8802 30.8448 39.4177C30.062 36.8635 30.9881 34.6983 33.403 33.6873C35.9612 34.5305 39.2152 34.42 41.6762 33.7405C47.8158 36.1186 47.9182 43.8259 40.5915 48.2506C37.1328 50.3504 32.8606 50.6615 31.6276 47.2232C30.0057 42.5489 36.9486 34.8334 41.0622 35.8403C41.405 35.9262 41.666 35.7134 41.272 35.5456C36.1096 33.2207 27.5959 41.6852 30.502 47.477C32.2313 50.9766 37.2095 50.7515 40.6426 48.9669C48.2252 44.9679 50.3178 35.8362 43.293 33.1756C47.3503 31.4197 49.1768 27.916 50.4559 25.0999C52.2202 25.228 53.9969 25.1936 55.7514 24.9976C56.5649 24.8298 56.5905 24.5351 55.7002 24.5883C54.0562 24.6443 52.4093 24.6018 50.7731 24.4614C51.5048 23.0984 52.5793 20.5811 54.2574 19.0503C54.7691 19.2181 57.3273 20.4542 60.3971 20.8554C62.1827 21.0641 63.5692 20.4461 63.7278 19.5742C63.8864 19.0503 63.6204 18.8006 63.2572 19.4719C62.2339 21.1705 56.4165 19.4064 54.6616 18.6737C54.8504 18.4959 55.0972 18.3635 55.3745 18.2912C55.6518 18.219 55.9488 18.2097 56.2324 18.2644C56.8105 18.7883 56.9128 17.9288 56.2324 17.761C55.8264 17.6807 55.3995 17.6997 55.0072 17.8158C54.6149 17.9318 54.2753 18.1395 54.0323 18.4118C51.8479 17.3311 49.4826 16.5043 47.0075 15.9559C38.3863 14.0076 33.8788 20.8676 38.2277 22.8323C40.3254 23.7983 43.6255 23.0452 44.3674 21.0109C44.6795 20.2537 43.9479 20.6343 43.9223 21.0928C43.9223 21.6822 41.0929 23.6714 38.4426 22.3534C36.0584 21.1583 39.3891 15.8945 46.5419 16.7541C49.1001 17.0488 51.4434 17.8674 53.669 18.7474C52.1555 20.4614 50.8824 22.3035 49.8727 24.2404C47.3554 23.8843 44.5772 23.7983 43.3697 25.9349C43.2418 26.1682 43.4771 26.4629 43.7892 26.1273C45.0223 24.6988 48.5066 25.014 49.5043 25.014C47.6777 28.3662 44.9507 31.3542 41.318 32.6272C39.0032 32.2775 36.6188 32.3587 34.3495 32.8646C31.3308 32.0459 28.655 29.9748 29.3662 26.7986C29.4682 26.3018 29.7005 25.8279 30.048 25.4081C30.3954 24.9883 30.8501 24.6322 31.382 24.3632C32.1699 23.9252 32.7225 23.61 31.8936 23.8188C31.2706 24.0055 30.7049 24.2968 30.2345 24.6731C29.7641 25.0494 29.3999 25.502 29.1666 26.0004C27.8415 29.2913 29.4838 32.1155 32.7736 33.4499ZM39.3636 33.147C38.0914 33.3597 36.778 33.3597 35.5058 33.147C36.7832 32.9794 38.0862 32.9794 39.3636 33.147Z" fill="#F67A45"/>
<path d="M62.8534 27.5271C62.1166 28.6978 61.252 29.983 60.3873 30.6911C60.0777 30.9461 59.6548 31.0932 59.2105 31.1004C58.4737 31.0595 58.4226 30.4742 58.658 29.7825C58.6989 29.6719 58.31 30.4087 61.0678 25.2514C61.5794 24.3754 60.9808 24.5105 59.0775 24.5392C59.2128 24.6551 59.308 24.7972 59.3538 24.9515C59.3995 25.1058 59.3942 25.267 59.3384 25.4192L57.6602 28.8369C57.1128 29.9298 57.1128 31.5629 59.0775 31.5629C60.7096 31.5629 61.6817 29.6187 60.3617 31.7103C60.6399 31.6074 60.9465 31.5637 61.2519 31.5834C61.8045 31.5834 62.0399 31.5834 62.2752 31.2683C63.7436 28.9434 65.0278 27.7686 65.9181 27.1178C67.934 25.6075 68.4047 26.1764 67.7754 26.9909C67.1927 27.6787 66.7104 28.4175 66.3377 29.193C65.5498 31.1455 66.8084 31.6489 67.7242 31.6489C69.0647 31.6489 70.1852 30.4742 71.0141 29.3117C70.7736 31.919 74.4113 32.3652 76.4579 30.5397C76.6932 31.1291 77.3584 31.6366 78.6784 31.6366C79.0507 31.6234 79.4159 31.5511 79.7529 31.4238C81.871 31.9354 83.278 30.642 84.2655 29.2258C84.2655 29.279 84.2399 29.3363 84.2348 29.3936C83.8409 31.698 86.4348 32.0541 87.8521 30.9654C88.8191 30.1877 89.2642 29.6228 90.4103 27.6909C90.6763 27.2816 90.2824 27.1874 90.0727 27.564C89.3666 28.6937 88.5019 30.0199 87.2944 30.728C86.4298 31.2314 85.2478 31.0431 85.6162 29.6392C85.6162 29.6392 85.9846 28.047 86.22 27.4985C87.5995 26.4978 88.7751 25.3308 89.7042 24.0398H91.2391C91.5001 24.0398 91.5564 23.5814 91.2903 23.5814H90.0368C90.4257 22.992 90.794 22.4067 91.1624 21.7763C93.1015 18.424 90.2722 18.0679 88.461 20.6016C87.8061 21.5021 87.1512 22.5335 86.5474 23.5814H84.9767C84.6902 23.5814 84.6339 24.0398 84.9255 24.0398H86.2865C85.6646 25.2504 85.13 26.4886 84.6851 27.7482C83.7641 29.1971 82.5106 31.3992 80.551 31.17H80.3668C80.867 30.9111 81.2918 30.5691 81.6122 30.1672C81.9327 29.7654 82.1413 29.3131 82.2241 28.841C82.2803 27.9201 81.7124 27.1629 81.2827 26.3852C80.4487 24.7848 81.2826 23.303 82.6692 23.741C83.3906 24.0316 83.1809 23.1311 81.8097 23.2826C80.8887 23.3849 80.1059 24.2649 79.6301 25.0835C79.0775 26.0577 78.2128 27.4535 77.3788 28.7101C76.8007 28.7101 76.3556 29.3568 76.3556 30.028C75.6648 30.7034 74.8206 31.2273 73.7308 31.2273C72.0015 31.2273 72.4466 29.1112 72.8406 28.3621C73.9902 28.2608 75.0942 27.9454 76.064 27.4412C77.7421 26.4138 78.4993 24.9853 77.5016 24.3795C76.3504 23.6878 74.3602 24.486 73.0248 25.7425C72.3158 26.4181 71.7616 27.1885 71.3876 28.0183C70.6661 29.148 69.2693 31.1741 68.0977 31.1741C66.2916 31.1741 69.9192 25.9799 70.8196 24.7152C69.9294 24.4655 67.2381 25.7835 65.9744 26.6881C65.1847 27.2657 64.4573 27.8955 63.7999 28.5709C64.7413 27.0646 66.1842 24.9648 66.9721 24.6333C66.6005 24.6463 66.2285 24.6174 65.8669 24.5473C64.8437 24.4982 64.5265 24.9566 63.0069 27.4125C62.9464 27.4418 62.8941 27.4809 62.8534 27.5271ZM89.9703 20.5238C91.5973 18.6983 91.2289 20.5648 90.7326 21.4448C90.3429 22.1761 89.9057 22.8906 89.4229 23.5855H88.1233C88.6308 22.5254 89.2486 21.5012 89.9703 20.5238ZM87.8521 24.0439H89.08C88.3342 25.052 87.4467 25.9886 86.4348 26.8354C86.8032 26.0986 87.2995 25.0713 87.8521 24.0439ZM78.4686 31.2764C77.4454 31.2764 77.1077 30.2941 77.957 29.6392C77.9514 29.9485 78.0419 30.2541 78.2206 30.5284C78.3992 30.8028 78.6603 31.0373 78.9803 31.2109C78.8179 31.2629 78.6431 31.2853 78.4686 31.2764ZM80.2491 24.8421C80.0394 25.7835 80.6687 27.5026 80.592 28.8246C80.5152 29.938 80.0138 30.6502 79.4356 31.0063C79.0753 30.8529 78.779 30.6185 78.5835 30.3318C78.388 30.0452 78.3018 29.719 78.3356 29.3936C78.3356 28.8533 78.0132 28.7469 77.8598 28.7264C78.9137 27.0155 77.0718 29.9257 80.2491 24.8421ZM74.5648 25.9963C77.7882 22.8733 77.9212 25.587 75.7672 27.0442C74.9686 27.5525 74.0079 27.8715 72.9941 27.9651C73.4404 27.2714 73.9662 26.6123 74.5648 25.9963Z" fill="#F67A45"/>
<path d="M62.3502 22.7873C62.3797 22.6805 62.3778 22.5696 62.3447 22.4634C62.3116 22.3572 62.2483 22.2586 62.1595 22.1753C62.0708 22.092 61.9591 22.0263 61.8333 21.9834C61.7075 21.9404 61.5709 21.9214 61.4344 21.9278C61.1343 21.937 60.8469 22.0268 60.6186 22.1828C60.3902 22.3387 60.2342 22.5517 60.1757 22.7873C60.1504 22.8938 60.1553 23.0035 60.19 23.1082C60.2247 23.213 60.2883 23.3102 60.3762 23.3927C60.464 23.4752 60.5739 23.5408 60.6977 23.5848C60.8216 23.6288 60.9562 23.65 61.0916 23.6469C61.393 23.6414 61.6828 23.5529 61.9121 23.3963C62.1414 23.2397 62.2961 23.0246 62.3502 22.7873Z" fill="#F67A45"/>
<path d="M44.2694 51.1772C43.7577 51.1158 43.8242 51.5128 44.3512 51.5865C49.355 52.2373 50.4909 56.9076 44.8219 56.0316C36.958 54.8078 34.9677 50.1907 30.3067 50.1907C29.7946 50.216 29.307 50.3751 28.9188 50.6435C28.5306 50.9119 28.2633 51.2748 28.1578 51.6765C28.1578 52.0859 28.5262 52.225 28.5774 51.8034C28.6592 51.1976 29.6518 50.817 30.3067 50.817C34.3998 50.817 35.6022 56.6456 44.827 56.6456C51.5039 56.6497 50.3783 51.9549 44.2694 51.1772Z" fill="#F67A45"/>
<path d="M74.5401 40.1503C74.5138 40.2569 74.518 40.3669 74.5523 40.472C74.5866 40.5771 74.6502 40.6746 74.7382 40.7573C74.8263 40.84 74.9367 40.9056 75.061 40.9494C75.1852 40.9931 75.3203 41.0138 75.456 41.0099C75.7574 41.0044 76.0472 40.9159 76.2765 40.7593C76.5058 40.6027 76.6605 40.3876 76.7146 40.1503C76.743 40.0435 76.7404 39.933 76.7069 39.8272C76.6734 39.7214 76.6099 39.6231 76.5214 39.54C76.4329 39.457 76.3217 39.3913 76.1964 39.3481C76.0711 39.3049 75.9351 39.2852 75.7988 39.2908C75.4985 39.2993 75.2106 39.3888 74.9821 39.5449C74.7535 39.701 74.5977 39.9144 74.5401 40.1503Z" fill="#F67A45"/>
<path d="M92.9062 44.9106C92.4196 45.7063 91.8693 46.4761 91.2587 47.2151C90.3188 48.2203 88.9922 48.9509 87.4828 49.2944C89.7238 44.4031 90.041 42.5571 91.622 41.7016H90.2098C90.0027 41.6786 89.7917 41.709 89.6076 41.7885C89.4236 41.868 89.2761 41.9925 89.1866 42.1437C88.1889 43.781 86.5414 46.2368 85.0934 47.6162C83.3897 49.188 82.2897 48.3489 83.5585 46.1672C86.2549 41.5543 86.2242 42.1764 86.8893 41.7016C85.0883 41.7016 84.6074 41.5993 84.2697 42.1437C83.6813 43.1138 83.1237 43.9488 82.3306 45.1808C79.9822 49.2453 77.5314 48.8646 78.0584 47.0063C78.0584 47.0063 78.4268 45.4141 78.6622 44.8697C80.0405 43.8682 81.2159 42.7013 82.1464 41.411H83.6813C83.9423 41.411 83.9986 40.9485 83.7325 40.9485H82.4739C82.8678 40.3632 83.2362 39.7738 83.6046 39.1434C85.5437 35.7912 82.7144 35.4351 80.9031 37.9728C80.2482 38.8733 79.5934 39.9007 78.9896 40.9485H77.3779C77.0914 40.9485 77.0352 41.411 77.3268 41.411H78.6878C78.0702 42.6138 77.5389 43.8437 77.0965 45.0948C76.3905 46.2163 75.5616 47.4115 74.7583 48.0664C74.4462 48.321 74.022 48.4678 73.5764 48.4758C72.8448 48.4348 72.7936 47.8495 73.029 47.1578C73.0597 47.0677 72.8857 47.4075 75.4388 42.6267C75.9504 41.7385 75.3058 41.8899 73.4485 41.9186C73.5843 42.0334 73.6799 42.1748 73.7257 42.3286C73.7715 42.4823 73.7659 42.643 73.7095 42.7945L72.6555 44.9475C72.0888 45.8652 71.4426 46.7501 70.7215 47.5957C69.335 49.1511 67.2372 48.7909 68.0251 46.2777C68.1786 45.7538 68.4396 45.2504 68.5726 44.8943C70.8957 43.1223 72.7262 40.9787 73.9449 38.6032C75.8328 35.2509 73.0035 34.9562 71.1411 37.4489C69.4361 39.7999 68.091 42.3066 67.1349 44.9147C66.5823 45.8152 64.853 48.4758 63.753 48.4348C63.4102 48.4348 63.2823 48.0255 63.492 47.1782C63.9979 45.7632 64.8233 44.4342 65.9274 43.257C65.5577 43.2736 65.187 43.246 64.8274 43.1752C63.2618 43.0974 63.2925 44.9966 60.7343 47.4484C58.8617 49.233 57.0709 48.4635 59.3938 45.2054C60.3403 43.9774 61.7013 42.7495 62.8832 42.2092C63.8502 41.7999 64.8223 41.9554 65.1088 42.7331C65.554 42.7945 65.7637 42.4384 65.3953 42.1273C63.9013 40.8257 60.8878 41.6034 59.317 43.0892C58.4339 43.9061 57.7688 44.8589 57.3626 45.8889C56.5389 47.1537 55.5105 48.3939 54.4974 48.3939C54.129 48.3939 53.7607 48.0378 53.9858 47.1373C54.1444 46.4251 55.009 44.9761 55.7458 43.8014C56.5286 42.5039 56.7691 42.2092 57.5519 41.7262C56.0528 41.7262 55.4644 41.6075 55.1165 42.1683C54.0932 43.8055 52.676 46.2614 51.2076 47.6408C49.5038 49.2125 48.4038 48.3734 49.6726 46.1918C50.1433 45.3977 51.3252 43.4903 51.3252 43.4903C52.0313 42.3361 52.3997 42.0823 53.0034 41.7262H51.402C51.1947 41.7025 50.9834 41.7326 50.7992 41.8122C50.615 41.8918 50.4676 42.0166 50.3787 42.1683C49.775 43.1629 49.2275 43.9815 48.4345 45.2054C48.281 45.4796 48.5164 45.541 48.675 45.541C48.1991 46.2982 47.5442 47.0718 47.7796 47.9764C47.8647 48.2673 48.0795 48.5234 48.3837 48.6967C48.6879 48.87 49.0607 48.9486 49.4322 48.9178C50.7164 48.9178 52.0825 47.4934 52.9727 46.2368C52.2871 47.9314 52.9727 48.9178 54.1751 48.9178C55.3774 48.9178 56.3342 48.0132 57.1119 46.9859C56.9891 48.7909 58.4728 49.6914 60.3608 48.2465C61.0823 47.6503 61.7158 46.9897 62.2488 46.2777C61.4609 48.4758 62.6939 49.0242 63.5585 48.9833C64.6842 48.9055 65.82 47.5998 66.6642 46.3923C66.3521 47.6407 66.3981 48.9833 68.4038 48.9833C69.8977 48.9833 70.962 48.0828 71.7601 47.0964C71.622 48.0173 71.9852 48.9383 73.4639 48.9383C74.7941 48.9383 75.9197 47.6817 76.7077 46.5152C76.7077 46.6052 76.6719 46.6952 76.6616 46.7812C76.2677 49.0856 78.8617 49.4417 80.2738 48.353C80.94 47.8311 81.4948 47.2255 81.9162 46.5602C81.159 47.9805 81.8752 48.9178 83.3181 48.9178C85.3339 48.9178 87.0377 46.3187 87.9228 45.0621C87.5033 46.1508 86.6642 48.3939 85.6665 49.7774C82.4431 50.51 78.171 50.9275 76.8356 53.0068C76.0528 54.1816 76.324 55.565 78.9333 55.565C82.8116 55.565 85.4056 52.356 87.0582 49.9861C90.8341 48.8973 91.5145 48.0173 93.295 45.1235C93.5355 44.6814 93.1415 44.5341 92.9062 44.9106ZM82.3972 37.8869C84.0242 36.0654 83.6558 37.9278 83.1595 38.8078C82.7698 39.5391 82.3325 40.2537 81.8497 40.9485H80.5399C81.0507 39.8881 81.672 38.864 82.3972 37.8869ZM80.2738 41.411H81.5068C80.7597 42.4172 79.8723 43.3523 78.8617 44.1984C79.2301 43.4658 79.7264 42.4384 80.2738 41.411ZM72.9113 37.3179C74.3286 35.7011 74.0676 37.3179 73.5406 38.2593C72.3872 40.4413 70.7744 42.4488 68.7722 44.1943C69.5857 42.5203 71.6271 38.7669 72.9113 37.322V37.3179ZM84.6023 51.1977C83.3948 52.5157 80.6166 55.1148 78.3091 55.1148C76.0016 55.1148 77.0505 52.6589 79.7264 51.7175C81.5041 51.1873 83.3245 50.7538 85.1753 50.42L84.6023 51.1977Z" fill="#F67A45"/>
<path d="M54.1039 75.9774C50.4764 71.8147 45.7846 68.2823 40.7194 64.6231C40.4073 64.398 40.1413 64.488 40.1617 64.8278C40.3354 67.2917 41.5267 69.6399 43.5488 71.5036C45.7744 73.7139 49.1768 75.1874 51.648 76.0061C52.042 76.137 52.0215 76.1862 51.6071 76.1248C47.5178 75.5143 43.5391 74.4996 39.7626 73.104C37.9105 72.4287 40.0185 70.554 31.2694 58.5898C31.0597 58.2992 30.7578 58.3197 30.6606 58.6471C29.912 60.997 30.1144 63.4763 31.2387 65.7282C32.4257 68.2987 34.8202 70.4067 36.703 71.7369C37.0151 71.9621 36.9794 72.0112 36.6059 71.8474C32.8092 70.1768 29.3048 68.1124 26.1837 65.7078C24.7051 64.574 27.5549 62.6502 23.9325 50.6778C23.8353 50.3463 23.5488 50.3013 23.3288 50.5919C20.8166 53.8664 20.392 58.4875 23.9325 63.653C24.1321 63.9477 24.0758 63.9846 23.7893 63.7349C20.8825 61.1686 18.3869 58.3224 16.3602 55.2621C15.3984 53.8091 18.9747 52.5566 19.9417 40.5269C19.9724 40.1872 19.7166 40.0767 19.3943 40.2977C15.91 42.6758 13.6128 46.9531 15.0351 52.8472C15.117 53.1787 15.0351 53.1992 14.8714 52.8881C13.3893 50.2724 12.2358 47.5452 11.428 44.7469C10.9727 43.1547 14.7128 42.7986 19.072 31.9109C19.1999 31.5875 18.985 31.4279 18.6064 31.5834C14.723 33.147 11.4025 36.6262 10.9318 42.2951C10.9062 42.6308 10.8346 42.6349 10.7629 42.2951C10.1494 39.4412 9.90251 36.5446 10.0261 33.6505C10.0927 32.0542 13.4234 32.6313 19.8701 23.958C20.085 23.6673 19.9213 23.4791 19.512 23.5486C15.8435 24.3673 12.303 26.7331 10.369 31.2683C10.2308 31.5875 10.1591 31.5753 10.195 31.2396C10.4951 28.6053 11.1155 26.0007 12.0472 23.4627C12.5895 21.9769 15.3677 23.1926 23.9069 16.2179C24.2037 15.9764 24.0963 15.7676 23.6767 15.784C20.039 15.9477 16.1198 17.5686 13.0397 21.3711C12.6304 21.8746 12.6406 21.8705 12.7071 21.7149C13.8685 19.018 15.3918 16.4296 17.2505 13.9953C17.8184 13.2217 20.5199 14.3391 29.1921 9.68118C29.5452 9.49289 29.494 9.27186 29.0745 9.23911C26.0507 8.97715 22.3413 9.76713 18.7035 12.444C17.5984 13.2627 20.2384 10.5203 21.0673 9.67708C22.4232 8.34272 26.0814 7.34399 33.3825 0.835929C33.6639 0.582155 33.5564 0.447082 33.1574 0.553503C30.4819 1.27527 28.0087 2.40849 25.8767 3.8894C22.3822 6.36983 21.7836 8.39182 20.7041 9.48059C18.5756 11.5845 17.6035 13.0212 18.0384 12.137C19.5222 9.11633 20.8525 5.89094 20.9241 2.65737C20.9241 2.32174 20.6785 2.24805 20.4125 2.52229C19.4762 3.51283 17.45 5.9155 16.7849 8.44914C15.8639 11.8423 17.2045 13.3609 16.964 13.6883C10.3127 22.4844 12.5076 25.3865 12.8299 15.5875C12.8893 13.638 12.6592 11.6897 12.1443 9.7835C12.0471 9.45606 11.776 9.43148 11.5969 9.74256C9.37639 13.6842 8.52702 18.4937 11.3513 22.2348C11.5816 22.5705 11.6524 22.9616 11.5508 23.3358C10.6024 25.9176 9.97351 28.5676 9.67314 31.2478C9.46337 33.102 9.27916 25.2759 5.49814 19.5456C5.2986 19.2468 5.0274 19.2795 4.95577 19.6152C3.93249 24.2076 4.77159 29.3527 8.9261 32.5781C9.24746 32.8576 9.42951 33.2216 9.43774 33.6013C9.3288 36.5534 9.60146 39.5066 10.2513 42.4138C10.6708 44.3908 7.42702 35.4965 1.33851 29.9257C1.06222 29.6679 0.826868 29.7538 0.826868 30.0936C1.1799 35.5292 3.96831 41.3578 9.94938 43.9529C10.3616 44.1467 10.6669 44.4582 10.8038 44.8247C11.6272 47.6815 12.8065 50.4651 14.3239 53.1337C15.4086 55.0452 9.08982 46.6543 1.11848 42.2665C0.77056 42.0741 0.545436 42.2051 0.66823 42.5285C2.79665 48.0992 7.6368 53.5512 14.6514 54.8446C15.1111 54.9439 15.5063 55.1795 15.7565 55.5036C17.8203 58.6214 20.3642 61.5201 23.3288 64.1319C25.0837 65.6791 15.8537 59.2488 6.72097 57.0263C6.31677 56.928 6.15304 57.1081 6.38839 57.3865C10.4815 62.1754 17.1328 66.2399 24.393 65.7364C24.8695 65.7171 25.3375 65.8429 25.7028 66.0884C28.8795 68.5352 32.4477 70.6341 36.3142 72.3305C38.7087 73.3824 25.9842 69.2483 16.3193 69.191C15.8947 69.191 15.8077 69.4039 16.1249 69.6003C17.7724 70.6768 22.7762 73.5829 28.3735 74.2992C31.6185 74.7881 34.9697 74.5414 38.0487 73.587C38.4962 73.4477 38.9928 73.4477 39.4403 73.587C46.9768 76.3581 53.3927 76.7346 51.5355 76.7469C44.1116 76.7878 36.4779 76.7838 30.1285 78.2041C29.7192 78.2941 29.7038 78.5151 30.0978 78.642C39.8445 81.8429 48.7931 80.5453 53.8327 77.4141C54.2242 77.1878 54.7013 77.0764 55.1835 77.0989L56.0328 77.1726C56.4524 77.2053 56.7952 77.1071 56.7952 76.9516C56.7952 76.796 56.4524 76.6446 56.0328 76.6077L55.296 76.5382C54.826 76.4748 54.4016 76.2752 54.1039 75.9774Z" fill="#F67A45"/>
<path d="M67.4114 75.9774C71.0286 71.8311 75.7051 68.2946 80.7959 64.6231C81.108 64.398 81.374 64.488 81.3535 64.8278C81.1799 67.2917 79.9886 69.6399 77.9665 71.5036C75.7409 73.7139 72.3385 75.1874 69.8621 76.0061C69.4733 76.137 69.4937 76.1862 69.9082 76.1248C73.9972 75.5135 77.9758 74.4989 81.7526 73.104C83.5945 72.4328 81.5377 70.4926 90.2407 58.5899C90.4556 58.2992 90.7523 58.3197 90.8547 58.6471C91.6016 60.9974 91.3974 63.4767 90.2714 65.7283C89.0895 68.2987 86.6899 70.4067 84.8122 71.7369C84.5001 71.9621 84.5359 72.0112 84.9094 71.8474C88.7061 70.1768 92.2104 68.1124 95.3315 65.7078C96.7948 64.5863 93.9654 62.6134 97.5827 50.6778C97.6799 50.3463 97.9665 50.3013 98.1865 50.5919C100.683 53.8214 101.139 58.4752 97.5827 63.653C97.3781 63.9477 97.4395 63.9846 97.726 63.7349C100.633 61.1686 103.128 58.3224 105.155 55.2621C106.122 53.805 102.546 52.5648 101.574 40.5269C101.543 40.1872 101.799 40.0767 102.121 40.2977C105.621 42.684 107.897 46.9777 106.475 52.8472C106.398 53.1787 106.475 53.1992 106.639 52.8881C108.122 50.2725 109.278 47.5453 110.087 44.7469C110.548 43.1629 106.808 42.8068 102.443 31.9109C102.315 31.5875 102.53 31.4279 102.909 31.5834C106.782 33.1429 110.108 36.6139 110.584 42.2951C110.609 42.6308 110.681 42.6349 110.752 42.2951C111.365 39.4411 111.614 36.5447 111.494 33.6505C111.412 32.0542 108.071 32.6067 101.645 23.958C101.43 23.6673 101.594 23.4791 102.003 23.5486C105.662 24.3673 109.207 26.7249 111.146 31.2683C111.284 31.5875 111.356 31.5753 111.315 31.2396C111.019 28.6052 110.401 26.0004 109.468 23.4627C108.916 21.9646 106.117 23.1762 97.6083 16.2179C97.3116 15.9764 97.419 15.7676 97.8386 15.784C101.487 15.9477 105.411 17.585 108.476 21.3711C108.916 21.9114 108.864 21.85 108.808 21.7149C107.646 19.0183 106.122 16.4301 104.265 13.9953C103.692 13.2176 101.036 14.3596 92.3231 9.68118C91.97 9.49289 92.0212 9.27186 92.4407 9.23911C95.4594 8.97715 99.1637 9.75895 102.812 12.444C103.917 13.2627 101.313 10.5284 100.448 9.67708C99.0972 8.34272 95.4646 7.36445 88.1328 0.835929C87.8514 0.582155 87.9588 0.447082 88.3579 0.553503C91.0328 1.27613 93.5058 2.40927 95.6385 3.8894C99.1432 6.37802 99.7317 8.41638 100.811 9.48059C102.914 11.5558 103.917 13.0293 103.477 12.137C102.003 9.1327 100.658 5.89094 100.591 2.65737C100.591 2.32174 100.837 2.24805 101.103 2.52229C107.242 9.07128 104.295 13.3404 104.551 13.6883C111.203 22.6031 109.003 25.2637 108.685 15.5875C108.626 13.638 108.856 11.6897 109.371 9.78351C109.468 9.45606 109.739 9.43148 109.913 9.74256C112.144 13.6965 112.983 18.5018 110.164 22.2348C109.931 22.5698 109.86 22.9616 109.964 23.3358C110.913 25.9176 111.542 28.5676 111.842 31.2478C112.052 33.1102 112.241 25.2596 116.017 19.5456C116.217 19.2468 116.488 19.2795 116.559 19.6152C117.583 24.1749 116.759 29.3404 112.589 32.5781C112.259 32.8551 112.066 33.2189 112.047 33.6013C112.174 36.5505 111.92 39.5023 111.29 42.4097C110.86 44.4072 114.098 35.5046 120.202 29.9216C120.479 29.6638 120.714 29.7497 120.714 30.0895C120.366 35.5292 117.557 41.3578 111.591 43.9488C111.179 44.1426 110.874 44.4541 110.737 44.8206C109.911 47.6769 108.732 50.4603 107.217 53.1296C106.163 54.9756 112.507 46.6257 120.422 42.2624C120.77 42.07 120.995 42.201 120.873 42.5244C118.744 48.091 113.919 53.543 106.889 54.8405C106.43 54.9398 106.035 55.1754 105.784 55.4995C103.721 58.6173 101.177 61.516 98.212 64.1278C96.4827 65.6505 105.733 59.2161 114.82 57.0222C115.224 56.9239 115.388 57.104 115.152 57.3824C111.059 62.1754 104.408 66.2358 97.1479 65.7323C96.6713 65.713 96.2033 65.8388 95.838 66.0844C92.6613 68.5311 89.0931 70.63 85.2266 72.3264C82.8321 73.3783 95.5516 69.2442 105.222 69.1869C105.646 69.1869 105.733 69.3998 105.416 69.5962C103.768 70.6727 98.7646 73.5789 93.1724 74.2951C89.9258 74.7844 86.5728 74.5377 83.4922 73.5829C83.0446 73.4436 82.5481 73.4436 82.1005 73.5829C74.5999 76.3376 68.1737 76.7305 70.0053 76.7428C77.4139 76.7838 85.0732 76.7797 91.4124 78.2C91.8166 78.29 91.837 78.5111 91.4431 78.6379C81.6145 81.8592 72.6915 80.5085 67.7081 77.41C67.3166 77.1837 66.8395 77.0724 66.3573 77.0948L65.5081 77.1685C65.0885 77.2012 64.7457 77.103 64.7457 76.9475C64.7457 76.7919 65.0885 76.6405 65.5081 76.6037L66.2448 76.5341C66.7048 76.4671 67.1191 76.2694 67.4114 75.9774Z" fill="#F67A45"/>
</g>
<defs>
<clipPath id="clip0_1898_130">
<rect width="120.251" height="80" fill="white" transform="translate(0.632446 0.520752)"/>
</clipPath>
</defs>
</svg>
