<svg width="15" height="15" viewBox="0 0 15 15" fill="none" xmlns="http://www.w3.org/2000/svg">
<path d="M2.40184 6.65334C2.12571 6.65412 1.85543 6.73306 1.62228 6.88103C1.38914 7.029 1.20265 7.23996 1.0844 7.4895C0.966142 7.73904 0.920954 8.01695 0.954061 8.2911C0.987168 8.56525 1.09722 8.82442 1.27147 9.03864L4.98624 13.5892C5.11869 13.7537 5.28847 13.8842 5.48148 13.9698C5.67449 14.0555 5.88515 14.0939 6.09597 14.0818C6.54686 14.0576 6.95394 13.8164 7.21348 13.4198L14.93 0.992358C14.9313 0.990297 14.9326 0.988235 14.9339 0.986205C15.0063 0.875035 14.9829 0.654728 14.8334 0.516328C14.7924 0.478321 14.744 0.449122 14.6912 0.430528C14.6384 0.411933 14.5824 0.404338 14.5266 0.408209C14.4708 0.41208 14.4164 0.427336 14.3667 0.453037C14.317 0.478738 14.2731 0.51434 14.2377 0.557651C14.2349 0.561056 14.232 0.56441 14.2291 0.567712L6.44689 9.36045C6.41728 9.39391 6.38131 9.42115 6.34108 9.44059C6.30085 9.46004 6.25716 9.47129 6.21255 9.47371C6.16793 9.47612 6.12328 9.46964 6.08119 9.45465C6.03909 9.43966 6.0004 9.41646 5.96735 9.38639L3.38458 7.03605C3.11634 6.79015 2.76574 6.65362 2.40184 6.65334Z" fill="white"/>
</svg>
