<svg width="151" height="152" viewBox="0 0 151 152" fill="none" xmlns="http://www.w3.org/2000/svg">
<g filter="url(#filter0_b_1904_1153)">
<circle cx="75.5605" cy="76.1175" r="75.2945" fill="white" fill-opacity="0.3"/>
</g>
<circle cx="75.5605" cy="76.1174" r="42.5456" fill="#01010F"/>
<path d="M71.2084 142.243L71.2615 140.66L73.2584 140.727L73.5861 130.958L75.6549 131.028L75.3273 140.796L77.3061 140.863L77.2531 142.446L71.2084 142.243Z" fill="white"/>
<path d="M63.8384 134.144L64.8562 129.834L66.8707 130.31L64.2602 141.364L60.196 140.404C58.923 140.104 58.423 139.375 58.6961 138.219L59.4697 134.943C59.6959 133.986 60.2546 133.526 61.1457 133.564L60.3365 128.767L62.5087 129.28L63.1727 133.987L63.8384 134.144ZM62.6097 139.347L63.4868 135.633L62.0328 135.29C61.8459 135.245 61.7105 135.244 61.6267 135.286C61.54 135.34 61.4747 135.46 61.4305 135.647L60.7769 138.415C60.7327 138.601 60.7388 138.732 60.7951 138.807C60.8486 138.894 60.9688 138.959 61.1557 139.003L62.6097 139.347Z" fill="white"/>
<path d="M51.1443 124.983L50.5115 127.295L52.75 128.372L54.129 126.418L55.9944 127.316L49.011 136.56L46.4967 135.351L49.2626 124.078L51.1443 124.983ZM51.8278 129.666L50.0922 128.831L48.628 134.159L51.8278 129.666Z" fill="white"/>
<path d="M38.12 130.38L36.4458 129.163L43.1252 119.977L44.7995 121.194L38.12 130.38Z" fill="white"/>
<path d="M27.307 120.953L26.0025 119.585L34.2215 111.746L35.5632 113.153L31.7958 120.104L37.2404 114.911L38.5572 116.292L30.3383 124.131L28.9593 122.685L32.6734 115.834L27.307 120.953Z" fill="white"/>
<path d="M15.0735 102.198L14.2198 100.313L24.567 95.6285L25.4207 97.5143L21.0096 99.5111L21.9746 101.643L26.3857 99.646L27.2394 101.532L16.8923 106.216L16.0386 104.33L20.5316 102.296L19.5666 100.164L15.0735 102.198Z" fill="white"/>
<path d="M21.8528 85.8255L19.6355 86.7366L20.1501 89.1667L22.5389 89.0656L22.9678 91.0907L11.3826 91.2073L10.8046 88.4778L21.4202 83.7828L21.8528 85.8255ZM18.5621 89.227L18.1631 87.3428L13.0501 89.4375L18.5621 89.227Z" fill="white"/>
<path d="M16.482 76.4472L20.9099 76.4815L20.8939 78.5514L9.53622 78.4634L9.56857 74.2875C9.5787 72.9796 10.1777 72.3302 11.3657 72.3394L14.7316 72.3655C15.7156 72.3731 16.2882 72.8156 16.4494 73.6928L20.9459 71.8376L20.9286 74.0695L16.4873 75.7632L16.482 76.4472ZM11.1362 76.4058L14.9521 76.4353L14.9637 74.9414C14.9652 74.7494 14.9362 74.6171 14.8767 74.5447C14.8053 74.4721 14.6736 74.4351 14.4816 74.4336L11.6377 74.4116C11.4457 74.4101 11.3194 74.4451 11.2588 74.5166C11.1863 74.5881 11.1493 74.7198 11.1478 74.9118L11.1362 76.4058Z" fill="white"/>
<path d="M10.5019 63.9669L11.4622 59.755C11.753 58.4797 12.4775 57.9741 13.6358 58.2382L21.2348 59.9708C22.393 60.2349 22.8268 61.0045 22.536 62.2798L21.5757 66.4917L10.5019 63.9669ZM20.56 61.9585L13.3822 60.322C13.195 60.2793 13.0642 60.2864 12.9897 60.3432C12.9035 60.3974 12.839 60.5181 12.7963 60.7053L12.4362 62.2848L20.5617 64.1374L20.9218 62.5579C20.9645 62.3707 20.9646 62.2354 20.9221 62.1518C20.8679 62.0656 20.7472 62.0012 20.56 61.9585Z" fill="white"/>
<path d="M22.4995 54.4042L23.3516 52.3803L24.5461 52.8832L27.3602 55.7086L27.0948 56.339L22.4995 54.4042Z" fill="white"/>
<path d="M32.2421 38.7242L30.3635 37.1829C30.215 37.0611 30.0948 37.009 30.0027 37.0266C29.9014 37.0366 29.7898 37.1158 29.6681 37.2643L28.7433 38.3914C27.9593 39.347 27.1035 39.4442 26.1757 38.6831L24.0188 36.9135C23.1003 36.1599 23.0521 35.2822 23.8741 34.2803L25.13 32.7495C25.952 31.7476 26.8223 31.6234 27.7407 32.3769L28.9653 33.3816L27.6409 34.9958L26.639 34.1738C26.4906 34.052 26.3703 33.9999 26.2783 34.0175C26.1769 34.0275 26.0654 34.1067 25.9436 34.2552L25.5097 34.784C25.3804 34.9417 25.3207 35.0712 25.3307 35.1725C25.3314 35.2663 25.4059 35.374 25.5544 35.4958L27.3217 36.9458C27.4701 37.0675 27.595 37.1234 27.6964 37.1134C27.7884 37.0958 27.8991 37.0082 28.0285 36.8505L28.9305 35.7511C29.7297 34.777 30.5838 34.6629 31.493 35.4088L33.7891 37.2926C34.7076 38.0461 34.752 38.9285 33.9224 39.9397L32.6893 41.4426C31.8597 42.4538 30.9857 42.5827 30.0672 41.8292L28.8565 40.8359L30.1695 39.2356L31.1575 40.0462C31.3059 40.168 31.4308 40.2238 31.5322 40.2139C31.6242 40.1962 31.7349 40.1086 31.8643 39.9509L32.2982 39.4221C32.42 39.2736 32.4805 39.1526 32.4798 39.0588C32.4698 38.9575 32.3906 38.8459 32.2421 38.7242Z" fill="white"/>
<path d="M35.9779 22.3383L36.9878 23.5586L35.4486 24.8325L41.6803 32.3623L40.0856 33.6821L33.8539 26.1523L32.3285 27.4147L31.3186 26.1944L35.9779 22.3383Z" fill="white"/>
<path d="M51.2439 26.1889L49.7474 24.3161L47.5592 25.4916L48.3262 27.7563L46.5027 28.7359L43.1415 17.6484L45.5993 16.3281L53.0833 25.2008L51.2439 26.1889ZM47.056 23.9843L48.7526 23.0729L45.308 18.7526L47.056 23.9843Z" fill="white"/>
<path d="M61.7063 22.1598L59.7184 22.7369L58.7147 19.2797L54.0107 12.567L56.0332 11.9799L59.1458 17.149L58.92 11.1418L60.9424 10.5546L60.6876 18.6507L61.7063 22.1598Z" fill="white"/>
<path d="M80.5756 8.97252L82.6432 9.07204L82.0972 20.4169L80.0296 20.3174L80.2624 15.481L77.9251 15.3685L77.6923 20.2049L75.6247 20.1054L76.1707 8.76051L78.2383 8.86002L78.0012 13.7863L80.3385 13.8988L80.5756 8.97252Z" fill="white"/>
<path d="M94.4213 11.3405L96.4193 11.8817L93.9157 21.1247C93.6051 22.2713 92.8186 22.6737 91.5561 22.3317L89.4365 21.7576C88.174 21.4156 87.698 20.6713 88.0086 19.5246L90.5122 10.2817L92.5102 10.8229L90.0819 19.7878C90.0317 19.9732 90.0319 20.11 90.0826 20.1983C90.1364 20.275 90.256 20.3385 90.4413 20.3887L91.3621 20.6381C91.559 20.6914 91.7001 20.6986 91.7853 20.6595C91.8736 20.6088 91.9428 20.4908 91.993 20.3055L94.4213 11.3405Z" fill="white"/>
<path d="M100.636 25.7576L99.0235 24.879L104.459 14.9059L106.45 15.9912L104.895 22.8312L109.801 17.8172L111.792 18.9025L106.357 28.8757L104.761 28.0057L108.577 21.004L104.613 25.1169L103.143 24.3158L104.443 18.7716L100.636 25.7576Z" fill="white"/>
<path d="M118.732 29.8373L120.323 28.0722C120.451 27.9296 120.509 27.8119 120.496 27.7191C120.49 27.6174 120.412 27.4983 120.26 27.3617L119.044 26.2652L116.802 28.7524L118.019 29.8489C118.171 29.9855 118.293 30.0556 118.387 30.0592C118.489 30.0539 118.604 29.9799 118.732 29.8373ZM115.395 33.5413L117.07 31.6826C117.198 31.54 117.256 31.4223 117.242 31.3295C117.237 31.2278 117.159 31.1087 117.007 30.9722L115.79 29.8756L113.465 32.4564L114.681 33.5529C114.833 33.6895 114.956 33.7596 115.049 33.7632C115.151 33.7579 115.266 33.684 115.395 33.5413ZM118.518 23.7563L121.727 26.6482C122.699 27.5238 122.787 28.4029 121.992 29.2854L120.353 31.104C119.847 31.6656 119.351 31.8401 118.864 31.6275C119.126 32.0897 119.024 32.5794 118.558 33.0964L116.774 35.0754C115.979 35.958 115.096 35.9615 114.124 35.0859L110.915 32.1939L118.518 23.7563Z" fill="white"/>
<path d="M121.882 41.3636L123.685 43.7909L122.414 44.7356L119.376 40.6466L128.493 33.873L129.728 35.5346L121.882 41.3636Z" fill="white"/>
<path d="M127.304 50.1211L128.815 53.2291L127.391 53.9218L124.966 48.936L135.181 43.969L137.542 48.8252L136.118 49.5179L134.669 46.5394L131.836 47.917L133.057 50.426L131.616 51.1266L130.396 48.6176L127.304 50.1211Z" fill="white"/>
<path d="M131.36 57.7698L131.989 59.8739L130.747 60.2449L126.778 59.8524L126.583 59.197L131.36 57.7698Z" fill="white"/>
<path d="M138.714 76.7384L141.09 76.7485C141.282 76.7494 141.408 76.7139 141.468 76.6422C141.541 76.5705 141.577 76.4326 141.578 76.2286L141.585 74.5906L138.237 74.5763L138.23 76.2143C138.229 76.4183 138.259 76.5564 138.318 76.6287C138.39 76.701 138.522 76.7376 138.714 76.7384ZM133.728 76.717L136.23 76.7277C136.422 76.7286 136.548 76.6931 136.608 76.6214C136.681 76.5497 136.717 76.4118 136.718 76.2078L136.725 74.5698L133.251 74.555L133.244 76.193C133.243 76.397 133.273 76.5351 133.332 76.6074C133.404 76.6797 133.536 76.7162 133.728 76.717ZM143.106 72.5271L143.087 76.8471C143.082 78.1551 142.485 78.8065 141.297 78.8014L138.849 78.791C138.093 78.7877 137.632 78.5338 137.466 78.029C137.296 78.5323 136.863 78.7825 136.167 78.7795L133.503 78.7681C132.315 78.763 131.724 78.1065 131.73 76.7985L131.748 72.4785L143.106 72.5271Z" fill="white"/>
<path d="M132.213 86.8012L131.497 90.1823L129.947 89.8541L131.096 84.4304L142.207 86.7834L141.088 92.0662L139.539 91.7381L140.225 88.4979L137.143 87.8454L136.565 90.5748L134.998 90.2429L135.576 87.5135L132.213 86.8012Z" fill="white"/>
<path d="M135.555 106.577L133.454 110.186C132.796 111.316 131.953 111.583 130.927 110.985L127.8 109.164C126.774 108.566 126.589 107.702 127.248 106.572L128.307 104.752L124.698 102.651L125.74 100.862L135.555 106.577ZM129.091 107.52L131.719 109.051C131.885 109.148 132.012 109.18 132.1 109.148C132.199 109.122 132.296 109.026 132.393 108.86L133.145 107.569L129.676 105.549L128.924 106.84C128.828 107.006 128.787 107.135 128.803 107.228C128.829 107.326 128.925 107.424 129.091 107.52Z" fill="white"/>
<path d="M121.48 114.895L118.203 111.917L119.595 110.385L128 118.024L125.192 121.115C124.312 122.083 123.433 122.167 122.553 121.368L120.062 119.104C119.334 118.442 119.203 117.731 119.668 116.969L115.08 115.353L116.581 113.702L121.02 115.401L121.48 114.895ZM125.436 118.491L122.612 115.924L121.607 117.03C121.478 117.172 121.412 117.29 121.408 117.383C121.412 117.485 121.486 117.6 121.628 117.73L123.733 119.642C123.875 119.772 123.992 119.83 124.085 119.817C124.187 119.812 124.302 119.738 124.431 119.596L125.436 118.491Z" fill="white"/>
<path d="M116.145 129.224L114.354 130.494C113.287 131.25 112.41 131.144 111.723 130.175L107.215 123.816C106.528 122.847 106.718 121.984 107.785 121.228L109.577 119.958C110.644 119.201 111.521 119.308 112.208 120.277L116.715 126.635C117.402 127.605 117.212 128.467 116.145 129.224ZM109.071 122.854L113.245 128.743C113.356 128.899 113.458 128.981 113.552 128.988C113.652 129.006 113.78 128.959 113.937 128.848L114.715 128.296C114.882 128.178 114.974 128.069 114.991 127.968C115.015 127.878 114.971 127.754 114.86 127.597L110.686 121.709C110.575 121.552 110.469 121.465 110.369 121.448C110.275 121.441 110.145 121.496 109.979 121.614L109.201 122.166C109.044 122.277 108.954 122.378 108.93 122.469C108.913 122.569 108.959 122.697 109.071 122.854Z" fill="white"/>
<path d="M101.731 137.358L99.8245 138.165L96.0933 129.346C95.6304 128.252 96.0013 127.45 97.2059 126.94L99.2284 126.084C100.433 125.575 101.267 125.867 101.73 126.961L105.461 135.78L103.554 136.587L99.9355 128.033C99.8606 127.856 99.7761 127.749 99.6817 127.71C99.592 127.683 99.4587 127.707 99.2819 127.782L98.4033 128.153C98.2154 128.233 98.1 128.314 98.0571 128.398C98.0188 128.492 98.0371 128.628 98.1119 128.804L101.731 137.358Z" fill="white"/>
<path d="M91.7546 140.653L87.5074 141.443C86.2214 141.682 85.4699 141.217 85.2527 140.049L83.8281 132.387C83.6109 131.219 84.1453 130.515 85.4313 130.276L89.6785 129.486L91.7546 140.653ZM85.9204 132.217L87.266 139.455C87.3011 139.644 87.3596 139.761 87.4413 139.807C87.5253 139.865 87.6616 139.876 87.8504 139.841L89.4431 139.545L87.9197 131.351L86.327 131.647C86.1383 131.683 86.014 131.736 85.9542 131.808C85.8965 131.892 85.8853 132.029 85.9204 132.217Z" fill="white"/>
<path d="M82.7527 131.655L82.7758 134.085L80.5799 134.106L80.5568 131.676L82.7527 131.655Z" fill="white"/>
<defs>
<filter id="filter0_b_1904_1153" x="-49.7339" y="-49.177" width="250.589" height="250.589" filterUnits="userSpaceOnUse" color-interpolation-filters="sRGB">
<feFlood flood-opacity="0" result="BackgroundImageFix"/>
<feGaussianBlur in="BackgroundImageFix" stdDeviation="25"/>
<feComposite in2="SourceAlpha" operator="in" result="effect1_backgroundBlur_1904_1153"/>
<feBlend mode="normal" in="SourceGraphic" in2="effect1_backgroundBlur_1904_1153" result="shape"/>
</filter>
</defs>
</svg>
