<svg width="136" height="101" viewBox="0 0 136 101" fill="none" xmlns="http://www.w3.org/2000/svg">
<path d="M43.0378 14.8939C41.8662 13.562 40.448 11.965 39.48 10.7132L39.4368 10.7502C40.0226 12.1869 40.596 13.7531 41.1818 15.5228L43.2598 21.7444L42.2855 22.5152L36.9149 19.056C35.3302 18.0324 33.912 17.0643 32.6972 16.1086H32.6664C33.6221 17.3418 34.8739 19.093 35.9653 20.653L39.0915 25.1543L37.8583 26.1285L30.6501 15.6461L32.3088 14.3328L37.8275 17.7919C39.2087 18.6922 40.4172 19.5123 41.4901 20.3447L41.5333 20.3077C40.9907 19.0745 40.4727 17.7365 39.9178 16.1271L37.8583 9.91165L39.4923 8.6106L48.0139 18.0633L46.7806 19.056L43.0378 14.8939Z" fill="#F67A45"/>
<path d="M48.6429 4.18971L51.0415 11.3177C51.9479 14.0123 53.508 14.7523 55.1358 14.2158C56.9178 13.5992 57.6701 12.0515 56.776 9.38775L54.3774 2.26588L55.9498 1.7356L58.3114 8.75264C59.5446 12.4523 58.1141 14.6228 55.5058 15.4984C53.0393 16.3246 50.7147 15.5415 49.4568 11.7987L47.1075 4.68917L48.6429 4.18971Z" fill="#F67A45"/>
<path d="M63.534 11.2621C64.442 11.7574 65.4662 12.0001 66.4999 11.9651C68.1771 11.8972 69.1205 10.9723 69.065 9.68975C69.0157 8.50586 68.3128 7.83992 66.5678 7.26647C64.4713 6.61903 63.1456 5.60162 63.0654 3.81344C62.9853 1.83412 64.5638 0.298759 67.0302 0.193935C68.0012 0.121034 68.9748 0.294971 69.8605 0.699556L69.4658 2.0561C68.7081 1.68933 67.8714 1.51564 67.0302 1.55048C65.2975 1.62447 64.6809 2.69121 64.7179 3.55447C64.7673 4.74453 65.5627 5.29331 67.3447 5.89759C69.5213 6.63753 70.6559 7.6241 70.7361 9.48627C70.8162 11.4471 69.4412 13.1859 66.4198 13.3278C65.2909 13.3863 64.1659 13.1549 63.1517 12.6557L63.534 11.2621Z" fill="#F67A45"/>
<path d="M82.9265 14.7831C81.7916 14.9711 80.6299 14.9185 79.5166 14.6289C76.0266 13.8335 73.8993 11.0341 74.8242 6.97061C75.706 3.09212 78.9308 1.06347 82.7723 1.93906C83.7915 2.12981 84.7534 2.55169 85.5841 3.17228L84.9058 4.4055C84.1998 3.87281 83.385 3.50227 82.5195 3.32027C79.6214 2.66049 77.266 4.0787 76.5261 7.32824C75.8416 10.362 77.1427 12.7051 80.1579 13.3895C81.0489 13.5954 81.9731 13.6122 82.871 13.4389L82.9265 14.7831Z" fill="#F67A45"/>
<path d="M91.6454 5.2998L93.0944 6.07057L87.8039 16.0658L92.5949 18.6125L91.9475 19.8457L85.6889 16.5221L91.6454 5.2998Z" fill="#F67A45"/>
<path d="M103.164 21.5781L99.464 18.2793L96.3809 21.683L100.469 25.3826L99.5996 26.3877L94.2906 21.6151L102.781 12.1748L107.881 16.7562L106.962 17.7551L103.083 14.2651L100.395 17.2495L104.095 20.5484L103.164 21.5781Z" fill="#F67A45"/>
<path d="M56.7636 98.3833C55.8622 98.4275 54.9619 98.276 54.1245 97.9393C51.4793 96.9897 50.0857 94.6096 51.1956 91.5327C51.3889 90.8622 51.7221 90.2403 52.1735 89.7081C52.6249 89.1759 53.184 88.7455 53.814 88.4454C54.444 88.1452 55.1305 87.9822 55.8281 87.967C56.5258 87.9518 57.2187 88.0848 57.8612 88.3572C58.6398 88.6022 59.351 89.0243 59.9392 89.5904L59.2917 90.4721C58.7951 89.9902 58.1967 89.6257 57.5406 89.4054C55.3392 88.6161 53.3723 89.4979 52.4905 91.9582C51.6642 94.2581 52.4597 96.2066 54.7411 97.0267C55.4159 97.2803 56.1364 97.3896 56.8561 97.3474L56.7636 98.3833Z" fill="#F67A45"/>
<path d="M62.0048 89.6089L63.2812 89.763L62.2083 98.5929L66.4383 99.1047L66.3088 100.178L60.7963 99.5055L62.0048 89.6089Z" fill="#F67A45"/>
<path d="M70.1132 90.2195L70.699 96.0896C70.9149 98.3156 72.0001 99.1726 73.3196 99.0308C74.7933 98.8828 75.6381 97.7976 75.4223 95.621L74.8427 89.7508L76.1375 89.6213L76.711 95.4051C77.0131 98.4574 75.5333 99.8633 73.3813 100.079C71.3465 100.283 69.6816 99.2713 69.398 96.1882L68.8184 90.3428L70.1132 90.2195Z" fill="#F67A45"/>
<path d="M78.604 89.1031C79.2871 88.7066 80.0054 88.3742 80.7498 88.1104C81.6298 87.6954 82.629 87.608 83.5677 87.8637C83.8918 87.9644 84.1868 88.1421 84.4273 88.3815C84.6678 88.621 84.8468 88.9151 84.9489 89.2388C85.1017 89.7108 85.1024 90.2189 84.9508 90.6913C84.7992 91.1638 84.5031 91.5767 84.1042 91.8717C84.6869 91.7871 85.2809 91.9051 85.7871 92.2058C86.2932 92.5066 86.6808 92.972 86.8851 93.5242C87.0169 93.8733 87.0745 94.2461 87.0543 94.6187C87.0341 94.9913 86.9366 95.3556 86.768 95.6885C86.3302 96.5271 85.3744 97.1869 83.8452 97.7357C83.2196 97.9681 82.5789 98.1576 81.9275 98.3029L78.604 89.1031ZM81.2061 92.5068L82.3037 92.1122C83.5862 91.6497 84.0919 90.7125 83.7651 89.806C83.3704 88.7085 82.3777 88.5728 81.1568 89.0168C80.795 89.1386 80.4459 89.2956 80.1147 89.4854L81.2061 92.5068ZM82.8278 97.0019C83.1806 96.9263 83.527 96.8233 83.8637 96.6936C85.0969 96.2373 86.102 95.3617 85.6149 93.999C85.1278 92.6363 83.8576 92.587 82.5318 93.0617L81.5268 93.4255L82.8278 97.0019Z" fill="#F67A45"/>
<path d="M69.1884 59.833C67.6052 59.8294 66.0847 59.214 64.9448 58.1155C63.8048 57.0169 63.1337 55.5201 63.0716 53.9382C63.025 52.727 63.3385 51.5292 63.9726 50.4961C64.6066 49.4631 65.5328 48.6413 66.6339 48.1345C67.735 47.6278 68.9616 47.459 70.1586 47.6493C71.3557 47.8396 72.4694 48.3806 73.3591 49.2039C74.2487 50.0271 74.8742 51.0956 75.1566 52.2744C75.439 53.4531 75.3656 54.6891 74.9456 55.8261C74.5256 56.9631 73.7779 57.9501 72.797 58.6622C71.8162 59.3743 70.6462 59.7796 69.435 59.8268L69.1884 59.833ZM69.1884 48.4997H68.9787C67.95 48.5395 66.9563 48.8836 66.1231 49.4883C65.29 50.093 64.6549 50.9313 64.2982 51.897C63.9416 52.8627 63.8793 53.9125 64.1194 54.9136C64.3595 55.9147 64.8911 56.8221 65.647 57.521C66.4028 58.22 67.349 58.679 68.3658 58.8401C69.3826 59.0012 70.4244 58.8571 71.3592 58.426C72.2941 57.9949 73.0801 57.2963 73.6179 56.4184C74.1557 55.5405 74.421 54.5229 74.3803 53.4942C74.3293 52.1512 73.76 50.8801 72.792 49.9477C71.824 49.0153 70.5324 48.4941 69.1884 48.4935V48.4997Z" fill="#F67A45"/>
<path d="M69.1884 59.8327C67.6052 59.8291 66.0847 59.2137 64.9448 58.1151C63.8048 57.0166 63.1336 55.5198 63.0716 53.9379C63.0662 53.5913 63.0888 53.2449 63.1394 52.902C63.1572 52.7938 63.2129 52.6955 63.2965 52.6246C63.38 52.5537 63.4861 52.5148 63.5957 52.5148C63.7053 52.5148 63.8113 52.5537 63.8949 52.6246C63.9785 52.6955 64.0342 52.7938 64.052 52.902C64.3103 54.0964 64.9808 55.1618 65.9458 55.9115C66.9109 56.6612 68.109 57.0474 69.3302 57.0024C70.5505 56.9522 71.7141 56.4734 72.6163 55.6501C73.5186 54.8268 74.1017 53.7118 74.2631 52.5012C74.2776 52.3943 74.3296 52.2959 74.4097 52.2237C74.4899 52.1514 74.593 52.1099 74.7009 52.1065C74.81 52.1024 74.9172 52.1364 75.0039 52.2028C75.0905 52.2693 75.1513 52.3639 75.1757 52.4703C75.2522 52.8171 75.2976 53.1699 75.3113 53.5247C75.3649 55.1459 74.7775 56.723 73.6764 57.9141C72.5753 59.1052 71.0493 59.8145 69.4289 59.8882L69.1884 59.8327ZM64.3356 55.5719C64.6233 56.3139 65.0768 56.9804 65.6613 57.5204C66.1614 57.987 66.7493 58.3494 67.3909 58.5865C68.0324 58.8237 68.7147 58.9308 69.398 58.9016C70.4814 58.8594 71.5245 58.4803 72.3822 57.8171C73.2399 57.154 73.8694 56.2398 74.1829 55.2019C73.6429 55.9929 72.9247 56.646 72.0861 57.1087C71.2475 57.5714 70.312 57.8307 69.3548 57.8657C68.3969 57.9039 67.4435 57.7161 66.5715 57.3177C65.6996 56.9192 64.9337 56.3212 64.3356 55.5719Z" fill="#F67A45"/>
<path d="M69.1884 59.833C67.6052 59.8294 66.0847 59.214 64.9448 58.1155C63.8048 57.0169 63.1337 55.5201 63.0716 53.9382C63.025 52.727 63.3385 51.5292 63.9726 50.4961C64.6066 49.4631 65.5328 48.6413 66.6339 48.1345C67.735 47.6278 68.9616 47.459 70.1586 47.6493C71.3557 47.8396 72.4694 48.3806 73.3591 49.2039C74.2487 50.0271 74.8742 51.0956 75.1566 52.2744C75.439 53.4531 75.3656 54.6891 74.9456 55.8261C74.5256 56.9631 73.7779 57.9501 72.797 58.6622C71.8162 59.3743 70.6462 59.7796 69.435 59.8268L69.1884 59.833ZM69.1884 48.4997H68.9787C67.95 48.5395 66.9563 48.8836 66.1231 49.4883C65.29 50.093 64.6549 50.9313 64.2982 51.897C63.9416 52.8627 63.8793 53.9125 64.1194 54.9136C64.3595 55.9147 64.8911 56.8221 65.647 57.521C66.4028 58.22 67.349 58.679 68.3658 58.8401C69.3826 59.0012 70.4244 58.8571 71.3592 58.426C72.2941 57.9949 73.0801 57.2963 73.6179 56.4184C74.1557 55.5405 74.421 54.5229 74.3803 53.4942C74.3293 52.1512 73.76 50.8801 72.792 49.9477C71.824 49.0153 70.5324 48.4941 69.1884 48.4935V48.4997Z" fill="#F67A45"/>
<path d="M69.1884 59.8327C67.6052 59.8291 66.0847 59.2137 64.9448 58.1151C63.8048 57.0166 63.1336 55.5198 63.0716 53.9379C63.0662 53.5913 63.0888 53.2449 63.1394 52.902C63.1572 52.7938 63.2129 52.6955 63.2965 52.6246C63.38 52.5537 63.4861 52.5148 63.5957 52.5148C63.7053 52.5148 63.8113 52.5537 63.8949 52.6246C63.9785 52.6955 64.0342 52.7938 64.052 52.902C64.3103 54.0964 64.9808 55.1618 65.9458 55.9115C66.9109 56.6612 68.109 57.0474 69.3302 57.0024C70.5505 56.9522 71.7141 56.4734 72.6163 55.6501C73.5186 54.8268 74.1017 53.7118 74.2631 52.5012C74.2776 52.3943 74.3296 52.2959 74.4097 52.2237C74.4899 52.1514 74.593 52.1099 74.7009 52.1065C74.81 52.1024 74.9172 52.1364 75.0039 52.2028C75.0905 52.2693 75.1513 52.3639 75.1757 52.4703C75.2522 52.8171 75.2976 53.1699 75.3113 53.5247C75.3649 55.1459 74.7775 56.723 73.6764 57.9141C72.5753 59.1052 71.0493 59.8145 69.4289 59.8882L69.1884 59.8327ZM64.3356 55.5719C64.6233 56.3139 65.0768 56.9804 65.6613 57.5204C66.1614 57.987 66.7493 58.3494 67.3909 58.5865C68.0324 58.8237 68.7147 58.9308 69.398 58.9016C70.4814 58.8594 71.5245 58.4803 72.3822 57.8171C73.2399 57.154 73.8694 56.2398 74.1829 55.2019C73.6429 55.9929 72.9247 56.646 72.0861 57.1087C71.2475 57.5714 70.312 57.8307 69.3548 57.8657C68.3969 57.9039 67.4435 57.7161 66.5715 57.3177C65.6996 56.9192 64.9337 56.3212 64.3356 55.5719Z" fill="#F67A45"/>
<path d="M68.7999 81.4017C61.0804 81.249 53.7332 78.0556 48.3552 72.5156C42.9772 66.9756 40.0032 59.5369 40.0796 51.8163C40.1559 44.0956 43.2765 36.7172 48.763 31.2847C54.2495 25.8521 61.6585 22.8047 69.3795 22.8047C77.1005 22.8047 84.5095 25.8521 89.996 31.2847C95.4825 36.7172 98.6031 44.0956 98.6795 51.8163C98.7558 59.5369 95.7818 66.9756 90.4038 72.5156C85.0259 78.0556 77.6786 81.249 69.9591 81.4017C69.5707 81.3956 69.1822 81.4017 68.7999 81.4017ZM68.8554 24.0568C68.4793 24.0568 68.1093 24.0568 67.7332 24.0568C60.3555 24.2047 53.3342 27.2583 48.1953 32.554C43.0565 37.8496 40.2153 44.9595 40.2892 52.3383C40.3631 59.7171 43.3462 66.7686 48.5901 71.9603C53.8341 77.1519 60.9151 80.0642 68.2943 80.0642C75.6735 80.0642 82.7545 77.1519 87.9984 71.9603C93.2424 66.7686 96.2254 59.7171 96.2994 52.3383C96.3733 44.9595 93.5321 37.8496 88.3932 32.554C83.2543 27.2583 76.2331 24.2047 68.8554 24.0568Z" fill="#F67A45"/>
<path d="M90.7944 57.9335C90.7944 57.9335 90.7451 58.1802 90.6464 58.6365C90.5019 59.301 90.3228 59.9575 90.11 60.6035C89.3511 62.9374 88.2069 65.1279 86.7248 67.084C84.5944 69.8651 81.8203 72.087 78.641 73.5585C76.8473 74.3898 74.9494 74.9747 72.999 75.2973C71.9929 75.4643 70.9779 75.5713 69.9591 75.6179C68.9404 75.645 67.9209 75.6079 66.9069 75.507C64.8739 75.3083 62.878 74.8311 60.9751 74.0888C59.1403 73.362 57.4075 72.4003 55.8202 71.2277C53.0139 69.1485 50.7333 66.4413 49.1608 63.3227C48.5413 62.088 48.0456 60.7951 47.6809 59.4627C47.3997 58.4516 47.1936 57.4211 47.0643 56.3797C46.9965 55.948 46.9718 55.5534 46.9472 55.2143C46.9225 54.8751 46.9102 54.5977 46.9102 54.351C46.9102 53.8824 46.9102 53.6357 46.9102 53.6357C46.9102 53.6357 46.9102 53.8824 46.9903 54.3448C47.0705 54.8073 47.1383 55.4917 47.2986 56.3427C47.4979 57.3685 47.772 58.3783 48.1187 59.3641C49.084 62.1382 50.5839 64.6961 52.5337 66.8929C56.253 71.1213 61.4478 73.7683 67.0549 74.2922C68.0242 74.3832 68.9984 74.412 69.9714 74.3786C70.9297 74.3411 71.8849 74.2485 72.8325 74.1011C74.6832 73.7992 76.4892 73.2689 78.2094 72.5226C79.8176 71.8159 81.3368 70.9218 82.7353 69.8588C83.9889 68.8965 85.1379 67.8053 86.1637 66.6031C87.0303 65.5762 87.81 64.479 88.4944 63.3227C89.0266 62.425 89.4963 61.4917 89.9003 60.5295C90.221 59.7279 90.4614 59.0866 90.6094 58.6365L90.7944 57.9335Z" fill="#F67A45"/>
<path d="M46.8856 54.536C47.348 62.4841 52.9098 69.8958 60.1735 73.0344C63.9936 74.6441 68.1783 75.1891 72.2833 74.6115C76.3882 74.0339 80.2601 72.3553 83.4876 69.754C87.0393 66.8066 89.9805 62.5335 90.887 57.952C90.8968 57.912 90.8903 57.8697 90.8689 57.8344C90.8475 57.7991 90.813 57.7738 90.7729 57.764C90.7328 57.7542 90.6905 57.7607 90.6552 57.7821C90.62 57.8035 90.5946 57.838 90.5848 57.8781C88.735 62.8109 86.2007 67.2136 81.8166 70.3151C77.4729 73.3168 72.2042 74.6783 66.9501 74.1566C56.369 73.1515 48.7354 64.7101 47.0274 54.5237C47.0274 54.462 46.904 54.4744 46.9102 54.5237L46.8856 54.536Z" fill="#F67A45"/>
<path d="M44.3081 42.204C44.3081 42.204 44.4006 41.9388 44.5856 41.4456C44.8534 40.7294 45.158 40.0276 45.4982 39.3429C46.0249 38.2753 46.6244 37.2452 47.2925 36.2599C48.1681 34.9744 49.1588 33.7711 50.2523 32.665C51.5643 31.3567 53.0111 30.191 54.5685 29.1873C56.3135 28.0695 58.1872 27.1668 60.1489 26.4989C62.2467 25.7902 64.4228 25.3388 66.6295 25.1547L67.4557 25.093C67.6037 25.093 67.7208 25.093 67.8935 25.093H69.1267H69.9961C71.1457 25.1469 72.2907 25.2725 73.4245 25.4692C75.6819 25.8635 77.8775 26.5539 79.9544 27.5225C83.8529 29.3237 87.2555 32.0449 89.8695 35.4521C90.9853 36.9173 91.95 38.4915 92.7491 40.1507C93.4099 41.5548 93.9484 43.0134 94.3585 44.5101C94.6618 45.6619 94.8925 46.8317 95.0491 48.0125C95.1455 48.7695 95.2031 49.531 95.2217 50.2939V51.1079C95.2217 51.1079 95.1909 50.8242 95.1416 50.3001C95.0922 49.776 94.9812 49.0114 94.8086 48.0433C94.5981 46.8865 94.3097 45.7452 93.9453 44.6273C93.4647 43.1842 92.8645 41.7838 92.151 40.4405C91.3125 38.8565 90.3168 37.3609 89.1789 35.9762C86.55 32.7972 83.225 30.2655 79.4611 28.5769C76.4556 27.2291 73.2197 26.4693 69.9283 26.3386H69.1206H68.282H67.8627H67.4742C67.2029 26.3386 66.9316 26.3386 66.6603 26.3879C64.5452 26.5531 62.4569 26.9671 60.4387 27.6211C56.8647 28.78 53.5804 30.6912 50.8072 33.2261C49.6932 34.2551 48.6623 35.3705 47.7241 36.562C46.9944 37.484 46.3309 38.4566 45.7386 39.4724C45.2454 40.3172 44.8939 41.0016 44.6534 41.4764L44.3081 42.204Z" fill="#F67A45"/>
<path d="M95.271 49.9669C94.7222 41.1863 88.9384 32.9299 81.1876 28.8541C76.869 26.6598 72.0432 25.6572 67.2079 25.9499C62.3727 26.2425 57.703 27.8198 53.6806 30.5189C49.4691 33.4294 45.8373 37.7456 44.1724 42.6292C44.1169 42.7895 44.3882 42.882 44.4622 42.7402C46.5217 38.6952 48.9388 35.014 52.4782 32.1283C56.2848 29.0914 60.8716 27.1912 65.7107 26.6466C70.242 26.1102 74.8348 26.7628 79.0373 28.5402C83.2398 30.3177 86.9071 33.1587 89.6784 36.7837C92.5527 40.6602 94.4251 45.1865 95.1292 49.9607C95.1292 50.0224 95.2525 50.01 95.2464 49.9607L95.271 49.9669Z" fill="#F67A45"/>
<path d="M76.8898 53.7161V53.9874C76.9074 54.2419 76.9074 54.4974 76.8898 54.752C76.8898 54.9185 76.8898 55.1096 76.859 55.3069C76.8282 55.5042 76.7912 55.7262 76.7542 55.9235C76.7172 56.1208 76.637 56.3983 76.5692 56.6573C76.5014 56.9163 76.3842 57.1629 76.2794 57.4404C75.7267 58.6836 74.8544 59.758 73.7513 60.5543C73.1231 61.0066 72.4283 61.3582 71.6918 61.5964C70.9276 61.8432 70.1328 61.9823 69.3302 62.0095C68.5299 62.0193 67.7324 61.9134 66.9624 61.695C66.2192 61.4787 65.5125 61.1524 64.8659 60.7269C63.7268 59.9858 62.8071 58.9532 62.2021 57.7364C61.7803 56.9005 61.5307 55.9883 61.4684 55.0541C61.4501 54.7975 61.4501 54.5399 61.4684 54.2833V54.012C61.5264 54.3494 61.6047 54.683 61.7027 55.0109C62.0903 56.4211 62.8532 57.6998 63.9101 58.7106C64.3717 59.1409 64.8805 59.5174 65.427 59.8329C66.0077 60.1613 66.6299 60.4102 67.2768 60.5728C67.9403 60.7479 68.6259 60.8248 69.3117 60.8009C69.9968 60.7867 70.677 60.6809 71.3342 60.4865C71.9723 60.2979 72.5821 60.0241 73.147 59.6725C73.6787 59.3389 74.1674 58.9413 74.6022 58.4886C74.9956 58.0745 75.3468 57.6221 75.6504 57.1383C75.8855 56.7128 76.0915 56.272 76.267 55.8187C76.341 55.6091 76.4089 55.4117 76.4767 55.2021C76.5445 54.9924 76.5692 54.8445 76.6123 54.6903C76.6786 54.4445 76.7321 54.1955 76.7727 53.9442L76.8898 53.7161Z" fill="#F67A45"/>
<path d="M61.493 54.3756C61.493 58.6179 65.7477 61.7379 69.7618 61.4543C73.5848 61.1891 77.3523 57.7546 77.007 53.7158C77.007 53.6048 76.8035 53.5616 76.7789 53.7158C76.0759 57.5635 73.8006 60.8993 69.5213 61.0781C65.2421 61.257 62.5906 58.1986 61.5794 54.3879C61.5794 54.3765 61.5748 54.3655 61.5667 54.3574C61.5586 54.3493 61.5477 54.3447 61.5362 54.3447C61.5248 54.3447 61.5138 54.3493 61.5057 54.3574C61.4976 54.3655 61.493 54.3765 61.493 54.3879V54.3756Z" fill="#F67A45"/>
<path d="M76.8898 53.7161V53.9874C76.9074 54.2419 76.9074 54.4974 76.8898 54.752C76.8898 54.9185 76.8898 55.1096 76.859 55.3069C76.8282 55.5042 76.7912 55.7262 76.7542 55.9235C76.7172 56.1208 76.637 56.3983 76.5692 56.6573C76.5014 56.9163 76.3842 57.1629 76.2794 57.4404C75.7267 58.6836 74.8544 59.758 73.7513 60.5543C73.1231 61.0066 72.4283 61.3582 71.6918 61.5964C70.9276 61.8432 70.1328 61.9823 69.3302 62.0095C68.5299 62.0193 67.7324 61.9134 66.9624 61.695C66.2192 61.4787 65.5125 61.1524 64.8659 60.7269C63.7268 59.9858 62.8071 58.9532 62.2021 57.7364C61.7803 56.9005 61.5307 55.9883 61.4684 55.0541C61.4501 54.7975 61.4501 54.5399 61.4684 54.2833V54.012C61.5264 54.3494 61.6047 54.683 61.7027 55.0109C62.0903 56.4211 62.8532 57.6998 63.9101 58.7106C64.3717 59.1409 64.8805 59.5174 65.427 59.8329C66.0077 60.1613 66.6299 60.4102 67.2768 60.5728C67.9403 60.7479 68.6259 60.8248 69.3117 60.8009C69.9968 60.7867 70.677 60.6809 71.3342 60.4865C71.9723 60.2979 72.5821 60.0241 73.147 59.6725C73.6787 59.3389 74.1674 58.9413 74.6022 58.4886C74.9956 58.0745 75.3468 57.6221 75.6504 57.1383C75.8855 56.7128 76.0915 56.272 76.267 55.8187C76.341 55.6091 76.4089 55.4117 76.4767 55.2021C76.5445 54.9924 76.5692 54.8445 76.6123 54.6903C76.6786 54.4445 76.7321 54.1955 76.7727 53.9442L76.8898 53.7161Z" fill="#F67A45"/>
<path d="M61.493 54.3756C61.493 58.6179 65.7477 61.7379 69.7618 61.4543C73.5848 61.1891 77.3523 57.7546 77.007 53.7158C77.007 53.6048 76.8035 53.5616 76.7789 53.7158C76.0759 57.5635 73.8006 60.8993 69.5213 61.0781C65.2421 61.257 62.5906 58.1986 61.5794 54.3879C61.5794 54.3765 61.5748 54.3655 61.5667 54.3574C61.5586 54.3493 61.5477 54.3447 61.5362 54.3447C61.5248 54.3447 61.5138 54.3493 61.5057 54.3574C61.4976 54.3655 61.493 54.3765 61.493 54.3879V54.3756Z" fill="#F67A45"/>
<path d="M59.2054 53.4198V53.0745C59.184 52.746 59.184 52.4164 59.2054 52.0879C59.272 50.8946 59.5649 49.7248 60.0687 48.641C60.7901 47.0681 61.9209 45.7179 63.3429 44.7317C64.1488 44.1696 65.0342 43.7311 65.9697 43.4307C67.9129 42.807 69.9959 42.7641 71.9631 43.3073C72.9081 43.5871 73.8074 44.0025 74.6331 44.5406C76.094 45.4637 77.2869 46.7543 78.0922 48.2834C78.6468 49.3439 78.9902 50.5019 79.1035 51.6933C79.1372 52.021 79.1496 52.3505 79.1405 52.6798V53.0251L79.085 52.686C79.048 52.464 78.9802 52.1372 78.8753 51.7364C78.5895 50.6391 78.1227 49.5971 77.4941 48.6534C77.0788 48.0352 76.5993 47.4627 76.0636 46.9453C75.4649 46.3788 74.8003 45.8861 74.0843 45.4778C73.3249 45.0482 72.5122 44.7206 71.6671 44.5036C70.7941 44.2755 69.8929 44.1737 68.9911 44.2014C67.2113 44.2332 65.4731 44.7445 63.9595 45.6813C63.2638 46.1202 62.624 46.6419 62.0542 47.2352C61.5445 47.7779 61.0939 48.3732 60.71 49.011C60.1367 49.9926 59.7206 51.0578 59.4767 52.168C59.3904 52.575 59.3287 52.8957 59.2979 53.1238L59.2054 53.4198Z" fill="#F67A45"/>
<path d="M79.1343 52.5753C78.9493 47.2724 73.8561 43.3261 68.7506 43.5419C63.645 43.7577 58.7245 48.0987 59.0883 53.4077C59.0883 53.5248 59.3041 53.568 59.3226 53.4077C60.0872 48.37 63.2997 44.1585 68.7506 43.918C74.2014 43.6775 77.9319 47.556 79.0418 52.5506C79.0418 52.5937 79.1343 52.5876 79.1343 52.5506V52.5753Z" fill="#F67A45"/>
<path d="M78.9493 58.5934C80.3159 59.883 81.7462 61.1034 83.2348 62.25C84.4988 63.2859 85.8431 64.7842 87.3661 65.3947C87.5942 65.4872 87.9395 65.296 87.7669 65.0247C86.8358 63.588 84.986 62.5583 83.6541 61.473C82.3222 60.3878 80.8423 59.1422 79.3378 58.1372C79.2769 58.0914 79.2007 58.0709 79.125 58.08C79.0494 58.089 78.9802 58.1268 78.9317 58.1856C78.8833 58.2444 78.8594 58.3196 78.8649 58.3955C78.8705 58.4715 78.9052 58.5424 78.9617 58.5934H78.9493Z" fill="#F67A45"/>
<path d="M79.9791 64.9507C80.5946 65.6599 81.2829 66.3026 82.0324 66.8683C82.76 67.4849 83.4629 68.1447 84.246 68.6812C84.3291 68.7284 84.4262 68.7448 84.5202 68.7277C84.6142 68.7105 84.6992 68.6608 84.7602 68.5872C84.8212 68.5137 84.8544 68.421 84.854 68.3255C84.8536 68.2299 84.8195 68.1375 84.7578 68.0646C84.0475 67.4083 83.3024 66.7908 82.5257 66.2147C81.8771 65.6089 81.166 65.0736 80.4045 64.6177C80.1887 64.5067 79.8249 64.7349 80.0099 64.9815L79.9791 64.9507Z" fill="#F67A45"/>
<path d="M55.0434 38.7197C56.3691 40.0454 57.8921 41.1862 59.3596 42.3762C60.6237 43.4121 61.9617 44.9105 63.4848 45.521C63.7129 45.6134 64.0644 45.4223 63.8856 45.151C62.9606 43.7143 61.1108 42.6845 59.7789 41.5993C58.447 40.5141 56.961 39.2685 55.4626 38.2634C55.4012 38.2313 55.3306 38.2213 55.2627 38.235C55.1947 38.2488 55.1335 38.2855 55.0894 38.339C55.0453 38.3925 55.021 38.4595 55.0205 38.5288C55.0199 38.5982 55.0432 38.6656 55.0865 38.7197H55.0434Z" fill="#F67A45"/>
<path d="M56.0792 45.0586C56.6918 45.7707 57.3803 46.4137 58.1325 46.9762C58.8601 47.5928 59.5631 48.2526 60.34 48.7891C60.4232 48.8317 60.5185 48.8447 60.6101 48.8262C60.7017 48.8077 60.7844 48.7586 60.8445 48.687C60.9046 48.6154 60.9387 48.5255 60.9411 48.4321C60.9436 48.3386 60.9143 48.2471 60.858 48.1725C60.1443 47.5176 59.3972 46.9002 58.6197 46.3226C57.9637 45.7122 57.242 45.1766 56.4677 44.7256C56.258 44.6208 55.8942 44.8428 56.0792 45.0894V45.0586Z" fill="#F67A45"/>
<path d="M82.1742 37.2402C80.6943 38.3994 79.3563 39.756 77.9812 41.0324C76.7912 42.1361 75.1263 43.2707 74.3494 44.732C74.319 44.7872 74.3078 44.851 74.3176 44.9132C74.3275 44.9754 74.3577 45.0326 74.4037 45.0758C74.4496 45.1189 74.5086 45.1455 74.5714 45.1513C74.6341 45.1572 74.697 45.142 74.7502 45.1082C76.2177 44.3867 77.4448 42.7897 78.6163 41.6675C79.9667 40.3664 81.3972 39.1085 82.6181 37.6841C82.8771 37.3758 82.4701 37.0675 82.1742 37.271V37.2402Z" fill="#F67A45"/>
<path d="M81.6933 43.7084C80.9545 44.2154 80.2741 44.8027 79.6646 45.4595C78.9379 46.0979 78.2463 46.7751 77.5928 47.4882C77.5556 47.5287 77.5267 47.5761 77.5077 47.6278C77.4888 47.6794 77.4803 47.7343 77.4825 47.7893C77.4848 47.8442 77.4979 47.8982 77.5211 47.9481C77.5442 47.998 77.577 48.0429 77.6175 48.0801C77.658 48.1174 77.7054 48.1463 77.7571 48.1652C77.8087 48.1841 77.8636 48.1927 77.9186 48.1904C77.9735 48.1881 78.0275 48.175 78.0774 48.1519C78.1273 48.1287 78.1722 48.096 78.2094 48.0555C78.9406 47.4199 79.6383 46.7469 80.2997 46.0392C80.9723 45.4513 81.5763 44.7894 82.1002 44.066C82.2544 43.8317 81.9399 43.5727 81.7118 43.7084H81.6933Z" fill="#F67A45"/>
<path d="M59.7912 58.9263C58.3051 60.0855 56.9671 61.4421 55.592 62.7184C54.402 63.8222 52.7371 64.9568 51.9602 66.4181C51.9324 66.4732 51.9234 66.5357 51.9344 66.5964C51.9453 66.657 51.9758 66.7125 52.0211 66.7543C52.0664 66.7961 52.124 66.822 52.1854 66.8281C52.2467 66.8342 52.3083 66.8202 52.361 66.7881C53.8285 66.0667 55.0556 64.4696 56.2271 63.3474C57.5775 62.0463 59.0081 60.7885 60.229 59.3641C60.4879 59.0558 60.081 58.7475 59.7912 58.951V58.9263Z" fill="#F67A45"/>
<path d="M59.3041 65.3944C58.5674 65.9017 57.8892 66.489 57.2816 67.1455C56.5515 67.7822 55.8577 68.4595 55.2037 69.1742C55.1284 69.256 55.0888 69.3643 55.0934 69.4753C55.098 69.5863 55.1466 69.6909 55.2283 69.7661C55.3101 69.8414 55.4184 69.881 55.5294 69.8764C55.6404 69.8718 55.745 69.8232 55.8203 69.7415C56.5514 69.1059 57.2491 68.4329 57.9106 67.7251C58.5815 67.138 59.1854 66.4783 59.7111 65.7582C59.8652 65.5177 59.5508 65.2587 59.3226 65.3944H59.3041Z" fill="#F67A45"/>
<path d="M44.1292 51.6194C44.3019 49.9299 44.8568 48.2095 44.9061 46.52C44.9032 46.499 44.8938 46.4793 44.8794 46.4637C44.865 46.4481 44.8462 46.4372 44.8255 46.4325C44.8047 46.4278 44.783 46.4296 44.7633 46.4375C44.7436 46.4454 44.7267 46.4591 44.715 46.4768C43.8641 47.9629 43.8456 49.9607 43.9319 51.6194C43.9319 51.7365 44.1169 51.7304 44.1292 51.6194Z" fill="#F67A45"/>
<path d="M90.9609 49.862C91.1334 50.8973 91.22 51.9449 91.2199 52.9944C91.1083 54.0697 91.0671 55.151 91.0966 56.2316C91.0966 56.3611 91.3124 56.4413 91.3802 56.2995C92.3113 54.4496 91.6824 51.7242 91.0411 49.8559C91.0411 49.8189 90.9548 49.8189 90.9609 49.8559V49.862Z" fill="#F67A45"/>
<path d="M55.1728 36.7221C58.2777 39.5502 61.5407 42.1998 64.9461 44.6578C65.1804 44.8367 65.5627 44.5284 65.3037 44.3187C62.0805 41.5897 58.7087 39.0412 55.2036 36.6851C55.2036 36.6851 55.1543 36.6851 55.1728 36.7221Z" fill="#F67A45"/>
<path d="M82.2174 35.6371C78.9091 38.2499 75.7511 41.0476 72.7586 44.0168C72.5242 44.245 72.888 44.5533 73.1162 44.356C76.3235 41.6366 79.3744 38.738 82.2544 35.6741C82.2544 35.6741 82.2544 35.6186 82.2174 35.6371Z" fill="#F67A45"/>
<path d="M78.4746 65.3145C79.2762 66.1901 80.1641 66.9855 81.0274 67.7809C81.7547 68.574 82.5627 69.289 83.4383 69.9144C83.5863 70.0007 83.8144 69.8281 83.7035 69.6678C83.0074 68.8495 82.2283 68.1056 81.3788 67.448C80.4847 66.6587 79.6153 65.8386 78.6719 65.111C78.5424 65.0124 78.3574 65.1603 78.4746 65.2898V65.3145Z" fill="#F67A45"/>
<path d="M61.0183 65.8138C60.1365 66.6031 59.3349 67.4848 58.5148 68.3419C57.7081 69.0583 56.9842 69.8629 56.3567 70.7405C56.2642 70.8947 56.4677 71.092 56.6157 70.9872C57.4945 70.254 58.2906 69.4269 58.9896 68.5207C59.748 67.676 60.5373 66.8497 61.2341 65.9556C61.3327 65.8261 61.1169 65.709 61.0183 65.8015V65.8138Z" fill="#F67A45"/>
<path d="M58.0708 74.9707C60.4611 76.2687 63.085 77.0798 65.7908 77.357C68.4854 77.7146 71.7966 77.9304 74.3679 76.9007C74.596 76.8082 74.4604 76.4814 74.2446 76.4814C71.5623 76.4814 69.028 77.0549 66.3211 76.7774C63.4662 76.4814 60.9134 75.5442 58.2188 74.6439C58.1974 74.6342 58.1742 74.6288 58.1507 74.628C58.1271 74.6273 58.1036 74.6311 58.0816 74.6394C58.0596 74.6477 58.0394 74.6603 58.0222 74.6764C58.005 74.6925 57.9911 74.7119 57.9814 74.7333C57.9717 74.7548 57.9663 74.7779 57.9655 74.8015C57.9648 74.825 57.9687 74.8485 57.977 74.8705C57.9853 74.8926 57.9978 74.9128 58.0139 74.93C58.03 74.9471 58.0494 74.961 58.0708 74.9707Z" fill="#F67A45"/>
<path d="M76.6309 76.2534C77.1792 76.1288 77.714 75.9512 78.2279 75.7231C78.6866 75.6003 79.1094 75.3699 79.4611 75.051C79.4979 75.0107 79.5222 74.9608 79.5313 74.907C79.5404 74.8533 79.5338 74.7981 79.5123 74.748C79.4909 74.6979 79.4554 74.6551 79.4103 74.6246C79.3651 74.5942 79.3121 74.5773 79.2577 74.5762C78.77 74.6054 78.2974 74.7559 77.8826 75.014C77.3621 75.2243 76.8643 75.4866 76.3966 75.7971C76.3459 75.8298 76.3086 75.8796 76.2915 75.9374C76.2743 75.9952 76.2784 76.0573 76.3029 76.1123C76.3275 76.1674 76.3709 76.2119 76.4254 76.2378C76.4799 76.2636 76.5418 76.2692 76.6 76.2534H76.6309Z" fill="#F67A45"/>
<path d="M53.6868 52.2855C53.688 52.6162 53.591 52.9399 53.4081 53.2155C53.2253 53.4911 52.9647 53.7062 52.6595 53.8337C52.3543 53.9611 52.0181 53.9951 51.6935 53.9313C51.369 53.8675 51.0707 53.7088 50.8363 53.4754C50.602 53.2419 50.4423 52.9442 50.3773 52.6199C50.3123 52.2956 50.345 51.9593 50.4713 51.6536C50.5976 51.3479 50.8118 51.0865 51.0867 50.9027C51.3617 50.7188 51.685 50.6206 52.0157 50.6206C52.4578 50.6206 52.882 50.7958 53.1952 51.1078C53.5084 51.4199 53.6851 51.8433 53.6868 52.2855Z" fill="#F67A45"/>
<path d="M87.3106 52.2855C87.3118 52.6162 87.2148 52.9399 87.032 53.2155C86.8491 53.4911 86.5886 53.7062 86.2833 53.8337C85.9781 53.9611 85.6419 53.9951 85.3174 53.9313C84.9928 53.8675 84.6945 53.7088 84.4602 53.4754C84.2259 53.2419 84.0661 52.9442 84.0011 52.6199C83.9362 52.2956 83.9689 51.9593 84.0952 51.6536C84.2215 51.3479 84.4356 51.0865 84.7106 50.9027C84.9855 50.7188 85.3088 50.6206 85.6396 50.6206C86.0817 50.6206 86.5058 50.7958 86.819 51.1078C87.1322 51.4199 87.309 51.8433 87.3106 52.2855Z" fill="#F67A45"/>
<path d="M101.844 61.7567V61.1401L102.609 60.4002C104.459 58.6428 105.285 57.7118 105.297 56.6204C105.316 56.4284 105.292 56.2346 105.226 56.0533C105.16 55.872 105.054 55.7078 104.916 55.5729C104.778 55.4379 104.612 55.3357 104.429 55.2736C104.246 55.2116 104.052 55.1914 103.86 55.2145C103.295 55.2385 102.755 55.4562 102.331 55.8311L102.017 55.1405C102.592 54.664 103.317 54.4043 104.064 54.4067C104.351 54.3811 104.641 54.417 104.913 54.5121C105.186 54.6073 105.435 54.7594 105.644 54.9584C105.852 55.1574 106.017 55.3987 106.125 55.6661C106.233 55.9336 106.283 56.2211 106.271 56.5094C106.271 57.8413 105.303 58.9142 103.805 60.3817L103.219 60.9181H106.462V61.7259L101.844 61.7567Z" fill="#F67A45"/>
<path d="M113.443 58.0754C113.443 60.5418 112.53 61.8799 110.933 61.8799C109.521 61.8799 108.565 60.5603 108.547 58.1802C108.528 55.8001 109.589 54.425 111.056 54.425C112.524 54.425 113.443 55.7754 113.443 58.0754ZM109.521 58.1864C109.521 60.0362 110.1 61.1276 110.988 61.1276C111.987 61.1276 112.462 59.9622 112.462 58.1186C112.462 56.2749 112.006 55.1773 111.001 55.1773C110.144 55.1773 109.521 56.2194 109.521 58.1864Z" fill="#F67A45"/>
<path d="M117.568 55.4548L116.335 56.1331L116.15 55.387L117.722 54.5422H118.554V61.7566H117.611L117.568 55.4548Z" fill="#F67A45"/>
<path d="M122.161 59.9252C122.168 59.4943 122.31 59.0763 122.566 58.73C122.823 58.3838 123.182 58.1268 123.592 57.9952C123.262 57.8679 122.978 57.6461 122.774 57.3576C122.57 57.0691 122.455 56.7267 122.445 56.3735C122.445 55.2266 123.413 54.4497 124.677 54.4497C126.077 54.4497 126.774 55.3253 126.774 56.2256C126.767 56.5929 126.65 56.9498 126.439 57.2507C126.228 57.5516 125.933 57.7829 125.59 57.9151C125.996 58.0314 126.355 58.2727 126.617 58.6047C126.878 58.9368 127.028 59.3428 127.045 59.7649C127.045 60.9981 125.966 61.8614 124.579 61.8614C123.074 61.8799 122.161 60.9796 122.161 59.9252ZM126.046 59.8821C126.046 59.0065 125.43 58.581 124.461 58.3035C124.106 58.3655 123.783 58.5475 123.547 58.8192C123.31 59.0908 123.173 59.4356 123.16 59.7957C123.155 59.9837 123.189 60.1708 123.26 60.3448C123.331 60.5188 123.439 60.6758 123.575 60.8055C123.711 60.9353 123.873 61.0349 124.05 61.0978C124.227 61.1607 124.416 61.1856 124.603 61.1708C124.784 61.1888 124.966 61.169 125.138 61.1125C125.31 61.056 125.469 60.9642 125.604 60.8428C125.738 60.7215 125.846 60.5734 125.92 60.4079C125.994 60.2424 126.033 60.0633 126.034 59.8821H126.046ZM123.364 56.2749C123.364 56.9963 123.907 57.3848 124.739 57.6068C125.039 57.5376 125.308 57.3726 125.506 57.1368C125.704 56.9009 125.82 56.6071 125.836 56.2995C125.845 56.1378 125.819 55.976 125.759 55.8253C125.7 55.6747 125.608 55.5387 125.491 55.4268C125.374 55.3149 125.234 55.2297 125.081 55.177C124.927 55.1244 124.764 55.1056 124.603 55.1218C124.445 55.109 124.285 55.1293 124.134 55.1816C123.984 55.2338 123.846 55.3168 123.73 55.4253C123.613 55.5338 123.52 55.6653 123.457 55.8116C123.394 55.9579 123.363 56.1156 123.364 56.2749Z" fill="#F67A45"/>
<path d="M6.95991 58.2542H4.0495V60.9488H7.29287V61.7566H3.08142V54.2771H7.12639V55.0849H4.04333V57.4527H6.95374L6.95991 58.2542Z" fill="#F67A45"/>
<path d="M9.49421 60.585C10.0186 60.8977 10.6164 61.0657 11.2269 61.0721C12.2135 61.0721 12.7931 60.548 12.7931 59.7957C12.7931 59.0434 12.3923 58.692 11.381 58.3035C10.1478 57.8719 9.40788 57.2429 9.40788 56.1885C9.40788 55.017 10.376 54.1537 11.825 54.1537C12.4004 54.1334 12.9714 54.2608 13.4837 54.5237L13.2124 55.3068C12.7758 55.0746 12.2886 54.9539 11.7942 54.9553C10.7706 54.9553 10.3821 55.5719 10.3821 56.0775C10.3821 56.7743 10.8384 57.1196 11.8743 57.5204C13.1384 58.0075 13.7797 58.618 13.7797 59.7155C13.7797 60.8131 12.9287 61.8675 11.1591 61.8675C10.4937 61.8759 9.83739 61.7123 9.25372 61.3927L9.49421 60.585Z" fill="#F67A45"/>
<path d="M17.6581 55.0972H15.3828V54.2771H20.9323V55.0972H18.6447V61.7566H17.6705L17.6581 55.0972Z" fill="#F67A45"/>
<path d="M22.8623 54.3758C23.5421 54.2747 24.2284 54.2232 24.9156 54.2216C26.0084 54.1355 27.093 54.4684 27.9494 55.1527C28.3087 55.4981 28.5891 55.9173 28.7711 56.3814C28.9531 56.8455 29.0325 57.3434 29.0038 57.8411C29.0282 58.3738 28.9453 58.906 28.7599 59.4059C28.5745 59.9059 28.2905 60.3635 27.9247 60.7515C27.0028 61.5267 25.8148 61.9117 24.6135 61.8244C24.0286 61.8284 23.444 61.7996 22.8623 61.7381V54.3758ZM23.8304 60.992C24.1532 61.0362 24.4789 61.0548 24.8046 61.0475C26.8703 61.0475 27.9925 59.8944 27.9925 57.8719C27.9925 56.1084 27.0059 54.9862 24.9588 54.9862C24.5802 54.9798 24.2021 55.0128 23.8304 55.0849V60.992Z" fill="#F67A45"/>
<path d="M18.7249 37.1108L21.5983 37.6411L23.6639 35.5754L24.0524 38.4735L26.6545 39.7992L24.0154 41.0571L23.5591 43.949L21.549 41.8279L18.657 42.2842L20.0506 39.7129L18.7249 37.1108Z" fill="#F67A45"/>
<path d="M118.937 37.1108L116.063 37.6411L113.998 35.5754L113.609 38.4735L111.007 39.7992L113.646 41.0571L114.102 43.949L116.113 41.8279L118.998 42.2842L117.611 39.7129L118.937 37.1108Z" fill="#F67A45"/>
<path d="M42.5754 86.5071C40.3718 84.5133 38.2842 82.3948 36.3229 80.1622C34.3662 77.749 32.6925 75.1194 31.3346 72.3251C31.0571 71.7516 30.1753 72.2387 30.459 72.8184C33.0611 78.2014 37.0629 83.7632 42.2362 86.9203C42.4952 87.0744 42.8035 86.7291 42.5754 86.5071Z" fill="#F67A45"/>
<path d="M29.7869 68.934C29.4093 67.5744 28.8906 66.258 28.2392 65.0062C27.9802 64.4821 27.0615 64.8397 27.2465 65.407C27.7149 66.7384 28.3204 68.0175 29.0531 69.2238C29.1026 69.3038 29.1786 69.3637 29.2678 69.3933C29.357 69.4229 29.4537 69.4202 29.5412 69.3857C29.6286 69.3512 29.7011 69.287 29.746 69.2044C29.7909 69.1219 29.8054 69.0262 29.7869 68.934Z" fill="#F67A45"/>
<path d="M22.443 65.2837C23.2374 68.3614 24.3901 71.3353 25.8775 74.1444C26.6175 75.6304 27.4067 77.0918 28.2885 78.5038C29.0346 79.7062 29.8485 81.2662 31.0016 82.1172C31.205 82.2651 31.6798 82.1541 31.5442 81.8212C31.0386 80.625 30.0581 79.5952 29.3552 78.4976C28.455 77.1041 27.6225 75.6736 26.8456 74.2122C25.3041 71.2895 24.0955 68.2249 22.7575 65.2035C22.6835 65.0308 22.3937 65.0802 22.443 65.2837Z" fill="#F67A45"/>
<path d="M33.7764 85.7858C34.6627 86.8414 35.6777 87.7819 36.7978 88.5852C37.7104 89.3375 38.7093 90.509 39.8809 90.7927C39.9221 90.8068 39.9666 90.8081 40.0086 90.7964C40.0506 90.7848 40.088 90.7607 40.1161 90.7273C40.1441 90.6939 40.1614 90.6529 40.1656 90.6095C40.1699 90.5662 40.1609 90.5225 40.1398 90.4844C39.6342 89.3868 38.1914 88.5852 37.2664 87.8391C36.294 86.94 35.2151 86.1635 34.0539 85.5268C33.9059 85.459 33.6531 85.607 33.7826 85.7858H33.7764Z" fill="#F67A45"/>
<path d="M1.30557 64.9508C3.46409 65.2304 5.64144 65.3376 7.81699 65.2715C9.91963 65.2715 12.3121 65.6045 14.3654 65.0988C14.4216 65.0836 14.4712 65.0503 14.5066 65.004C14.542 64.9578 14.5611 64.9012 14.5611 64.8429C14.5611 64.7847 14.542 64.7281 14.5066 64.6819C14.4712 64.6356 14.4216 64.6023 14.3654 64.587C12.3182 64.0876 9.91346 64.4021 7.81699 64.4144C5.64128 64.3503 3.46393 64.4596 1.30557 64.7412C1.27777 64.7412 1.2511 64.7522 1.23145 64.7719C1.21179 64.7916 1.20074 64.8182 1.20074 64.846C1.20074 64.8738 1.21179 64.9005 1.23145 64.9201C1.2511 64.9398 1.27777 64.9508 1.30557 64.9508Z" fill="#F67A45"/>
<path d="M17.5102 65.1974C20.5933 65.6413 23.849 65.3947 26.9628 65.3947C30.2802 65.3947 33.6223 65.4872 36.9396 65.3947C36.9955 65.3947 37.0508 65.3837 37.1024 65.3623C37.1541 65.3409 37.201 65.3096 37.2405 65.2701C37.28 65.2306 37.3113 65.1836 37.3327 65.132C37.3541 65.0804 37.3651 65.0251 37.3651 64.9692C37.3651 64.9133 37.3541 64.858 37.3327 64.8064C37.3113 64.7548 37.28 64.7079 37.2405 64.6684C37.201 64.6289 37.1541 64.5975 37.1024 64.5761C37.0508 64.5548 36.9955 64.5438 36.9396 64.5438C33.6223 64.4266 30.2802 64.5438 26.9628 64.5438C23.849 64.5438 20.5994 64.2971 17.5102 64.7472C17.4555 64.7623 17.4072 64.7948 17.3728 64.8399C17.3384 64.8851 17.3198 64.9402 17.3198 64.997C17.3198 65.0537 17.3384 65.1088 17.3728 65.154C17.4072 65.1991 17.4555 65.2317 17.5102 65.2467V65.1974Z" fill="#F67A45"/>
<path d="M0.645817 50.2754C6.64545 50.7934 12.7807 50.4666 18.7927 50.4666C24.8047 50.4666 30.903 50.6207 36.9396 50.4666C37.0524 50.4666 37.1606 50.4217 37.2404 50.3419C37.3202 50.2622 37.3651 50.1539 37.3651 50.0411C37.3651 49.9283 37.3202 49.82 37.2404 49.7403C37.1606 49.6605 37.0524 49.6156 36.9396 49.6156C30.903 49.4368 24.8355 49.6156 18.7927 49.6156C12.7499 49.6156 6.64545 49.2888 0.645817 49.8068C0.577132 49.8068 0.511262 49.8341 0.462694 49.8826C0.414127 49.9312 0.386841 49.9971 0.386841 50.0658C0.386841 50.1344 0.414127 50.2003 0.462694 50.2489C0.511262 50.2975 0.577132 50.3247 0.645817 50.3247V50.2754Z" fill="#F67A45"/>
<path d="M94.0502 86.9203C99.2297 83.7632 103.225 78.2014 105.827 72.8184C106.111 72.2387 105.211 71.7516 104.952 72.3251C103.592 75.1186 101.919 77.748 99.9635 80.1622C98.0006 82.3933 95.9131 84.5117 93.711 86.5071C93.489 86.7229 93.7912 87.0806 94.0502 86.9203Z" fill="#F67A45"/>
<path d="M107.239 69.1992C107.968 67.9914 108.571 66.7126 109.04 65.3824C109.225 64.8151 108.312 64.4513 108.047 64.9816C107.4 66.2347 106.884 67.5509 106.506 68.9094C106.487 69.0016 106.502 69.0973 106.547 69.1799C106.592 69.2624 106.664 69.3266 106.751 69.3611C106.839 69.3956 106.936 69.3983 107.025 69.3687C107.114 69.3391 107.19 69.2791 107.239 69.1992Z" fill="#F67A45"/>
<path d="M113.517 65.2343C112.178 68.2557 110.97 71.3202 109.428 74.243C108.693 75.6324 107.903 76.9889 107.061 78.3126C106.321 79.4718 105.266 80.5879 104.736 81.8519C104.594 82.1849 105.069 82.2959 105.272 82.1479C106.432 81.2908 107.239 79.7431 107.992 78.5346C108.867 77.1225 109.663 75.6612 110.403 74.1751C111.887 71.3648 113.04 68.3913 113.837 65.3144C113.887 65.1109 113.591 65.0616 113.517 65.2343Z" fill="#F67A45"/>
<path d="M102.239 85.5268C101.079 86.1665 100.001 86.9428 99.0262 87.8391C98.1075 88.579 96.6584 89.393 96.159 90.4844C96.1388 90.522 96.1303 90.5647 96.1345 90.6072C96.1387 90.6497 96.1554 90.6899 96.1824 90.7229C96.2095 90.7559 96.2457 90.7802 96.2865 90.7926C96.3274 90.805 96.3709 90.805 96.4118 90.7927C97.5833 90.5029 98.5761 89.3436 99.4948 88.5852C100.616 87.7804 101.632 86.8401 102.522 85.7858C102.652 85.607 102.393 85.459 102.245 85.5268H102.239Z" fill="#F67A45"/>
<path d="M134.981 64.7411C132.825 64.4595 130.649 64.3503 128.476 64.4143C126.367 64.4143 123.98 64.0875 121.927 64.587C121.871 64.6022 121.821 64.6355 121.786 64.6818C121.751 64.728 121.731 64.7847 121.731 64.8429C121.731 64.9011 121.751 64.9577 121.786 65.004C121.821 65.0502 121.871 65.0835 121.927 65.0988C123.974 65.5982 126.373 65.2838 128.476 65.2714C130.649 65.3374 132.824 65.2302 134.981 64.9508C135.009 64.9508 135.035 64.9397 135.055 64.9201C135.075 64.9004 135.086 64.8738 135.086 64.846C135.086 64.8182 135.075 64.7915 135.055 64.7718C135.035 64.7522 135.009 64.7411 134.981 64.7411Z" fill="#F67A45"/>
<path d="M119.331 64.698C116.353 64.254 113.208 64.4945 110.199 64.4945C106.987 64.4945 103.749 64.4081 100.537 64.4945C100.424 64.4945 100.316 64.5393 100.236 64.6191C100.156 64.6989 100.111 64.8071 100.111 64.9199C100.111 65.0328 100.156 65.141 100.236 65.2208C100.316 65.3006 100.424 65.3454 100.537 65.3454C103.749 65.4625 106.987 65.3454 110.199 65.3454C113.208 65.3454 116.365 65.5859 119.331 65.1481C119.386 65.133 119.434 65.1005 119.469 65.0554C119.503 65.0102 119.522 64.9551 119.522 64.8983C119.522 64.8416 119.503 64.7865 119.469 64.7413C119.434 64.6962 119.386 64.6636 119.331 64.6486V64.698Z" fill="#F67A45"/>
<path d="M135.641 49.7575C129.844 49.2395 123.925 49.5663 118.092 49.5663C112.259 49.5663 106.376 49.4122 100.537 49.5663C100.481 49.5663 100.426 49.5773 100.374 49.5987C100.322 49.6201 100.276 49.6514 100.236 49.6909C100.197 49.7304 100.165 49.7773 100.144 49.829C100.122 49.8806 100.111 49.9359 100.111 49.9918C100.111 50.0477 100.122 50.103 100.144 50.1546C100.165 50.2062 100.197 50.2531 100.236 50.2926C100.276 50.3321 100.322 50.3635 100.374 50.3849C100.426 50.4062 100.481 50.4172 100.537 50.4172C106.376 50.5961 112.253 50.4172 118.092 50.4172C123.931 50.4172 129.844 50.7441 135.641 50.2261C135.709 50.2261 135.775 50.1988 135.824 50.1502C135.872 50.1017 135.9 50.0358 135.9 49.9671C135.9 49.8984 135.872 49.8326 135.824 49.784C135.775 49.7354 135.709 49.7081 135.641 49.7081V49.7575Z" fill="#F67A45"/>
</svg>
