<svg width="126" height="101" viewBox="0 0 126 101" fill="none" xmlns="http://www.w3.org/2000/svg">
<path d="M20.1955 33.5322C20.0064 33.5437 19.8169 33.5166 19.6385 33.4526C19.4602 33.3886 19.2968 33.289 19.1581 33.1599C18.2672 32.269 18.9262 30.2248 21.1779 26.8991C23.7543 23.2527 26.6566 19.8479 29.8491 16.7267C32.9806 13.5285 36.3932 10.6182 40.0459 8.03114C45.0069 4.66883 46.0016 5.66349 46.3311 5.99301C48.296 7.95791 41.8155 15.9335 37.6721 20.3331L37.007 19.7229C43.8841 12.4003 46.4654 7.43922 45.6843 6.65815C45.3914 6.36524 43.9818 6.48728 40.5585 8.80611C36.9533 11.3601 33.5855 14.2336 30.496 17.3919C27.3498 20.472 24.4904 23.8319 21.9529 27.43C19.6524 30.835 19.512 32.2385 19.8232 32.5314C20.5982 33.3003 25.4922 30.7862 32.6866 24.0555L33.2969 24.7206C28.6592 29.0654 22.8743 33.5322 20.1955 33.5322Z" fill="#F67A45"/>
<path d="M25.8461 27.1493C25.7513 27.1548 25.6564 27.1409 25.5672 27.1084C25.478 27.0759 25.3964 27.0254 25.3274 26.9601C24.0216 25.6543 30.0993 19.4423 31.332 18.2096C33.0009 16.512 34.7872 14.9337 36.6775 13.4865C39.0512 11.7291 39.7286 11.8573 40.0825 12.2112C40.7965 12.9251 39.4723 15.1402 36.1527 18.7893L35.4754 18.1791C38.081 15.3172 39.1794 13.5659 39.3563 12.9374C38.4715 13.1814 35.6096 15.2379 31.9788 18.8626C28.348 22.4873 26.2977 25.3553 26.0536 26.2401C26.6638 26.0631 28.3724 25.0197 31.1489 22.4934L31.7591 23.1707C28.8362 25.8129 26.853 27.1493 25.8461 27.1493Z" fill="#F67A45"/>
<path d="M15.7531 29.6757C13.6479 27.5643 20.9888 18.6918 26.4441 13.2364C31.8995 7.78107 40.772 0.38523 42.859 2.52099L42.2122 3.16782C41.2846 2.24029 35.0726 5.85279 27.0727 13.8527C19.0727 21.8527 15.4785 28.0647 16.3816 28.9984L15.7531 29.6757Z" fill="#F67A45"/>
<path d="M21.1474 19.18C21.1808 19.3886 21.2866 19.5788 21.4464 19.717L21.8858 20.199L22.7401 21.1388C23.3019 21.7805 23.9141 22.3764 24.5708 22.9206C24.6452 22.9874 24.7401 23.0269 24.84 23.0324C24.9398 23.038 25.0386 23.0093 25.12 22.9511C25.1983 22.8956 25.2526 22.8124 25.2718 22.7184C25.2911 22.6243 25.2739 22.5265 25.2237 22.4446C24.6648 21.7701 24.0526 21.1416 23.393 20.5652C23.0818 20.2784 22.7828 19.9916 22.4655 19.6986L22.0078 19.2776C21.8515 19.0949 21.6352 18.9737 21.3976 18.9359C21.33 18.9341 21.2644 18.9586 21.2144 19.004C21.1644 19.0495 21.1338 19.1125 21.1291 19.18H21.1474Z" fill="#F67A45"/>
<path d="M23.0391 16.9771C23.0663 17.1846 23.1709 17.3743 23.332 17.5079L23.7714 17.99C24.0582 18.3073 24.345 18.6002 24.6257 18.9358C25.1908 19.5744 25.8027 20.17 26.4563 20.7177C26.5298 20.784 26.6237 20.8232 26.7225 20.8288C26.8213 20.8343 26.919 20.8059 26.9994 20.7482C27.0787 20.6936 27.1343 20.6108 27.1547 20.5167C27.1751 20.4226 27.1588 20.3243 27.1093 20.2417C26.5485 19.5689 25.9365 18.9405 25.2786 18.3622C24.9735 18.0693 24.6684 17.7825 24.3511 17.4957L23.8995 17.0747C23.7449 16.8898 23.5277 16.7682 23.2893 16.733C23.2559 16.7313 23.2226 16.7364 23.1912 16.7478C23.1598 16.7593 23.1311 16.7769 23.1066 16.7997C23.0822 16.8224 23.0625 16.8498 23.0488 16.8803C23.0351 16.9108 23.0277 16.9437 23.0269 16.9771H23.0391Z" fill="#F67A45"/>
<path d="M19.152 33.16L15.7531 29.6391C13.6479 27.5338 20.9888 18.6552 26.4441 13.2059C31.8995 7.75669 40.772 0.385249 42.859 2.52101L46.3311 5.99315L45.6843 6.63998L42.2122 3.16784C41.2846 2.24031 35.0726 5.85281 27.0727 13.8528C19.0727 21.8527 15.4785 28.0647 16.3816 28.9984L19.8111 32.5193L19.152 33.16Z" fill="#F67A45"/>
<path d="M21.1474 19.18C21.1808 19.3886 21.2866 19.5788 21.4464 19.717L21.8858 20.199L22.7401 21.1388C23.3019 21.7805 23.9141 22.3764 24.5708 22.9206C24.6452 22.9874 24.7401 23.0269 24.84 23.0324C24.9398 23.038 25.0386 23.0093 25.12 22.9511C25.1983 22.8956 25.2526 22.8124 25.2718 22.7184C25.2911 22.6243 25.2739 22.5265 25.2237 22.4446C24.6648 21.7701 24.0526 21.1416 23.393 20.5652C23.0818 20.2784 22.7828 19.9916 22.4655 19.6986L22.0078 19.2776C21.8515 19.0949 21.6352 18.9737 21.3976 18.9359C21.33 18.9341 21.2644 18.9586 21.2144 19.004C21.1644 19.0495 21.1338 19.1125 21.1291 19.18H21.1474Z" fill="#F67A45"/>
<path d="M23.0391 16.9771C23.0663 17.1846 23.1709 17.3743 23.332 17.5079L23.7714 17.99C24.0582 18.3073 24.345 18.6002 24.6257 18.9358C25.1908 19.5744 25.8027 20.17 26.4563 20.7177C26.5298 20.784 26.6237 20.8232 26.7225 20.8288C26.8213 20.8343 26.919 20.8059 26.9994 20.7482C27.0787 20.6936 27.1343 20.6108 27.1547 20.5167C27.1751 20.4226 27.1588 20.3243 27.1093 20.2417C26.5485 19.5689 25.9365 18.9405 25.2786 18.3622C24.9735 18.0693 24.6684 17.7825 24.3511 17.4957L23.8995 17.0747C23.7449 16.8898 23.5277 16.7682 23.2893 16.733C23.2559 16.7313 23.2226 16.7364 23.1912 16.7478C23.1598 16.7593 23.1311 16.7769 23.1066 16.7997C23.0822 16.8224 23.0625 16.8498 23.0488 16.8803C23.0351 16.9108 23.0277 16.9437 23.0269 16.9771H23.0391Z" fill="#F67A45"/>
<path d="M22.3984 20.095C21.4342 19.2102 19.3473 21.3154 18.9872 22.0599C18.9688 22.1013 18.9649 22.1477 18.9761 22.1915C18.9872 22.2354 19.0129 22.2743 19.0489 22.3018C19.0849 22.3293 19.1291 22.3439 19.1743 22.3432C19.2196 22.3425 19.2634 22.3265 19.2985 22.2979C19.7738 21.7402 20.3055 21.2331 20.885 20.7845C21.3614 20.5386 21.8653 20.3501 22.3862 20.2232C22.3952 20.2151 22.4025 20.2053 22.4075 20.1942C22.4125 20.1832 22.4151 20.1712 22.4151 20.1591C22.4151 20.147 22.4125 20.135 22.4075 20.1239C22.4025 20.1129 22.3952 20.103 22.3862 20.095H22.3984Z" fill="#F67A45"/>
<path d="M16.2474 26.5695L13.8065 24.1286C11.9759 22.298 18.3099 14.5665 23.0391 9.84344C27.7683 5.12036 35.4693 -1.25033 37.3243 0.604735L39.6798 2.96019L39.0329 3.60701L36.6775 1.25767C36.049 0.616943 31.0086 3.21037 23.686 10.5086C16.3633 17.8068 13.8187 22.8411 14.4778 23.5001L16.9186 25.941L16.2474 26.5695Z" fill="#F67A45"/>
<path d="M18.5113 15.0671C18.5113 15.2745 18.6455 15.4149 18.7737 15.5613L19.1459 15.9763L19.8782 16.794C20.1161 17.0625 20.3663 17.3127 20.6165 17.569L21.0071 17.9717C21.1431 18.1015 21.2878 18.2218 21.4403 18.3317C21.5168 18.3947 21.6128 18.4292 21.7119 18.4292C21.8109 18.4292 21.9069 18.3947 21.9834 18.3317C22.0627 18.2772 22.1183 18.1944 22.1387 18.1003C22.1591 18.0062 22.1428 17.9078 22.0932 17.8253C21.9755 17.6604 21.8471 17.5034 21.7088 17.3554C21.5868 17.2211 21.4586 17.0991 21.3366 16.9771C21.0681 16.7086 20.8057 16.4401 20.5311 16.1899L19.7195 15.4454L19.329 15.0854C19.262 15.0014 19.1789 14.9318 19.0846 14.8804C18.9902 14.8291 18.8866 14.7971 18.7798 14.7864C18.7116 14.7862 18.646 14.812 18.5961 14.8584C18.5462 14.9049 18.5159 14.9686 18.5113 15.0366V15.0671Z" fill="#F67A45"/>
<path d="M20.1467 13.1569C20.1515 13.2528 20.1769 13.3466 20.2211 13.4319C20.2654 13.5172 20.3274 13.5919 20.4029 13.6512L20.7752 14.0722L21.5074 14.8899C21.7454 15.1523 21.9956 15.4086 22.2458 15.6588L22.6363 16.0616C22.7733 16.1921 22.918 16.3144 23.0696 16.4277C23.1484 16.4881 23.2449 16.5208 23.3442 16.5208C23.4435 16.5208 23.54 16.4881 23.6188 16.4277C23.6971 16.3722 23.7514 16.289 23.7707 16.1949C23.7899 16.1009 23.7727 16.003 23.7225 15.9212C23.6051 15.7558 23.4788 15.597 23.3442 15.4452C23.2222 15.3171 23.0879 15.195 22.9659 15.0669C22.6974 14.8045 22.435 14.536 22.1604 14.2797L21.3549 13.5414L20.9582 13.1813C20.8917 13.0969 20.8088 13.0268 20.7144 12.9754C20.6199 12.924 20.5161 12.8924 20.409 12.8823C20.3425 12.8822 20.2784 12.9073 20.2297 12.9526C20.181 12.9979 20.1513 13.06 20.1467 13.1264V13.1569Z" fill="#F67A45"/>
<path d="M18.5113 15.0671C18.5113 15.2745 18.6455 15.4149 18.7737 15.5613L19.1459 15.9763L19.8782 16.794C20.1161 17.0625 20.3663 17.3127 20.6165 17.569L21.0071 17.9717C21.1431 18.1015 21.2878 18.2218 21.4403 18.3317C21.5168 18.3947 21.6128 18.4292 21.7119 18.4292C21.8109 18.4292 21.9069 18.3947 21.9834 18.3317C22.0627 18.2772 22.1183 18.1944 22.1387 18.1003C22.1591 18.0062 22.1428 17.9078 22.0932 17.8253C21.9755 17.6604 21.8471 17.5034 21.7088 17.3554C21.5868 17.2211 21.4586 17.0991 21.3366 16.9771C21.0681 16.7086 20.8057 16.4401 20.5311 16.1899L19.7195 15.4454L19.329 15.0854C19.262 15.0014 19.1789 14.9318 19.0846 14.8804C18.9902 14.8291 18.8866 14.7971 18.7798 14.7864C18.7116 14.7862 18.646 14.812 18.5961 14.8584C18.5462 14.9049 18.5159 14.9686 18.5113 15.0366V15.0671Z" fill="#F67A45"/>
<path d="M20.1467 13.1569C20.1515 13.2528 20.1769 13.3466 20.2211 13.4319C20.2654 13.5172 20.3274 13.5919 20.4029 13.6512L20.7752 14.0722L21.5074 14.8899C21.7454 15.1523 21.9956 15.4086 22.2458 15.6588L22.6363 16.0616C22.7733 16.1921 22.918 16.3144 23.0696 16.4277C23.1484 16.4881 23.2449 16.5208 23.3442 16.5208C23.4435 16.5208 23.54 16.4881 23.6188 16.4277C23.6971 16.3722 23.7514 16.289 23.7707 16.1949C23.7899 16.1009 23.7727 16.003 23.7225 15.9212C23.6051 15.7558 23.4788 15.597 23.3442 15.4452C23.2222 15.3171 23.0879 15.195 22.9659 15.0669C22.6974 14.8045 22.435 14.536 22.1604 14.2797L21.3549 13.5414L20.9582 13.1813C20.8917 13.0969 20.8088 13.0268 20.7144 12.9754C20.6199 12.924 20.5161 12.8924 20.409 12.8823C20.3425 12.8822 20.2784 12.9073 20.2297 12.9526C20.181 12.9979 20.1513 13.06 20.1467 13.1264V13.1569Z" fill="#F67A45"/>
<path d="M22.2092 20.2416C22.2205 20.2345 22.2299 20.2246 22.2364 20.2128C22.2429 20.2011 22.2463 20.1879 22.2463 20.1745C22.2463 20.1611 22.2429 20.1479 22.2364 20.1362C22.2299 20.1244 22.2205 20.1145 22.2092 20.1074C22.1105 20.0279 21.9933 19.9746 21.8686 19.9522C21.7438 19.9298 21.6155 19.9391 21.4952 19.9792L21.6783 19.845C21.7067 19.826 21.7268 19.797 21.7345 19.7638C21.7422 19.7305 21.737 19.6956 21.7199 19.6661C21.7028 19.6366 21.6751 19.6147 21.6425 19.6048C21.6098 19.595 21.5746 19.5979 21.5441 19.6131C21.3488 19.7046 21.1291 19.7596 21.0193 19.9548C21.0116 19.9723 21.0079 19.9913 21.0086 20.0104C21.0092 20.0295 21.014 20.0482 21.0228 20.0651C21.0316 20.0821 21.044 20.0969 21.0593 20.1084C21.0745 20.12 21.0921 20.1279 21.1108 20.1318L20.8606 20.2599C20.071 20.6714 19.4117 21.2947 18.9567 22.0601C18.9383 22.1014 18.9344 22.1478 18.9456 22.1917C18.9567 22.2356 18.9824 22.2744 19.0184 22.3019C19.0543 22.3295 19.0986 22.344 19.1438 22.3433C19.1891 22.3426 19.2328 22.3267 19.2679 22.2981C19.7139 21.7728 20.2084 21.2906 20.7447 20.8579C21.2018 20.5854 21.6947 20.378 22.2092 20.2416Z" fill="#F67A45"/>
<path d="M19.4999 15.8541C19.4377 15.7902 19.3624 15.7407 19.2791 15.7091C19.1958 15.6775 19.1066 15.6645 19.0178 15.671L19.0666 15.6283C19.1886 15.5367 19.0239 15.3659 18.9018 15.4208C18.7798 15.4757 18.5479 15.5428 18.4503 15.7198C18.4412 15.7378 18.4364 15.7576 18.4364 15.7778C18.4364 15.7979 18.4412 15.8178 18.4503 15.8357C17.7196 16.2421 17.1028 16.8254 16.6562 17.5322C16.6348 17.5738 16.6286 17.6216 16.6386 17.6673C16.6486 17.713 16.6742 17.7539 16.711 17.7828C16.7478 17.8116 16.7936 17.8268 16.8404 17.8256C16.8872 17.8244 16.9321 17.807 16.9674 17.7762C17.3835 17.3032 17.841 16.8682 18.3343 16.4765C18.7051 16.2815 19.0908 16.1162 19.4876 15.9822C19.4985 15.9758 19.5077 15.967 19.5145 15.9564C19.5212 15.9458 19.5254 15.9338 19.5266 15.9212C19.5277 15.9087 19.5259 15.8961 19.5213 15.8844C19.5167 15.8727 19.5093 15.8623 19.4999 15.8541Z" fill="#F67A45"/>
<path d="M17.657 12.2784C17.2786 11.9 17.4312 11.2471 18.1634 10.1731C18.8661 9.1734 19.6586 8.23995 20.5311 7.38444C21.4464 6.47522 24.4914 3.57669 25.4128 4.51032L24.766 5.16324C24.8012 5.19774 24.8458 5.2211 24.8942 5.23037C24.5829 5.23037 23.1428 6.06637 21.1718 8.03127C19.2008 9.99617 18.3587 11.4607 18.3709 11.7597C18.3571 11.7117 18.332 11.6678 18.2977 11.6316L17.657 12.2784Z" fill="#F67A45"/>
<path d="M17.5838 12.0953C17.6106 12.1673 17.6476 12.2351 17.6936 12.2967L17.8706 12.5286C18.0475 12.743 18.237 12.9468 18.4381 13.1388C18.615 13.3157 18.7859 13.4927 18.975 13.6513C19.0544 13.7185 19.1398 13.7917 19.2252 13.8527C19.3315 13.9616 19.4638 14.0414 19.6097 14.0846C19.682 14.103 19.7578 14.1031 19.8302 14.085C19.9026 14.0669 19.9694 14.0311 20.0246 13.9809C20.0759 13.9313 20.113 13.8691 20.1323 13.8004C20.1516 13.7318 20.1524 13.6593 20.1345 13.5903C20.0788 13.4449 19.9888 13.3151 19.8721 13.212L19.6707 12.974C19.5059 12.7848 19.329 12.614 19.1581 12.437C18.9873 12.2601 18.8164 12.0831 18.6333 11.9183L18.4198 11.717C18.3343 11.6437 18.2367 11.5888 18.1452 11.5217C18.0658 11.4784 17.9749 11.461 17.8852 11.4719C17.7954 11.4829 17.7114 11.5216 17.6448 11.5827C17.5848 11.6448 17.5459 11.7243 17.5339 11.8098C17.5218 11.8953 17.5371 11.9824 17.5777 12.0587L17.5838 12.0953Z" fill="#F67A45"/>
<path d="M27.2496 6.70708C27.282 6.56202 27.2603 6.41014 27.1886 6.27994L27.0788 6.10908C26.9619 5.92899 26.827 5.76132 26.676 5.6087C26.4085 5.32975 26.1209 5.07075 25.8156 4.83373C25.6661 4.69325 25.5093 4.56085 25.3457 4.43709C25.2501 4.38071 25.1385 4.35732 25.0283 4.37055C24.918 4.38378 24.8151 4.4329 24.7355 4.51031C24.6616 4.58309 24.6142 4.67854 24.601 4.78142C24.5877 4.88429 24.6093 4.98865 24.6623 5.07781C24.7648 5.22494 24.8813 5.36184 25.0101 5.48665C25.1383 5.627 25.2542 5.77346 25.3701 5.91991C25.4969 6.07306 25.6334 6.21778 25.779 6.35316C25.935 6.50825 26.1045 6.64916 26.2855 6.77421L26.4868 6.89627C26.5555 6.93849 26.6318 6.9667 26.7114 6.97927C26.791 6.99183 26.8723 6.98851 26.9506 6.96949C27.0185 6.95778 27.0816 6.92684 27.1325 6.88032C27.1833 6.83381 27.2197 6.77368 27.2374 6.70708H27.2496Z" fill="#F67A45"/>
<path d="M30.6058 22.6155C30.1909 22.2005 30.6912 21.511 30.9597 21.1449C31.4102 20.5464 31.9059 19.9833 32.4426 19.4607C34.9384 16.9649 35.4021 17.4286 35.5974 17.63L34.9506 18.2768C34.9864 18.3143 35.0303 18.3431 35.079 18.3611C35.1276 18.379 35.1797 18.3857 35.2313 18.3806C34.4269 18.8366 33.7032 19.4221 33.0894 20.1136C32.4 20.7294 31.8148 21.4527 31.3564 22.2555C31.362 22.2038 31.3555 22.1516 31.3375 22.1029C31.3195 22.0542 31.2905 22.0103 31.2526 21.9748L30.6058 22.6155Z" fill="#F67A45"/>
<path d="M31.6859 23.5737C31.9744 23.9692 32.2992 24.3369 32.6561 24.6721C33.4799 25.5508 34.3342 26.399 35.1763 27.2655C37.8308 29.981 40.5218 32.6476 43.2068 35.3326C44.0896 36.2113 44.9785 37.0859 45.8735 37.9565L47.1671 39.2258C47.5804 39.7148 48.0761 40.1279 48.6316 40.4462C48.8086 40.5255 49.1503 40.3974 49.0466 40.1472C48.811 39.6877 48.4948 39.2743 48.113 38.9268C47.7285 38.524 47.3319 38.1335 46.9413 37.7063L44.6042 35.3265C43.1214 33.8131 41.6202 32.3242 40.1252 30.8231C37.9528 28.6507 35.7723 26.4905 33.5837 24.3426C33.2847 24.0436 32.9735 23.7323 32.6561 23.4577L32.5158 23.3235L32.4731 23.2808C32.2473 23.0794 32.5158 23.3174 32.406 23.232L32.29 23.1404C31.9971 22.8719 31.4479 23.2014 31.6798 23.5737H31.6859Z" fill="#F67A45"/>
<path d="M34.9445 18.0815C35.4168 18.6953 35.9415 19.267 36.5127 19.7901L40.473 23.8358C44.2076 27.6355 47.9685 31.4127 51.756 35.1676L54.9169 38.2858C55.4173 38.7801 55.9115 39.2805 56.418 39.7625C56.8649 40.2398 57.3691 40.66 57.9192 41.0135C57.9703 41.0462 58.0308 41.061 58.0912 41.0557C58.1517 41.0504 58.2087 41.0252 58.2533 40.9841C58.2979 40.9429 58.3276 40.8882 58.3378 40.8284C58.348 40.7686 58.3381 40.707 58.3097 40.6535C58.0007 40.1621 57.6317 39.7112 57.2113 39.311C56.7964 38.8716 56.3692 38.4506 55.9421 38.0173L53.1778 35.2103C51.2454 33.2454 49.3029 31.2907 47.3502 29.3461C44.0957 26.0916 40.8412 22.8371 37.5867 19.5826C37.0985 19.1067 36.6104 18.6307 36.1161 18.1608L35.8842 17.935L35.7988 17.8557L35.6889 17.7642C35.6311 17.721 35.576 17.6741 35.5242 17.6238C35.2435 17.3492 34.676 17.6971 34.914 18.0632L34.9445 18.0815Z" fill="#F67A45"/>
<path d="M35.7377 18.7529C35.7852 18.7593 35.8335 18.7555 35.8793 18.7418C35.9252 18.728 35.9676 18.7046 36.0037 18.6731C36.0397 18.6416 36.0686 18.6028 36.0884 18.5592C36.1083 18.5156 36.1185 18.4682 36.1185 18.4203C36.1185 18.3724 36.1083 18.3251 36.0884 18.2815C36.0686 18.2379 36.0397 18.1991 36.0037 18.1675C35.9676 18.136 35.9252 18.1126 35.8793 18.0989C35.8335 18.0851 35.7852 18.0813 35.7377 18.0878C35.6903 18.0813 35.642 18.0851 35.5961 18.0989C35.5503 18.1126 35.5079 18.136 35.4718 18.1675C35.4357 18.1991 35.4068 18.2379 35.387 18.2815C35.3672 18.3251 35.357 18.3724 35.357 18.4203C35.357 18.4682 35.3672 18.5156 35.387 18.5592C35.4068 18.6028 35.4357 18.6416 35.4718 18.6731C35.5079 18.7046 35.5503 18.728 35.5961 18.7418C35.642 18.7555 35.6903 18.7593 35.7377 18.7529Z" fill="#F67A45"/>
<path d="M35.1764 18.2463C35.6218 18.7833 36.171 19.2593 36.6592 19.7536L40.3937 23.5003L51.4692 34.588L57.8582 40.977C58.1266 41.2455 58.566 40.8427 58.2914 40.5681C54.443 36.7237 50.5966 32.8753 46.7522 29.0228C43.6441 25.9147 40.5422 22.8047 37.4464 19.6926C36.8361 19.0824 36.1588 18.5026 35.6157 17.8619C35.3716 17.5751 34.9323 17.9717 35.1825 18.2707L35.1764 18.2463Z" fill="#F67A45"/>
<path d="M31.2569 21.9709L30.6096 22.6182L37.2114 29.2199L37.8586 28.5727L31.2569 21.9709Z" fill="#F67A45"/>
<path d="M33.0162 19.3752C33.5059 20.0291 34.0488 20.6414 34.6393 21.2059L36.4334 23.0366C37.0436 23.6468 37.6111 24.257 38.1969 24.8306C38.7436 25.4779 39.3807 26.0431 40.0886 26.5087C40.1422 26.5412 40.2049 26.5552 40.2672 26.5487C40.3295 26.5421 40.388 26.5154 40.4336 26.4725C40.4793 26.4296 40.5097 26.3729 40.5201 26.3111C40.5305 26.2494 40.5204 26.1859 40.4913 26.1304C40.0419 25.4428 39.4928 24.8259 38.862 24.2997C38.2518 23.6895 37.6416 23.0793 37.0314 22.4691L35.2007 20.7177C34.6218 20.1114 33.9954 19.5523 33.3274 19.0457C33.1565 18.9237 32.8819 19.1556 33.0101 19.3386L33.0162 19.3752Z" fill="#F67A45"/>
<path d="M54.386 40.1285C53.55 39.085 52.5554 38.1514 51.6522 37.1933L48.9673 34.4534C47.5333 32.9889 46.0931 31.5183 44.6225 30.0843C44.1767 29.6388 43.695 29.2306 43.1824 28.8639C42.9566 28.7052 42.6088 28.9981 42.7736 29.2422C43.6299 30.3427 44.5837 31.3639 45.6233 32.2933L50.6637 37.2544C51.7621 38.3222 52.8239 39.4511 54.026 40.4092C54.1968 40.5434 54.563 40.3665 54.386 40.1468V40.1285Z" fill="#F67A45"/>
<path d="M37.1656 22.585C37.177 22.585 37.1878 22.5804 37.1958 22.5724C37.2038 22.5644 37.2084 22.5536 37.2084 22.5422C37.2084 22.5309 37.2038 22.52 37.1958 22.512C37.1878 22.504 37.177 22.4995 37.1656 22.4995C37.16 22.4995 37.1545 22.5006 37.1493 22.5028C37.1441 22.5049 37.1394 22.5081 37.1354 22.512C37.1315 22.516 37.1283 22.5207 37.1262 22.5259C37.124 22.5311 37.1229 22.5366 37.1229 22.5422C37.1229 22.5478 37.124 22.5534 37.1262 22.5586C37.1283 22.5638 37.1315 22.5685 37.1354 22.5724C37.1394 22.5764 37.1441 22.5795 37.1493 22.5817C37.1545 22.5838 37.16 22.585 37.1656 22.585Z" fill="#F67A45"/>
<path d="M106.547 33.5324C103.869 33.5324 98.0837 29.0412 93.4521 24.7025L94.0624 24.0374C101.257 30.7498 106.151 33.2822 106.926 32.5133C107.219 32.2204 107.097 30.8169 104.796 27.4119C102.257 23.8152 99.3975 20.4555 96.253 17.3738C93.1635 14.2156 89.7957 11.342 86.1905 8.78804C82.7672 6.46921 81.3576 6.34717 81.0647 6.64008C80.2836 7.42116 82.8649 12.3944 89.742 19.7048L89.0769 20.3151C84.9335 15.9154 78.453 7.93985 80.4179 5.97494C80.7474 5.64543 81.7421 4.65077 86.7031 8.01307C90.3608 10.6054 93.7776 13.5218 96.9121 16.727C100.105 19.8481 103.007 23.2529 105.583 26.8993C107.829 30.225 108.494 32.2692 107.603 33.1601C107.462 33.2916 107.296 33.3925 107.114 33.4566C106.932 33.5207 106.74 33.5465 106.547 33.5324Z" fill="#F67A45"/>
<path d="M100.897 27.1493C99.8899 27.1493 97.9067 25.813 94.9777 23.1646L95.5879 22.4873C98.3644 25.0014 100.073 26.0571 100.683 26.234C100.439 25.3492 98.3888 22.4873 94.758 18.8565C91.1272 15.2257 88.2653 13.1754 87.3805 12.9313C87.5574 13.5415 88.6497 15.3111 91.2615 18.173L90.5841 18.7833C87.2584 15.122 85.9343 12.9191 86.6543 12.2051C87.9602 10.8931 94.1722 16.9709 95.4048 18.2036C96.6375 19.4362 102.727 25.6482 101.409 26.9541C101.342 27.0197 101.261 27.0708 101.173 27.1044C101.085 27.1379 100.991 27.1532 100.897 27.1493Z" fill="#F67A45"/>
<path d="M111.002 29.6755L110.337 28.9981C111.271 28.0645 107.652 21.8586 99.652 13.8525C91.652 5.84647 85.44 2.25838 84.5125 3.1676L83.8656 2.52077C85.977 0.415523 94.8496 7.75645 100.299 13.2057C105.748 18.6549 113.113 27.5336 111.002 29.6755Z" fill="#F67A45"/>
<path d="M105.327 18.9356C105.103 18.9712 104.9 19.086 104.753 19.259L104.302 19.6801L103.35 20.5649C102.69 21.1414 102.078 21.7699 101.519 22.4444C101.469 22.5262 101.452 22.624 101.471 22.7181C101.49 22.8121 101.545 22.8953 101.623 22.9508C101.703 23.0086 101.801 23.037 101.9 23.0314C101.999 23.0259 102.093 22.9867 102.166 22.9203C102.824 22.3775 103.436 21.7816 103.997 21.1385L104.827 20.2232L105.266 19.7411C105.437 19.5994 105.55 19.3995 105.583 19.1797C105.583 19.1463 105.575 19.1134 105.561 19.0829C105.548 19.0525 105.528 19.0251 105.504 19.0023C105.479 18.9796 105.45 18.9619 105.419 18.9505C105.388 18.939 105.354 18.934 105.321 18.9356H105.327Z" fill="#F67A45"/>
<path d="M103.441 16.733C103.218 16.7659 103.014 16.8786 102.868 17.0503L102.404 17.4713L101.446 18.3622C100.799 18.9415 100.197 19.5699 99.6459 20.2417C99.5963 20.3243 99.58 20.4226 99.6005 20.5167C99.6209 20.6108 99.6764 20.6936 99.7557 20.7482C99.8365 20.8048 99.934 20.8326 100.033 20.8271C100.131 20.8216 100.225 20.783 100.299 20.7177C100.952 20.17 101.564 19.5744 102.129 18.9358L102.959 18.0205L103.399 17.5384C103.569 17.3956 103.681 17.1963 103.716 16.9771C103.715 16.9437 103.708 16.9108 103.694 16.8803C103.68 16.8498 103.661 16.8224 103.636 16.7997C103.612 16.7769 103.583 16.7593 103.552 16.7478C103.52 16.7364 103.487 16.7313 103.454 16.733H103.441Z" fill="#F67A45"/>
<path d="M107.585 33.1598L106.932 32.5496L110.337 29.0042C111.271 28.0645 107.652 21.8586 99.652 13.8525C91.652 5.84647 85.44 2.25838 84.5125 3.1676L81.0464 6.63975L80.4362 5.99292L83.9084 2.52077C86.0197 0.415523 94.8923 7.75645 100.342 13.2057C105.791 18.6549 113.156 27.5336 111.026 29.645L107.585 33.1598Z" fill="#F67A45"/>
<path d="M105.327 18.9356C105.103 18.9712 104.9 19.086 104.753 19.259L104.302 19.6801L103.35 20.5649C102.69 21.1414 102.078 21.7699 101.519 22.4444C101.469 22.5262 101.452 22.624 101.471 22.7181C101.49 22.8121 101.545 22.8953 101.623 22.9508C101.703 23.0086 101.801 23.037 101.9 23.0314C101.999 23.0259 102.093 22.9867 102.166 22.9203C102.824 22.3775 103.436 21.7816 103.997 21.1385L104.827 20.2232L105.266 19.7411C105.437 19.5994 105.55 19.3995 105.583 19.1797C105.583 19.1463 105.575 19.1134 105.561 19.0829C105.548 19.0525 105.528 19.0251 105.504 19.0023C105.479 18.9796 105.45 18.9619 105.419 18.9505C105.388 18.939 105.354 18.934 105.321 18.9356H105.327Z" fill="#F67A45"/>
<path d="M103.441 16.733C103.218 16.7659 103.014 16.8786 102.868 17.0503L102.404 17.4713L101.446 18.3622C100.799 18.9415 100.197 19.5699 99.6459 20.2417C99.5963 20.3243 99.58 20.4226 99.6005 20.5167C99.6209 20.6108 99.6764 20.6936 99.7557 20.7482C99.8365 20.8048 99.934 20.8326 100.033 20.8271C100.131 20.8216 100.225 20.783 100.299 20.7177C100.952 20.17 101.564 19.5744 102.129 18.9358L102.959 18.0205L103.399 17.5384C103.569 17.3956 103.681 17.1963 103.716 16.9771C103.715 16.9437 103.708 16.9108 103.694 16.8803C103.68 16.8498 103.661 16.8224 103.636 16.7997C103.612 16.7769 103.583 16.7593 103.552 16.7478C103.52 16.7364 103.487 16.7313 103.454 16.733H103.441Z" fill="#F67A45"/>
<path d="M104.345 20.095C105.309 19.2102 107.396 21.3154 107.756 22.0599C107.774 22.1013 107.778 22.1477 107.767 22.1915C107.756 22.2354 107.73 22.2743 107.694 22.3018C107.658 22.3293 107.614 22.3439 107.569 22.3432C107.523 22.3425 107.48 22.3265 107.444 22.2979C106.967 21.7418 106.436 21.2348 105.858 20.7845C105.381 20.5405 104.877 20.3521 104.357 20.2232C104.348 20.2151 104.34 20.2053 104.335 20.1942C104.33 20.1832 104.328 20.1712 104.328 20.1591C104.328 20.147 104.33 20.135 104.335 20.1239C104.34 20.1129 104.348 20.103 104.357 20.095H104.345Z" fill="#F67A45"/>
<path d="M110.496 26.5697L109.849 25.9229L112.29 23.482C112.949 22.823 110.355 17.7826 103.057 10.4905C95.7588 3.19839 90.7184 0.598855 90.0654 1.25789L87.71 3.60723L87.0632 2.9604L89.4186 0.604953C91.2493 -1.2257 98.9746 5.11447 103.704 9.84366C108.433 14.5729 114.791 22.2738 112.936 24.1289L110.496 26.5697Z" fill="#F67A45"/>
<path d="M107.963 14.8169C107.861 14.8254 107.762 14.8547 107.672 14.903C107.581 14.9513 107.502 15.0175 107.438 15.0976L107.042 15.4576L106.212 16.2509C105.943 16.495 105.687 16.7574 105.431 17.0137L105.052 17.392C104.908 17.5482 104.773 17.7133 104.65 17.8863C104.599 17.9681 104.582 18.066 104.602 18.16C104.621 18.2541 104.675 18.3373 104.753 18.3928C104.831 18.4552 104.928 18.4892 105.028 18.4892C105.128 18.4892 105.225 18.4552 105.303 18.3928C105.446 18.2874 105.582 18.1732 105.711 18.0511C105.846 17.9229 105.974 17.7826 106.108 17.6483C106.358 17.3859 106.621 17.1296 106.865 16.855L107.573 16.0617L107.951 15.6407C108.085 15.4942 108.25 15.3417 108.226 15.1281C108.222 15.0607 108.193 14.997 108.144 14.9504C108.096 14.9038 108.031 14.8778 107.963 14.8779V14.8169Z" fill="#F67A45"/>
<path d="M106.334 12.9131C106.231 12.9204 106.131 12.9485 106.04 12.9958C105.949 13.043 105.868 13.1083 105.803 13.1877L105.412 13.5538L104.583 14.3105C104.314 14.5607 104.058 14.8231 103.795 15.0794C103.673 15.2075 103.545 15.3296 103.417 15.4577C103.275 15.6143 103.142 15.7793 103.02 15.952C102.97 16.0338 102.953 16.1316 102.972 16.2257C102.991 16.3197 103.046 16.4029 103.124 16.4585C103.201 16.5193 103.297 16.5524 103.396 16.5524C103.494 16.5524 103.59 16.5193 103.667 16.4585C103.814 16.3546 103.952 16.2404 104.082 16.1167L104.473 15.714C104.729 15.4516 104.985 15.1953 105.229 14.9207L105.943 14.1274L106.322 13.7064C106.45 13.5599 106.615 13.4074 106.596 13.1877C106.592 13.1213 106.562 13.0592 106.513 13.0139C106.464 12.9686 106.4 12.9434 106.334 12.9436V12.9131Z" fill="#F67A45"/>
<path d="M107.963 14.8169C107.861 14.8254 107.762 14.8547 107.672 14.903C107.581 14.9513 107.502 15.0175 107.438 15.0976L107.042 15.4576L106.212 16.2509C105.943 16.495 105.687 16.7574 105.431 17.0137L105.052 17.392C104.908 17.5482 104.773 17.7133 104.65 17.8863C104.599 17.9681 104.582 18.066 104.602 18.16C104.621 18.2541 104.675 18.3373 104.753 18.3928C104.831 18.4552 104.928 18.4892 105.028 18.4892C105.128 18.4892 105.225 18.4552 105.303 18.3928C105.446 18.2874 105.582 18.1732 105.711 18.0511C105.846 17.9229 105.974 17.7826 106.108 17.6483C106.358 17.3859 106.621 17.1296 106.865 16.855L107.573 16.0617L107.951 15.6407C108.085 15.4942 108.25 15.3417 108.226 15.1281C108.222 15.0607 108.193 14.997 108.144 14.9504C108.096 14.9038 108.031 14.8778 107.963 14.8779V14.8169Z" fill="#F67A45"/>
<path d="M106.334 12.9131C106.231 12.9204 106.131 12.9485 106.04 12.9958C105.949 13.043 105.868 13.1083 105.803 13.1877L105.412 13.5538L104.583 14.3105C104.314 14.5607 104.058 14.8231 103.795 15.0794C103.673 15.2075 103.545 15.3296 103.417 15.4577C103.275 15.6143 103.142 15.7793 103.02 15.952C102.97 16.0338 102.953 16.1316 102.972 16.2257C102.991 16.3197 103.046 16.4029 103.124 16.4585C103.201 16.5193 103.297 16.5524 103.396 16.5524C103.494 16.5524 103.59 16.5193 103.667 16.4585C103.814 16.3546 103.952 16.2404 104.082 16.1167L104.473 15.714C104.729 15.4516 104.985 15.1953 105.229 14.9207L105.943 14.1274L106.322 13.7064C106.45 13.5599 106.615 13.4074 106.596 13.1877C106.592 13.1213 106.562 13.0592 106.513 13.0139C106.464 12.9686 106.4 12.9434 106.334 12.9436V12.9131Z" fill="#F67A45"/>
<path d="M104.534 20.2416C104.52 20.2383 104.507 20.2313 104.497 20.2214C104.487 20.2115 104.479 20.1991 104.476 20.1853C104.472 20.1716 104.472 20.1571 104.476 20.1434C104.479 20.1297 104.487 20.1173 104.497 20.1074C104.596 20.0279 104.713 19.9746 104.838 19.9522C104.962 19.9298 105.091 19.9391 105.211 19.9792L105.034 19.845C105.006 19.826 104.986 19.797 104.978 19.7638C104.97 19.7305 104.975 19.6956 104.992 19.6661C105.01 19.6366 105.037 19.6147 105.07 19.6048C105.103 19.595 105.138 19.5979 105.168 19.6131C105.357 19.7046 105.583 19.7596 105.693 19.9548C105.701 19.9723 105.704 19.9913 105.704 20.0104C105.703 20.0295 105.698 20.0482 105.69 20.0651C105.681 20.0821 105.668 20.0969 105.653 20.1084C105.638 20.12 105.62 20.1279 105.602 20.1318L105.852 20.2599C106.641 20.6714 107.301 21.2947 107.756 22.0601C107.774 22.1014 107.778 22.1478 107.767 22.1917C107.756 22.2356 107.73 22.2744 107.694 22.3019C107.658 22.3295 107.614 22.344 107.569 22.3433C107.523 22.3426 107.48 22.3267 107.444 22.2981C106.998 21.7728 106.504 21.2906 105.968 20.8579C105.52 20.588 105.038 20.3806 104.534 20.2416Z" fill="#F67A45"/>
<path d="M107.243 15.8541C107.305 15.7902 107.381 15.7407 107.464 15.7091C107.547 15.6775 107.636 15.6645 107.725 15.671L107.676 15.6283C107.554 15.5367 107.719 15.3659 107.835 15.4208C107.951 15.4757 108.189 15.5428 108.293 15.7198C108.308 15.7569 108.308 15.7986 108.293 15.8357C109.023 16.2421 109.64 16.8254 110.087 17.5322C110.112 17.5745 110.122 17.6249 110.113 17.6737C110.103 17.7224 110.077 17.7661 110.037 17.7964C109.998 17.8266 109.949 17.8413 109.9 17.8376C109.85 17.8338 109.804 17.812 109.769 17.7762C109.356 17.3003 108.899 16.8651 108.402 16.4765C108.034 16.2814 107.65 16.1162 107.255 15.9822C107.244 15.9758 107.235 15.967 107.228 15.9564C107.222 15.9458 107.218 15.9338 107.216 15.9212C107.215 15.9087 107.217 15.8961 107.222 15.8844C107.226 15.8727 107.234 15.8623 107.243 15.8541Z" fill="#F67A45"/>
<path d="M109.08 12.2784L108.433 11.6316C108.4 11.6675 108.376 11.7118 108.366 11.7597C108.366 11.4607 107.542 10.0145 105.559 8.03127C103.576 6.04806 102.154 5.23037 101.837 5.23037C101.883 5.21513 101.926 5.19245 101.965 5.16324L101.318 4.51032C102.251 3.57669 105.296 6.47522 106.2 7.38444C107.072 8.23995 107.865 9.1734 108.567 10.1731C109.312 11.2471 109.464 11.9 109.08 12.2784Z" fill="#F67A45"/>
<path d="M108.586 11.5582C108.494 11.6254 108.402 11.6803 108.317 11.7535L108.097 11.9549C107.914 12.1196 107.75 12.2966 107.579 12.4736C107.408 12.6505 107.225 12.8214 107.066 13.0105C106.876 13.1846 106.719 13.3913 106.602 13.6208C106.486 13.932 106.846 14.1883 107.127 14.115C107.358 14.0189 107.566 13.8754 107.737 13.694C107.933 13.5292 108.11 13.3462 108.287 13.1692C108.482 12.976 108.668 12.7723 108.842 12.559L109.031 12.3149C109.077 12.2534 109.114 12.1855 109.141 12.1135C109.141 12.0769 109.214 11.9488 109.141 12.1135C109.184 12.0384 109.201 11.9512 109.19 11.8653C109.179 11.7793 109.141 11.6993 109.08 11.6376C109.013 11.5751 108.928 11.5356 108.836 11.5246C108.745 11.5136 108.653 11.5318 108.573 11.5765L108.586 11.5582Z" fill="#F67A45"/>
<path d="M99.774 6.96971C99.924 7.00866 100.083 6.98903 100.219 6.9148L100.39 6.80494C100.57 6.69027 100.738 6.55736 100.891 6.40831C101.172 6.13867 101.433 5.84909 101.672 5.54181C101.814 5.39576 101.946 5.24086 102.068 5.07804C102.124 4.98954 102.146 4.88465 102.133 4.7812C102.12 4.67774 102.071 4.58212 101.995 4.51054C101.915 4.43489 101.812 4.38699 101.702 4.37381C101.592 4.36064 101.481 4.38289 101.385 4.43731C101.239 4.54323 101.1 4.65945 100.97 4.78512C100.83 4.91327 100.683 5.02921 100.543 5.14515C100.389 5.27143 100.243 5.40587 100.103 5.5479C99.9498 5.70521 99.809 5.87459 99.6824 6.05439L99.5604 6.25575C99.5165 6.32136 99.4868 6.39541 99.4731 6.47317C99.4594 6.55092 99.4622 6.63066 99.4811 6.70731C99.4983 6.77309 99.5338 6.83266 99.5835 6.8791C99.6332 6.92554 99.695 6.95695 99.7618 6.96971H99.774Z" fill="#F67A45"/>
<path d="M96.1371 22.6153L95.4903 21.9684C95.4517 22.0037 95.4218 22.0474 95.4027 22.096C95.3837 22.1447 95.3761 22.1971 95.3804 22.2491C94.9279 21.4441 94.3442 20.7203 93.6535 20.1073C93.038 19.4175 92.3147 18.8322 91.5116 18.3743C91.5633 18.3799 91.6155 18.3734 91.6642 18.3554C91.7129 18.3374 91.7568 18.3083 91.7924 18.2705L91.1455 17.6237C91.3408 17.4284 91.8046 16.9647 94.3003 19.4543C94.837 19.977 95.3327 20.5401 95.7832 21.1385C96.0517 21.5108 96.552 22.2003 96.1371 22.6153Z" fill="#F67A45"/>
<path d="M94.4712 23.1097C94.3065 23.2561 94.3431 23.2012 94.1722 23.3599C94.0014 23.5185 93.6657 23.8297 93.4217 24.0677C92.5429 24.9098 91.6825 25.7763 90.816 26.6306C88.0944 29.2973 85.4156 32.0066 82.7306 34.7099C81.8519 35.5947 80.9854 36.4856 80.1128 37.3766L78.8435 38.6763C78.3833 39.0747 78.0006 39.5547 77.7146 40.092C77.6048 40.3422 77.9526 40.4704 78.1296 40.391C78.6057 40.1336 79.0332 39.7949 79.3927 39.3903C79.7955 39.0059 80.186 38.6092 80.6132 38.2187L82.993 35.8815C84.5003 34.3987 85.9831 32.8976 87.4781 31.4025C89.6302 29.2424 91.768 27.07 93.8915 24.8854C94.3409 24.4785 94.7496 24.0289 95.112 23.5429C95.3438 23.1707 94.8007 22.8412 94.5017 23.1097H94.4712Z" fill="#F67A45"/>
<path d="M91.2004 17.6301L91.0662 17.746L91.0052 17.7948L90.9258 17.862C90.8587 17.923 90.7977 17.984 90.7367 18.0511C90.3339 18.4295 89.9373 18.8078 89.5467 19.1922L85.5559 23.1403C81.7685 26.8911 78.0034 30.6684 74.2608 34.4721L71.1121 37.6696C70.63 38.1639 70.1418 38.646 69.6719 39.1402C69.193 39.5856 68.7726 40.09 68.421 40.6414C68.3944 40.6943 68.3856 40.7545 68.396 40.8128C68.4064 40.8711 68.4354 40.9245 68.4787 40.965C68.5219 41.0055 68.5771 41.031 68.636 41.0375C68.6949 41.0441 68.7543 41.0314 68.8054 41.0014C69.798 40.3231 70.6967 39.5168 71.4782 38.6033L74.2486 35.8634C76.2379 33.9046 78.2028 31.9275 80.1738 29.9504C83.4283 26.6959 86.6543 23.4414 89.8518 20.1869C90.3217 19.7109 90.7794 19.2227 91.237 18.7346C91.4405 18.5468 91.6282 18.3427 91.7984 18.1243C92.0425 17.7643 91.4811 17.4104 91.1882 17.685L91.2004 17.6301Z" fill="#F67A45"/>
<path d="M91.0052 18.7529C91.0526 18.7593 91.1009 18.7555 91.1468 18.7418C91.1926 18.728 91.235 18.7046 91.2711 18.6731C91.3072 18.6416 91.3361 18.6028 91.3559 18.5592C91.3757 18.5156 91.3859 18.4682 91.3859 18.4203C91.3859 18.3724 91.3757 18.3251 91.3559 18.2815C91.3361 18.2379 91.3072 18.1991 91.2711 18.1675C91.235 18.136 91.1926 18.1126 91.1468 18.0989C91.1009 18.0851 91.0526 18.0813 91.0052 18.0878C90.9577 18.0813 90.9094 18.0851 90.8636 18.0989C90.8177 18.1126 90.7753 18.136 90.7392 18.1675C90.7032 18.1991 90.6743 18.2379 90.6544 18.2815C90.6346 18.3251 90.6244 18.3724 90.6244 18.4203C90.6244 18.4682 90.6346 18.5156 90.6544 18.5592C90.6743 18.6028 90.7032 18.6416 90.7392 18.6731C90.7753 18.7046 90.8177 18.728 90.8636 18.7418C90.9094 18.7555 90.9577 18.7593 91.0052 18.7529Z" fill="#F67A45"/>
<path d="M91.1333 17.8375C90.6879 18.3745 90.1387 18.8505 89.6505 19.3386L85.9282 23.0915L74.8527 34.1791L68.4638 40.5681C68.1831 40.8427 68.6285 41.2455 68.8909 40.977C72.7434 37.1326 76.5919 33.2842 80.4362 29.4316C83.5361 26.3236 86.6381 23.2156 89.742 20.1075C90.3523 19.4973 91.0296 18.8871 91.5727 18.2463C91.8229 17.9473 91.3835 17.5507 91.1394 17.8375H91.1333Z" fill="#F67A45"/>
<path d="M95.4907 21.9675L88.8889 28.5693L89.5362 29.2166L96.138 22.6148L95.4907 21.9675Z" fill="#F67A45"/>
<path d="M93.4094 19.0821C92.7557 19.572 92.1434 20.1149 91.5788 20.7053C90.9685 21.3155 90.3583 21.9257 89.7176 22.5054C89.0769 23.0851 88.4972 23.6771 87.9236 24.269C87.275 24.8097 86.7096 25.443 86.2455 26.1484C86.2164 26.2039 86.2063 26.2674 86.2167 26.3292C86.2271 26.391 86.2575 26.4476 86.3031 26.4905C86.3488 26.5334 86.4073 26.5602 86.4696 26.5667C86.5319 26.5733 86.5946 26.5592 86.6482 26.5268C87.3328 26.0735 87.9493 25.5249 88.4789 24.8975C89.0891 24.2873 89.6993 23.6771 90.3095 23.0668L92.0608 21.2362C92.6702 20.6624 93.2296 20.0377 93.7328 19.3689C93.861 19.1858 93.5864 18.954 93.4155 19.076L93.4094 19.0821Z" fill="#F67A45"/>
<path d="M72.717 40.3909C73.7665 39.5488 74.7063 38.5602 75.6643 37.6388L78.4469 34.9111C79.887 33.5015 81.321 32.0919 82.7184 30.6396C83.1634 30.1955 83.5716 29.7159 83.9389 29.2056C84.1036 28.9615 83.7558 28.6686 83.53 28.8272C82.4298 29.6817 81.4086 30.6334 80.4789 31.6709C78.7886 33.3795 77.1044 35.1003 75.4202 36.815C74.3344 37.8609 73.3019 38.9607 72.3264 40.1102C72.1556 40.3299 72.5217 40.5129 72.6925 40.3726L72.717 40.3909Z" fill="#F67A45"/>
<path d="M89.5895 22.585C89.6008 22.585 89.6117 22.5804 89.6197 22.5724C89.6277 22.5644 89.6322 22.5536 89.6322 22.5422C89.6322 22.5309 89.6277 22.52 89.6197 22.512C89.6117 22.504 89.6008 22.4995 89.5895 22.4995C89.5839 22.4995 89.5783 22.5006 89.5731 22.5028C89.5679 22.5049 89.5632 22.5081 89.5593 22.512C89.5553 22.516 89.5522 22.5207 89.55 22.5259C89.5479 22.5311 89.5468 22.5366 89.5468 22.5422C89.5468 22.5478 89.5479 22.5534 89.55 22.5586C89.5522 22.5638 89.5553 22.5685 89.5593 22.5724C89.5632 22.5764 89.5679 22.5795 89.5731 22.5817C89.5783 22.5838 89.5839 22.585 89.5895 22.585Z" fill="#F67A45"/>
<path d="M45.2937 94.8285C42.1328 94.8285 34.6637 88.5432 29.8491 83.7286C26.6563 80.6055 23.754 77.1987 21.1779 73.5502C18.9262 70.2306 18.2672 68.1803 19.1581 67.2893C20.9888 65.4587 27.9086 70.7127 33.2908 75.747L32.6805 76.4182C25.4861 69.7058 20.586 67.1673 19.8171 67.9362C19.5242 68.2291 19.6463 69.6387 21.9468 73.0376C24.484 76.6378 27.3435 79.9997 30.4899 83.0818C38.4227 91.0146 44.769 94.7186 45.6782 93.8155C46.4593 93.0344 43.8475 88.0551 37.0009 80.7446L37.666 80.1344C41.8094 84.5402 48.2899 92.5158 46.325 94.4807C46.1844 94.6035 46.0209 94.6975 45.844 94.7571C45.667 94.8168 45.4801 94.8411 45.2937 94.8285Z" fill="#F67A45"/>
<path d="M39.5516 88.4578C39.0695 88.4578 38.2396 88.1161 36.6836 86.9628C34.7933 85.5156 33.007 83.9374 31.3381 82.2397C30.1176 81.0193 24.0154 74.8012 25.3335 73.4892C26.0414 72.7874 28.2076 74.0628 31.7713 77.2909L31.1611 77.9682C28.3846 75.4541 26.676 74.3923 26.0658 74.2215C26.3099 75.1063 28.3602 77.9621 31.991 81.5929C35.6218 85.2237 38.4837 87.274 39.3685 87.5181C39.1916 86.9079 38.0932 85.1444 35.4875 82.2824L36.1649 81.6722C39.4906 85.3335 40.8086 87.5303 40.0947 88.2504C40.024 88.3214 39.939 88.3767 39.8454 88.4124C39.7518 88.4482 39.6516 88.4637 39.5516 88.4578Z" fill="#F67A45"/>
<path d="M41.8094 98.3131C40.6927 98.3131 38.9719 97.5198 36.5982 95.9149C32.9532 93.3367 29.5486 90.4345 26.4258 87.2437C23.2347 84.1212 20.3325 80.7166 17.7546 77.0714C15.509 73.7457 14.8439 71.7015 15.7348 70.8105L16.3633 71.4574C16.0704 71.7503 16.1925 73.1538 18.493 76.5588C21.0322 80.1555 23.8916 83.5152 27.036 86.5969C30.1284 89.7477 33.5005 92.6112 37.1107 95.1521C40.5158 97.4588 41.9193 97.593 42.2122 97.2818L42.859 97.9286C42.7193 98.0606 42.5542 98.1627 42.3738 98.2288C42.1933 98.2949 42.0013 98.3236 41.8094 98.3131Z" fill="#F67A45"/>
<path d="M21.4159 81.5441C21.637 81.5098 21.8384 81.3972 21.9834 81.2268L22.435 80.8058L23.393 79.921C24.0512 79.3408 24.6632 78.7104 25.2237 78.0354C25.2739 77.9536 25.2911 77.8557 25.2718 77.7617C25.2525 77.6676 25.1983 77.5844 25.1199 77.5289C25.0378 77.4728 24.9395 77.4454 24.8402 77.4509C24.7409 77.4564 24.6461 77.4946 24.5707 77.5594C23.914 78.1058 23.3018 78.7037 22.7401 79.3474C22.4594 79.6464 22.1848 79.9576 21.9102 80.2566L21.4708 80.7387C21.2995 80.8812 21.1848 81.0803 21.1474 81.3001C21.149 81.3337 21.1572 81.3668 21.1715 81.3973C21.1859 81.4277 21.2061 81.4551 21.231 81.4778C21.256 81.5005 21.2851 81.518 21.3169 81.5294C21.3486 81.5408 21.3822 81.5458 21.4159 81.5441Z" fill="#F67A45"/>
<path d="M23.3015 83.7227C23.5253 83.6871 23.7288 83.5724 23.8751 83.3993L24.3267 82.9783L25.2786 82.0935C25.9365 81.5152 26.5485 80.8868 27.1093 80.214C27.1588 80.1314 27.1751 80.0331 27.1547 79.939C27.1343 79.8449 27.0787 79.7621 26.9994 79.7075C26.919 79.6498 26.8213 79.6214 26.7225 79.6269C26.6237 79.6325 26.5298 79.6717 26.4563 79.738C25.8012 80.284 25.1892 80.8797 24.6257 81.5198L23.7958 82.4352L23.3564 82.9173C23.1852 83.059 23.0722 83.2589 23.0391 83.4787C23.0423 83.5456 23.0715 83.6086 23.1205 83.6542C23.1696 83.6998 23.2345 83.7244 23.3015 83.7227Z" fill="#F67A45"/>
<path d="M41.8094 98.313C40.6927 98.313 38.9719 97.5197 36.5982 95.9149C32.9532 93.3367 29.5486 90.4345 26.4258 87.2437C23.2347 84.1212 20.3325 80.7166 17.7546 77.0714C15.509 73.7457 14.8439 71.7014 15.7348 70.8105L19.152 67.2957L19.8111 67.9364L16.3633 71.4512C16.0643 71.7502 16.1864 73.1537 18.4869 76.5588C21.0261 80.1555 23.8855 83.5152 27.0299 86.5968C30.1243 89.7479 33.4984 92.6114 37.1107 95.1521C40.5158 97.4587 41.9193 97.593 42.2122 97.2818L45.6843 93.8157L46.3311 94.4626L42.859 97.9286C42.7193 98.0606 42.5542 98.1627 42.3738 98.2288C42.1933 98.2949 42.0013 98.3236 41.8094 98.313Z" fill="#F67A45"/>
<path d="M21.4159 81.5441C21.637 81.5098 21.8384 81.3972 21.9834 81.2268L22.435 80.8058L23.393 79.921C24.0512 79.3408 24.6632 78.7104 25.2237 78.0354C25.2739 77.9536 25.2911 77.8557 25.2718 77.7617C25.2525 77.6676 25.1983 77.5844 25.1199 77.5289C25.0378 77.4728 24.9395 77.4454 24.8402 77.4509C24.7409 77.4564 24.6461 77.4946 24.5707 77.5594C23.914 78.1058 23.3018 78.7037 22.7401 79.3474C22.4594 79.6464 22.1848 79.9576 21.9102 80.2566L21.4708 80.7387C21.2995 80.8812 21.1848 81.0803 21.1474 81.3001C21.149 81.3337 21.1572 81.3668 21.1715 81.3973C21.1859 81.4277 21.2061 81.4551 21.231 81.4778C21.256 81.5005 21.2851 81.518 21.3169 81.5294C21.3486 81.5408 21.3822 81.5458 21.4159 81.5441Z" fill="#F67A45"/>
<path d="M23.3015 83.7227C23.5253 83.6871 23.7288 83.5724 23.8751 83.3993L24.3267 82.9783L25.2786 82.0935C25.9365 81.5152 26.5485 80.8868 27.1093 80.214C27.1588 80.1314 27.1751 80.0331 27.1547 79.939C27.1343 79.8449 27.0787 79.7621 26.9994 79.7075C26.919 79.6498 26.8213 79.6214 26.7225 79.6269C26.6237 79.6325 26.5298 79.6717 26.4563 79.738C25.8012 80.284 25.1892 80.8797 24.6257 81.5198L23.7958 82.4352L23.3564 82.9173C23.1852 83.059 23.0722 83.2589 23.0391 83.4787C23.0423 83.5456 23.0715 83.6086 23.1205 83.6542C23.1696 83.6998 23.2345 83.7244 23.3015 83.7227Z" fill="#F67A45"/>
<path d="M22.3984 80.3604C21.4342 81.2392 19.3473 79.14 18.9873 78.3955C18.8896 78.2064 19.1398 77.9928 19.2985 78.1576C19.774 78.7133 20.3056 79.2184 20.885 79.6648C21.3612 79.9127 21.8651 80.1032 22.3862 80.2323C22.435 80.2323 22.4289 80.3299 22.3862 80.3604H22.3984Z" fill="#F67A45"/>
<path d="M36.4029 100.174C35.4204 100.174 33.9193 99.4846 31.8628 98.0933C28.7148 95.8621 25.7739 93.3521 23.0757 90.5937C18.3465 85.8645 11.988 78.1575 13.8431 76.3024L16.284 73.8616L16.9308 74.5084L14.4899 76.9493C13.8309 77.6083 16.4243 82.6487 23.7225 89.9469C26.3813 92.6655 29.2816 95.1369 32.3876 97.3305C35.2984 99.3015 36.4883 99.3992 36.7141 99.1612L39.0573 96.7997L39.7041 97.4465L37.3487 99.8507C37.2211 99.9659 37.0715 100.054 36.909 100.109C36.7464 100.165 36.5742 100.187 36.4029 100.174Z" fill="#F67A45"/>
<path d="M18.8042 85.6328C18.906 85.6261 19.0052 85.5982 19.0956 85.5509C19.1859 85.5036 19.2654 85.438 19.329 85.3582L19.7256 84.9981C20.0002 84.7418 20.2748 84.4856 20.5555 84.2354C20.8362 83.9852 21.0803 83.7228 21.3366 83.4665C21.4647 83.3444 21.5929 83.2163 21.7149 83.0882C21.8608 82.9332 21.9954 82.7681 22.1177 82.5939C22.1673 82.5113 22.1835 82.413 22.1631 82.3189C22.1427 82.2248 22.0872 82.142 22.0078 82.0874C21.927 82.0308 21.8295 82.003 21.731 82.0085C21.6325 82.014 21.5387 82.0526 21.4647 82.1179C21.3208 82.2248 21.1823 82.3388 21.0498 82.4596L20.6592 82.8624C20.403 83.1248 20.1467 83.3872 19.9026 83.6557L19.1886 84.455L18.8164 84.87C18.6821 85.0226 18.5174 85.169 18.5357 85.3887C18.5404 85.4561 18.5709 85.5191 18.6209 85.5646C18.671 85.6101 18.7366 85.6345 18.8042 85.6328Z" fill="#F67A45"/>
<path d="M20.4091 87.5426C20.5118 87.5335 20.6117 87.504 20.7028 87.4558C20.794 87.4076 20.8746 87.3417 20.94 87.2619L21.3305 86.9019L22.1604 86.1391C22.4289 85.895 22.6852 85.6326 22.9415 85.3703C23.0696 85.2482 23.1978 85.1262 23.3198 84.998C23.4658 84.841 23.6004 84.6738 23.7226 84.4976C23.7739 84.4172 23.7918 84.3198 23.7724 84.2264C23.753 84.1329 23.6979 84.0507 23.6188 83.9973C23.5375 83.9391 23.4387 83.9104 23.3389 83.916C23.239 83.9215 23.144 83.961 23.0696 84.0278C22.9265 84.1332 22.7899 84.2473 22.6608 84.3695C22.5265 84.4977 22.3984 84.638 22.2641 84.7723C22.014 85.0346 21.7516 85.2909 21.5075 85.5655L20.7996 86.3588L20.4213 86.7799C20.287 86.9263 20.1284 87.0789 20.1467 87.2925C20.1498 87.3599 20.1789 87.4236 20.2277 87.4702C20.2766 87.5168 20.3415 87.5427 20.4091 87.5426Z" fill="#F67A45"/>
<path d="M18.8042 85.6328C18.906 85.6261 19.0052 85.5982 19.0956 85.5509C19.1859 85.5036 19.2654 85.438 19.329 85.3582L19.7256 84.9981C20.0002 84.7418 20.2748 84.4856 20.5555 84.2354C20.8362 83.9852 21.0803 83.7228 21.3366 83.4665C21.4647 83.3444 21.5929 83.2163 21.7149 83.0882C21.8608 82.9332 21.9954 82.7681 22.1177 82.5939C22.1673 82.5113 22.1835 82.413 22.1631 82.3189C22.1427 82.2248 22.0872 82.142 22.0078 82.0874C21.927 82.0308 21.8295 82.003 21.731 82.0085C21.6325 82.014 21.5387 82.0526 21.4647 82.1179C21.3208 82.2248 21.1823 82.3388 21.0498 82.4596L20.6592 82.8624C20.403 83.1248 20.1467 83.3872 19.9026 83.6557L19.1886 84.455L18.8164 84.87C18.6821 85.0226 18.5174 85.169 18.5357 85.3887C18.5404 85.4561 18.5709 85.5191 18.6209 85.5646C18.671 85.6101 18.7366 85.6345 18.8042 85.6328Z" fill="#F67A45"/>
<path d="M20.4091 87.5426C20.5118 87.5335 20.6117 87.504 20.7028 87.4558C20.794 87.4076 20.8746 87.3417 20.94 87.2619L21.3305 86.9019L22.1604 86.1391C22.4289 85.895 22.6852 85.6326 22.9415 85.3703C23.0696 85.2482 23.1978 85.1262 23.3198 84.998C23.4658 84.841 23.6004 84.6738 23.7226 84.4976C23.7739 84.4172 23.7918 84.3198 23.7724 84.2264C23.753 84.1329 23.6979 84.0507 23.6188 83.9973C23.5375 83.9391 23.4387 83.9104 23.3389 83.916C23.239 83.9215 23.144 83.961 23.0696 84.0278C22.9265 84.1332 22.7899 84.2473 22.6608 84.3695C22.5265 84.4977 22.3984 84.638 22.2641 84.7723C22.014 85.0346 21.7516 85.2909 21.5075 85.5655L20.7996 86.3588L20.4213 86.7799C20.287 86.9263 20.1284 87.0789 20.1467 87.2925C20.1498 87.3599 20.1789 87.4236 20.2277 87.4702C20.2766 87.5168 20.3415 87.5427 20.4091 87.5426Z" fill="#F67A45"/>
<path d="M22.2092 80.214C22.2206 80.2211 22.2299 80.231 22.2364 80.2428C22.2429 80.2545 22.2463 80.2677 22.2463 80.2811C22.2463 80.2945 22.2429 80.3077 22.2364 80.3195C22.2299 80.3312 22.2206 80.3411 22.2092 80.3482C22.1102 80.4272 21.9928 80.4797 21.8679 80.5011C21.7431 80.5224 21.6149 80.5118 21.4953 80.4703L21.6783 80.6106C21.7067 80.6296 21.7268 80.6586 21.7345 80.6918C21.7422 80.7251 21.737 80.76 21.7199 80.7895C21.7028 80.819 21.6751 80.8409 21.6425 80.8508C21.6098 80.8606 21.5746 80.8577 21.5441 80.8425C21.3488 80.751 21.1291 80.69 21.0193 80.5008C21.0116 80.4833 21.008 80.4643 21.0086 80.4452C21.0092 80.4261 21.014 80.4074 21.0228 80.3905C21.0316 80.3735 21.0441 80.3587 21.0593 80.3472C21.0745 80.3357 21.0921 80.3277 21.1108 80.3238L20.8606 80.1896C20.0713 79.7806 19.4119 79.1592 18.9567 78.3955C18.8591 78.2064 19.1093 77.9928 19.268 78.1576C19.7156 78.6794 20.2099 79.1594 20.7447 79.5916C21.2002 79.8686 21.6935 80.0783 22.2092 80.214Z" fill="#F67A45"/>
<path d="M19.4998 84.5952C19.4372 84.6579 19.3616 84.7063 19.2783 84.7368C19.195 84.7674 19.1061 84.7795 19.0177 84.7722C19.031 84.7895 19.0476 84.804 19.0666 84.8149C19.1886 84.9064 19.0238 85.0834 18.9018 85.0284C18.7798 84.9735 18.5479 84.9003 18.4502 84.7233C18.4412 84.7064 18.4364 84.6876 18.4364 84.6684C18.4364 84.6492 18.4412 84.6304 18.4502 84.6135C17.719 84.2053 17.1021 83.6198 16.6562 82.911C16.6378 82.8696 16.6338 82.8232 16.645 82.7793C16.6562 82.7354 16.6819 82.6966 16.7178 82.6691C16.7538 82.6416 16.798 82.627 16.8433 82.6277C16.8886 82.6284 16.9323 82.6444 16.9674 82.673C17.3846 83.1487 17.8419 83.5877 18.3343 83.985C18.7052 84.1781 19.0908 84.3413 19.4876 84.4731C19.4966 84.4802 19.504 84.4891 19.5095 84.4991C19.515 84.5092 19.5184 84.5202 19.5195 84.5316C19.5207 84.543 19.5195 84.5545 19.5161 84.5654C19.5127 84.5763 19.5072 84.5864 19.4998 84.5952Z" fill="#F67A45"/>
<path d="M24.9369 96.1223C23.7164 96.1223 21.3183 93.8523 20.5311 93.0712C19.6219 92.162 16.7233 89.117 17.657 88.1895L18.3038 88.8363C18.3402 88.8017 18.3657 88.7571 18.377 88.7081C18.377 89.0132 19.2008 90.4595 21.1779 92.4366C23.155 94.4137 24.589 95.2436 24.9003 95.2436C24.855 95.2564 24.8133 95.2794 24.7782 95.3107L25.425 95.9575C25.3589 96.0164 25.2816 96.0613 25.1977 96.0896C25.1139 96.1179 25.0251 96.129 24.9369 96.1223Z" fill="#F67A45"/>
<path d="M18.1513 88.8973C18.2467 88.8357 18.3384 88.7684 18.4259 88.696L18.6394 88.5007C18.8225 88.3359 18.9934 88.1589 19.1642 87.982C19.3351 87.805 19.512 87.6281 19.6768 87.4389C19.8652 87.2636 20.0221 87.0572 20.1406 86.8287C20.2504 86.5175 19.8965 86.2551 19.6158 86.3283C19.386 86.4287 19.1785 86.5739 19.0056 86.7555C18.8156 86.9209 18.6343 87.0961 18.4625 87.2802C18.2647 87.4736 18.0773 87.6773 17.9011 87.8905L17.718 88.1345C17.672 88.1939 17.635 88.2597 17.6082 88.3298C17.5349 88.5007 17.6082 88.3664 17.6082 88.3298C17.5651 88.4043 17.5484 88.4912 17.5606 88.5764C17.5727 88.6615 17.6131 88.7402 17.6753 88.7997C17.7417 88.861 17.8253 88.9003 17.9149 88.9123C18.0044 88.9243 18.0955 88.9084 18.1757 88.8668L18.1513 88.8973Z" fill="#F67A45"/>
<path d="M26.9628 93.48C26.8139 93.4445 26.6571 93.4663 26.5235 93.541C26.4644 93.572 26.4073 93.6066 26.3526 93.6448C26.172 93.7634 26.0024 93.8982 25.8461 94.0475C25.5689 94.3167 25.31 94.6041 25.0711 94.9079C24.929 95.0537 24.7965 95.2087 24.6745 95.3717C24.6193 95.4602 24.5964 95.5651 24.6097 95.6685C24.6231 95.772 24.6718 95.8676 24.7477 95.9392C24.8266 96.0176 24.9291 96.0678 25.0394 96.0821C25.1497 96.0965 25.2616 96.0741 25.3579 96.0185C25.5044 95.9126 25.643 95.7964 25.7729 95.6707C25.9071 95.5425 26.0597 95.4266 26.2 95.3046C26.5226 95.0374 26.8115 94.7321 27.0604 94.3953L27.1825 94.2001C27.2666 94.0656 27.2951 93.9036 27.2618 93.7485C27.2432 93.6818 27.2066 93.6215 27.156 93.5741C27.1054 93.5268 27.0428 93.4942 26.975 93.48H26.9628Z" fill="#F67A45"/>
<path d="M35.2252 82.9964C34.8407 82.9964 34.078 82.6303 32.4426 80.9949C31.9072 80.4689 31.4116 79.9039 30.9597 79.3046C30.6912 78.9385 30.1909 78.255 30.6058 77.8401L31.2526 78.493C31.2901 78.4572 31.3189 78.4133 31.3369 78.3646C31.3548 78.316 31.3615 78.2639 31.3564 78.2123C31.8192 79.003 32.4041 79.7156 33.0894 80.3237C33.7024 81.0144 34.4263 81.598 35.2313 82.0506C35.1797 82.0463 35.1279 82.0534 35.0794 82.0713C35.0309 82.0893 34.9869 82.1176 34.9506 82.1543L35.5974 82.8012C35.5548 82.8604 35.4989 82.9089 35.4343 82.9427C35.3697 82.9766 35.2981 82.995 35.2252 82.9964Z" fill="#F67A45"/>
<path d="M32.29 77.3459C32.4487 77.1995 32.4182 77.2544 32.589 77.0897L33.3396 76.3879C34.2183 75.5397 35.0787 74.6732 35.9452 73.8189C38.6607 71.1522 41.3457 68.4489 44.0306 65.7457C44.9093 64.8609 45.7758 63.9639 46.6485 63.0729L47.9177 61.7793C48.3782 61.3787 48.7608 60.8967 49.0466 60.3575C49.1503 60.1073 48.8086 59.9852 48.6317 60.0646C48.1558 60.3198 47.7283 60.6565 47.3685 61.0592L46.1481 62.2369L43.7682 64.5741C42.261 66.0508 40.7782 67.558 39.2831 69.0531C37.127 71.2092 34.9892 73.3795 32.8697 75.5641C32.4171 75.9677 32.0081 76.4177 31.6493 76.9066C31.4174 77.2788 31.9544 77.6144 32.2595 77.3459H32.29Z" fill="#F67A45"/>
<path d="M35.5424 82.8194L35.6767 82.7035L35.7377 82.6547L35.817 82.5875L36.0062 82.4045C36.4029 82.0261 36.8056 81.6478 37.2266 81.2573L41.2175 77.3091C45.0049 73.5624 48.7699 69.7852 52.5126 65.9774L55.6552 62.7799C56.1373 62.2917 56.6255 61.8096 57.1014 61.3092C57.58 60.8658 58.0003 60.3635 58.3524 59.8142C58.3808 59.7606 58.3907 59.6991 58.3805 59.6393C58.3703 59.5795 58.3406 59.5247 58.2959 59.4836C58.2513 59.4425 58.1944 59.4173 58.1339 59.4119C58.0735 59.4066 58.013 59.4215 57.9618 59.4542C56.9719 60.1358 56.0737 60.9418 55.2891 61.8523L52.5187 64.5861C50.5355 66.551 48.5706 68.5281 46.5996 70.4991C43.3451 73.7536 40.1191 77.0081 36.9215 80.2626C36.4517 80.7447 35.9879 81.2267 35.5302 81.7149C35.3291 81.9162 35.1435 82.1324 34.9749 82.3618C34.7248 82.7218 35.2862 83.0757 35.5852 82.795L35.5424 82.8194Z" fill="#F67A45"/>
<path d="M35.7377 82.3618C35.7852 82.3682 35.8335 82.3645 35.8793 82.3507C35.9252 82.3369 35.9676 82.3135 36.0037 82.282C36.0397 82.2505 36.0686 82.2116 36.0884 82.168C36.1083 82.1244 36.1185 82.0771 36.1185 82.0292C36.1185 81.9813 36.1083 81.934 36.0884 81.8904C36.0686 81.8468 36.0397 81.808 36.0037 81.7765C35.9676 81.745 35.9252 81.7215 35.8793 81.7078C35.8335 81.694 35.7852 81.6902 35.7377 81.6967C35.6903 81.6902 35.642 81.694 35.5961 81.7078C35.5503 81.7215 35.5079 81.745 35.4718 81.7765C35.4357 81.808 35.4068 81.8468 35.387 81.8904C35.3672 81.934 35.357 81.9813 35.357 82.0292C35.357 82.0771 35.3672 82.1244 35.387 82.168C35.4068 82.2116 35.4357 82.2505 35.4718 82.282C35.5079 82.3135 35.5503 82.3369 35.5961 82.3507C35.642 82.3645 35.6903 82.3682 35.7377 82.3618Z" fill="#F67A45"/>
<path d="M35.6096 82.6122C36.0551 82.0813 36.6043 81.6053 37.0924 81.111L40.827 77.3643L51.9024 66.2888L58.2914 59.8937C58.566 59.6191 58.1266 59.2225 57.8582 59.4849L46.3189 71.0302L37.0131 80.3238C36.4029 80.934 35.7255 81.5443 35.1825 82.1545C34.9323 82.4535 35.3716 82.8562 35.6157 82.5633L35.6096 82.6122Z" fill="#F67A45"/>
<path d="M37.2125 71.241L30.6107 77.8428L31.2579 78.49L37.8597 71.8882L37.2125 71.241Z" fill="#F67A45"/>
<path d="M33.3335 81.3673C33.9858 80.8779 34.598 80.3372 35.1641 79.7502L36.9948 77.9501C37.605 77.3399 38.2152 76.7724 38.7888 76.1866C39.4344 75.6427 39.9994 75.0099 40.4669 74.3071C40.496 74.2516 40.5061 74.1881 40.4957 74.1263C40.4853 74.0645 40.4549 74.0079 40.4093 73.965C40.3636 73.9221 40.3051 73.8953 40.2428 73.8888C40.1805 73.8822 40.1178 73.8963 40.0642 73.9288C39.38 74.3801 38.7636 74.9267 38.2335 75.5519L36.4029 77.3826L34.6577 79.2132C34.0512 79.7899 33.4921 80.4143 32.9857 81.0805C32.8575 81.2697 33.1321 81.4955 33.303 81.3734L33.3335 81.3673Z" fill="#F67A45"/>
<path d="M54.026 60.0646C52.997 60.9308 52.0132 61.8494 51.0786 62.8167L48.2899 65.5444C46.8559 66.9479 45.4219 68.3575 44.0184 69.8159C43.5734 70.26 43.1652 70.7396 42.798 71.2499C42.6332 71.4879 42.981 71.7869 43.2068 71.6282C44.3058 70.7701 45.3268 69.8165 46.2579 68.7785C47.9502 67.0699 49.6365 65.3552 51.3166 63.6344C52.4003 62.5883 53.4308 61.4886 54.4043 60.3392C54.5813 60.1256 54.2151 59.9426 54.0443 60.0829L54.026 60.0646Z" fill="#F67A45"/>
<path d="M37.1657 77.95C37.1721 77.9526 37.1792 77.9536 37.1861 77.9529C37.193 77.9521 37.1997 77.9497 37.2055 77.9458C37.2112 77.9418 37.216 77.9366 37.2192 77.9304C37.2225 77.9243 37.2242 77.9174 37.2242 77.9104C37.2242 77.9034 37.2225 77.8965 37.2192 77.8904C37.216 77.8842 37.2112 77.8789 37.2055 77.875C37.1997 77.8711 37.193 77.8687 37.1861 77.8679C37.1792 77.8672 37.1721 77.8681 37.1657 77.8707C37.1592 77.8681 37.1522 77.8672 37.1452 77.8679C37.1383 77.8687 37.1316 77.8711 37.1258 77.875C37.1201 77.8789 37.1153 77.8842 37.1121 77.8904C37.1088 77.8965 37.1071 77.9034 37.1071 77.9104C37.1071 77.9174 37.1088 77.9243 37.1121 77.9304C37.1153 77.9366 37.1201 77.9418 37.1258 77.9458C37.1316 77.9497 37.1383 77.9521 37.1452 77.9529C37.1522 77.9536 37.1592 77.9526 37.1657 77.95Z" fill="#F67A45"/>
<path d="M81.443 94.8289C81.2554 94.84 81.0674 94.8134 80.8903 94.7505C80.7131 94.6876 80.5504 94.5897 80.4118 94.4627C78.4469 92.4978 84.9274 84.5223 89.0708 80.1165L89.7359 80.7267C82.8588 88.0493 80.2775 93.0165 81.0586 93.7976C81.9678 94.7068 88.3385 90.9723 96.2469 83.0639C99.3899 79.9786 102.249 76.617 104.79 73.0197C107.091 69.6208 107.231 68.2112 106.92 67.9183C106.145 67.1494 101.251 69.6696 94.0563 76.4003L93.446 75.729C98.8282 70.6947 105.754 65.453 107.579 67.2714C108.457 68.1501 107.774 70.2554 105.559 73.5323C102.991 77.1861 100.097 80.599 96.9121 83.729C92.0791 88.5436 84.604 94.8289 81.443 94.8289Z" fill="#F67A45"/>
<path d="M87.1974 88.4581C87.0979 88.4622 86.9987 88.4454 86.9062 88.4086C86.8136 88.3718 86.7299 88.3159 86.6604 88.2445C85.9404 87.5244 87.2707 85.3155 90.5903 81.6664L91.2676 82.2766C88.6559 85.1385 87.5636 86.8898 87.3866 87.5122C88.2714 87.2681 91.1333 85.2178 94.7641 81.587C98.3949 77.9562 100.445 75.1004 100.689 74.2156C100.079 74.3864 98.3705 75.436 95.594 77.9623L94.9838 77.285C98.5475 74.0569 100.714 72.7816 101.422 73.4833C102.727 74.7953 96.6497 81.0012 95.4171 82.2339C93.7483 83.9317 91.9621 85.51 90.0716 86.9569C88.5094 88.1163 87.6795 88.4581 87.1974 88.4581Z" fill="#F67A45"/>
<path d="M84.9335 98.3131C84.7415 98.3243 84.5493 98.296 84.3688 98.2299C84.1882 98.1637 84.0232 98.0612 83.8839 97.9286L84.5307 97.2818C84.8237 97.5747 86.2272 97.4588 89.6322 95.1521C93.2292 92.6133 96.5889 89.7539 99.6703 86.6091C102.813 83.5258 105.672 80.1663 108.213 76.571C110.514 73.166 110.654 71.7625 110.337 71.4696L110.984 70.8228C111.862 71.7015 111.185 73.8067 108.97 77.0836C106.39 80.7274 103.488 84.1318 100.299 87.2559C97.1747 90.4453 93.7702 93.3474 90.1264 95.9271C87.7588 97.5198 86.0502 98.3131 84.9335 98.3131Z" fill="#F67A45"/>
<path d="M105.589 81.2694C105.562 81.0618 105.458 80.8722 105.296 80.7385L104.857 80.2565L104.003 79.3167C103.443 78.6717 102.83 78.0737 102.172 77.5288C102.099 77.4624 102.005 77.4232 101.906 77.4177C101.807 77.4121 101.709 77.4406 101.629 77.4983C101.551 77.5538 101.496 77.637 101.477 77.731C101.458 77.8251 101.475 77.9229 101.525 78.0048C102.086 78.6798 102.698 79.3102 103.356 79.8903L104.284 80.7507L104.735 81.1718C104.89 81.3567 105.107 81.4783 105.345 81.5135C105.379 81.5152 105.412 81.5101 105.443 81.4986C105.475 81.4872 105.504 81.4696 105.528 81.4468C105.552 81.4241 105.572 81.3966 105.586 81.3662C105.599 81.3357 105.607 81.3028 105.608 81.2694H105.589Z" fill="#F67A45"/>
<path d="M103.704 83.4787C103.675 83.2684 103.569 83.0766 103.405 82.9417L102.965 82.4596L102.117 81.5443C101.554 80.9042 100.942 80.3084 100.287 79.7624C100.213 79.6961 100.119 79.6569 100.02 79.6513C99.9216 79.6458 99.8239 79.6742 99.7435 79.7319C99.6629 79.7855 99.6064 79.8684 99.5859 79.9629C99.5654 80.0574 99.5825 80.1562 99.6336 80.2384C100.184 80.9102 100.786 81.5386 101.434 82.1179L102.367 82.9844L102.819 83.4054C102.975 83.5882 103.192 83.7093 103.429 83.7471C103.496 83.7488 103.561 83.7242 103.61 83.6786C103.659 83.633 103.688 83.57 103.692 83.5031L103.704 83.4787Z" fill="#F67A45"/>
<path d="M84.9335 98.3128C84.7416 98.324 84.5494 98.2957 84.3688 98.2296C84.1883 98.1634 84.0232 98.0609 83.8839 97.9283L80.4362 94.4623L81.083 93.8155L84.5552 97.2815C84.8481 97.5744 86.2516 97.4585 89.6566 95.1518C93.2536 92.613 96.6134 89.7536 99.6947 86.6088C102.837 83.5255 105.697 80.166 108.238 76.5707C110.538 73.1657 110.679 71.7622 110.361 71.4693L106.938 67.9483L107.591 67.3076L111.014 70.8225C111.887 71.7012 111.21 73.8064 108.994 77.0833C106.415 80.7271 103.513 84.1315 100.323 87.2556C97.1991 90.445 93.7946 93.3471 90.1509 95.9268C87.7588 97.5195 86.0502 98.3128 84.9335 98.3128Z" fill="#F67A45"/>
<path d="M105.589 81.2694C105.562 81.0618 105.458 80.8722 105.296 80.7385L104.857 80.2565L104.003 79.3167C103.443 78.6717 102.83 78.0737 102.172 77.5288C102.099 77.4624 102.005 77.4232 101.906 77.4177C101.807 77.4121 101.709 77.4406 101.629 77.4983C101.551 77.5538 101.496 77.637 101.477 77.731C101.458 77.8251 101.475 77.9229 101.525 78.0048C102.086 78.6798 102.698 79.3102 103.356 79.8903L104.284 80.7507L104.735 81.1718C104.89 81.3567 105.107 81.4783 105.345 81.5135C105.379 81.5152 105.412 81.5101 105.443 81.4986C105.475 81.4872 105.504 81.4696 105.528 81.4468C105.552 81.4241 105.572 81.3966 105.586 81.3662C105.599 81.3357 105.607 81.3028 105.608 81.2694H105.589Z" fill="#F67A45"/>
<path d="M103.704 83.4787C103.675 83.2684 103.569 83.0766 103.405 82.9417L102.965 82.4596L102.117 81.5443C101.554 80.9042 100.942 80.3084 100.287 79.7624C100.213 79.6961 100.119 79.6569 100.02 79.6513C99.9216 79.6458 99.8239 79.6742 99.7435 79.7319C99.6629 79.7855 99.6064 79.8684 99.5859 79.9629C99.5654 80.0574 99.5825 80.1562 99.6336 80.2384C100.184 80.9102 100.786 81.5386 101.434 82.1179L102.367 82.9844L102.819 83.4054C102.975 83.5882 103.192 83.7093 103.429 83.7471C103.496 83.7488 103.561 83.7242 103.61 83.6786C103.659 83.633 103.688 83.57 103.692 83.5031L103.704 83.4787Z" fill="#F67A45"/>
<path d="M104.345 80.3604C105.309 81.2392 107.396 79.14 107.756 78.3955C107.853 78.2064 107.603 77.9928 107.444 78.1576C106.967 78.7119 106.436 79.2168 105.858 79.6648C105.381 79.9108 104.877 80.1012 104.357 80.2323C104.308 80.2323 104.314 80.3299 104.357 80.3604H104.345Z" fill="#F67A45"/>
<path d="M90.34 100.174C90.167 100.184 89.9937 100.158 89.8309 100.098C89.6682 100.039 89.5195 99.9459 89.3942 99.8261L87.0388 97.4707L87.6856 96.8238L90.041 99.1793C90.2607 99.3989 91.4567 99.3013 94.3675 97.3486C97.4723 95.1534 100.372 92.6821 103.033 89.965C110.355 82.6424 112.924 77.6264 112.265 76.9673L109.824 74.5265L110.471 73.8796L112.912 76.3205C114.743 78.1512 108.409 85.8826 103.679 90.6118C100.977 93.3707 98.0323 95.8807 94.8801 98.1114C92.8236 99.4844 91.3225 100.174 90.34 100.174Z" fill="#F67A45"/>
<path d="M108.226 85.3885C108.221 85.2926 108.195 85.1988 108.151 85.1136C108.107 85.0283 108.045 84.9535 107.969 84.8943L107.597 84.4732L106.865 83.6555C106.627 83.3931 106.377 83.1429 106.126 82.8867L105.736 82.4839C105.599 82.3533 105.454 82.2311 105.303 82.1178C105.227 82.0529 105.132 82.0148 105.033 82.0092C104.934 82.0037 104.835 82.0312 104.753 82.0873C104.676 82.1437 104.623 82.2268 104.604 82.3205C104.584 82.4141 104.601 82.5115 104.65 82.5937C104.767 82.7591 104.893 82.918 105.028 83.0697L105.406 83.448C105.675 83.7104 105.937 83.9789 106.212 84.2352L107.017 84.9736L107.414 85.3397C107.48 85.4239 107.563 85.4933 107.658 85.5437C107.752 85.5941 107.856 85.6244 107.963 85.6326C108.03 85.6343 108.095 85.6097 108.144 85.5641C108.193 85.5184 108.222 85.4554 108.226 85.3885Z" fill="#F67A45"/>
<path d="M106.596 87.2925C106.596 87.0851 106.468 86.9447 106.34 86.7982L105.962 86.3833L105.229 85.5656C104.991 85.2971 104.741 85.0469 104.497 84.7906L104.1 84.3879C103.964 84.2581 103.82 84.1378 103.667 84.0279C103.594 83.9605 103.5 83.9205 103.401 83.915C103.302 83.9094 103.204 83.9385 103.124 83.9973C103.045 84.0508 102.99 84.133 102.971 84.2265C102.951 84.3199 102.969 84.4173 103.02 84.4977C103.136 84.6642 103.263 84.8232 103.399 84.9737L103.777 85.352C104.039 85.6144 104.302 85.889 104.583 86.1392L105.388 86.8837L105.785 87.2437C105.851 87.3282 105.934 87.3982 106.029 87.4496C106.123 87.501 106.227 87.5327 106.334 87.5427C106.401 87.5413 106.465 87.5149 106.514 87.4686C106.562 87.4223 106.592 87.3595 106.596 87.2925Z" fill="#F67A45"/>
<path d="M108.226 85.3885C108.221 85.2926 108.195 85.1988 108.151 85.1136C108.107 85.0283 108.045 84.9535 107.969 84.8943L107.597 84.4732L106.865 83.6555C106.627 83.3931 106.377 83.1429 106.126 82.8867L105.736 82.4839C105.599 82.3533 105.454 82.2311 105.303 82.1178C105.227 82.0529 105.132 82.0148 105.033 82.0092C104.934 82.0037 104.835 82.0312 104.753 82.0873C104.676 82.1437 104.623 82.2268 104.604 82.3205C104.584 82.4141 104.601 82.5115 104.65 82.5937C104.767 82.7591 104.893 82.918 105.028 83.0697L105.406 83.448C105.675 83.7104 105.937 83.9789 106.212 84.2352L107.017 84.9736L107.414 85.3397C107.48 85.4239 107.563 85.4933 107.658 85.5437C107.752 85.5941 107.856 85.6244 107.963 85.6326C108.03 85.6343 108.095 85.6097 108.144 85.5641C108.193 85.5184 108.222 85.4554 108.226 85.3885Z" fill="#F67A45"/>
<path d="M106.596 87.2925C106.596 87.0851 106.468 86.9447 106.34 86.7982L105.962 86.3833L105.229 85.5656C104.991 85.2971 104.741 85.0469 104.497 84.7906L104.1 84.3879C103.964 84.2581 103.82 84.1378 103.667 84.0279C103.594 83.9605 103.5 83.9205 103.401 83.915C103.302 83.9094 103.204 83.9385 103.124 83.9973C103.045 84.0508 102.99 84.133 102.971 84.2265C102.951 84.3199 102.969 84.4173 103.02 84.4977C103.136 84.6642 103.263 84.8232 103.399 84.9737L103.777 85.352C104.039 85.6144 104.302 85.889 104.583 86.1392L105.388 86.8837L105.785 87.2437C105.851 87.3282 105.934 87.3982 106.029 87.4496C106.123 87.501 106.227 87.5327 106.334 87.5427C106.401 87.5413 106.465 87.5149 106.514 87.4686C106.562 87.4223 106.592 87.3595 106.596 87.2925Z" fill="#F67A45"/>
<path d="M104.534 80.214C104.52 80.2173 104.507 80.2243 104.497 80.2342C104.487 80.2441 104.479 80.2565 104.476 80.2703C104.472 80.284 104.472 80.2985 104.476 80.3122C104.479 80.3259 104.487 80.3384 104.497 80.3482C104.596 80.4267 104.714 80.4789 104.839 80.5002C104.963 80.5216 105.091 80.5112 105.211 80.4703L105.034 80.6106C105.006 80.6296 104.986 80.6586 104.978 80.6918C104.97 80.7251 104.975 80.76 104.992 80.7895C105.01 80.819 105.037 80.8409 105.07 80.8508C105.103 80.8606 105.138 80.8577 105.168 80.8425C105.357 80.751 105.583 80.69 105.693 80.5008C105.701 80.4833 105.704 80.4643 105.704 80.4452C105.703 80.4261 105.698 80.4074 105.69 80.3905C105.681 80.3735 105.668 80.3587 105.653 80.3472C105.638 80.3357 105.62 80.3277 105.602 80.3238L105.852 80.1896C106.641 79.7806 107.301 79.1592 107.756 78.3955C107.853 78.2064 107.603 77.9928 107.444 78.1576C106.997 78.6794 106.502 79.1594 105.968 79.5916C105.522 79.866 105.039 80.0756 104.534 80.214Z" fill="#F67A45"/>
<path d="M107.243 84.5953C107.306 84.658 107.381 84.7064 107.465 84.7369C107.548 84.7675 107.637 84.7795 107.725 84.7722L107.676 84.8149C107.554 84.9065 107.719 85.0834 107.835 85.0285C107.951 84.9736 108.189 84.9004 108.293 84.7234C108.3 84.706 108.304 84.6874 108.304 84.6685C108.304 84.6496 108.3 84.6309 108.293 84.6136C109.024 84.2053 109.641 83.6199 110.087 82.9111C110.108 82.8688 110.114 82.8204 110.103 82.7743C110.092 82.7282 110.066 82.6873 110.028 82.6589C109.99 82.6305 109.943 82.6164 109.896 82.619C109.849 82.6215 109.804 82.6407 109.769 82.6731C109.355 83.1475 108.897 83.5826 108.402 83.9729C108.034 84.1659 107.65 84.3292 107.255 84.461C107.244 84.4681 107.235 84.4775 107.228 84.4886C107.222 84.4997 107.218 84.5122 107.216 84.5252C107.215 84.5381 107.217 84.5511 107.222 84.5633C107.226 84.5754 107.234 84.5864 107.243 84.5953Z" fill="#F67A45"/>
<path d="M101.794 96.1225C101.704 96.1268 101.615 96.1128 101.531 96.0813C101.447 96.0499 101.37 96.0016 101.306 95.9395L101.952 95.2926C101.919 95.2564 101.873 95.2328 101.824 95.2255C102.142 95.2255 103.582 94.3834 105.547 92.4185C107.512 90.4536 108.366 88.9952 108.354 88.6901C108.362 88.7389 108.385 88.7838 108.421 88.8182L109.068 88.1714C110.007 89.1111 107.109 92.1561 106.2 93.0531C105.455 93.8525 103.045 96.1225 101.794 96.1225Z" fill="#F67A45"/>
<path d="M109.153 88.3602C109.126 88.2901 109.089 88.2244 109.043 88.165L108.86 87.927C108.685 87.7125 108.498 87.5087 108.299 87.3168C108.122 87.1398 107.951 86.9567 107.762 86.7981L107.512 86.5967C107.404 86.4901 107.272 86.4106 107.127 86.3648C107.055 86.349 106.98 86.3502 106.908 86.3682C106.836 86.3861 106.769 86.4205 106.712 86.4686C106.66 86.5187 106.622 86.582 106.603 86.6518C106.583 86.7216 106.583 86.7953 106.602 86.8652C106.66 87.0083 106.747 87.1374 106.859 87.2435L107.066 87.4754C107.225 87.6646 107.408 87.8415 107.579 88.0185C107.75 88.1955 107.914 88.3724 108.097 88.5372C108.177 88.5982 108.244 88.6653 108.317 88.7325C108.402 88.8049 108.492 88.8721 108.586 88.9338C108.666 88.9778 108.759 88.995 108.85 88.9829C108.941 88.9708 109.026 88.9301 109.092 88.8667C109.153 88.8065 109.193 88.7275 109.204 88.6423C109.215 88.5571 109.197 88.4707 109.153 88.3969V88.3602Z" fill="#F67A45"/>
<path d="M99.4933 93.7486C99.4609 93.8936 99.4826 94.0455 99.5543 94.1757L99.6641 94.3466C99.781 94.5248 99.916 94.6904 100.067 94.8409C100.334 95.1217 100.622 95.3828 100.927 95.622C101.075 95.7639 101.232 95.8964 101.397 96.0186C101.494 96.0722 101.605 96.0935 101.715 96.0792C101.825 96.0649 101.927 96.0159 102.007 95.9393C102.081 95.8665 102.129 95.771 102.142 95.6682C102.155 95.5653 102.134 95.4609 102.081 95.3718C101.975 95.2272 101.859 95.0905 101.733 94.9629C101.605 94.8287 101.489 94.6761 101.367 94.5358C101.244 94.3793 101.109 94.2324 100.964 94.0964C100.808 93.9432 100.638 93.8044 100.457 93.6815L100.256 93.5533C100.114 93.4718 99.9465 93.4458 99.7862 93.4801C99.7195 93.4953 99.6582 93.5283 99.6087 93.5756C99.5593 93.6228 99.5236 93.6826 99.5055 93.7486H99.4933Z" fill="#F67A45"/>
<path d="M91.5116 82.9964C91.4415 82.9983 91.372 82.9839 91.3084 82.9542C91.2449 82.9246 91.1891 82.8805 91.1455 82.8256L91.7924 82.1787C91.756 82.142 91.712 82.1137 91.6635 82.0957C91.615 82.0778 91.5632 82.0707 91.5116 82.075C93.063 81.0769 94.3823 79.7576 95.3804 78.2062C95.3765 78.2583 95.3844 78.3105 95.4034 78.3591C95.4224 78.4077 95.4521 78.4514 95.4903 78.4869L96.1371 77.8401C96.552 78.255 96.0517 78.9385 95.7832 79.3046C95.3314 79.9039 94.8357 80.4689 94.3003 80.9949C92.6406 82.6303 91.9022 82.9964 91.5116 82.9964Z" fill="#F67A45"/>
<path d="M95.0814 76.9066C94.7911 76.5125 94.4665 76.1449 94.1112 75.8082C93.2874 74.9295 92.427 74.0813 91.5849 73.2209C88.9365 70.5054 86.2394 67.8326 83.5605 65.1538C82.6757 64.269 81.7787 63.4025 80.8939 62.5298L79.5941 61.2545C79.1836 60.7733 78.6895 60.3702 78.1357 60.0646C77.9587 59.9852 77.6109 60.1073 77.7207 60.3575C77.9563 60.8169 78.2725 61.2303 78.6544 61.5779C79.0388 61.9806 79.4355 62.3773 79.826 62.7983L82.1631 65.1843C83.6399 66.6915 85.1471 68.1866 86.6421 69.6816C88.8104 71.854 90.9889 74.0162 93.1776 76.1682C93.4827 76.4672 93.7878 76.7784 94.1112 77.0469C94.1549 77.0947 94.2018 77.1396 94.2515 77.1812L94.2943 77.2239C94.52 77.4314 94.2515 77.1934 94.3614 77.2788C94.4026 77.3059 94.4414 77.3365 94.4773 77.3703C94.7702 77.6327 95.3194 77.3093 95.0875 76.931L95.0814 76.9066Z" fill="#F67A45"/>
<path d="M91.7984 82.3863C91.326 81.7726 90.8012 81.2009 90.2302 80.6777L86.2699 76.6625C82.5353 72.8547 78.7703 69.0775 74.9747 65.3307L71.8138 62.2125C71.3134 61.7182 70.8192 61.2179 70.3127 60.7297C69.8649 60.2597 69.3583 59.8495 68.8054 59.5092C68.7543 59.4792 68.6949 59.4666 68.636 59.4731C68.5771 59.4797 68.5219 59.5051 68.4787 59.5456C68.4354 59.5861 68.4064 59.6395 68.396 59.6979C68.3856 59.7562 68.3944 59.8163 68.421 59.8693C68.7301 60.3587 69.0991 60.8076 69.5194 61.2057C69.9343 61.645 70.3615 62.0722 70.7825 62.4993L73.5529 65.3124C75.4812 67.2773 77.4339 69.2239 79.3744 71.1766C82.6289 74.4311 85.8834 77.6856 89.1379 80.9401C89.6261 81.4222 90.1142 81.892 90.6085 82.368L90.8404 82.5938L90.9258 82.6731L91.0357 82.7646L91.2065 82.905C91.4872 83.1796 92.0547 82.8318 91.8167 82.4717L91.7984 82.3863Z" fill="#F67A45"/>
<path d="M91.0052 82.3618C91.0526 82.3682 91.1009 82.3645 91.1468 82.3507C91.1926 82.3369 91.235 82.3135 91.2711 82.282C91.3072 82.2505 91.3361 82.2116 91.3559 82.168C91.3757 82.1244 91.3859 82.0771 91.3859 82.0292C91.3859 81.9813 91.3757 81.934 91.3559 81.8904C91.3361 81.8468 91.3072 81.808 91.2711 81.7765C91.235 81.745 91.1926 81.7215 91.1468 81.7078C91.1009 81.694 91.0526 81.6902 91.0052 81.6967C90.9577 81.6902 90.9094 81.694 90.8636 81.7078C90.8177 81.7215 90.7753 81.745 90.7392 81.7765C90.7032 81.808 90.6743 81.8468 90.6544 81.8904C90.6346 81.934 90.6244 81.9813 90.6244 82.0292C90.6244 82.0771 90.6346 82.1244 90.6544 82.168C90.6743 82.2116 90.7032 82.2505 90.7392 82.282C90.7753 82.3135 90.8177 82.3369 90.8636 82.3507C90.9094 82.3645 90.9577 82.3682 91.0052 82.3618Z" fill="#F67A45"/>
<path d="M91.5666 82.2033C91.1211 81.6724 90.5719 81.1964 90.0837 80.7022C88.8389 79.4492 87.592 78.2003 86.3431 76.9554L75.2738 65.8617L68.8787 59.4727C68.6163 59.2103 68.1708 59.6069 68.4515 59.8815L79.9908 71.4269L89.2966 80.7571C89.9068 81.3673 90.5841 81.9775 91.1272 82.5877C91.3713 82.8806 91.8107 82.4779 91.5605 82.1789L91.5666 82.2033Z" fill="#F67A45"/>
<path d="M89.5372 71.2373L88.89 71.8845L95.4918 78.4863L96.139 77.8391L89.5372 71.2373Z" fill="#F67A45"/>
<path d="M93.7268 81.0744C93.2355 80.4218 92.6927 79.8097 92.1036 79.2438C91.4934 78.6336 90.8831 78.0233 90.2729 77.4131C89.6627 76.8029 89.1013 76.1927 88.5094 75.613C87.9646 74.9678 87.3296 74.4046 86.6238 73.941C86.5702 73.9085 86.5075 73.8944 86.4452 73.901C86.3829 73.9075 86.3244 73.9343 86.2788 73.9772C86.2331 74.0201 86.2027 74.0768 86.1923 74.1385C86.1819 74.2003 86.192 74.2638 86.2211 74.3193C86.6737 75.0044 87.2224 75.6209 87.8504 76.15C88.4606 76.7602 89.0708 77.3704 89.681 77.9806L91.5117 79.7319C92.0926 80.3366 92.7211 80.8937 93.3911 81.3978C93.562 81.5199 93.8366 81.2941 93.7084 81.1049L93.7268 81.0744Z" fill="#F67A45"/>
<path d="M72.3508 60.3208C73.1868 61.3642 74.1815 62.304 75.0907 63.2559C75.9999 64.2079 76.8786 65.0866 77.7756 65.9958C79.2096 67.4664 80.6498 68.9309 82.1204 70.3711C82.5665 70.8163 83.0481 71.2245 83.5605 71.5915C83.7863 71.7502 84.1341 71.4511 83.9693 71.2132C83.113 70.1126 82.1592 69.0915 81.1196 68.1621C79.4436 66.5063 77.7634 64.8649 76.0792 63.2376C74.9808 62.1636 73.913 61.0408 72.7169 60.0828C72.5461 59.9424 72.1799 60.1194 72.3508 60.3391V60.3208Z" fill="#F67A45"/>
<path d="M89.5895 77.95C89.5959 77.9526 89.6029 77.9536 89.6099 77.9529C89.6168 77.9521 89.6235 77.9497 89.6293 77.9458C89.635 77.9418 89.6398 77.9366 89.643 77.9304C89.6463 77.9243 89.648 77.9174 89.648 77.9104C89.648 77.9034 89.6463 77.8965 89.643 77.8904C89.6398 77.8842 89.635 77.8789 89.6293 77.875C89.6235 77.8711 89.6168 77.8687 89.6099 77.8679C89.6029 77.8672 89.5959 77.8681 89.5895 77.8707C89.583 77.8681 89.576 77.8672 89.569 77.8679C89.5621 77.8687 89.5554 77.8711 89.5496 77.875C89.5439 77.8789 89.5391 77.8842 89.5359 77.8904C89.5326 77.8965 89.5309 77.9034 89.5309 77.9104C89.5309 77.9174 89.5326 77.9243 89.5359 77.9304C89.5391 77.9366 89.5439 77.9418 89.5496 77.9458C89.5554 77.9497 89.5621 77.9521 89.569 77.9529C89.576 77.9536 89.583 77.9526 89.5895 77.95Z" fill="#F67A45"/>
<path d="M16.5769 43.9731H23.3503V45.3339H18.194V49.5139H22.9537V50.8564H18.194V56.5253H16.5769V43.9731Z" fill="#F67A45"/>
<path d="M29.1779 43.9731V56.5253H27.5242V43.9548L29.1779 43.9731Z" fill="#F67A45"/>
<path d="M36.232 45.3522H32.4059V43.9731H41.7179V45.3522H37.8735V56.5253H36.232V45.3522Z" fill="#F67A45"/>
<path d="M44.9765 56.5253V43.9548H46.7461L50.7796 50.3133C51.6196 51.6229 52.3718 52.9866 53.0313 54.3957H53.074C52.9215 52.7176 52.8849 51.192 52.8849 49.2332V43.9731H54.4165V56.5253H52.775L48.7842 50.1425C47.9144 48.7954 47.1298 47.3953 46.4349 45.9503H46.3739C46.4715 47.5368 46.5081 49.0441 46.5081 51.131V56.5253H44.9765Z" fill="#F67A45"/>
<path d="M65.6201 50.6489H60.7384V55.1828H66.1876V56.5253H59.1091V43.9548H65.9008V45.3156H60.7323V49.2882H65.614L65.6201 50.6489Z" fill="#F67A45"/>
<path d="M69.9282 54.5666C70.8065 55.0927 71.8092 55.375 72.8329 55.3843C74.4927 55.3843 75.4629 54.5117 75.4629 53.2425C75.4629 51.9732 74.7917 51.4118 73.0953 50.7406C71.0449 50.0144 69.7757 48.9526 69.7757 47.1769C69.7757 45.2242 71.3989 43.7658 73.8397 43.7658C74.8038 43.7317 75.761 43.9416 76.6223 44.376L76.1708 45.7002C75.4395 45.2992 74.6188 45.0893 73.7848 45.09C72.0701 45.09 71.4172 46.1151 71.4172 46.9755C71.4172 48.1472 72.1799 48.7269 73.9191 49.4164C76.0426 50.2402 77.1227 51.2471 77.1227 53.0777C77.1227 55.0182 75.6887 56.6963 72.723 56.6963C71.6038 56.7156 70.4985 56.4467 69.5133 55.9152L69.9282 54.5666Z" fill="#F67A45"/>
<path d="M80.9854 54.5666C81.8636 55.0926 82.8663 55.3749 83.89 55.3842C85.5559 55.3842 86.5201 54.5116 86.5201 53.2424C86.5201 51.9731 85.8488 51.4117 84.1524 50.7405C82.1021 50.0143 80.8328 48.9525 80.8328 47.1768C80.8328 45.2241 82.456 43.7657 84.903 43.7657C85.8651 43.7321 86.8201 43.942 87.6795 44.3759L87.234 45.7001C86.5 45.3003 85.6777 45.0906 84.842 45.0899C83.1272 45.0899 82.4743 46.115 82.4743 46.9754C82.4743 48.1471 83.2432 48.7268 84.9762 49.4163C87.0998 50.2401 88.186 51.247 88.186 53.0776C88.186 55.0181 86.7458 56.6962 83.7802 56.6962C82.6594 56.7099 81.5539 56.4346 80.5704 55.8968L80.9854 54.5666Z" fill="#F67A45"/>
<path d="M46.2091 82.5633V81.9226L47.0268 81.1293C48.9978 79.2559 49.8887 78.2552 49.9009 77.0957C49.9214 76.8906 49.8957 76.6835 49.8256 76.4896C49.7556 76.2957 49.6429 76.12 49.496 75.9754C49.349 75.8308 49.1715 75.721 48.9765 75.654C48.7815 75.5871 48.574 75.5647 48.3692 75.5885C47.7647 75.6093 47.1864 75.8402 46.7339 76.2414L46.3982 75.5031C47.0133 74.9964 47.7859 74.7202 48.5828 74.722C48.8899 74.695 49.1991 74.7335 49.4901 74.8352C49.7811 74.9369 50.0471 75.0993 50.2705 75.3117C50.4939 75.5241 50.6695 75.7816 50.7857 76.0671C50.9018 76.3526 50.9559 76.6596 50.9444 76.9676C50.9444 78.3894 49.9131 79.5366 48.2899 81.1049L47.6797 81.6724H51.1457V82.5389L46.2091 82.5633Z" fill="#F67A45"/>
<path d="M58.6087 78.6276C58.6087 81.2454 57.6385 82.6916 55.9298 82.6916C54.4226 82.6916 53.4035 81.282 53.3791 78.7313C53.3547 76.1806 54.4897 74.7222 56.058 74.7222C57.6263 74.7222 58.6087 76.1684 58.6087 78.6276ZM54.4226 78.7435C54.4226 80.7511 55.0328 81.8861 55.9848 81.8861C57.0526 81.8861 57.5652 80.6657 57.5652 78.6764C57.5652 76.6871 57.0771 75.5277 55.997 75.5277C55.0877 75.5277 54.4226 76.6627 54.4226 78.7435Z" fill="#F67A45"/>
<path d="M63.0206 75.8264L61.6842 76.5465L61.4828 75.7532L63.167 74.8562H64.058V82.5633H63.045L63.0206 75.8264Z" fill="#F67A45"/>
<path d="M67.9328 80.6047C67.9412 80.1441 68.0934 79.6977 68.368 79.3278C68.6426 78.958 69.026 78.6833 69.4645 78.5421V78.5055C69.1127 78.3694 68.809 78.1323 68.5918 77.8238C68.3746 77.5154 68.2536 77.1496 68.2441 76.7725C68.2441 75.5521 69.2753 74.7222 70.63 74.7222C72.125 74.7222 72.8695 75.6619 72.8695 76.6199C72.8681 77.0177 72.746 77.4056 72.5194 77.7325C72.2927 78.0594 71.9723 78.3098 71.6003 78.4506V78.4811C72.037 78.607 72.4227 78.8678 72.7022 79.2262C72.9817 79.5847 73.1406 80.0223 73.1563 80.4765C73.1563 81.819 72.003 82.716 70.5324 82.716C68.9092 82.6916 67.9328 81.7336 67.9328 80.6047ZM72.0884 80.562C72.0884 79.6222 71.4355 79.1707 70.392 78.8778C70.0126 78.9409 69.6667 79.1335 69.4131 79.4227C69.1595 79.7119 69.0138 80.0799 69.0007 80.4643C68.994 80.6656 69.03 80.8659 69.1062 81.0523C69.1824 81.2387 69.2972 81.4068 69.443 81.5457C69.5888 81.6846 69.7623 81.7911 69.9522 81.8581C70.142 81.9252 70.3439 81.9514 70.5446 81.9349C70.738 81.9553 70.9335 81.9351 71.1186 81.8757C71.3038 81.8162 71.4745 81.7187 71.6198 81.5894C71.7651 81.4602 71.8818 81.3021 71.9625 81.1252C72.0432 80.9482 72.0861 80.7564 72.0884 80.562ZM69.2143 76.7054C69.2143 77.4743 69.794 77.8892 70.6849 78.1272C71.0058 78.0526 71.2939 77.8762 71.5062 77.6244C71.7185 77.3725 71.8435 77.0586 71.8627 76.7298C71.8682 76.559 71.8378 76.389 71.7735 76.2307C71.7092 76.0724 71.6123 75.9294 71.4892 75.8109C71.3661 75.6924 71.2195 75.601 71.0589 75.5428C70.8983 75.4846 70.7272 75.4607 70.5568 75.4727C70.3855 75.4555 70.2126 75.4747 70.0493 75.529C69.8859 75.5834 69.736 75.6716 69.6092 75.7881C69.4824 75.9045 69.3817 76.0464 69.3136 76.2045C69.2456 76.3626 69.2117 76.5333 69.2143 76.7054Z" fill="#F67A45"/>
<path d="M50.3463 20.0709H47.2342V22.9633H50.7003V23.8298H46.203V15.8237H50.5355V16.6902H47.2464V19.2165H50.3585L50.3463 20.0709Z" fill="#F67A45"/>
<path d="M53.0862 22.5608C53.6401 22.892 54.2716 23.0709 54.9169 23.0795C55.9726 23.0795 56.5889 22.5242 56.5889 21.7187C56.5889 20.9132 56.1617 20.541 55.0816 20.126C53.7819 19.6684 52.9703 18.991 52.9703 17.8621C52.9703 16.6417 54.0016 15.6897 55.5576 15.6897C56.1709 15.6696 56.7794 15.8039 57.3272 16.0803L57.0404 16.9224C56.573 16.6728 56.0509 16.5428 55.521 16.544C54.4287 16.544 54.0138 17.197 54.0138 17.7645C54.0138 18.5089 54.5019 18.8751 55.6064 19.3022C56.955 19.827 57.6446 20.4799 57.6446 21.6516C57.6446 22.8232 56.7353 23.9521 54.8437 23.9521C54.1322 23.9597 53.4306 23.7854 52.8055 23.4456L53.0862 22.5608Z" fill="#F67A45"/>
<path d="M61.7818 16.7024H59.341V15.8237H65.2662V16.7024H62.8253V23.8176H61.7818V16.7024Z" fill="#F67A45"/>
<path d="M67.347 15.9274C68.0743 15.8197 68.8085 15.7646 69.5438 15.7627C71.0266 15.7627 72.0823 16.1044 72.778 16.7573C73.1641 17.1253 73.4652 17.5731 73.6602 18.0696C73.8552 18.566 73.9394 19.0991 73.9069 19.6315C73.935 20.2003 73.8473 20.7689 73.649 21.3029C73.4508 21.8368 73.1461 22.3249 72.7535 22.7375C72.0091 23.4819 70.7764 23.8908 69.2204 23.8908C68.5946 23.8945 67.9691 23.8619 67.347 23.7931V15.9274ZM68.3783 22.9999C68.7238 23.0489 69.0728 23.0693 69.4218 23.0609C71.6307 23.0609 72.8268 21.8405 72.8268 19.6681C72.8268 17.7764 71.7711 16.5804 69.5865 16.5804C69.1769 16.5732 68.7678 16.61 68.3661 16.6902L68.3783 22.9999Z" fill="#F67A45"/>
<path d="M118.74 54.176C117.73 54.3336 116.705 54.3623 115.688 54.2615H115.426C115.335 54.2615 115.206 54.5055 115.31 54.5788C116.24 55.3105 117.23 55.9617 118.27 56.5254C118.313 56.5396 118.361 56.5369 118.403 56.5177C118.445 56.4985 118.478 56.4641 118.495 56.4216C118.701 55.6918 118.783 54.9329 118.74 54.176Z" fill="#F67A45"/>
<path d="M125.592 46.0296C125.6 45.9979 125.597 45.9644 125.584 45.9346C125.571 45.9047 125.548 45.8802 125.519 45.8648C124.056 45.2211 122.498 44.8212 120.906 44.681C120.033 44.5528 119.136 44.4491 118.233 44.4003C117.217 44.3082 116.194 44.3287 115.182 44.4613C115.103 44.4613 115.066 44.4613 115.054 44.6139C114.956 45.7794 114.877 46.9327 114.822 48.1592C115.856 47.861 116.949 47.8358 117.995 48.086C118.019 48.0918 118.04 48.1054 118.056 48.1248C118.071 48.1442 118.079 48.1681 118.079 48.1928C118.079 48.2174 118.071 48.2414 118.056 48.2608C118.04 48.2801 118.019 48.2938 117.995 48.2996C116.929 48.341 115.869 48.4778 114.828 48.7084C114.762 50.2032 114.778 51.7005 114.877 53.1935C114.877 53.401 125.098 53.2789 125.129 53.0471C125.16 53.0295 125.188 53.0051 125.209 52.9757C125.23 52.9463 125.244 52.9125 125.25 52.8769C125.257 52.8413 125.255 52.8046 125.246 52.7697C125.236 52.7347 125.219 52.7023 125.196 52.6748C123.871 50.9662 122.016 49.697 120.436 48.3118C121.046 48.0189 121.656 47.5978 122.267 47.2805C123.261 46.7566 124.35 46.4351 125.47 46.3347C125.5 46.325 125.527 46.3089 125.55 46.2875C125.573 46.2661 125.591 46.2399 125.603 46.2108C125.615 46.1816 125.62 46.1503 125.618 46.119C125.616 46.0877 125.607 46.0571 125.592 46.0296Z" fill="#F67A45"/>
<path d="M7.61279 54.176C8.62205 54.3342 9.64735 54.3629 10.6639 54.2615H10.9263C11.0239 54.2615 11.1459 54.5055 11.0422 54.5788C10.1137 55.3118 9.1235 55.9631 8.08266 56.5254C8.03972 56.5394 7.99305 56.5364 7.95221 56.5172C7.91136 56.4979 7.87944 56.4637 7.86298 56.4216C7.64947 55.6934 7.5648 54.9334 7.61279 54.176Z" fill="#F67A45"/>
<path d="M0.766156 46.0295C0.758236 45.9979 0.761142 45.9644 0.77441 45.9346C0.787679 45.9047 0.81055 45.8802 0.839384 45.8648C2.30224 45.2211 3.86059 44.8212 5.45263 44.681C6.32524 44.5528 7.22836 44.4491 8.12538 44.4003C9.14157 44.3085 10.1648 44.329 11.1765 44.4613C11.2497 44.4613 11.2863 44.4613 11.2985 44.6139C11.3962 45.7794 11.4755 46.9327 11.5304 48.1592C10.4968 47.8607 9.4035 47.8355 8.35727 48.086C8.33329 48.0918 8.31196 48.1054 8.2967 48.1248C8.28144 48.1442 8.27314 48.1681 8.27314 48.1928C8.27314 48.2174 8.28144 48.2414 8.2967 48.2608C8.31196 48.2801 8.33329 48.2938 8.35727 48.2996C9.42102 48.341 10.4789 48.4778 11.5182 48.7084C11.5847 50.2032 11.5684 51.7005 11.4694 53.1935C11.4694 53.401 1.24823 53.2789 1.21772 53.0471C1.18762 53.0281 1.1618 53.0031 1.1419 52.9736C1.12201 52.9441 1.10847 52.9107 1.10216 52.8757C1.09585 52.8407 1.09689 52.8048 1.10523 52.7702C1.11357 52.7356 1.12902 52.7031 1.15059 52.6748C2.48087 50.9662 4.33593 49.697 5.9164 48.3118C5.30618 48.0189 4.69596 47.5978 4.08574 47.2805C3.09117 46.7558 2.00215 46.4343 0.882099 46.3347C0.853412 46.3235 0.827384 46.3065 0.805703 46.2847C0.784022 46.2628 0.76717 46.2367 0.756239 46.2079C0.745309 46.1792 0.740543 46.1484 0.742252 46.1177C0.74396 46.0869 0.752104 46.0569 0.766156 46.0295Z" fill="#F67A45"/>
<path d="M64.5034 0.177734L65.9923 3.20442L69.3302 3.68649L66.9138 6.04193L67.4874 9.36152L64.5034 7.79325L61.5194 9.36152L62.0869 6.04193L59.6766 3.68649L63.0084 3.20442L64.5034 0.177734Z" fill="#F67A45"/>
<path d="M64.5034 87.3533L65.9923 90.3739L69.3302 90.8559L66.9138 93.2114L67.4874 96.531L64.5034 94.9627L61.5194 96.531L62.0869 93.2114L59.6766 90.8559L63.0084 90.3739L64.5034 87.3533Z" fill="#F67A45"/>
</svg>
