<svg width="109" height="101" viewBox="0 0 109 101" fill="none" xmlns="http://www.w3.org/2000/svg">
<path d="M22.5448 79.1433C19.7777 79.1433 18.3298 69.0612 18.3298 59.0958C18.3298 49.1304 19.7777 38.9783 22.5448 38.9783C25.4229 38.9783 26.5205 49.6617 26.7131 55.9725L25.8374 56.0017C25.5163 45.4934 23.7183 39.854 22.5448 39.854C21.1496 39.854 19.2055 47.1747 19.2055 59.1191C19.2055 71.0636 21.1496 78.2909 22.5448 78.2909C23.7124 78.2909 25.4638 72.7858 25.8316 62.4468L26.7073 62.476C26.4504 70.1528 25.2128 79.1433 22.5448 79.1433Z" fill="#F67A45"/>
<path d="M22.5215 70.0126C20.6242 70.0126 20.5308 60.9463 20.5308 59.1248C20.5308 57.3034 20.6242 48.2429 22.5215 48.2429C23.5607 48.2429 24.2028 50.8466 24.4422 55.984L23.5665 56.0249C23.368 51.699 22.8251 49.6849 22.5215 49.2003C22.037 49.9242 21.4065 53.5963 21.4065 59.1248C21.4065 64.6534 22.037 68.3371 22.5215 69.0493C22.8484 68.5297 23.3738 66.5098 23.5607 62.4233L24.4363 62.4641C24.1853 67.4439 23.5431 70.0126 22.5215 70.0126Z" fill="#F67A45"/>
<path d="M17.4075 79.0732C14.6344 79.0732 13.1866 68.9911 13.1866 59.0257C13.1866 49.0604 14.6344 38.9783 17.4075 38.9783V39.854C16.0122 39.854 14.0623 47.1514 14.0623 59.0257C14.0623 70.9001 16.0122 78.1858 17.4075 78.1858V79.0732Z" fill="#F67A45"/>
<path d="M13.7938 67.3855C14.5931 67.5286 15.4046 67.5931 16.2165 67.5782C17.13 67.6424 18.0468 67.6424 18.9603 67.5782C19.0594 67.5782 19.1545 67.5388 19.2245 67.4687C19.2946 67.3987 19.334 67.3036 19.334 67.2045C19.334 67.1054 19.2946 67.0104 19.2245 66.9403C19.1545 66.8703 19.0594 66.8309 18.9603 66.8309C18.0481 66.7481 17.131 66.7325 16.2165 66.7842C15.4055 66.7593 14.594 66.8141 13.7938 66.9477C13.7404 66.9563 13.6918 66.9836 13.6567 67.0248C13.6217 67.066 13.6024 67.1183 13.6024 67.1724C13.6024 67.2265 13.6217 67.2788 13.6567 67.32C13.6918 67.3612 13.7404 67.3886 13.7938 67.3972V67.3855Z" fill="#F67A45"/>
<path d="M13.5602 64.3556C14.3578 64.4969 15.1673 64.5595 15.9772 64.5424C16.8926 64.6066 17.8114 64.6066 18.7268 64.5424C18.7802 64.5491 18.8344 64.5443 18.8858 64.5284C18.9372 64.5125 18.9846 64.4859 19.025 64.4503C19.0653 64.4147 19.0976 64.3709 19.1197 64.3219C19.1418 64.2728 19.1533 64.2196 19.1533 64.1658C19.1533 64.112 19.1418 64.0589 19.1197 64.0098C19.0976 63.9608 19.0653 63.917 19.025 63.8814C18.9846 63.8458 18.9372 63.8192 18.8858 63.8033C18.8344 63.7874 18.7802 63.7826 18.7268 63.7893C17.8123 63.7114 16.8935 63.6978 15.9772 63.7484C15.1683 63.7247 14.3591 63.7775 13.5602 63.906C13.5087 63.9178 13.4626 63.9467 13.4296 63.9881C13.3966 64.0295 13.3786 64.0808 13.3786 64.1337C13.3786 64.1866 13.3966 64.238 13.4296 64.2794C13.4626 64.3207 13.5087 64.3497 13.5602 64.3614V64.3556Z" fill="#F67A45"/>
<path d="M22.539 79.1433L17.4016 79.0732C14.6344 79.0732 13.1866 68.9911 13.1866 59.0257C13.1866 49.0604 14.6344 38.9783 17.4075 38.9783H22.5448V39.854H17.4075C16.0122 39.854 14.0623 47.1514 14.0623 59.0257C14.0623 70.9001 16.0122 78.1858 17.4075 78.1858L22.5507 78.2559L22.539 79.1433Z" fill="#F67A45"/>
<path d="M13.7938 67.3855C14.5931 67.5286 15.4046 67.5931 16.2165 67.5782C17.13 67.6424 18.0468 67.6424 18.9603 67.5782C19.0594 67.5782 19.1545 67.5388 19.2245 67.4687C19.2946 67.3987 19.334 67.3036 19.334 67.2045C19.334 67.1054 19.2946 67.0104 19.2245 66.9403C19.1545 66.8703 19.0594 66.8309 18.9603 66.8309C18.0481 66.7481 17.131 66.7325 16.2165 66.7842C15.4055 66.7593 14.594 66.8141 13.7938 66.9477C13.7404 66.9563 13.6918 66.9836 13.6567 67.0248C13.6217 67.066 13.6024 67.1183 13.6024 67.1724C13.6024 67.2265 13.6217 67.2788 13.6567 67.32C13.6918 67.3612 13.7404 67.3886 13.7938 67.3972V67.3855Z" fill="#F67A45"/>
<path d="M13.5602 64.3556C14.3578 64.4969 15.1673 64.5595 15.9772 64.5424C16.8926 64.6066 17.8114 64.6066 18.7268 64.5424C18.7802 64.5491 18.8344 64.5443 18.8858 64.5284C18.9372 64.5125 18.9846 64.4859 19.025 64.4503C19.0653 64.4147 19.0976 64.3709 19.1197 64.3219C19.1418 64.2728 19.1533 64.2196 19.1533 64.1658C19.1533 64.112 19.1418 64.0589 19.1197 64.0098C19.0976 63.9608 19.0653 63.917 19.025 63.8814C18.9846 63.8458 18.9372 63.8192 18.8858 63.8033C18.8344 63.7874 18.7802 63.7826 18.7268 63.7893C17.8123 63.7114 16.8935 63.6978 15.9772 63.7484C15.1683 63.7247 14.3591 63.7775 13.5602 63.906C13.5087 63.9178 13.4626 63.9467 13.4296 63.9881C13.3966 64.0295 13.3786 64.0808 13.3786 64.1337C13.3786 64.1866 13.3966 64.238 13.4296 64.2794C13.4626 64.3207 13.5087 64.3497 13.5602 64.3614V64.3556Z" fill="#F67A45"/>
<path d="M15.2649 67.0938C13.8988 67.1522 13.9222 70.2463 14.1907 71.0753C14.209 71.1197 14.2415 71.1567 14.2831 71.1806C14.3247 71.2045 14.3731 71.2138 14.4207 71.2071C14.4682 71.2004 14.5121 71.1781 14.5455 71.1436C14.579 71.1092 14.6 71.0646 14.6052 71.0169C14.544 70.2524 14.5616 69.4835 14.6578 68.7226C14.8274 68.1897 15.0586 67.6783 15.3467 67.1989C15.3504 67.1864 15.3511 67.1732 15.3487 67.1604C15.3463 67.1476 15.3409 67.1356 15.3329 67.1253C15.3249 67.115 15.3145 67.1068 15.3027 67.1013C15.2909 67.0958 15.2779 67.0933 15.2649 67.0938Z" fill="#F67A45"/>
<path d="M15.5043 76.4345H11.9198C9.20517 76.4345 8.19521 66.0255 8.19521 59.0375C8.19521 52.0495 9.18182 41.658 11.8965 41.658H15.3992V42.5336H11.8965C10.7289 42.5336 9.0709 48.9554 9.0709 59.0375C9.0709 69.1196 10.7464 75.5413 11.8965 75.5413H15.481L15.5043 76.4345Z" fill="#F67A45"/>
<path d="M8.77898 66.294C9.47051 66.4331 10.1755 66.4938 10.8806 66.475C11.6693 66.5421 12.4622 66.5421 13.2508 66.475C13.642 66.4283 13.8346 65.8036 13.3559 65.7394C12.5804 65.657 11.7994 65.6375 11.0207 65.681C10.2598 65.6522 9.49804 65.709 8.74979 65.8503C8.6982 65.8621 8.65213 65.891 8.61913 65.9324C8.58613 65.9737 8.56816 66.0251 8.56816 66.078C8.56816 66.1309 8.58613 66.1822 8.61913 66.2236C8.65213 66.265 8.6982 66.2939 8.74979 66.3057L8.77898 66.294Z" fill="#F67A45"/>
<path d="M8.58633 63.6728C9.27805 63.811 9.98274 63.8736 10.688 63.8596C11.4787 63.9239 12.2733 63.9239 13.064 63.8596C13.4493 63.8129 13.6478 63.1883 13.1691 63.1182C12.3933 63.0392 11.6127 63.0197 10.8339 63.0598C10.073 63.0313 9.31126 63.0881 8.56298 63.2291C8.51139 63.2409 8.46532 63.2698 8.43232 63.3112C8.39932 63.3525 8.38135 63.4039 8.38135 63.4568C8.38135 63.5097 8.39932 63.5611 8.43232 63.6024C8.46532 63.6438 8.51139 63.6727 8.56298 63.6845L8.58633 63.6728Z" fill="#F67A45"/>
<path d="M8.77898 66.294C9.47051 66.4331 10.1755 66.4938 10.8806 66.475C11.6693 66.5421 12.4622 66.5421 13.2508 66.475C13.642 66.4283 13.8346 65.8036 13.3559 65.7394C12.5804 65.657 11.7994 65.6375 11.0207 65.681C10.2598 65.6522 9.49804 65.709 8.74979 65.8503C8.6982 65.8621 8.65213 65.891 8.61913 65.9324C8.58613 65.9737 8.56816 66.0251 8.56816 66.078C8.56816 66.1309 8.58613 66.1822 8.61913 66.2236C8.65213 66.265 8.6982 66.2939 8.74979 66.3057L8.77898 66.294Z" fill="#F67A45"/>
<path d="M8.58633 63.6728C9.27805 63.811 9.98274 63.8736 10.688 63.8596C11.4787 63.9239 12.2733 63.9239 13.064 63.8596C13.4493 63.8129 13.6478 63.1883 13.1691 63.1182C12.3933 63.0392 11.6127 63.0197 10.8339 63.0598C10.073 63.0313 9.31126 63.0881 8.56298 63.2291C8.51139 63.2409 8.46532 63.2698 8.43232 63.3112C8.39932 63.3525 8.38135 63.4039 8.38135 63.4568C8.38135 63.5097 8.39932 63.5611 8.43232 63.6024C8.46532 63.6438 8.51139 63.6727 8.56298 63.6845L8.58633 63.6728Z" fill="#F67A45"/>
<path d="M4.06775 65.0329C4.68069 65.1823 5.31121 65.2471 5.94173 65.2255C6.57782 65.2762 7.2174 65.2625 7.85073 65.1846C7.93242 65.1665 8.00548 65.121 8.05785 65.0558C8.11021 64.9905 8.13875 64.9093 8.13875 64.8256C8.13875 64.7419 8.11021 64.6608 8.05785 64.5955C8.00548 64.5302 7.93242 64.4847 7.85073 64.4666C7.21799 64.3829 6.57841 64.3634 5.94173 64.4082C5.31222 64.3761 4.68133 64.4331 4.06775 64.5775C4.01616 64.5893 3.97009 64.6182 3.93709 64.6596C3.90409 64.7009 3.88612 64.7523 3.88612 64.8052C3.88612 64.8581 3.90409 64.9094 3.93709 64.9508C3.97009 64.9922 4.01616 65.0211 4.06775 65.0329Z" fill="#F67A45"/>
<path d="M3.90432 62.8845C4.51482 63.0365 5.14377 63.1014 5.77245 63.0771C6.40844 63.1268 7.04773 63.1151 7.68146 63.0421C7.76183 63.0215 7.83306 62.9748 7.88393 62.9092C7.9348 62.8437 7.96241 62.7631 7.96241 62.6801C7.96241 62.5972 7.9348 62.5166 7.88393 62.4511C7.83306 62.3855 7.76183 62.3388 7.68146 62.3182C7.04872 62.2345 6.40913 62.2149 5.77245 62.2598C5.14493 62.2307 4.51639 62.2877 3.90432 62.4291C3.85272 62.4409 3.80665 62.4698 3.77366 62.5112C3.74066 62.5525 3.72269 62.6039 3.72269 62.6568C3.72269 62.7097 3.74066 62.7611 3.77366 62.8024C3.80665 62.8438 3.85272 62.8727 3.90432 62.8845Z" fill="#F67A45"/>
<path d="M9.98162 73.3636H6.64232C4.18455 73.3636 3.5307 64.0229 3.5307 59.049C3.5307 54.0751 4.18455 44.7344 6.64232 44.7344V45.6101C5.88339 45.6101 4.40639 50.3505 4.40639 59.0373C4.40639 67.7242 5.88339 72.4646 6.64232 72.4646H9.98162V73.3636Z" fill="#F67A45"/>
<path d="M10.1509 44.9097C9.60215 44.5244 8.68559 44.6237 8.04342 44.6528C7.49466 44.6528 6.51972 44.5186 6.13442 44.9798C6.08056 45.0353 6.05045 45.1097 6.05045 45.187C6.05045 45.2644 6.08056 45.3387 6.13442 45.3943C6.51972 45.8555 7.48882 45.6978 8.04342 45.7212C8.59803 45.7445 9.60215 45.8438 10.1509 45.4585C10.1995 45.431 10.2399 45.3911 10.268 45.3429C10.2961 45.2947 10.3109 45.2399 10.3109 45.1841C10.3109 45.1283 10.2961 45.0735 10.268 45.0253C10.2399 44.9771 10.1995 44.9372 10.1509 44.9097Z" fill="#F67A45"/>
<path d="M4.10864 65.033C4.81192 65.1726 5.52858 65.2333 6.24533 65.2139C7.04773 65.2782 7.85399 65.2782 8.65639 65.2139C9.0417 65.1672 9.24019 64.5367 8.76148 64.4783C7.98598 64.3953 7.20499 64.3758 6.4263 64.42C5.64399 64.386 4.86037 64.4428 4.09113 64.5893C4.03954 64.601 3.99347 64.63 3.96047 64.6713C3.92747 64.7127 3.9095 64.764 3.9095 64.8169C3.9095 64.8699 3.92747 64.9212 3.96047 64.9626C3.99347 65.0039 4.03954 65.0329 4.09113 65.0446L4.10864 65.033Z" fill="#F67A45"/>
<path d="M3.9043 62.8845C4.60584 63.0229 5.32022 63.0856 6.03514 63.0713C6.8395 63.1356 7.64769 63.1356 8.45205 63.0713C8.83735 63.0246 9.03584 62.4 8.55713 62.3358C7.78144 62.2556 7.00068 62.2361 6.22196 62.2774C5.43969 62.2467 4.65644 62.3034 3.88678 62.4467C3.83519 62.4584 3.78912 62.4874 3.75612 62.5287C3.72313 62.5701 3.70515 62.6215 3.70515 62.6744C3.70515 62.7273 3.72313 62.7786 3.75612 62.82C3.78912 62.8614 3.83519 62.8903 3.88678 62.9021L3.9043 62.8845Z" fill="#F67A45"/>
<path d="M15.2357 67.3564C15.2432 67.3436 15.247 67.329 15.2468 67.3142C15.2466 67.2994 15.2423 67.2849 15.2345 67.2724C15.2267 67.2598 15.2157 67.2495 15.2025 67.2427C15.1894 67.2359 15.1746 67.2329 15.1598 67.2338C15.0282 67.2489 14.9024 67.2962 14.7934 67.3716C14.6845 67.4469 14.5958 67.548 14.5352 67.6658L14.5702 67.4323C14.5795 67.3959 14.5739 67.3573 14.5548 67.325C14.5356 67.2927 14.5044 67.2694 14.468 67.2601C14.4317 67.2508 14.3931 67.2563 14.3608 67.2755C14.3285 67.2946 14.3051 67.3259 14.2958 67.3622C14.1883 67.5581 14.1435 67.7823 14.1674 68.0044C14.1739 68.0229 14.1845 68.0397 14.1985 68.0534C14.2124 68.0672 14.2294 68.0776 14.248 68.0838C14.2666 68.09 14.2863 68.0918 14.3058 68.0892C14.3252 68.0866 14.3438 68.0795 14.36 68.0686L14.2725 68.3488C13.9921 69.2383 13.9638 70.1881 14.1907 71.0927C14.209 71.1371 14.2415 71.1741 14.2831 71.198C14.3247 71.2219 14.3731 71.2312 14.4207 71.2245C14.4682 71.2178 14.5121 71.1955 14.5455 71.161C14.579 71.1266 14.6 71.082 14.6052 71.0343C14.5381 70.3178 14.5381 69.5966 14.6052 68.8801C14.7423 68.3449 14.9545 67.8319 15.2357 67.3564Z" fill="#F67A45"/>
<path d="M9.98159 66.113C9.88787 66.1126 9.79513 66.1322 9.70957 66.1705C9.624 66.2087 9.54757 66.2648 9.48537 66.3349C9.48537 66.3349 9.48537 66.294 9.48537 66.2707C9.48537 66.113 9.25769 66.1014 9.21099 66.2356C9.10663 66.4112 9.06736 66.6178 9.10006 66.8194C9.10635 66.8385 9.11702 66.8558 9.13121 66.87C9.14541 66.8842 9.16273 66.8949 9.18179 66.9012C8.94325 67.7439 8.91917 68.6329 9.11174 69.4874C9.12733 69.5333 9.15833 69.5725 9.1995 69.5981C9.24066 69.6238 9.28944 69.6345 9.33756 69.6283C9.38569 69.6221 9.43019 69.5995 9.46352 69.5642C9.49684 69.5289 9.51694 69.4832 9.52039 69.4348C9.47954 68.7768 9.49712 68.1165 9.57294 67.4616C9.70197 67.0427 9.86399 66.6347 10.0575 66.2415C10.0867 66.1656 10.0283 66.113 9.98159 66.113Z" fill="#F67A45"/>
<path d="M5.07773 64.8345C5.00659 64.8205 4.93315 64.8232 4.86323 64.8424C4.79331 64.8617 4.72884 64.897 4.67492 64.9455C4.67492 64.817 4.45307 64.817 4.40637 64.9455C4.3192 65.0845 4.28597 65.2506 4.31296 65.4125C4.31657 65.4264 4.32313 65.4393 4.3322 65.4504C4.34127 65.4614 4.35263 65.4704 4.3655 65.4767C4.17176 66.1717 4.15371 66.9039 4.31296 67.6076C4.32855 67.6535 4.35956 67.6926 4.40072 67.7183C4.44188 67.744 4.49066 67.7547 4.53879 67.7485C4.58691 67.7423 4.63141 67.7196 4.66474 67.6844C4.69806 67.6491 4.71816 67.6034 4.72162 67.555C4.69933 67.0175 4.71493 66.4791 4.76832 65.9437C4.80107 65.7259 4.86394 65.5137 4.95514 65.3132C5.03685 65.1994 5.09991 65.0733 5.14195 64.9396C5.14724 64.9172 5.14346 64.8936 5.13143 64.8739C5.11941 64.8542 5.10011 64.8401 5.07773 64.8345Z" fill="#F67A45"/>
<path d="M1.8844 64.7879C0.529994 64.7879 0.424911 60.4211 0.424911 59.0784C0.424911 57.7357 0.529994 53.3689 1.8844 53.3689V54.2504C1.92564 54.2488 1.9658 54.2367 2.00115 54.2154C1.7618 54.4197 1.3006 56.1069 1.3006 59.0842C1.3006 62.0616 1.7618 63.7546 2.00115 63.9531C1.9658 63.9317 1.92564 63.9197 1.8844 63.918V64.7879Z" fill="#F67A45"/>
<path d="M1.46406 64.5074C1.75012 64.8693 2.38062 64.8518 2.79511 64.8576C3.30622 64.9357 3.82882 64.8814 4.31298 64.7C4.37137 64.6677 4.42005 64.6203 4.45395 64.5628C4.48784 64.5053 4.50572 64.4398 4.50572 64.3731C4.50572 64.3063 4.48784 64.2408 4.45395 64.1833C4.42005 64.1258 4.37137 64.0785 4.31298 64.0462C3.84344 63.8988 3.34792 63.853 2.85933 63.9119C2.45068 63.9119 1.85521 63.8185 1.52244 64.087C1.46627 64.1399 1.42985 64.2105 1.41924 64.2869C1.40862 64.3634 1.42444 64.4411 1.46406 64.5074Z" fill="#F67A45"/>
<path d="M4.43558 53.6198C4.16119 53.2695 3.60075 53.2637 3.18625 53.2637C2.71167 53.2694 2.23789 53.3045 1.76764 53.3688C1.67017 53.3947 1.58409 53.4523 1.5229 53.5325C1.4617 53.6127 1.42886 53.7109 1.42953 53.8118C1.4302 53.9126 1.46434 54.0104 1.52659 54.0898C1.58884 54.1692 1.67568 54.2256 1.77348 54.2503C2.24342 54.3174 2.71739 54.3525 3.19209 54.3554C3.60659 54.3554 4.16703 54.3554 4.44141 54.0051C4.47888 53.9467 4.4988 53.8789 4.4988 53.8095C4.4988 53.7402 4.47888 53.6723 4.44141 53.614L4.43558 53.6198Z" fill="#F67A45"/>
<path d="M23.2104 62.8555C22.9535 62.8555 22.2763 62.8555 22.2763 59.2009C22.2763 55.5464 22.9535 55.5464 23.2104 55.5464V56.4221C23.2577 56.4229 23.3047 56.4134 23.3481 56.3942C23.3914 56.3751 23.4301 56.3467 23.4614 56.3112C23.198 57.2505 23.0934 58.2272 23.152 59.2009C23.0913 60.1844 23.1959 61.171 23.4614 62.1199C23.4312 62.083 23.3927 62.0537 23.3491 62.0345C23.3055 62.0152 23.258 62.0065 23.2104 62.009V62.8555Z" fill="#F67A45"/>
<path d="M24.0861 62.7386C25.1183 62.8633 26.1592 62.9004 27.1977 62.8495C29.6555 62.8787 32.1132 62.9079 34.571 62.9079C40.1345 62.9079 45.6981 62.9079 51.2616 62.8671C52.1665 62.8671 53.0772 62.8671 53.9821 62.8262C54.2595 62.8173 54.5362 62.794 54.8111 62.7561C54.9104 62.7561 55.2548 62.6686 55.0388 62.6802C55.1054 62.6802 55.1692 62.6538 55.2163 62.6067C55.2634 62.5596 55.2898 62.4958 55.2898 62.4292C55.2898 62.3626 55.2634 62.2988 55.2163 62.2517C55.1692 62.2046 55.1054 62.1782 55.0388 62.1782C54.7811 62.1097 54.517 62.0686 54.2507 62.0556C53.5151 62.003 52.7678 62.0147 52.0264 62.0089C49.6154 62.0089 47.1984 61.968 44.7874 61.968C39.2472 61.968 33.6953 61.968 28.1609 61.968C26.8357 61.968 25.5105 62.0206 24.1795 62.0381C23.7883 62.0381 23.6657 62.6219 24.0861 62.7153V62.7386Z" fill="#F67A45"/>
<path d="M23.9051 56.3053C23.9505 56.3114 23.9967 56.3078 24.0406 56.2946C24.0844 56.2815 24.125 56.2591 24.1595 56.2289C24.194 56.1988 24.2217 56.1616 24.2406 56.1199C24.2596 56.0782 24.2694 56.0329 24.2694 55.9871C24.2694 55.9413 24.2596 55.896 24.2406 55.8543C24.2217 55.8126 24.194 55.7754 24.1595 55.7453C24.125 55.7151 24.0844 55.6927 24.0406 55.6796C23.9967 55.6664 23.9505 55.6628 23.9051 55.6689C23.8597 55.6628 23.8135 55.6664 23.7696 55.6796C23.7257 55.6927 23.6852 55.7151 23.6507 55.7453C23.6162 55.7754 23.5885 55.8126 23.5696 55.8543C23.5506 55.896 23.5408 55.9413 23.5408 55.9871C23.5408 56.0329 23.5506 56.0782 23.5696 56.1199C23.5885 56.1616 23.6162 56.1988 23.6507 56.2289C23.6852 56.2591 23.7257 56.2815 23.7696 56.2946C23.8135 56.3078 23.8597 56.3114 23.9051 56.3053Z" fill="#F67A45"/>
<path d="M23.3388 56.6262C23.5723 56.1066 22.9944 56.3927 23.3388 56.3869C23.5256 56.3869 23.7183 56.3869 23.9226 56.3869H26.141H33.6719H50.9931C52.3533 56.3869 53.7253 56.4452 55.0797 56.3869C55.6634 56.3577 55.6634 55.5287 55.0797 55.5579C51.5185 55.733 47.899 55.5579 44.332 55.5579C38.6498 55.5579 32.9694 55.5579 27.2911 55.5579C25.9425 55.5579 24.5473 55.6571 23.2045 55.5579C23.1289 55.5557 23.0541 55.5735 22.9875 55.6093C22.9209 55.6452 22.8649 55.6979 22.8251 55.7622L22.6266 56.2117C22.3989 56.7138 23.1637 57.1166 23.3797 56.6321L23.3388 56.6262Z" fill="#F67A45"/>
<path d="M29.9649 61.9797H23.2162V62.8554H29.9649V61.9797Z" fill="#F67A45"/>
<path d="M22.609 58.6814C23.8471 58.8245 25.0935 58.883 26.3395 58.8566C27.5893 58.9552 28.8462 58.9161 30.0874 58.7398C30.1462 58.7272 30.1989 58.6948 30.2367 58.6481C30.2745 58.6013 30.2951 58.543 30.2951 58.4829C30.2951 58.4228 30.2745 58.3645 30.2367 58.3178C30.1989 58.271 30.1462 58.2387 30.0874 58.2261C28.8459 58.0528 27.5894 58.0136 26.3395 58.1093C25.0935 58.0858 23.8473 58.1443 22.609 58.2844C22.5646 58.2953 22.5251 58.3208 22.4968 58.3568C22.4686 58.3928 22.4532 58.4372 22.4532 58.4829C22.4532 58.5287 22.4686 58.5731 22.4968 58.6091C22.5251 58.6451 22.5646 58.6706 22.609 58.6814Z" fill="#F67A45"/>
<path d="M55.0388 58.2786C51.3726 58.01 47.6596 58.1385 43.9876 58.1093C40.3155 58.0801 36.5559 57.7882 32.9364 58.2202C32.8982 58.2145 32.8592 58.2171 32.8222 58.2279C32.7851 58.2386 32.7507 58.2572 32.7215 58.2824C32.6923 58.3076 32.6688 58.3389 32.6527 58.374C32.6367 58.4091 32.6283 58.4472 32.6283 58.4858C32.6283 58.5244 32.6367 58.5626 32.6527 58.5977C32.6688 58.6328 32.6923 58.664 32.7215 58.6892C32.7507 58.7144 32.7851 58.733 32.8222 58.7437C32.8592 58.7545 32.8982 58.7571 32.9364 58.7514C36.5559 59.1834 40.3505 58.8799 43.9876 58.8565C47.6246 58.8332 51.3726 58.9616 55.0388 58.6872C55.0656 58.6872 55.0922 58.6819 55.117 58.6717C55.1418 58.6614 55.1643 58.6463 55.1833 58.6274C55.2022 58.6084 55.2173 58.5859 55.2276 58.5611C55.2378 58.5363 55.2431 58.5097 55.2431 58.4829C55.2431 58.4561 55.2378 58.4295 55.2276 58.4047C55.2173 58.3799 55.2022 58.3574 55.1833 58.3384C55.1643 58.3194 55.1418 58.3044 55.117 58.2941C55.0922 58.2838 55.0656 58.2786 55.0388 58.2786Z" fill="#F67A45"/>
<path d="M28.0442 58.0217C28.0504 58.0242 28.0571 58.0251 28.0637 58.0244C28.0704 58.0236 28.0767 58.0213 28.0822 58.0176C28.0878 58.0138 28.0923 58.0088 28.0954 58.0029C28.0986 57.997 28.1002 57.9904 28.1002 57.9837C28.1002 57.9771 28.0986 57.9705 28.0954 57.9646C28.0923 57.9587 28.0878 57.9536 28.0822 57.9499C28.0767 57.9462 28.0704 57.9438 28.0637 57.9431C28.0571 57.9424 28.0504 57.9433 28.0442 57.9458C28.038 57.9433 28.0312 57.9424 28.0246 57.9431C28.018 57.9438 28.0116 57.9462 28.0061 57.9499C28.0005 57.9536 27.996 57.9587 27.9929 57.9646C27.9898 57.9705 27.9881 57.9771 27.9881 57.9837C27.9881 57.9904 27.9898 57.997 27.9929 58.0029C27.996 58.0088 28.0005 58.0138 28.0061 58.0176C28.0116 58.0213 28.018 58.0236 28.0246 58.0244C28.0312 58.0251 28.038 58.0242 28.0442 58.0217Z" fill="#F67A45"/>
<path d="M86.622 79.1434C83.9599 79.1434 82.7164 70.153 82.4654 62.4528L83.3352 62.4236C83.6797 72.7626 85.4661 78.2677 86.622 78.2677C88.0173 78.2677 89.9671 70.9762 89.9671 59.096C89.9671 47.2158 88.0173 39.8308 86.622 39.8308C85.4544 39.8308 83.6563 45.441 83.3294 55.9785L82.4537 55.9493C82.6464 49.6385 83.7439 38.9551 86.622 38.9551C89.395 38.9551 90.8428 49.0781 90.8428 59.0726C90.8428 69.0671 89.395 79.1434 86.622 79.1434Z" fill="#F67A45"/>
<path d="M86.6454 70.0128C85.6296 70.0128 84.9874 67.4733 84.7364 62.4702L85.612 62.4294C85.8164 66.5159 86.3243 68.5592 86.6512 69.0554C87.1357 68.3374 87.7662 64.6653 87.7662 59.1309C87.7662 53.5966 87.1357 49.9303 86.6512 49.2064C86.3476 49.691 85.8047 51.7051 85.6004 56.031L84.7247 55.9901C84.964 50.8527 85.612 48.249 86.6454 48.249C88.5427 48.249 88.6419 57.3153 88.6419 59.1309C88.6419 60.9465 88.5427 70.0128 86.6454 70.0128Z" fill="#F67A45"/>
<path d="M91.7653 79.0732V78.1858C93.1605 78.1858 95.1046 70.8942 95.1046 59.014C95.1046 47.1338 93.1605 39.8422 91.7653 39.8422V38.9666C94.5324 38.9666 95.9802 49.0545 95.9802 59.014C95.9802 68.9735 94.5324 79.0732 91.7653 79.0732Z" fill="#F67A45"/>
<path d="M95.3731 66.9359C94.5747 66.8023 93.7652 66.7476 92.9562 66.7725C92.0417 66.7208 91.1246 66.7364 90.2123 66.8192C90.1132 66.8192 90.0182 66.8586 89.9481 66.9286C89.8781 66.9987 89.8387 67.0937 89.8387 67.1928C89.8387 67.2919 89.8781 67.3869 89.9481 67.457C90.0182 67.5271 90.1132 67.5664 90.2123 67.5664C91.1258 67.6307 92.0427 67.6307 92.9562 67.5664C93.7662 67.5814 94.5757 67.5168 95.3731 67.3738C95.4265 67.3652 95.475 67.3378 95.5101 67.2966C95.5452 67.2554 95.5644 67.2031 95.5644 67.149C95.5644 67.0949 95.5452 67.0426 95.5101 67.0014C95.475 66.9603 95.4265 66.9329 95.3731 66.9243V66.9359Z" fill="#F67A45"/>
<path d="M95.6125 63.9004C94.8116 63.7719 94.0005 63.7191 93.1897 63.7428C92.2753 63.6922 91.3584 63.7058 90.4459 63.7837C90.3925 63.777 90.3383 63.7818 90.2869 63.7977C90.2355 63.8135 90.1881 63.8402 90.1477 63.8758C90.1074 63.9114 90.0751 63.9552 90.053 64.0042C90.0309 64.0532 90.0194 64.1064 90.0194 64.1602C90.0194 64.214 90.0309 64.2672 90.053 64.3162C90.0751 64.3653 90.1074 64.4091 90.1477 64.4447C90.1881 64.4803 90.2355 64.5069 90.2869 64.5228C90.3383 64.5387 90.3925 64.5434 90.4459 64.5368C91.3594 64.601 92.2762 64.601 93.1897 64.5368C94.0015 64.5568 94.8133 64.4942 95.6125 64.35C95.6641 64.3382 95.7101 64.3093 95.7431 64.2679C95.7761 64.2265 95.7941 64.1752 95.7941 64.1223C95.7941 64.0694 95.7761 64.018 95.7431 63.9767C95.7101 63.9353 95.6641 63.9064 95.6125 63.8946V63.9004Z" fill="#F67A45"/>
<path d="M86.6278 79.1433V78.2676L91.7711 78.1975C93.1722 78.1975 95.1162 70.9059 95.1162 59.0257C95.1162 47.1455 93.1722 39.854 91.7769 39.854H86.6337V38.9783H91.7769C94.5441 38.9783 95.9919 49.0662 95.9919 59.0257C95.9919 68.9853 94.5441 79.0732 91.7769 79.0732L86.6278 79.1433Z" fill="#F67A45"/>
<path d="M95.3731 66.9359C94.5747 66.8023 93.7652 66.7476 92.9562 66.7725C92.0417 66.7208 91.1246 66.7364 90.2123 66.8192C90.1132 66.8192 90.0182 66.8586 89.9481 66.9286C89.8781 66.9987 89.8387 67.0937 89.8387 67.1928C89.8387 67.2919 89.8781 67.3869 89.9481 67.457C90.0182 67.5271 90.1132 67.5664 90.2123 67.5664C91.1258 67.6307 92.0427 67.6307 92.9562 67.5664C93.7662 67.5814 94.5757 67.5168 95.3731 67.3738C95.4265 67.3652 95.475 67.3378 95.5101 67.2966C95.5452 67.2554 95.5644 67.2031 95.5644 67.149C95.5644 67.0949 95.5452 67.0426 95.5101 67.0014C95.475 66.9603 95.4265 66.9329 95.3731 66.9243V66.9359Z" fill="#F67A45"/>
<path d="M95.6125 63.9004C94.8116 63.7719 94.0005 63.7191 93.1897 63.7428C92.2753 63.6922 91.3584 63.7058 90.4459 63.7837C90.3925 63.777 90.3383 63.7818 90.2869 63.7977C90.2355 63.8135 90.1881 63.8402 90.1477 63.8758C90.1074 63.9114 90.0751 63.9552 90.053 64.0042C90.0309 64.0532 90.0194 64.1064 90.0194 64.1602C90.0194 64.214 90.0309 64.2672 90.053 64.3162C90.0751 64.3653 90.1074 64.4091 90.1477 64.4447C90.1881 64.4803 90.2355 64.5069 90.2869 64.5228C90.3383 64.5387 90.3925 64.5434 90.4459 64.5368C91.3594 64.601 92.2762 64.601 93.1897 64.5368C94.0015 64.5568 94.8133 64.4942 95.6125 64.35C95.6641 64.3382 95.7101 64.3093 95.7431 64.2679C95.7761 64.2265 95.7941 64.1752 95.7941 64.1223C95.7941 64.0694 95.7761 64.018 95.7431 63.9767C95.7101 63.9353 95.6641 63.9064 95.6125 63.8946V63.9004Z" fill="#F67A45"/>
<path d="M93.9078 67.0937C95.2739 67.152 95.2447 70.2462 94.9761 71.0751C94.9602 71.1214 94.9287 71.1606 94.887 71.1861C94.8453 71.2116 94.7961 71.2217 94.7477 71.2148C94.6993 71.2079 94.6548 71.1843 94.622 71.1482C94.5891 71.1121 94.5698 71.0656 94.5675 71.0168C94.6297 70.2521 94.6101 69.483 94.5091 68.7224C94.3395 68.1895 94.1083 67.6782 93.8202 67.1987C93.8202 67.1462 93.8611 67.0878 93.9078 67.0937Z" fill="#F67A45"/>
<path d="M97.2471 76.4344H93.6626V75.5587H97.2471C98.4147 75.5587 100.078 69.1369 100.078 59.0548C100.078 48.9727 98.403 42.551 97.2471 42.551H93.7443V41.6753H97.2471C99.9676 41.6753 100.954 52.0668 100.954 59.0548C100.954 66.0428 99.9676 76.4344 97.2471 76.4344Z" fill="#F67A45"/>
<path d="M100.376 65.8386C99.6279 65.6971 98.8661 65.6403 98.1052 65.6693C97.3362 65.6275 96.5651 65.647 95.7992 65.7277C95.3147 65.7919 95.5132 66.4166 95.9043 66.4633C96.6949 66.5306 97.4898 66.5306 98.2803 66.4633C98.9835 66.4824 99.6866 66.4217 100.376 66.2823C100.428 66.2706 100.474 66.2416 100.507 66.2003C100.54 66.1589 100.558 66.1076 100.558 66.0547C100.558 66.0017 100.54 65.9504 100.507 65.909C100.474 65.8677 100.428 65.8387 100.376 65.827V65.8386Z" fill="#F67A45"/>
<path d="M100.581 63.2174C99.8323 63.0761 99.0705 63.0193 98.3096 63.0481C97.5308 63.0076 96.7501 63.0271 95.9744 63.1065C95.4898 63.1766 95.6883 63.7954 96.0795 63.8479C96.8682 63.9122 97.6609 63.9122 98.4497 63.8479C99.1549 63.8622 99.8596 63.7995 100.551 63.6611C100.603 63.6493 100.649 63.6204 100.682 63.5791C100.715 63.5377 100.733 63.4863 100.733 63.4334C100.733 63.3805 100.715 63.3292 100.682 63.2878C100.649 63.2464 100.603 63.2175 100.551 63.2057L100.581 63.2174Z" fill="#F67A45"/>
<path d="M100.376 65.8386C99.6279 65.6971 98.8661 65.6403 98.1052 65.6693C97.3362 65.6275 96.5651 65.647 95.7992 65.7277C95.3147 65.7919 95.5132 66.4166 95.9043 66.4633C96.6949 66.5306 97.4898 66.5306 98.2803 66.4633C98.9835 66.4824 99.6866 66.4217 100.376 66.2823C100.428 66.2706 100.474 66.2416 100.507 66.2003C100.54 66.1589 100.558 66.1076 100.558 66.0547C100.558 66.0017 100.54 65.9504 100.507 65.909C100.474 65.8677 100.428 65.8387 100.376 65.827V65.8386Z" fill="#F67A45"/>
<path d="M100.581 63.2174C99.8323 63.0761 99.0705 63.0193 98.3096 63.0481C97.5308 63.0076 96.7501 63.0271 95.9744 63.1065C95.4898 63.1766 95.6883 63.7954 96.0795 63.8479C96.8682 63.9122 97.6609 63.9122 98.4497 63.8479C99.1549 63.8622 99.8596 63.7995 100.551 63.6611C100.603 63.6493 100.649 63.6204 100.682 63.5791C100.715 63.5377 100.733 63.4863 100.733 63.4334C100.733 63.3805 100.715 63.3292 100.682 63.2878C100.649 63.2464 100.603 63.2175 100.551 63.2057L100.581 63.2174Z" fill="#F67A45"/>
<path d="M105.105 64.5776C104.493 64.4332 103.864 64.3762 103.237 64.4083C102.6 64.3633 101.961 64.3829 101.328 64.4666C101.246 64.4848 101.173 64.5303 101.121 64.5955C101.068 64.6608 101.04 64.742 101.04 64.8257C101.04 64.9094 101.068 64.9905 101.121 65.0558C101.173 65.1211 101.246 65.1665 101.328 65.1847C101.961 65.2625 102.601 65.2762 103.237 65.2256C103.865 65.2469 104.494 65.1821 105.105 65.0329C105.156 65.0212 105.203 64.9922 105.236 64.9509C105.269 64.9095 105.287 64.8582 105.287 64.8052C105.287 64.7523 105.269 64.701 105.236 64.6596C105.203 64.6182 105.156 64.5893 105.105 64.5776Z" fill="#F67A45"/>
<path d="M105.268 62.4234C104.654 62.282 104.024 62.225 103.394 62.2541C102.758 62.2093 102.118 62.2289 101.485 62.3125C101.405 62.3331 101.334 62.3798 101.283 62.4454C101.232 62.5109 101.204 62.5915 101.204 62.6745C101.204 62.7574 101.232 62.838 101.283 62.9036C101.334 62.9691 101.405 63.0159 101.485 63.0364C102.119 63.1094 102.758 63.1212 103.394 63.0715C104.025 63.096 104.656 63.0312 105.268 62.8788C105.32 62.867 105.366 62.8381 105.399 62.7968C105.432 62.7554 105.45 62.704 105.45 62.6511C105.45 62.5982 105.432 62.5469 105.399 62.5055C105.366 62.4641 105.32 62.4352 105.268 62.4234Z" fill="#F67A45"/>
<path d="M102.525 73.3637H99.1911V72.488H102.525C103.283 72.488 104.76 67.7418 104.76 59.0608C104.76 50.3797 103.283 45.6335 102.525 45.6335V44.7578C104.988 44.7578 105.636 54.0985 105.636 59.0724C105.636 64.0463 104.988 73.3637 102.525 73.3637Z" fill="#F67A45"/>
<path d="M99.0218 45.4935C99.5706 45.8846 100.487 45.7854 101.129 45.7562C101.678 45.7562 102.653 45.8904 103.032 45.4293C103.06 45.4021 103.082 45.3698 103.096 45.3343C103.111 45.2987 103.119 45.2605 103.119 45.222C103.119 45.1835 103.111 45.1453 103.096 45.1097C103.082 45.0742 103.06 45.0419 103.032 45.0148C102.647 44.5477 101.678 44.7112 101.129 44.6878C100.493 44.6878 99.5647 44.5652 99.0218 44.9447C98.9732 44.9722 98.9328 45.0121 98.9047 45.0603C98.8766 45.1085 98.8618 45.1633 98.8618 45.2191C98.8618 45.2749 98.8766 45.3297 98.9047 45.3779C98.9328 45.4261 98.9732 45.466 99.0218 45.4935Z" fill="#F67A45"/>
<path d="M105.058 64.5775C104.299 64.4331 103.525 64.3763 102.752 64.4082C101.974 64.3637 101.193 64.3832 100.417 64.4666C99.9325 64.525 100.125 65.1555 100.522 65.2022C101.325 65.2664 102.131 65.2664 102.933 65.2022C103.648 65.2213 104.363 65.1606 105.064 65.0212C105.116 65.0094 105.162 64.9805 105.195 64.9391C105.228 64.8978 105.246 64.8464 105.246 64.7935C105.246 64.7406 105.228 64.6893 105.195 64.6479C105.162 64.6065 105.116 64.5776 105.064 64.5658L105.058 64.5775Z" fill="#F67A45"/>
<path d="M105.268 62.4235C104.508 62.2824 103.735 62.2256 102.962 62.2542C102.184 62.2129 101.403 62.2324 100.627 62.3126C100.143 62.3768 100.341 63.0015 100.732 63.0482C101.535 63.1124 102.341 63.1124 103.143 63.0482C103.86 63.0624 104.577 62.9998 105.28 62.8613C105.332 62.8496 105.378 62.8207 105.411 62.7793C105.444 62.7379 105.462 62.6866 105.462 62.6337C105.462 62.5807 105.444 62.5294 105.411 62.488C105.378 62.4467 105.332 62.4177 105.28 62.406L105.268 62.4235Z" fill="#F67A45"/>
<path d="M93.937 67.3564C93.9295 67.3436 93.9257 67.329 93.9259 67.3142C93.9261 67.2994 93.9304 67.2849 93.9381 67.2724C93.9459 67.2598 93.957 67.2495 93.9702 67.2427C93.9833 67.2359 93.9981 67.2329 94.0129 67.2338C94.1441 67.2478 94.2696 67.2947 94.3778 67.3703C94.486 67.4458 94.5733 67.5475 94.6317 67.6658C94.6317 67.5899 94.6317 67.514 94.6025 67.4323C94.5985 67.3987 94.6069 67.3649 94.626 67.3369C94.645 67.309 94.6736 67.289 94.7063 67.2804C94.739 67.2719 94.7737 67.2755 94.804 67.2905C94.8342 67.3056 94.8581 67.331 94.871 67.3622C94.9828 67.5566 95.0298 67.7815 95.0053 68.0044C94.9981 68.0231 94.9868 68.0399 94.9723 68.0536C94.9578 68.0674 94.9404 68.0777 94.9214 68.0838C94.9023 68.09 94.8822 68.0918 94.8624 68.0892C94.8426 68.0866 94.8236 68.0795 94.8068 68.0686C94.8418 68.162 94.871 68.2613 94.8944 68.3488C95.1778 69.2378 95.2062 70.1884 94.9761 71.0927C94.9602 71.1389 94.9287 71.1781 94.887 71.2036C94.8453 71.2291 94.796 71.2393 94.7477 71.2323C94.6993 71.2254 94.6548 71.2019 94.6219 71.1657C94.589 71.1296 94.5698 71.0831 94.5675 71.0343C94.6346 70.3178 94.6346 69.5966 94.5675 68.8801C94.4304 68.3449 94.2182 67.8319 93.937 67.3564Z" fill="#F67A45"/>
<path d="M99.1911 66.113C99.2848 66.113 99.3774 66.1328 99.4629 66.171C99.5484 66.2092 99.6249 66.2651 99.6873 66.3349C99.6873 66.3349 99.6873 66.294 99.6873 66.2707C99.6873 66.113 99.915 66.1014 99.9617 66.2356C100.071 66.4095 100.112 66.6171 100.078 66.8194C100.072 66.8394 100.061 66.8574 100.045 66.8717C100.03 66.886 100.011 66.8962 99.9909 66.9012C100.233 67.7433 100.257 68.6333 100.061 69.4874C100.045 69.5333 100.014 69.5724 99.9732 69.5981C99.932 69.6238 99.8832 69.6345 99.8351 69.6283C99.787 69.6221 99.7425 69.5995 99.7092 69.5642C99.6758 69.5289 99.6558 69.4832 99.6523 69.4348C99.6951 68.777 99.6795 68.1167 99.6056 67.4616C99.4746 67.0426 99.3106 66.6346 99.1152 66.2415C99.1082 66.2282 99.1047 66.2134 99.1051 66.1985C99.1055 66.1835 99.1096 66.1689 99.1173 66.156C99.1249 66.1432 99.1356 66.1324 99.1486 66.1249C99.1615 66.1174 99.1761 66.1133 99.1911 66.113Z" fill="#F67A45"/>
<path d="M104.095 64.8345C104.166 64.8205 104.24 64.8232 104.309 64.8424C104.379 64.8617 104.444 64.897 104.498 64.9455C104.498 64.817 104.72 64.817 104.766 64.9455C104.849 65.0862 104.88 65.2514 104.854 65.4125C104.852 65.4261 104.846 65.439 104.838 65.4502C104.83 65.4614 104.82 65.4704 104.807 65.4767C105.001 66.1717 105.019 66.9039 104.86 67.6076C104.844 67.6535 104.813 67.6926 104.772 67.7183C104.731 67.744 104.682 67.7547 104.634 67.7485C104.586 67.7423 104.541 67.7196 104.508 67.6844C104.475 67.6491 104.455 67.6034 104.451 67.555C104.47 67.0175 104.455 66.4793 104.404 65.9437C104.369 65.7266 104.306 65.5147 104.218 65.3132C104.136 65.1994 104.073 65.0733 104.031 64.9396C104.027 64.9285 104.026 64.9167 104.028 64.9052C104.029 64.8936 104.033 64.8824 104.039 64.8725C104.045 64.8625 104.053 64.854 104.063 64.8474C104.073 64.8409 104.083 64.8365 104.095 64.8345Z" fill="#F67A45"/>
<path d="M107.288 64.7879V63.9122C107.247 63.9128 107.206 63.9249 107.172 63.9472C107.405 63.7429 107.866 62.0557 107.866 59.0784C107.866 56.101 107.405 54.408 107.172 54.2096C107.206 54.2319 107.247 54.244 107.288 54.2446V53.3689C108.637 53.3689 108.742 57.7415 108.742 59.0784C108.742 60.4153 108.637 64.7879 107.288 64.7879Z" fill="#F67A45"/>
<path d="M107.644 64.0874C107.312 63.8188 106.716 63.9006 106.313 63.9122C105.823 63.8536 105.325 63.8993 104.854 64.0465C104.796 64.0788 104.747 64.1262 104.713 64.1837C104.679 64.2412 104.661 64.3067 104.661 64.3734C104.661 64.4402 104.679 64.5057 104.713 64.5632C104.747 64.6207 104.796 64.668 104.854 64.7004C105.338 64.8818 105.861 64.9361 106.372 64.858C106.792 64.858 107.423 64.858 107.703 64.5077C107.742 64.4415 107.758 64.3637 107.748 64.2873C107.737 64.2108 107.701 64.1403 107.644 64.0874Z" fill="#F67A45"/>
<path d="M104.737 54.0109C105.011 54.3612 105.572 54.3612 105.986 54.3612C106.461 54.3582 106.935 54.323 107.405 54.2561C107.502 54.2287 107.587 54.1706 107.647 54.0905C107.708 54.0104 107.74 53.9128 107.74 53.8124C107.74 53.7121 107.708 53.6144 107.647 53.5344C107.587 53.4543 107.502 53.3962 107.405 53.3688C106.935 53.3047 106.461 53.2696 105.986 53.2637C105.572 53.2637 105.011 53.2637 104.737 53.6198C104.697 53.6773 104.676 53.7455 104.676 53.8154C104.676 53.8852 104.697 53.9534 104.737 54.0109Z" fill="#F67A45"/>
<path d="M85.9565 62.8554V61.9797C85.9089 61.9772 85.8614 61.9859 85.8177 62.0052C85.7741 62.0244 85.7357 62.0537 85.7055 62.0906C85.9741 61.1423 86.0807 60.1554 86.0207 59.1716C86.0786 58.1975 85.972 57.2206 85.7055 56.2819C85.7368 56.3174 85.7754 56.3458 85.8188 56.3649C85.8621 56.3841 85.9091 56.3936 85.9565 56.3928V55.5171C86.2134 55.5171 86.8964 55.5171 86.8964 59.1716C86.8964 62.8262 86.2134 62.8554 85.9565 62.8554Z" fill="#F67A45"/>
<path d="M84.9874 62.0615C75.962 61.9506 66.9365 61.9506 57.9111 62.0031C57.0003 62.0031 56.0955 62.0031 55.1847 62.0381C54.9093 62.047 54.6346 62.0704 54.3616 62.1082C54.2448 62.1082 53.9354 62.1666 54.1281 62.1782C54.0615 62.1782 53.9976 62.2047 53.9506 62.2518C53.9035 62.2988 53.877 62.3627 53.877 62.4293C53.877 62.4958 53.9035 62.5597 53.9506 62.6068C53.9976 62.6539 54.0615 62.6803 54.1281 62.6803C54.3875 62.7415 54.6508 62.7844 54.9162 62.8087C55.6576 62.8671 56.4049 62.8554 57.1404 62.8613C59.6041 62.8613 62.0618 62.908 64.5196 62.908C70.0832 62.908 75.6467 62.908 81.2103 62.8613C82.5036 62.9256 83.8 62.8846 85.0867 62.7387C85.5011 62.6628 85.3844 62.0673 84.9874 62.0615Z" fill="#F67A45"/>
<path d="M85.2559 56.3053C85.3013 56.3114 85.3475 56.3078 85.3914 56.2946C85.4353 56.2815 85.4758 56.2591 85.5103 56.2289C85.5448 56.1988 85.5725 56.1616 85.5915 56.1199C85.6104 56.0782 85.6202 56.0329 85.6202 55.9871C85.6202 55.9413 85.6104 55.896 85.5915 55.8543C85.5725 55.8126 85.5448 55.7754 85.5103 55.7453C85.4758 55.7151 85.4353 55.6927 85.3914 55.6796C85.3475 55.6664 85.3013 55.6628 85.2559 55.6689C85.2105 55.6628 85.1643 55.6664 85.1205 55.6796C85.0766 55.6927 85.036 55.7151 85.0015 55.7453C84.967 55.7754 84.9394 55.8126 84.9204 55.8543C84.9015 55.896 84.8916 55.9413 84.8916 55.9871C84.8916 56.0329 84.9015 56.0782 84.9204 56.1199C84.9394 56.1616 84.967 56.1988 85.0015 56.2289C85.036 56.2591 85.0766 56.2815 85.1205 56.2946C85.1643 56.3078 85.2105 56.3114 85.2559 56.3053Z" fill="#F67A45"/>
<path d="M86.587 56.2061L86.3827 55.7565C86.3442 55.6923 86.2893 55.6395 86.2237 55.6035C86.158 55.5676 86.0839 55.5499 86.009 55.5522C82.5063 55.8558 78.7992 55.5522 75.2556 55.5814H58.2146C56.8602 55.5814 55.4883 55.6398 54.1281 55.5814C53.5443 55.5522 53.5443 56.3812 54.1281 56.4104C57.7885 56.5914 61.4956 56.4104 65.1559 56.4104C70.8771 56.4104 76.5983 56.4104 82.3195 56.4104H85.0341C85.2793 56.4104 85.5362 56.4104 85.7814 56.4104C86.2309 56.4512 85.5712 56.0776 85.8281 56.6497C86.0849 57.2219 86.8147 56.7315 86.587 56.2294V56.2061Z" fill="#F67A45"/>
<path d="M85.9623 61.9797H79.2137V62.8554H85.9623V61.9797Z" fill="#F67A45"/>
<path d="M86.5578 58.2844C85.3195 58.1442 84.0733 58.0857 82.8274 58.1093C81.5775 58.014 80.3209 58.0531 79.0794 58.2261C79.0206 58.2387 78.968 58.271 78.9302 58.3178C78.8924 58.3645 78.8718 58.4228 78.8718 58.4829C78.8718 58.543 78.8924 58.6013 78.9302 58.6481C78.968 58.6948 79.0206 58.7272 79.0794 58.7398C80.3207 58.9159 81.5775 58.955 82.8274 58.8566C84.0734 58.8831 85.3197 58.8246 86.5578 58.6814C86.6022 58.6706 86.6418 58.6451 86.67 58.6091C86.6983 58.5731 86.7136 58.5287 86.7136 58.4829C86.7136 58.4372 86.6983 58.3927 86.67 58.3568C86.6418 58.3208 86.6022 58.2953 86.5578 58.2844Z" fill="#F67A45"/>
<path d="M54.128 58.6872C57.7943 58.9615 61.5072 58.8331 65.1793 58.8565C68.8513 58.8798 72.6168 59.1834 76.2363 58.7514C76.2745 58.7571 76.3134 58.7544 76.3505 58.7437C76.3876 58.7329 76.4219 58.7143 76.4512 58.6891C76.4804 58.6639 76.5039 58.6327 76.5199 58.5976C76.536 58.5625 76.5443 58.5244 76.5443 58.4858C76.5443 58.4472 76.536 58.409 76.5199 58.3739C76.5039 58.3388 76.4804 58.3076 76.4512 58.2824C76.4219 58.2572 76.3876 58.2386 76.3505 58.2278C76.3134 58.2171 76.2745 58.2145 76.2363 58.2201C72.6168 57.7881 68.8163 58.0859 65.1793 58.1092C61.5422 58.1326 57.7943 58.01 54.128 58.2785C54.1012 58.2785 54.0746 58.2838 54.0499 58.2941C54.0251 58.3043 54.0025 58.3194 53.9836 58.3384C53.9646 58.3573 53.9495 58.3798 53.9393 58.4046C53.929 58.4294 53.9237 58.456 53.9237 58.4828C53.9237 58.5097 53.929 58.5362 53.9393 58.561C53.9495 58.5858 53.9646 58.6083 53.9836 58.6273C54.0025 58.6463 54.0251 58.6613 54.0499 58.6716C54.0746 58.6819 54.1012 58.6872 54.128 58.6872Z" fill="#F67A45"/>
<path d="M81.1694 58.0217C81.1756 58.0242 81.1823 58.0251 81.1889 58.0244C81.1956 58.0236 81.2019 58.0213 81.2075 58.0176C81.213 58.0138 81.2175 58.0088 81.2206 58.0029C81.2238 57.997 81.2254 57.9904 81.2254 57.9837C81.2254 57.9771 81.2238 57.9705 81.2206 57.9646C81.2175 57.9587 81.213 57.9536 81.2075 57.9499C81.2019 57.9462 81.1956 57.9438 81.1889 57.9431C81.1823 57.9424 81.1756 57.9433 81.1694 57.9458C81.1632 57.9433 81.1565 57.9424 81.1498 57.9431C81.1432 57.9438 81.1368 57.9462 81.1313 57.9499C81.1258 57.9536 81.1212 57.9587 81.1181 57.9646C81.115 57.9705 81.1133 57.9771 81.1133 57.9837C81.1133 57.9904 81.115 57.997 81.1181 58.0029C81.1212 58.0088 81.1258 58.0138 81.1313 58.0176C81.1368 58.0213 81.1432 58.0236 81.1498 58.0244C81.1565 58.0251 81.1632 58.0242 81.1694 58.0217Z" fill="#F67A45"/>
<path d="M15.0139 85.8162H22.6032V87.3515H16.8353V92.0219H22.2062V93.5281H16.8353V99.9498H15.0139V85.8162Z" fill="#F67A45"/>
<path d="M28.628 85.8162V99.944H26.7949V85.8162H28.628Z" fill="#F67A45"/>
<path d="M36.0597 87.369H31.7629V85.8162H42.2187V87.369H37.9044V99.944H36.0597V87.369Z" fill="#F67A45"/>
<path d="M45.3653 99.944V85.8162H47.3561L51.8863 92.9676C52.8302 94.4402 53.6765 95.973 54.42 97.5562H54.4608C54.2974 95.6648 54.2507 93.9484 54.2507 91.7183V85.8162H56.002V99.944H54.1573L49.6445 92.7808C48.6722 91.2642 47.791 89.691 47.0058 88.0696H46.9416C47.0467 89.8502 47.0875 91.5724 47.0875 93.9075V99.944H45.3653Z" fill="#F67A45"/>
<path d="M68.0457 93.3237H62.5522V98.4144H68.6762V99.944H60.7366V85.8162H68.3668V87.3515H62.5289V91.8117H68.0224L68.0457 93.3237Z" fill="#F67A45"/>
<path d="M72.3658 97.7251C73.354 98.3181 74.4826 98.6365 75.635 98.6475C77.5032 98.6475 78.589 97.6609 78.589 96.2365C78.589 94.9171 77.8359 94.1582 75.9269 93.4284C73.5918 92.6111 72.1965 91.4143 72.1965 89.4236C72.1965 87.2227 74.0238 85.5881 76.7676 85.5881C77.8501 85.5506 78.9245 85.7876 79.8909 86.277L79.3888 87.7656C78.5633 87.3224 77.6404 87.0917 76.7034 87.0943C74.7769 87.0943 74.0413 88.2618 74.0413 89.2134C74.0413 90.5328 74.8995 91.1867 76.8493 91.9397C79.2429 92.8621 80.4572 94.0122 80.4572 96.0905C80.4572 98.2681 78.8401 100.177 75.5066 100.177C74.2485 100.193 73.0078 99.883 71.9046 99.278L72.3658 97.7251Z" fill="#F67A45"/>
<path d="M84.2693 97.7251C85.2597 98.3181 86.3902 98.6364 87.5444 98.6475C89.4067 98.6475 90.4984 97.6609 90.4984 96.2365C90.4984 94.9171 89.7453 94.1582 87.8363 93.4284C85.5303 92.6111 84.1059 91.4143 84.1059 89.4236C84.1059 87.2227 85.9273 85.5881 88.6712 85.5881C89.7537 85.5506 90.8281 85.7876 91.7944 86.277L91.2924 87.7656C90.469 87.3222 89.5479 87.0915 88.6128 87.0943C86.6804 87.0943 85.9507 88.2618 85.9507 89.2134C85.9507 90.5328 86.8088 91.1867 88.7587 91.9397C91.1464 92.8621 92.3607 94.0122 92.3607 96.0905C92.3607 98.2681 90.7495 100.177 87.416 100.177C86.1562 100.192 84.9137 99.8822 83.8082 99.278L84.2693 97.7251Z" fill="#F67A45"/>
<path d="M38.8385 75.6465V75.0335L39.6208 74.2746C41.5065 72.4823 42.3588 71.5307 42.3705 70.4157C42.3901 70.2194 42.3655 70.0213 42.2985 69.8358C42.2314 69.6503 42.1237 69.4822 41.9831 69.3439C41.8425 69.2055 41.6727 69.1004 41.4861 69.0364C41.2996 68.9723 41.1011 68.9509 40.9051 68.9737C40.3273 68.996 39.7748 69.2166 39.3406 69.5984L39.0195 68.8978C39.6059 68.4088 40.3459 68.1421 41.1095 68.1447C41.4032 68.1189 41.6991 68.1558 41.9775 68.2531C42.2559 68.3503 42.5104 68.5057 42.7241 68.7089C42.9378 68.9121 43.1058 69.1585 43.2169 69.4316C43.3281 69.7048 43.3798 69.9984 43.3688 70.2931C43.3688 71.6533 42.3821 72.7567 40.8234 74.2512L40.2396 74.8H43.5556V75.6231L38.8385 75.6465Z" fill="#F67A45"/>
<path d="M50.7012 71.8808C50.7012 74.3911 49.7671 75.7747 48.1383 75.7747C46.6964 75.7747 45.7156 74.4203 45.6981 71.9859C45.6806 69.5515 46.7606 68.1445 48.2609 68.1445C49.7613 68.1445 50.7012 69.534 50.7012 71.8808ZM46.6964 71.9917C46.6964 73.9124 47.2802 75.0041 48.1909 75.0041C49.2125 75.0041 49.7029 73.8365 49.7029 71.9275C49.7029 70.0185 49.2359 68.921 48.2026 68.921C47.3094 68.921 46.7256 70.0127 46.7256 71.9917H46.6964Z" fill="#F67A45"/>
<path d="M54.8987 69.2012L53.6202 69.8959L53.4275 69.137L55.0388 68.2729H55.8853V75.6463H54.8987V69.2012Z" fill="#F67A45"/>
<path d="M59.6216 73.7781C59.6284 73.3365 59.7734 72.9081 60.0362 72.5531C60.299 72.1982 60.6665 71.9345 61.0869 71.7991V71.7699C60.7507 71.6391 60.4606 71.412 60.2529 71.1171C60.0453 70.8221 59.9292 70.4725 59.9193 70.1119C59.9193 68.9443 60.9059 68.1445 62.2019 68.1445C63.6264 68.1445 64.3444 69.0436 64.3444 69.966C64.3431 70.3465 64.2263 70.7176 64.0095 71.0304C63.7926 71.3431 63.486 71.5826 63.1302 71.7173V71.7524C63.548 71.8709 63.9173 72.1191 64.1848 72.4612C64.4524 72.8033 64.6044 73.2215 64.6188 73.6555C64.6188 74.9399 63.5155 75.8039 62.1085 75.8039C60.5556 75.7747 59.6216 74.8523 59.6216 73.7781ZM63.5972 73.7314C63.5972 72.8324 62.9725 72.4004 61.9742 72.1202C61.6122 72.1827 61.2825 72.3675 61.0403 72.6437C60.798 72.9199 60.6579 73.2709 60.6432 73.638C60.6358 73.8308 60.6696 74.0229 60.7422 74.2017C60.8148 74.3804 60.9246 74.5417 61.0643 74.6747C61.2039 74.8078 61.3703 74.9096 61.5524 74.9735C61.7344 75.0373 61.928 75.0617 62.1202 75.045C62.3052 75.0645 62.4923 75.0452 62.6694 74.9882C62.8465 74.9313 63.0098 74.8381 63.1488 74.7144C63.2878 74.5908 63.3995 74.4395 63.4767 74.2702C63.5539 74.101 63.595 73.9175 63.5972 73.7314ZM60.8475 70.0419C60.8475 70.7774 61.4021 71.1803 62.2545 71.4021C62.5619 71.3316 62.838 71.1631 63.0413 70.922C63.2445 70.6808 63.3638 70.3801 63.3812 70.0652C63.3865 69.9018 63.3574 69.7392 63.2959 69.5877C63.2344 69.4363 63.1417 69.2995 63.0239 69.1861C62.9062 69.0727 62.7659 68.9854 62.6123 68.9296C62.4586 68.8739 62.2949 68.8511 62.1319 68.8626C61.968 68.8461 61.8026 68.8645 61.6463 68.9165C61.4901 68.9685 61.3466 69.0529 61.2253 69.1643C61.104 69.2756 61.0076 69.4114 60.9425 69.5627C60.8774 69.7139 60.845 69.8772 60.8475 70.0419Z" fill="#F67A45"/>
<path d="M82.337 35.5044C81.4438 35.9715 80.5389 36.3743 79.6165 36.7596C78.8284 37.0923 77.7892 37.3434 77.1996 37.968C77.1619 38.0079 77.1367 38.0579 77.1271 38.1119C77.1176 38.1659 77.1241 38.2215 77.1458 38.2718C77.1676 38.3222 77.2036 38.365 77.2495 38.3951C77.2954 38.4251 77.3491 38.4411 77.4039 38.4409C78.2679 38.5226 79.1553 37.9856 79.9259 37.6294C80.8833 37.1799 81.7999 36.6428 82.7106 36.1116C83.1309 35.8664 82.7456 35.2943 82.337 35.5278V35.5044Z" fill="#F67A45"/>
<path d="M94.5207 29.5793C92.8744 30.274 91.2573 31.0329 89.6402 31.786C88.1983 32.4574 86.587 33.0353 85.3026 33.9869C85.0166 34.1971 85.3493 34.5707 85.6296 34.5123C87.1825 34.1153 88.6536 33.2105 90.0897 32.5157C91.6893 31.7393 93.2948 30.9687 94.8652 30.1339C95.2622 29.9179 94.8652 29.4158 94.5207 29.5501V29.5793Z" fill="#F67A45"/>
<path d="M99.9734 27.1214C99.4189 27.2441 98.8896 27.4613 98.4088 27.7635C97.907 27.9467 97.4537 28.2422 97.0836 28.6275C97.0515 28.6803 97.0345 28.7409 97.0344 28.8027C97.0343 28.8644 97.0511 28.9251 97.083 28.978C97.1148 29.0309 97.1606 29.0741 97.2152 29.1028C97.2699 29.1316 97.3314 29.1449 97.393 29.1413C97.9241 29.0386 98.425 28.8171 98.8583 28.4933C99.3706 28.2607 99.8372 27.9384 100.236 27.5417C100.417 27.3257 100.236 27.0863 99.9734 27.1214Z" fill="#F67A45"/>
<path d="M98.1753 19.1293C97.0077 19.3394 95.8985 20.3844 94.9352 21.0616C93.8625 21.7395 92.8593 22.5217 91.9404 23.3968C91.701 23.6478 92.0163 23.9397 92.2907 23.823C93.5408 23.2076 94.726 22.4684 95.8285 21.6162C96.7158 20.9974 97.9184 20.3961 98.4614 19.4562C98.5781 19.2519 98.3738 19.0709 98.1753 19.1118V19.1293Z" fill="#F67A45"/>
<path d="M89.0389 25.0896C86.7037 26.0353 84.6021 27.956 82.4771 29.3279C80.3521 30.6999 77.8067 31.9842 75.9853 33.8348C75.7226 34.1034 76.067 34.4186 76.3648 34.2902C78.8225 33.2977 80.9884 31.3712 83.1718 29.8942C85.2092 28.499 87.702 27.343 89.43 25.5625C89.7044 25.2823 89.3425 24.9787 89.0389 25.0896Z" fill="#F67A45"/>
<path d="M79.418 25.3232C78.0544 26.3322 76.7774 27.4531 75.6 28.6742C74.269 29.9527 72.8562 31.1378 71.5485 32.4397C71.1515 32.8366 71.7586 33.3504 72.1323 33.0235C73.4808 31.9026 74.7126 30.6474 76.0437 29.5207C77.4241 28.4376 78.7074 27.2363 79.8792 25.9304C80.1419 25.6093 79.7858 25.078 79.3947 25.3466L79.418 25.3232Z" fill="#F67A45"/>
<path d="M94.0712 11.7092C91.847 13.1921 89.9847 15.3988 88.0056 17.1735C86.9956 18.0667 85.9565 18.9249 84.9582 19.8298C84.0533 20.6471 82.9733 21.3593 82.4888 22.5036C82.372 22.7663 82.7106 23.0173 82.95 22.9356C84.1175 22.5503 84.929 21.4994 85.8105 20.6588C86.7913 19.7305 87.7079 18.7498 88.6828 17.8215C90.6152 15.9768 92.9328 14.2838 94.5733 12.1821C94.801 11.8902 94.3456 11.5282 94.0712 11.7092Z" fill="#F67A45"/>
<path d="M70.3517 25.4634C69.6103 25.9305 69.1374 26.8003 68.6003 27.4833C68.0632 28.1664 67.1525 28.9954 66.9423 29.8944C66.9315 29.9494 66.9367 30.0063 66.9574 30.0584C66.978 30.1105 67.0132 30.1555 67.0587 30.1882C67.1043 30.2208 67.1583 30.2396 67.2142 30.2424C67.2702 30.2452 67.3258 30.2318 67.3743 30.2038C68.1333 29.766 68.5886 28.8319 69.0848 28.1314C69.5811 27.4308 70.4334 26.596 70.6728 25.7028C70.6828 25.6601 70.68 25.6153 70.6646 25.5742C70.6492 25.5332 70.622 25.4975 70.5864 25.4719C70.5507 25.4463 70.5083 25.4318 70.4645 25.4303C70.4206 25.4288 70.3773 25.4403 70.34 25.4634H70.3517Z" fill="#F67A45"/>
<path d="M77.0828 15.644C75.2789 18.0259 73.3699 20.3494 71.6944 22.8188C71.3791 23.2742 72.1147 23.6069 72.4241 23.2216C74.304 20.8865 75.9794 18.4112 77.7308 16.006C78.0169 15.6148 77.3514 15.2879 77.0828 15.644Z" fill="#F67A45"/>
<path d="M79.9317 11.575C79.6826 11.8505 79.4506 12.141 79.237 12.4449C78.9934 12.7196 78.8051 13.0387 78.6824 13.3848C78.6693 13.4467 78.6744 13.5112 78.6972 13.5702C78.7199 13.6293 78.7594 13.6805 78.8107 13.7176C78.862 13.7547 78.923 13.7761 78.9862 13.7792C79.0495 13.7823 79.1123 13.767 79.167 13.7351C79.4534 13.5253 79.6938 13.2591 79.8734 12.9528C80.1068 12.6483 80.3194 12.3285 80.5097 11.9954C80.5533 11.9178 80.5668 11.8269 80.5476 11.74C80.5284 11.6531 80.4779 11.5763 80.4057 11.5243C80.3334 11.4723 80.2446 11.4487 80.1561 11.4581C80.0676 11.4674 79.9856 11.5091 79.9259 11.575H79.9317Z" fill="#F67A45"/>
<path d="M69.4468 14.091C68.034 15.9299 67.1992 18.3702 66.2418 20.4718C65.2844 22.5735 64.4262 24.5584 63.6147 26.6309C63.4688 26.9987 64.0993 27.2147 64.2802 26.8936C65.3836 24.7861 66.4111 22.626 67.3977 20.4718C68.2909 18.5103 69.4994 16.3853 69.9255 14.2895C69.9352 14.2301 69.9243 14.1692 69.8945 14.1169C69.8646 14.0647 69.8178 14.0242 69.7618 14.0023C69.7057 13.9805 69.6439 13.9785 69.5865 13.9968C69.5292 14.015 69.4799 14.0524 69.4468 14.1027V14.091Z" fill="#F67A45"/>
<path d="M73.3757 5.095C72.8386 6.08745 72.3424 7.10325 71.8229 8.10737C71.2811 8.97756 70.8627 9.91864 70.5794 10.9037C70.5093 11.289 71.0172 11.6568 71.3091 11.3066C71.947 10.4108 72.4523 9.42765 72.8095 8.38759C73.2473 7.38931 73.7085 6.39686 74.1288 5.38689C74.3098 4.96072 73.5801 4.69802 73.3757 5.08332V5.095Z" fill="#F67A45"/>
<path d="M61.3204 17.8974C60.5498 19.1525 60.3513 20.8922 59.9602 22.3108C59.5106 23.9571 59.172 25.6268 58.7634 27.2847C58.7551 27.3667 58.7765 27.4489 58.8237 27.5165C58.8708 27.584 58.9407 27.6324 59.0205 27.6529C59.1003 27.6734 59.1848 27.6646 59.2586 27.6281C59.3325 27.5916 59.3908 27.5299 59.4231 27.4541C59.8959 25.8136 60.4214 24.1965 60.8475 22.5443C61.2153 21.1082 61.91 19.5145 61.8575 18.0316C61.8527 17.9706 61.8289 17.9126 61.7894 17.8659C61.7499 17.8191 61.6967 17.786 61.6373 17.7712C61.5779 17.7563 61.5154 17.7605 61.4585 17.7832C61.4016 17.8058 61.3533 17.8458 61.3204 17.8974Z" fill="#F67A45"/>
<path d="M66.2476 0.232023C65.5413 0.944251 65.2785 1.92502 64.9341 2.85909C64.4449 4.17563 64.0298 5.5185 63.6906 6.88143C63.1068 9.31585 62.272 11.832 62.1319 14.3482C62.1319 14.6576 62.5873 14.6809 62.6807 14.4182C63.5097 12.083 63.8833 9.53185 64.6539 7.1383C65.0275 5.97071 65.3661 4.80313 65.7222 3.63554C66.0433 2.57887 66.5862 1.41712 66.4812 0.307915C66.4782 0.282297 66.4682 0.257992 66.4524 0.237673C66.4365 0.217355 66.4153 0.201814 66.3912 0.192759C66.367 0.183705 66.3408 0.181489 66.3155 0.186357C66.2902 0.191224 66.2667 0.202987 66.2476 0.220347V0.232023Z" fill="#F67A45"/>
<path d="M26.4329 36.1117C27.3436 36.643 28.266 37.1801 29.2176 37.6296C29.9824 37.9915 30.8814 38.5228 31.7396 38.4411C31.7949 38.4424 31.8494 38.4273 31.8962 38.3977C31.943 38.3681 31.9799 38.3253 32.0024 38.2747C32.0249 38.2241 32.0319 38.168 32.0225 38.1135C32.0132 38.0589 31.9878 38.0084 31.9498 37.9682C31.366 37.3319 30.321 37.0925 29.5329 36.7597C28.6046 36.3744 27.6998 35.9716 26.8124 35.5046C26.4037 35.2944 26.0126 35.8665 26.4329 36.0884V36.1117Z" fill="#F67A45"/>
<path d="M14.3075 30.1336C15.8779 30.9684 17.4834 31.739 19.0829 32.5154C20.5191 33.2102 22.0019 34.115 23.5373 34.512C23.8175 34.5821 24.1211 34.1968 23.8642 33.9866C22.5799 33.035 20.9452 32.4629 19.5325 31.7857C17.9154 31.0326 16.2924 30.2737 14.652 29.579C14.2725 29.4155 13.9047 29.9176 14.3075 30.1628V30.1336Z" fill="#F67A45"/>
<path d="M8.93661 27.5417C9.33552 27.9384 9.8021 28.2607 10.3144 28.4933C10.745 28.8191 11.2441 29.0427 11.7738 29.1471C11.8353 29.1499 11.8964 29.1362 11.9507 29.1073C12.0051 29.0785 12.0507 29.0356 12.0829 28.9832C12.1151 28.9308 12.1326 28.8707 12.1337 28.8091C12.1348 28.7476 12.1194 28.6869 12.0891 28.6334C11.7159 28.2519 11.2635 27.957 10.7639 27.7694C10.2825 27.4682 9.75347 27.251 9.19932 27.1272C8.94245 27.0922 8.7498 27.3315 8.93661 27.5475V27.5417Z" fill="#F67A45"/>
<path d="M10.7113 19.4738C11.2484 20.4079 12.4627 21.0209 13.3384 21.6339C14.444 22.4814 15.6287 23.2204 16.8762 23.8406C17.1506 23.9574 17.46 23.6655 17.2265 23.4145C16.3087 22.538 15.3054 21.7557 14.2316 21.0793C13.2625 20.3962 12.1766 19.3279 10.9974 19.1469C10.7989 19.1061 10.5946 19.287 10.7113 19.4914V19.4738Z" fill="#F67A45"/>
<path d="M19.7368 25.5627C21.4882 27.3141 23.9635 28.4817 26.0009 29.8944C28.1785 31.389 30.3502 33.298 32.8079 34.2904C33.0998 34.4072 33.4501 34.1094 33.1874 33.835C31.3718 31.9786 28.8498 30.7234 26.6898 29.3282C24.5297 27.9329 22.4806 26.0297 20.1279 25.0898C19.8244 24.9672 19.4624 25.2766 19.7368 25.5627Z" fill="#F67A45"/>
<path d="M29.2468 25.913C30.4179 27.2175 31.6992 28.4187 33.0765 29.5033C34.4133 30.6709 35.6393 31.8969 36.9879 33.0061C37.3907 33.3388 37.9978 32.8251 37.6009 32.4223C36.2932 31.1204 34.8745 29.9353 33.5493 28.6568C32.3698 27.4358 31.0907 26.3149 29.7255 25.3058C29.3402 25.049 28.9782 25.5744 29.2468 25.8896V25.913Z" fill="#F67A45"/>
<path d="M14.6169 12.1821C16.2515 14.2838 18.575 15.9826 20.5074 17.8215C21.4823 18.7498 22.3989 19.7305 23.3738 20.6588C24.2612 21.4994 25.0552 22.5503 26.2403 22.9356C26.4738 23.0173 26.824 22.7663 26.7015 22.5036C26.2169 21.336 25.1369 20.6471 24.232 19.8298C23.2337 18.9191 22.1946 18.0784 21.1846 17.1735C19.1822 15.4222 17.3432 13.1921 15.1131 11.7092C14.8388 11.5282 14.3892 11.8902 14.6169 12.1821Z" fill="#F67A45"/>
<path d="M38.4824 25.7027C38.7276 26.6017 39.5391 27.384 40.0703 28.1312C40.6016 28.8785 41.0277 29.7659 41.7867 30.2037C41.8351 30.2299 41.89 30.242 41.9449 30.2383C41.9999 30.2347 42.0527 30.2156 42.0973 30.1833C42.1418 30.1509 42.1763 30.1066 42.1968 30.0555C42.2172 30.0043 42.2228 29.9485 42.2128 29.8943C42.0027 28.9953 41.1153 28.2013 40.5607 27.4832C40.0061 26.7652 39.5566 25.9245 38.8093 25.4633C38.7716 25.4412 38.7283 25.4305 38.6846 25.4323C38.6409 25.4342 38.5986 25.4486 38.5629 25.4739C38.5272 25.4991 38.4995 25.5341 38.4832 25.5747C38.4668 25.6153 38.4625 25.6597 38.4707 25.7027H38.4824Z" fill="#F67A45"/>
<path d="M31.4652 16.006C33.2166 18.4112 34.8979 20.9098 36.7719 23.2216C37.0871 23.6069 37.8169 23.2742 37.5075 22.8188C35.8261 20.3494 33.9171 18.0551 32.1307 15.644C31.8622 15.2879 31.2025 15.6148 31.4827 16.006H31.4652Z" fill="#F67A45"/>
<path d="M28.6572 11.9951C28.8515 12.3271 29.066 12.6468 29.2993 12.9526C29.4785 13.2573 29.7166 13.5233 29.9999 13.7348C30.055 13.7658 30.1178 13.7805 30.181 13.7771C30.2441 13.7737 30.305 13.7523 30.3564 13.7156C30.4079 13.6788 30.4478 13.6282 30.4715 13.5695C30.4952 13.5109 30.5017 13.4468 30.4903 13.3846C30.3621 13.0346 30.1634 12.7147 29.9065 12.4447C29.6949 12.1408 29.4649 11.8503 29.2176 11.5748C29.1552 11.5182 29.0753 11.4848 28.9912 11.4801C28.9072 11.4753 28.824 11.4996 28.7557 11.5488C28.6873 11.598 28.638 11.6692 28.6158 11.7504C28.5936 11.8316 28.6 11.918 28.6338 11.9951H28.6572Z" fill="#F67A45"/>
<path d="M39.2472 14.2779C39.6733 16.3971 40.876 18.4987 41.775 20.4603C42.7616 22.6262 43.7891 24.7862 44.8925 26.882C45.0676 27.2148 45.7039 26.9929 45.5521 26.6193C44.7407 24.5468 43.8533 22.4861 42.9251 20.4603C41.9968 18.4345 41.1328 15.9184 39.72 14.0794C39.6894 14.0258 39.6404 13.9851 39.5821 13.9647C39.5239 13.9442 39.4602 13.9455 39.4028 13.9682C39.3453 13.9909 39.298 14.0335 39.2694 14.0882C39.2408 14.143 39.2329 14.2062 39.2472 14.2662V14.2779Z" fill="#F67A45"/>
<path d="M35.0497 5.39855C35.47 6.40851 35.9371 7.40096 36.3749 8.39924C36.73 9.43907 37.2334 10.4222 37.8694 11.3182C38.1671 11.6627 38.675 11.3182 38.605 10.9154C38.3152 9.93341 37.8908 8.99628 37.344 8.1307C36.8303 7.12657 36.334 6.11077 35.7969 5.11833C35.5926 4.73886 34.8629 4.99573 35.038 5.4219L35.0497 5.39855Z" fill="#F67A45"/>
<path d="M47.3385 18.055C47.2918 19.5261 47.9866 21.1432 48.3543 22.5677C48.7805 24.2198 49.3059 25.8369 49.773 27.4774C49.8897 27.8744 50.5377 27.7167 50.4326 27.3081C50.0298 25.6443 49.6854 23.9863 49.2651 22.3342C48.8739 20.9039 48.6813 19.1817 47.9107 17.9207C47.8766 17.8701 47.8277 17.8312 47.7708 17.8092C47.7138 17.7873 47.6515 17.7834 47.5923 17.798C47.533 17.8127 47.4797 17.8452 47.4395 17.8911C47.3994 17.9371 47.3743 17.9943 47.3677 18.055H47.3385Z" fill="#F67A45"/>
<path d="M42.6857 0.319325C42.5865 1.42853 43.1294 2.59028 43.4505 3.64695C43.8008 4.81454 44.1452 5.98212 44.5188 7.14971C45.2836 9.54326 45.6864 12.0653 46.4921 14.4296C46.5855 14.6865 47.0759 14.669 47.035 14.3596C46.8949 11.8434 46.0834 9.32726 45.4821 6.89284C45.156 5.62091 44.7663 4.36612 44.3145 3.13321C43.9584 2.12325 43.6782 1.01404 42.9076 0.214242C42.8885 0.196881 42.865 0.185121 42.8397 0.180254C42.8144 0.175386 42.7882 0.1776 42.7641 0.186654C42.7399 0.195708 42.7187 0.211252 42.7029 0.23157C42.687 0.251889 42.677 0.276195 42.6741 0.301812L42.6857 0.319325Z" fill="#F67A45"/>
<path d="M54.1514 22.1418C54.0989 23.0284 54.0989 23.9173 54.1514 24.8039C54.1203 25.59 54.2029 26.3765 54.3966 27.1391C54.4175 27.1908 54.4534 27.2351 54.4997 27.2663C54.546 27.2976 54.6006 27.3142 54.6564 27.3142C54.7122 27.3142 54.7668 27.2976 54.8131 27.2663C54.8593 27.2351 54.8952 27.1908 54.9162 27.1391C55.059 26.3692 55.0905 25.5827 55.0096 24.8039C55.0057 23.9139 54.9492 23.025 54.8403 22.1418C54.8403 22.0489 54.8034 21.9598 54.7377 21.8941C54.672 21.8284 54.5829 21.7915 54.49 21.7915C54.3971 21.7915 54.308 21.8284 54.2423 21.8941C54.1766 21.9598 54.1397 22.0489 54.1397 22.1418H54.1514Z" fill="#F67A45"/>
<path d="M54.3791 9.42667C53.7953 11.0379 54.0989 13.1221 54.0755 14.8151C54.0522 16.5081 53.6902 18.6039 54.2098 20.1802C54.2289 20.2297 54.2625 20.2723 54.3063 20.3024C54.35 20.3325 54.4019 20.3485 54.455 20.3485C54.5081 20.3485 54.5599 20.3325 54.6037 20.3024C54.6475 20.2723 54.6811 20.2297 54.7002 20.1802C55.284 18.6331 55.0446 16.4672 55.0972 14.8151C55.1497 13.163 55.5292 11.0671 55.0504 9.42667C55.0259 9.35729 54.9804 9.29722 54.9203 9.25474C54.8602 9.21226 54.7884 9.18945 54.7148 9.18945C54.6412 9.18945 54.5694 9.21226 54.5093 9.25474C54.4491 9.29722 54.4037 9.35729 54.3791 9.42667Z" fill="#F67A45"/>
<path d="M54.3966 3.5885C54.1311 4.337 54.016 5.13058 54.058 5.92367C54.023 6.68844 53.8245 7.67505 54.2973 8.31722C54.3282 8.35945 54.3687 8.39379 54.4153 8.41747C54.462 8.44114 54.5136 8.45348 54.5659 8.45348C54.6182 8.45348 54.6698 8.44114 54.7165 8.41747C54.7631 8.39379 54.8035 8.35945 54.8344 8.31722C55.2956 7.73343 55.138 6.82855 55.1205 6.09881C55.1869 5.26338 55.0917 4.42298 54.8403 3.62352C54.7702 3.4659 54.4842 3.36666 54.3966 3.57098V3.5885Z" fill="#F67A45"/>
<path d="M42.2128 47.7935H39.2355V50.5548H42.5514V51.3838H38.2489V43.7419H42.3821V44.5709H39.2355V46.9878H42.2128V47.7935Z" fill="#F67A45"/>
<path d="M44.8341 50.1638C45.3639 50.4806 45.9681 50.6518 46.5855 50.66C47.5954 50.66 48.1851 50.1288 48.1851 49.3581C48.1851 48.5875 47.7764 48.2314 46.7431 47.8345C45.4996 47.3908 44.7232 46.7428 44.7232 45.6686C44.7232 44.501 45.7098 43.5903 47.1984 43.5903C47.7852 43.571 48.3673 43.6995 48.8914 43.9639L48.6171 44.7695C48.1698 44.5307 47.6704 44.4064 47.1634 44.4076C46.1184 44.4076 45.7214 45.0322 45.7214 45.5752C45.7214 46.2932 46.1885 46.6435 47.2451 47.0522C48.5412 47.5542 49.195 48.1789 49.195 49.2998C49.195 50.4207 48.3252 51.5007 46.5154 51.5007C45.8348 51.508 45.1636 51.3412 44.5655 51.0161L44.8341 50.1638Z" fill="#F67A45"/>
<path d="M53.1473 44.5709H50.8121V43.7419H56.4808V44.5826H54.1456V51.3955H53.1473V44.5709Z" fill="#F67A45"/>
<path d="M58.4773 43.8354C59.1728 43.7293 59.8754 43.6766 60.579 43.6778C61.9976 43.6778 63.0076 44.0047 63.6731 44.6293C64.0418 44.9807 64.3294 45.4082 64.5159 45.8821C64.7024 46.3559 64.7834 46.8648 64.7531 47.3732C64.7795 47.9182 64.6953 48.4629 64.5057 48.9746C64.3161 49.4863 64.0249 49.9543 63.6498 50.3505C62.9375 51.0627 61.7583 51.448 60.2696 51.448C59.671 51.4503 59.0728 51.4211 58.4773 51.3605V43.8354ZM59.464 50.6015C59.795 50.6432 60.1286 50.6607 60.4622 50.6541C62.5756 50.6541 63.7198 49.4865 63.7198 47.4082C63.7198 45.6043 62.7098 44.4892 60.6199 44.4892C60.2284 44.484 59.8373 44.5173 59.4523 44.5885L59.464 50.6015Z" fill="#F67A45"/>
<path d="M54.5893 29.6667L56.0137 32.5624L59.2071 33.0236L56.8953 35.277L57.444 38.4528L54.5893 36.9525L51.7345 38.4528L52.2774 35.277L49.9715 33.0236L53.159 32.5624L54.5893 29.6667Z" fill="#F67A45"/>
</svg>
