<svg width="109" height="101" viewBox="0 0 109 101" fill="none" xmlns="http://www.w3.org/2000/svg">
<path d="M22.2278 79.1433C19.4607 79.1433 18.0128 69.0612 18.0128 59.0958C18.0128 49.1304 19.4607 38.9783 22.2278 38.9783C25.1059 38.9783 26.2035 49.6617 26.3961 55.9725L25.5204 56.0017C25.1993 45.4934 23.4013 39.854 22.2278 39.854C20.8326 39.854 18.8885 47.1747 18.8885 59.1191C18.8885 71.0636 20.8326 78.2909 22.2278 78.2909C23.3954 78.2909 25.1468 72.7858 25.5146 62.4468L26.3903 62.476C26.1334 70.1528 24.8958 79.1433 22.2278 79.1433Z" fill="#F67A45"/>
<path d="M22.2045 70.0126C20.3072 70.0126 20.2137 60.9463 20.2137 59.1248C20.2137 57.3034 20.3072 48.2429 22.2045 48.2429C23.2436 48.2429 23.8858 50.8466 24.1252 55.984L23.2495 56.0249C23.051 51.699 22.5081 49.6849 22.2045 49.2003C21.7199 49.9242 21.0894 53.5963 21.0894 59.1248C21.0894 64.6534 21.7199 68.3371 22.2045 69.0493C22.5314 68.5297 23.0568 66.5098 23.2436 62.4233L24.1193 62.4641C23.8683 67.4439 23.2261 70.0126 22.2045 70.0126Z" fill="#F67A45"/>
<path d="M17.0905 79.0732C14.3174 79.0732 12.8696 68.9911 12.8696 59.0257C12.8696 49.0604 14.3174 38.9783 17.0905 38.9783V39.854C15.6952 39.854 13.7453 47.1514 13.7453 59.0257C13.7453 70.9001 15.6952 78.1858 17.0905 78.1858V79.0732Z" fill="#F67A45"/>
<path d="M13.4768 67.3855C14.2761 67.5286 15.0876 67.5931 15.8995 67.5782C16.813 67.6424 17.7299 67.6424 18.6433 67.5782C18.7424 67.5782 18.8375 67.5388 18.9075 67.4687C18.9776 67.3987 19.017 67.3036 19.017 67.2045C19.017 67.1054 18.9776 67.0104 18.9075 66.9403C18.8375 66.8703 18.7424 66.8309 18.6433 66.8309C17.7311 66.7481 16.814 66.7325 15.8995 66.7842C15.0885 66.7593 14.2771 66.8141 13.4768 66.9477C13.4234 66.9563 13.3748 66.9836 13.3397 67.0248C13.3047 67.066 13.2854 67.1183 13.2854 67.1724C13.2854 67.2265 13.3047 67.2788 13.3397 67.32C13.3748 67.3612 13.4234 67.3886 13.4768 67.3972V67.3855Z" fill="#F67A45"/>
<path d="M13.2432 64.3556C14.0408 64.4969 14.8503 64.5595 15.6601 64.5424C16.5756 64.6066 17.4944 64.6066 18.4098 64.5424C18.4632 64.5491 18.5174 64.5443 18.5688 64.5284C18.6202 64.5125 18.6676 64.4859 18.708 64.4503C18.7483 64.4147 18.7806 64.3709 18.8027 64.3219C18.8248 64.2728 18.8363 64.2196 18.8363 64.1658C18.8363 64.112 18.8248 64.0589 18.8027 64.0098C18.7806 63.9608 18.7483 63.917 18.708 63.8814C18.6676 63.8458 18.6202 63.8192 18.5688 63.8033C18.5174 63.7874 18.4632 63.7826 18.4098 63.7893C17.4953 63.7114 16.5765 63.6978 15.6601 63.7484C14.8513 63.7247 14.0421 63.7775 13.2432 63.906C13.1917 63.9178 13.1456 63.9467 13.1126 63.9881C13.0796 64.0295 13.0616 64.0808 13.0616 64.1337C13.0616 64.1866 13.0796 64.238 13.1126 64.2794C13.1456 64.3207 13.1917 64.3497 13.2432 64.3614V64.3556Z" fill="#F67A45"/>
<path d="M22.222 79.1433L17.0846 79.0732C14.3174 79.0732 12.8696 68.9911 12.8696 59.0257C12.8696 49.0604 14.3174 38.9783 17.0905 38.9783H22.2278V39.854H17.0905C15.6952 39.854 13.7453 47.1514 13.7453 59.0257C13.7453 70.9001 15.6952 78.1858 17.0905 78.1858L22.2337 78.2559L22.222 79.1433Z" fill="#F67A45"/>
<path d="M13.4768 67.3855C14.2761 67.5286 15.0876 67.5931 15.8995 67.5782C16.813 67.6424 17.7299 67.6424 18.6433 67.5782C18.7424 67.5782 18.8375 67.5388 18.9075 67.4687C18.9776 67.3987 19.017 67.3036 19.017 67.2045C19.017 67.1054 18.9776 67.0104 18.9075 66.9403C18.8375 66.8703 18.7424 66.8309 18.6433 66.8309C17.7311 66.7481 16.814 66.7325 15.8995 66.7842C15.0885 66.7593 14.2771 66.8141 13.4768 66.9477C13.4234 66.9563 13.3748 66.9836 13.3397 67.0248C13.3047 67.066 13.2854 67.1183 13.2854 67.1724C13.2854 67.2265 13.3047 67.2788 13.3397 67.32C13.3748 67.3612 13.4234 67.3886 13.4768 67.3972V67.3855Z" fill="#F67A45"/>
<path d="M13.2432 64.3556C14.0408 64.4969 14.8503 64.5595 15.6601 64.5424C16.5756 64.6066 17.4944 64.6066 18.4098 64.5424C18.4632 64.5491 18.5174 64.5443 18.5688 64.5284C18.6202 64.5125 18.6676 64.4859 18.708 64.4503C18.7483 64.4147 18.7806 64.3709 18.8027 64.3219C18.8248 64.2728 18.8363 64.2196 18.8363 64.1658C18.8363 64.112 18.8248 64.0589 18.8027 64.0098C18.7806 63.9608 18.7483 63.917 18.708 63.8814C18.6676 63.8458 18.6202 63.8192 18.5688 63.8033C18.5174 63.7874 18.4632 63.7826 18.4098 63.7893C17.4953 63.7114 16.5765 63.6978 15.6601 63.7484C14.8513 63.7247 14.0421 63.7775 13.2432 63.906C13.1917 63.9178 13.1456 63.9467 13.1126 63.9881C13.0796 64.0295 13.0616 64.0808 13.0616 64.1337C13.0616 64.1866 13.0796 64.238 13.1126 64.2794C13.1456 64.3207 13.1917 64.3497 13.2432 64.3614V64.3556Z" fill="#F67A45"/>
<path d="M14.9479 67.0938C13.5818 67.1522 13.6052 70.2463 13.8737 71.0753C13.892 71.1197 13.9245 71.1567 13.9661 71.1806C14.0077 71.2045 14.0561 71.2138 14.1036 71.2071C14.1512 71.2004 14.1951 71.1781 14.2285 71.1436C14.2619 71.1092 14.283 71.0646 14.2882 71.0169C14.227 70.2524 14.2446 69.4835 14.3408 68.7226C14.5104 68.1897 14.7416 67.6783 15.0296 67.1989C15.0334 67.1864 15.0341 67.1732 15.0317 67.1604C15.0293 67.1476 15.0238 67.1356 15.0158 67.1253C15.0078 67.115 14.9975 67.1068 14.9857 67.1013C14.9739 67.0958 14.9609 67.0933 14.9479 67.0938Z" fill="#F67A45"/>
<path d="M15.1873 76.4345H11.6028C8.88817 76.4345 7.8782 66.0255 7.8782 59.0375C7.8782 52.0495 8.86482 41.658 11.5795 41.658H15.0822V42.5336H11.5795C10.4119 42.5336 8.75389 48.9554 8.75389 59.0375C8.75389 69.1196 10.4294 75.5413 11.5795 75.5413H15.1639L15.1873 76.4345Z" fill="#F67A45"/>
<path d="M8.46198 66.294C9.15351 66.4331 9.85851 66.4938 10.5636 66.475C11.3523 66.5421 12.1452 66.5421 12.9338 66.475C13.325 66.4283 13.5176 65.8036 13.0389 65.7394C12.2634 65.657 11.4824 65.6375 10.7037 65.681C9.94281 65.6522 9.18104 65.709 8.43279 65.8503C8.3812 65.8621 8.33513 65.891 8.30213 65.9324C8.26913 65.9737 8.25116 66.0251 8.25116 66.078C8.25116 66.1309 8.26913 66.1822 8.30213 66.2236C8.33513 66.265 8.3812 66.2939 8.43279 66.3057L8.46198 66.294Z" fill="#F67A45"/>
<path d="M8.26931 63.6728C8.96104 63.811 9.66572 63.8736 10.371 63.8596C11.1617 63.9239 11.9563 63.9239 12.747 63.8596C13.1323 63.8129 13.3308 63.1883 12.8521 63.1182C12.0763 63.0392 11.2957 63.0197 10.5169 63.0598C9.75598 63.0313 8.99425 63.0881 8.24596 63.2291C8.19437 63.2409 8.1483 63.2698 8.1153 63.3112C8.0823 63.3525 8.06433 63.4039 8.06433 63.4568C8.06433 63.5097 8.0823 63.5611 8.1153 63.6024C8.1483 63.6438 8.19437 63.6727 8.24596 63.6845L8.26931 63.6728Z" fill="#F67A45"/>
<path d="M8.46198 66.294C9.15351 66.4331 9.85851 66.4938 10.5636 66.475C11.3523 66.5421 12.1452 66.5421 12.9338 66.475C13.325 66.4283 13.5176 65.8036 13.0389 65.7394C12.2634 65.657 11.4824 65.6375 10.7037 65.681C9.94281 65.6522 9.18104 65.709 8.43279 65.8503C8.3812 65.8621 8.33513 65.891 8.30213 65.9324C8.26913 65.9737 8.25116 66.0251 8.25116 66.078C8.25116 66.1309 8.26913 66.1822 8.30213 66.2236C8.33513 66.265 8.3812 66.2939 8.43279 66.3057L8.46198 66.294Z" fill="#F67A45"/>
<path d="M8.26931 63.6728C8.96104 63.811 9.66572 63.8736 10.371 63.8596C11.1617 63.9239 11.9563 63.9239 12.747 63.8596C13.1323 63.8129 13.3308 63.1883 12.8521 63.1182C12.0763 63.0392 11.2957 63.0197 10.5169 63.0598C9.75598 63.0313 8.99425 63.0881 8.24596 63.2291C8.19437 63.2409 8.1483 63.2698 8.1153 63.3112C8.0823 63.3525 8.06433 63.4039 8.06433 63.4568C8.06433 63.5097 8.0823 63.5611 8.1153 63.6024C8.1483 63.6438 8.19437 63.6727 8.24596 63.6845L8.26931 63.6728Z" fill="#F67A45"/>
<path d="M3.75075 65.0329C4.36369 65.1823 4.9942 65.2471 5.62473 65.2255C6.26082 65.2762 6.9004 65.2625 7.53373 65.1846C7.61542 65.1665 7.68848 65.121 7.74084 65.0558C7.79321 64.9905 7.82174 64.9093 7.82174 64.8256C7.82174 64.7419 7.79321 64.6608 7.74084 64.5955C7.68848 64.5302 7.61542 64.4847 7.53373 64.4666C6.90099 64.3829 6.26141 64.3634 5.62473 64.4082C4.99521 64.3761 4.36433 64.4331 3.75075 64.5775C3.69916 64.5893 3.65309 64.6182 3.62009 64.6596C3.58709 64.7009 3.56912 64.7523 3.56912 64.8052C3.56912 64.8581 3.58709 64.9094 3.62009 64.9508C3.65309 64.9922 3.69916 65.0211 3.75075 65.0329Z" fill="#F67A45"/>
<path d="M3.5873 62.8845C4.1978 63.0365 4.82675 63.1014 5.45544 63.0771C6.09142 63.1268 6.73071 63.1151 7.36444 63.0421C7.44481 63.0215 7.51605 62.9748 7.56692 62.9092C7.61779 62.8437 7.6454 62.7631 7.6454 62.6801C7.6454 62.5972 7.61779 62.5166 7.56692 62.4511C7.51605 62.3855 7.44481 62.3388 7.36444 62.3182C6.7317 62.2345 6.09211 62.2149 5.45544 62.2598C4.82792 62.2307 4.19937 62.2877 3.5873 62.4291C3.53571 62.4409 3.48964 62.4698 3.45664 62.5112C3.42364 62.5525 3.40567 62.6039 3.40567 62.6568C3.40567 62.7097 3.42364 62.7611 3.45664 62.8024C3.48964 62.8438 3.53571 62.8727 3.5873 62.8845Z" fill="#F67A45"/>
<path d="M9.6646 73.3636H6.3253C3.86753 73.3636 3.21368 64.0229 3.21368 59.049C3.21368 54.0751 3.86753 44.7344 6.3253 44.7344V45.6101C5.56637 45.6101 4.08937 50.3505 4.08937 59.0373C4.08937 67.7242 5.56637 72.4646 6.3253 72.4646H9.6646V73.3636Z" fill="#F67A45"/>
<path d="M9.8339 44.9097C9.28513 44.5244 8.36858 44.6237 7.72641 44.6528C7.17764 44.6528 6.2027 44.5186 5.8174 44.9798C5.76355 45.0353 5.73343 45.1097 5.73343 45.187C5.73343 45.2644 5.76355 45.3387 5.8174 45.3943C6.2027 45.8555 7.1718 45.6978 7.72641 45.7212C8.28101 45.7445 9.28513 45.8438 9.8339 45.4585C9.88247 45.431 9.92288 45.3911 9.95099 45.3429C9.97911 45.2947 9.99392 45.2399 9.99392 45.1841C9.99392 45.1283 9.97911 45.0735 9.95099 45.0253C9.92288 44.9771 9.88247 44.9372 9.8339 44.9097Z" fill="#F67A45"/>
<path d="M3.79164 65.033C4.49492 65.1726 5.21158 65.2333 5.92833 65.2139C6.73073 65.2782 7.53699 65.2782 8.33939 65.2139C8.7247 65.1672 8.92319 64.5367 8.44448 64.4783C7.66897 64.3953 6.88798 64.3758 6.1093 64.42C5.32698 64.386 4.54337 64.4428 3.77413 64.5893C3.72254 64.601 3.67647 64.63 3.64347 64.6713C3.61047 64.7127 3.5925 64.764 3.5925 64.8169C3.5925 64.8699 3.61047 64.9212 3.64347 64.9626C3.67647 65.0039 3.72254 65.0329 3.77413 65.0446L3.79164 65.033Z" fill="#F67A45"/>
<path d="M3.5873 62.8845C4.28884 63.0229 5.00322 63.0856 5.71814 63.0713C6.52249 63.1356 7.33069 63.1356 8.13505 63.0713C8.52035 63.0246 8.71884 62.4 8.24013 62.3358C7.46444 62.2556 6.68368 62.2361 5.90495 62.2774C5.12269 62.2467 4.33943 62.3034 3.56978 62.4467C3.51819 62.4584 3.47212 62.4874 3.43912 62.5287C3.40612 62.5701 3.38815 62.6215 3.38815 62.6744C3.38815 62.7273 3.40612 62.7786 3.43912 62.82C3.47212 62.8614 3.51819 62.8903 3.56978 62.9021L3.5873 62.8845Z" fill="#F67A45"/>
<path d="M14.9187 67.3564C14.9261 67.3436 14.93 67.329 14.9298 67.3142C14.9295 67.2994 14.9253 67.2849 14.9175 67.2724C14.9097 67.2598 14.8987 67.2495 14.8855 67.2427C14.8724 67.2359 14.8576 67.2329 14.8428 67.2338C14.7112 67.2489 14.5854 67.2962 14.4764 67.3716C14.3674 67.4469 14.2787 67.548 14.2182 67.6658L14.2532 67.4323C14.2625 67.3959 14.2569 67.3573 14.2378 67.325C14.2186 67.2927 14.1874 67.2694 14.151 67.2601C14.1146 67.2508 14.0761 67.2563 14.0438 67.2755C14.0115 67.2946 13.9881 67.3259 13.9788 67.3622C13.8713 67.5581 13.8265 67.7823 13.8504 68.0044C13.8569 68.0229 13.8675 68.0397 13.8815 68.0534C13.8954 68.0672 13.9124 68.0776 13.931 68.0838C13.9496 68.09 13.9693 68.0918 13.9887 68.0892C14.0082 68.0866 14.0267 68.0795 14.043 68.0686L13.9555 68.3488C13.6751 69.2383 13.6468 70.1881 13.8737 71.0927C13.892 71.1371 13.9245 71.1741 13.9661 71.198C14.0077 71.2219 14.0561 71.2312 14.1036 71.2245C14.1512 71.2178 14.1951 71.1955 14.2285 71.161C14.2619 71.1266 14.283 71.082 14.2882 71.0343C14.2211 70.3178 14.2211 69.5966 14.2882 68.8801C14.4252 68.3449 14.6375 67.8319 14.9187 67.3564Z" fill="#F67A45"/>
<path d="M9.66459 66.113C9.57087 66.1126 9.47813 66.1322 9.39257 66.1705C9.307 66.2087 9.23057 66.2648 9.16837 66.3349C9.16837 66.3349 9.16837 66.294 9.16837 66.2707C9.16837 66.113 8.94069 66.1014 8.89398 66.2356C8.78963 66.4112 8.75036 66.6178 8.78306 66.8194C8.78935 66.8385 8.80002 66.8558 8.81421 66.87C8.82841 66.8842 8.84573 66.8949 8.86479 66.9012C8.62625 67.7439 8.60216 68.6329 8.79474 69.4874C8.81033 69.5333 8.84133 69.5725 8.88249 69.5981C8.92366 69.6238 8.97244 69.6345 9.02056 69.6283C9.06869 69.6221 9.11319 69.5995 9.14651 69.5642C9.17984 69.5289 9.19994 69.4832 9.20339 69.4348C9.16254 68.7768 9.18012 68.1165 9.25594 67.4616C9.38497 67.0427 9.54699 66.6347 9.74048 66.2415C9.76967 66.1656 9.71129 66.113 9.66459 66.113Z" fill="#F67A45"/>
<path d="M4.76072 64.8345C4.68957 64.8205 4.61613 64.8232 4.54621 64.8424C4.47629 64.8617 4.41182 64.897 4.3579 64.9455C4.3579 64.817 4.13606 64.817 4.08935 64.9455C4.00219 65.0845 3.96896 65.2506 3.99595 65.4125C3.99955 65.4264 4.00611 65.4393 4.01518 65.4504C4.02425 65.4614 4.03561 65.4704 4.04849 65.4767C3.85475 66.1717 3.83669 66.9039 3.99595 67.6076C4.01153 67.6535 4.04254 67.6926 4.0837 67.7183C4.12486 67.744 4.17365 67.7547 4.22177 67.7485C4.2699 67.7423 4.3144 67.7196 4.34772 67.6844C4.38105 67.6491 4.40114 67.6034 4.4046 67.555C4.38231 67.0175 4.39792 66.4791 4.45131 65.9437C4.48405 65.7259 4.54693 65.5137 4.63812 65.3132C4.71984 65.1994 4.7829 65.0733 4.82493 64.9396C4.83022 64.9172 4.82644 64.8936 4.81442 64.8739C4.80239 64.8542 4.7831 64.8401 4.76072 64.8345Z" fill="#F67A45"/>
<path d="M1.56739 64.7879C0.212993 64.7879 0.10791 60.4211 0.10791 59.0784C0.10791 57.7357 0.212993 53.3689 1.56739 53.3689V54.2504C1.60864 54.2488 1.6488 54.2367 1.68415 54.2154C1.4448 54.4197 0.9836 56.1069 0.9836 59.0842C0.9836 62.0616 1.4448 63.7546 1.68415 63.9531C1.6488 63.9317 1.60864 63.9197 1.56739 63.918V64.7879Z" fill="#F67A45"/>
<path d="M1.14705 64.5074C1.43311 64.8693 2.0636 64.8518 2.4781 64.8576C2.98921 64.9357 3.5118 64.8814 3.99596 64.7C4.05436 64.6677 4.10304 64.6203 4.13693 64.5628C4.17083 64.5053 4.18871 64.4398 4.18871 64.3731C4.18871 64.3063 4.17083 64.2408 4.13693 64.1833C4.10304 64.1258 4.05436 64.0785 3.99596 64.0462C3.52643 63.8988 3.0309 63.853 2.54231 63.9119C2.13366 63.9119 1.53819 63.8185 1.20543 64.087C1.14925 64.1399 1.11284 64.2105 1.10222 64.2869C1.0916 64.3634 1.10742 64.4411 1.14705 64.5074Z" fill="#F67A45"/>
<path d="M4.11857 53.6198C3.84419 53.2695 3.28375 53.2637 2.86925 53.2637C2.39467 53.2694 1.92089 53.3045 1.45064 53.3688C1.35317 53.3947 1.26709 53.4523 1.2059 53.5325C1.1447 53.6127 1.11186 53.7109 1.11253 53.8118C1.1132 53.9126 1.14734 54.0104 1.20959 54.0898C1.27184 54.1692 1.35867 54.2256 1.45647 54.2503C1.92642 54.3174 2.40039 54.3525 2.87509 54.3554C3.28959 54.3554 3.85003 54.3554 4.12441 54.0051C4.16188 53.9467 4.1818 53.8789 4.1818 53.8095C4.1818 53.7402 4.16188 53.6723 4.12441 53.614L4.11857 53.6198Z" fill="#F67A45"/>
<path d="M22.8934 62.8555C22.6365 62.8555 21.9593 62.8555 21.9593 59.2009C21.9593 55.5464 22.6365 55.5464 22.8934 55.5464V56.4221C22.9407 56.4229 22.9877 56.4134 23.0311 56.3942C23.0744 56.3751 23.1131 56.3467 23.1444 56.3112C22.881 57.2505 22.7764 58.2272 22.835 59.2009C22.7743 60.1844 22.8788 61.171 23.1444 62.1199C23.1142 62.083 23.0757 62.0537 23.0321 62.0345C22.9885 62.0152 22.941 62.0065 22.8934 62.009V62.8555Z" fill="#F67A45"/>
<path d="M23.7691 62.7386C24.8013 62.8633 25.8422 62.9004 26.8807 62.8495C29.3385 62.8787 31.7962 62.9079 34.254 62.9079C39.8176 62.9079 45.3811 62.9079 50.9447 62.8671C51.8495 62.8671 52.7603 62.8671 53.6651 62.8262C53.9425 62.8173 54.2192 62.794 54.4941 62.7561C54.5934 62.7561 54.9378 62.6686 54.7218 62.6802C54.7884 62.6802 54.8522 62.6538 54.8993 62.6067C54.9464 62.5596 54.9728 62.4958 54.9728 62.4292C54.9728 62.3626 54.9464 62.2988 54.8993 62.2517C54.8522 62.2046 54.7884 62.1782 54.7218 62.1782C54.4642 62.1097 54.2 62.0686 53.9337 62.0556C53.1981 62.003 52.4509 62.0147 51.7094 62.0089C49.2984 62.0089 46.8815 61.968 44.4704 61.968C38.9302 61.968 33.3783 61.968 27.844 61.968C26.5187 61.968 25.1935 62.0206 23.8625 62.0381C23.4713 62.0381 23.3487 62.6219 23.7691 62.7153V62.7386Z" fill="#F67A45"/>
<path d="M23.5881 56.3053C23.6335 56.3114 23.6797 56.3078 23.7236 56.2946C23.7675 56.2815 23.808 56.2591 23.8425 56.2289C23.877 56.1988 23.9047 56.1616 23.9236 56.1199C23.9426 56.0782 23.9524 56.0329 23.9524 55.9871C23.9524 55.9413 23.9426 55.896 23.9236 55.8543C23.9047 55.8126 23.877 55.7754 23.8425 55.7453C23.808 55.7151 23.7675 55.6927 23.7236 55.6796C23.6797 55.6664 23.6335 55.6628 23.5881 55.6689C23.5427 55.6628 23.4965 55.6664 23.4526 55.6796C23.4087 55.6927 23.3682 55.7151 23.3337 55.7453C23.2992 55.7754 23.2715 55.8126 23.2526 55.8543C23.2336 55.896 23.2238 55.9413 23.2238 55.9871C23.2238 56.0329 23.2336 56.0782 23.2526 56.1199C23.2715 56.1616 23.2992 56.1988 23.3337 56.2289C23.3682 56.2591 23.4087 56.2815 23.4526 56.2946C23.4965 56.3078 23.5427 56.3114 23.5881 56.3053Z" fill="#F67A45"/>
<path d="M23.0218 56.6262C23.2553 56.1066 22.6774 56.3927 23.0218 56.3869C23.2086 56.3869 23.4013 56.3869 23.6056 56.3869H25.824H33.355H50.6761C52.0363 56.3869 53.4083 56.4452 54.7627 56.3869C55.3465 56.3577 55.3465 55.5287 54.7627 55.5579C51.2015 55.733 47.582 55.5579 44.015 55.5579C38.3328 55.5579 32.6525 55.5579 26.9741 55.5579C25.6255 55.5579 24.2303 55.6571 22.8875 55.5579C22.8119 55.5557 22.7371 55.5735 22.6705 55.6093C22.6039 55.6452 22.5479 55.6979 22.5081 55.7622L22.3096 56.2117C22.0819 56.7138 22.8467 57.1166 23.0627 56.6321L23.0218 56.6262Z" fill="#F67A45"/>
<path d="M29.6479 61.9797H22.8992V62.8554H29.6479V61.9797Z" fill="#F67A45"/>
<path d="M22.292 58.6814C23.5301 58.8245 24.7765 58.883 26.0225 58.8566C27.2723 58.9552 28.5292 58.9161 29.7704 58.7398C29.8292 58.7272 29.8819 58.6948 29.9197 58.6481C29.9574 58.6013 29.9781 58.543 29.9781 58.4829C29.9781 58.4228 29.9574 58.3645 29.9197 58.3178C29.8819 58.271 29.8292 58.2387 29.7704 58.2261C28.5289 58.0528 27.2724 58.0136 26.0225 58.1093C24.7765 58.0858 23.5303 58.1443 22.292 58.2844C22.2476 58.2953 22.2081 58.3208 22.1798 58.3568C22.1516 58.3928 22.1362 58.4372 22.1362 58.4829C22.1362 58.5287 22.1516 58.5731 22.1798 58.6091C22.2081 58.6451 22.2476 58.6706 22.292 58.6814Z" fill="#F67A45"/>
<path d="M54.7218 58.2786C51.0556 58.01 47.3426 58.1385 43.6706 58.1093C39.9985 58.0801 36.2389 57.7882 32.6194 58.2202C32.5812 58.2145 32.5422 58.2171 32.5052 58.2279C32.4681 58.2386 32.4337 58.2572 32.4045 58.2824C32.3753 58.3076 32.3518 58.3389 32.3357 58.374C32.3197 58.4091 32.3113 58.4472 32.3113 58.4858C32.3113 58.5244 32.3197 58.5626 32.3357 58.5977C32.3518 58.6328 32.3753 58.664 32.4045 58.6892C32.4337 58.7144 32.4681 58.733 32.5052 58.7437C32.5422 58.7545 32.5812 58.7571 32.6194 58.7514C36.2389 59.1834 40.0335 58.8799 43.6706 58.8565C47.3076 58.8332 51.0556 58.9616 54.7218 58.6872C54.7486 58.6872 54.7752 58.6819 54.8 58.6717C54.8248 58.6614 54.8473 58.6463 54.8663 58.6274C54.8852 58.6084 54.9003 58.5859 54.9106 58.5611C54.9208 58.5363 54.9261 58.5097 54.9261 58.4829C54.9261 58.4561 54.9208 58.4295 54.9106 58.4047C54.9003 58.3799 54.8852 58.3574 54.8663 58.3384C54.8473 58.3194 54.8248 58.3044 54.8 58.2941C54.7752 58.2838 54.7486 58.2786 54.7218 58.2786Z" fill="#F67A45"/>
<path d="M27.7272 58.0217C27.7334 58.0242 27.7401 58.0251 27.7467 58.0244C27.7534 58.0236 27.7597 58.0213 27.7653 58.0176C27.7708 58.0138 27.7753 58.0088 27.7784 58.0029C27.7816 57.997 27.7832 57.9904 27.7832 57.9837C27.7832 57.9771 27.7816 57.9705 27.7784 57.9646C27.7753 57.9587 27.7708 57.9536 27.7653 57.9499C27.7597 57.9462 27.7534 57.9438 27.7467 57.9431C27.7401 57.9424 27.7334 57.9433 27.7272 57.9458C27.721 57.9433 27.7143 57.9424 27.7076 57.9431C27.701 57.9438 27.6946 57.9462 27.6891 57.9499C27.6836 57.9536 27.679 57.9587 27.6759 57.9646C27.6728 57.9705 27.6711 57.9771 27.6711 57.9837C27.6711 57.9904 27.6728 57.997 27.6759 58.0029C27.679 58.0088 27.6836 58.0138 27.6891 58.0176C27.6946 58.0213 27.701 58.0236 27.7076 58.0244C27.7143 58.0251 27.721 58.0242 27.7272 58.0217Z" fill="#F67A45"/>
<path d="M86.305 79.1434C83.6429 79.1434 82.3994 70.153 82.1484 62.4528L83.0183 62.4236C83.3627 72.7626 85.1491 78.2677 86.305 78.2677C87.7003 78.2677 89.6501 70.9762 89.6501 59.096C89.6501 47.2158 87.7003 39.8308 86.305 39.8308C85.1374 39.8308 83.3393 45.441 83.0124 55.9785L82.1367 55.9493C82.3294 49.6385 83.4269 38.9551 86.305 38.9551C89.078 38.9551 90.5258 49.0781 90.5258 59.0726C90.5258 69.0671 89.078 79.1434 86.305 79.1434Z" fill="#F67A45"/>
<path d="M86.3284 70.0128C85.3126 70.0128 84.6704 67.4733 84.4194 62.4702L85.2951 62.4294C85.4994 66.5159 86.0073 68.5592 86.3342 69.0554C86.8188 68.3374 87.4493 64.6653 87.4493 59.1309C87.4493 53.5966 86.8188 49.9303 86.3342 49.2064C86.0306 49.691 85.4877 51.7051 85.2834 56.031L84.4077 55.9901C84.647 50.8527 85.2951 48.249 86.3284 48.249C88.2257 48.249 88.3249 57.3153 88.3249 59.1309C88.3249 60.9465 88.2257 70.0128 86.3284 70.0128Z" fill="#F67A45"/>
<path d="M91.4482 79.0732V78.1858C92.8435 78.1858 94.7875 70.8942 94.7875 59.014C94.7875 47.1338 92.8435 39.8422 91.4482 39.8422V38.9666C94.2154 38.9666 95.6632 49.0545 95.6632 59.014C95.6632 68.9735 94.2154 79.0732 91.4482 79.0732Z" fill="#F67A45"/>
<path d="M95.0561 66.9359C94.2578 66.8023 93.4482 66.7476 92.6392 66.7725C91.7247 66.7208 90.8076 66.7364 89.8954 66.8192C89.7963 66.8192 89.7012 66.8586 89.6312 66.9286C89.5611 66.9987 89.5217 67.0937 89.5217 67.1928C89.5217 67.2919 89.5611 67.3869 89.6312 67.457C89.7012 67.5271 89.7963 67.5664 89.8954 67.5664C90.8088 67.6307 91.7257 67.6307 92.6392 67.5664C93.4492 67.5814 94.2587 67.5168 95.0561 67.3738C95.1095 67.3652 95.1581 67.3378 95.1931 67.2966C95.2282 67.2554 95.2474 67.2031 95.2474 67.149C95.2474 67.0949 95.2282 67.0426 95.1931 67.0014C95.1581 66.9603 95.1095 66.9329 95.0561 66.9243V66.9359Z" fill="#F67A45"/>
<path d="M95.2955 63.9004C94.4946 63.7719 93.6835 63.7191 92.8727 63.7428C91.9583 63.6922 91.0414 63.7058 90.1289 63.7837C90.0755 63.777 90.0213 63.7818 89.9699 63.7977C89.9185 63.8135 89.8711 63.8402 89.8308 63.8758C89.7904 63.9114 89.7581 63.9552 89.736 64.0042C89.7139 64.0532 89.7025 64.1064 89.7025 64.1602C89.7025 64.214 89.7139 64.2672 89.736 64.3162C89.7581 64.3653 89.7904 64.4091 89.8308 64.4447C89.8711 64.4803 89.9185 64.5069 89.9699 64.5228C90.0213 64.5387 90.0755 64.5434 90.1289 64.5368C91.0424 64.601 91.9592 64.601 92.8727 64.5368C93.6846 64.5568 94.4963 64.4942 95.2955 64.35C95.3471 64.3382 95.3931 64.3093 95.4261 64.2679C95.4591 64.2265 95.4771 64.1752 95.4771 64.1223C95.4771 64.0694 95.4591 64.018 95.4261 63.9767C95.3931 63.9353 95.3471 63.9064 95.2955 63.8946V63.9004Z" fill="#F67A45"/>
<path d="M86.3109 79.1433V78.2676L91.4541 78.1975C92.8552 78.1975 94.7992 70.9059 94.7992 59.0257C94.7992 47.1455 92.8552 39.854 91.4599 39.854H86.3167V38.9783H91.4599C94.2271 38.9783 95.6749 49.0662 95.6749 59.0257C95.6749 68.9853 94.2271 79.0732 91.4599 79.0732L86.3109 79.1433Z" fill="#F67A45"/>
<path d="M95.0561 66.9359C94.2578 66.8023 93.4482 66.7476 92.6392 66.7725C91.7247 66.7208 90.8076 66.7364 89.8954 66.8192C89.7963 66.8192 89.7012 66.8586 89.6312 66.9286C89.5611 66.9987 89.5217 67.0937 89.5217 67.1928C89.5217 67.2919 89.5611 67.3869 89.6312 67.457C89.7012 67.5271 89.7963 67.5664 89.8954 67.5664C90.8088 67.6307 91.7257 67.6307 92.6392 67.5664C93.4492 67.5814 94.2587 67.5168 95.0561 67.3738C95.1095 67.3652 95.1581 67.3378 95.1931 67.2966C95.2282 67.2554 95.2474 67.2031 95.2474 67.149C95.2474 67.0949 95.2282 67.0426 95.1931 67.0014C95.1581 66.9603 95.1095 66.9329 95.0561 66.9243V66.9359Z" fill="#F67A45"/>
<path d="M95.2955 63.9004C94.4946 63.7719 93.6835 63.7191 92.8727 63.7428C91.9583 63.6922 91.0414 63.7058 90.1289 63.7837C90.0755 63.777 90.0213 63.7818 89.9699 63.7977C89.9185 63.8135 89.8711 63.8402 89.8308 63.8758C89.7904 63.9114 89.7581 63.9552 89.736 64.0042C89.7139 64.0532 89.7025 64.1064 89.7025 64.1602C89.7025 64.214 89.7139 64.2672 89.736 64.3162C89.7581 64.3653 89.7904 64.4091 89.8308 64.4447C89.8711 64.4803 89.9185 64.5069 89.9699 64.5228C90.0213 64.5387 90.0755 64.5434 90.1289 64.5368C91.0424 64.601 91.9592 64.601 92.8727 64.5368C93.6846 64.5568 94.4963 64.4942 95.2955 64.35C95.3471 64.3382 95.3931 64.3093 95.4261 64.2679C95.4591 64.2265 95.4771 64.1752 95.4771 64.1223C95.4771 64.0694 95.4591 64.018 95.4261 63.9767C95.3931 63.9353 95.3471 63.9064 95.2955 63.8946V63.9004Z" fill="#F67A45"/>
<path d="M93.5908 67.0937C94.9569 67.152 94.9277 70.2462 94.6591 71.0751C94.6432 71.1214 94.6117 71.1606 94.57 71.1861C94.5284 71.2116 94.4791 71.2217 94.4307 71.2148C94.3823 71.2079 94.3379 71.1843 94.305 71.1482C94.2721 71.1121 94.2528 71.0656 94.2505 71.0168C94.3127 70.2521 94.2931 69.483 94.1921 68.7224C94.0225 68.1895 93.7913 67.6782 93.5032 67.1987C93.5032 67.1462 93.5441 67.0878 93.5908 67.0937Z" fill="#F67A45"/>
<path d="M96.9301 76.4344H93.3456V75.5587H96.9301C98.0977 75.5587 99.7615 69.1369 99.7615 59.0548C99.7615 48.9727 98.086 42.551 96.9301 42.551H93.4273V41.6753H96.9301C99.6506 41.6753 100.637 52.0668 100.637 59.0548C100.637 66.0428 99.6506 76.4344 96.9301 76.4344Z" fill="#F67A45"/>
<path d="M100.059 65.8386C99.3109 65.6971 98.5491 65.6403 97.7882 65.6693C97.0192 65.6275 96.2481 65.647 95.4822 65.7277C94.9977 65.7919 95.1962 66.4166 95.5873 66.4633C96.3779 66.5306 97.1728 66.5306 97.9633 66.4633C98.6665 66.4824 99.3696 66.4217 100.059 66.2823C100.111 66.2706 100.157 66.2416 100.19 66.2003C100.223 66.1589 100.241 66.1076 100.241 66.0547C100.241 66.0017 100.223 65.9504 100.19 65.909C100.157 65.8677 100.111 65.8387 100.059 65.827V65.8386Z" fill="#F67A45"/>
<path d="M100.264 63.2174C99.5153 63.0761 98.7535 63.0193 97.9926 63.0481C97.2138 63.0076 96.4331 63.0271 95.6574 63.1065C95.1728 63.1766 95.3713 63.7954 95.7625 63.8479C96.5512 63.9122 97.3439 63.9122 98.1327 63.8479C98.8379 63.8622 99.5426 63.7995 100.234 63.6611C100.286 63.6493 100.332 63.6204 100.365 63.5791C100.398 63.5377 100.416 63.4863 100.416 63.4334C100.416 63.3805 100.398 63.3292 100.365 63.2878C100.332 63.2464 100.286 63.2175 100.234 63.2057L100.264 63.2174Z" fill="#F67A45"/>
<path d="M100.059 65.8386C99.3109 65.6971 98.5491 65.6403 97.7882 65.6693C97.0192 65.6275 96.2481 65.647 95.4822 65.7277C94.9977 65.7919 95.1962 66.4166 95.5873 66.4633C96.3779 66.5306 97.1728 66.5306 97.9633 66.4633C98.6665 66.4824 99.3696 66.4217 100.059 66.2823C100.111 66.2706 100.157 66.2416 100.19 66.2003C100.223 66.1589 100.241 66.1076 100.241 66.0547C100.241 66.0017 100.223 65.9504 100.19 65.909C100.157 65.8677 100.111 65.8387 100.059 65.827V65.8386Z" fill="#F67A45"/>
<path d="M100.264 63.2174C99.5153 63.0761 98.7535 63.0193 97.9926 63.0481C97.2138 63.0076 96.4331 63.0271 95.6574 63.1065C95.1728 63.1766 95.3713 63.7954 95.7625 63.8479C96.5512 63.9122 97.3439 63.9122 98.1327 63.8479C98.8379 63.8622 99.5426 63.7995 100.234 63.6611C100.286 63.6493 100.332 63.6204 100.365 63.5791C100.398 63.5377 100.416 63.4863 100.416 63.4334C100.416 63.3805 100.398 63.3292 100.365 63.2878C100.332 63.2464 100.286 63.2175 100.234 63.2057L100.264 63.2174Z" fill="#F67A45"/>
<path d="M104.788 64.5776C104.176 64.4332 103.547 64.3762 102.92 64.4083C102.283 64.3633 101.644 64.3829 101.011 64.4666C100.929 64.4848 100.856 64.5303 100.804 64.5955C100.751 64.6608 100.723 64.742 100.723 64.8257C100.723 64.9094 100.751 64.9905 100.804 65.0558C100.856 65.1211 100.929 65.1665 101.011 65.1847C101.644 65.2625 102.284 65.2762 102.92 65.2256C103.548 65.2469 104.177 65.1821 104.788 65.0329C104.839 65.0212 104.886 64.9922 104.919 64.9509C104.952 64.9095 104.97 64.8582 104.97 64.8052C104.97 64.7523 104.952 64.701 104.919 64.6596C104.886 64.6182 104.839 64.5893 104.788 64.5776Z" fill="#F67A45"/>
<path d="M104.951 62.4234C104.337 62.282 103.707 62.225 103.077 62.2541C102.441 62.2093 101.801 62.2289 101.168 62.3125C101.088 62.3331 101.017 62.3798 100.966 62.4454C100.915 62.5109 100.887 62.5915 100.887 62.6745C100.887 62.7574 100.915 62.838 100.966 62.9036C101.017 62.9691 101.088 63.0159 101.168 63.0364C101.802 63.1094 102.441 63.1212 103.077 63.0715C103.708 63.096 104.339 63.0312 104.951 62.8788C105.003 62.867 105.049 62.8381 105.082 62.7968C105.115 62.7554 105.133 62.704 105.133 62.6511C105.133 62.5982 105.115 62.5469 105.082 62.5055C105.049 62.4641 105.003 62.4352 104.951 62.4234Z" fill="#F67A45"/>
<path d="M102.208 73.3637H98.8741V72.488H102.208C102.966 72.488 104.443 67.7418 104.443 59.0608C104.443 50.3797 102.966 45.6335 102.208 45.6335V44.7578C104.671 44.7578 105.319 54.0985 105.319 59.0724C105.319 64.0463 104.671 73.3637 102.208 73.3637Z" fill="#F67A45"/>
<path d="M98.7048 45.4935C99.2536 45.8846 100.17 45.7854 100.812 45.7562C101.361 45.7562 102.336 45.8904 102.715 45.4293C102.743 45.4021 102.765 45.3698 102.779 45.3343C102.794 45.2987 102.802 45.2605 102.802 45.222C102.802 45.1835 102.794 45.1453 102.779 45.1097C102.765 45.0742 102.743 45.0419 102.715 45.0148C102.33 44.5477 101.361 44.7112 100.812 44.6878C100.176 44.6878 99.2477 44.5652 98.7048 44.9447C98.6562 44.9722 98.6158 45.0121 98.5877 45.0603C98.5596 45.1085 98.5448 45.1633 98.5448 45.2191C98.5448 45.2749 98.5596 45.3297 98.5877 45.3779C98.6158 45.4261 98.6562 45.466 98.7048 45.4935Z" fill="#F67A45"/>
<path d="M104.741 64.5775C103.982 64.4331 103.208 64.3763 102.435 64.4082C101.657 64.3637 100.876 64.3832 100.1 64.4666C99.6155 64.525 99.8081 65.1555 100.205 65.2022C101.008 65.2664 101.814 65.2664 102.616 65.2022C103.331 65.2213 104.046 65.1606 104.747 65.0212C104.799 65.0094 104.845 64.9805 104.878 64.9391C104.911 64.8978 104.929 64.8464 104.929 64.7935C104.929 64.7406 104.911 64.6893 104.878 64.6479C104.845 64.6065 104.799 64.5776 104.747 64.5658L104.741 64.5775Z" fill="#F67A45"/>
<path d="M104.951 62.4235C104.191 62.2824 103.418 62.2256 102.645 62.2542C101.867 62.2129 101.086 62.2324 100.31 62.3126C99.8256 62.3768 100.024 63.0015 100.415 63.0482C101.218 63.1124 102.024 63.1124 102.826 63.0482C103.543 63.0624 104.26 62.9998 104.963 62.8613C105.015 62.8496 105.061 62.8207 105.094 62.7793C105.127 62.7379 105.145 62.6866 105.145 62.6337C105.145 62.5807 105.127 62.5294 105.094 62.488C105.061 62.4467 105.015 62.4177 104.963 62.406L104.951 62.4235Z" fill="#F67A45"/>
<path d="M93.62 67.3564C93.6125 67.3436 93.6087 67.329 93.6089 67.3142C93.6091 67.2994 93.6134 67.2849 93.6212 67.2724C93.6289 67.2598 93.64 67.2495 93.6532 67.2427C93.6663 67.2359 93.6811 67.2329 93.6959 67.2338C93.8271 67.2478 93.9526 67.2947 94.0608 67.3703C94.169 67.4458 94.2563 67.5475 94.3147 67.6658C94.3147 67.5899 94.3147 67.514 94.2855 67.4323C94.2816 67.3987 94.2899 67.3649 94.309 67.3369C94.3281 67.309 94.3566 67.289 94.3893 67.2804C94.422 67.2719 94.4567 67.2755 94.487 67.2905C94.5172 67.3056 94.5411 67.331 94.554 67.3622C94.6658 67.5566 94.7128 67.7815 94.6883 68.0044C94.6811 68.0231 94.6698 68.0399 94.6553 68.0536C94.6408 68.0674 94.6234 68.0777 94.6044 68.0838C94.5853 68.09 94.5652 68.0918 94.5454 68.0892C94.5256 68.0866 94.5066 68.0795 94.4898 68.0686C94.5248 68.162 94.554 68.2613 94.5774 68.3488C94.8608 69.2378 94.8892 70.1884 94.6591 71.0927C94.6432 71.1389 94.6117 71.1781 94.57 71.2036C94.5283 71.2291 94.479 71.2393 94.4307 71.2323C94.3823 71.2254 94.3378 71.2019 94.3049 71.1657C94.2721 71.1296 94.2528 71.0831 94.2505 71.0343C94.3176 70.3178 94.3176 69.5966 94.2505 68.8801C94.1134 68.3449 93.9012 67.8319 93.62 67.3564Z" fill="#F67A45"/>
<path d="M98.8741 66.113C98.9678 66.113 99.0604 66.1328 99.1459 66.171C99.2314 66.2092 99.3079 66.2651 99.3703 66.3349C99.3703 66.3349 99.3703 66.294 99.3703 66.2707C99.3703 66.113 99.598 66.1014 99.6447 66.2356C99.7535 66.4095 99.7951 66.6171 99.7615 66.8194C99.7551 66.8394 99.7437 66.8574 99.7283 66.8717C99.713 66.886 99.6943 66.8962 99.6739 66.9012C99.9162 67.7433 99.9403 68.6333 99.744 69.4874C99.7284 69.5333 99.6974 69.5724 99.6562 69.5981C99.615 69.6238 99.5663 69.6345 99.5181 69.6283C99.47 69.6221 99.4255 69.5995 99.3922 69.5642C99.3589 69.5289 99.3388 69.4832 99.3353 69.4348C99.3781 68.777 99.3625 68.1167 99.2886 67.4616C99.1576 67.0426 98.9936 66.6346 98.7982 66.2415C98.7912 66.2282 98.7878 66.2134 98.7881 66.1985C98.7885 66.1835 98.7927 66.1689 98.8003 66.156C98.8079 66.1432 98.8187 66.1324 98.8316 66.1249C98.8445 66.1174 98.8591 66.1133 98.8741 66.113Z" fill="#F67A45"/>
<path d="M103.778 64.8345C103.849 64.8205 103.923 64.8232 103.992 64.8424C104.062 64.8617 104.127 64.897 104.181 64.9455C104.181 64.817 104.403 64.817 104.449 64.9455C104.532 65.0862 104.563 65.2514 104.537 65.4125C104.535 65.4261 104.529 65.439 104.521 65.4502C104.513 65.4614 104.502 65.4704 104.49 65.4767C104.684 66.1717 104.702 66.9039 104.543 67.6076C104.527 67.6535 104.496 67.6926 104.455 67.7183C104.414 67.744 104.365 67.7547 104.317 67.7485C104.269 67.7423 104.224 67.7196 104.191 67.6844C104.158 67.6491 104.138 67.6034 104.134 67.555C104.153 67.0175 104.138 66.4793 104.087 65.9437C104.052 65.7266 103.989 65.5147 103.901 65.3132C103.819 65.1994 103.756 65.0733 103.714 64.9396C103.71 64.9285 103.709 64.9167 103.711 64.9052C103.712 64.8936 103.716 64.8824 103.722 64.8725C103.728 64.8625 103.736 64.854 103.746 64.8474C103.756 64.8409 103.766 64.8365 103.778 64.8345Z" fill="#F67A45"/>
<path d="M106.971 64.7879V63.9122C106.93 63.9128 106.889 63.9249 106.855 63.9472C107.088 63.7429 107.549 62.0557 107.549 59.0784C107.549 56.101 107.088 54.408 106.855 54.2096C106.889 54.2319 106.93 54.244 106.971 54.2446V53.3689C108.32 53.3689 108.425 57.7415 108.425 59.0784C108.425 60.4153 108.32 64.7879 106.971 64.7879Z" fill="#F67A45"/>
<path d="M107.327 64.0874C106.995 63.8188 106.399 63.9006 105.996 63.9122C105.506 63.8536 105.008 63.8993 104.537 64.0465C104.479 64.0788 104.43 64.1262 104.396 64.1837C104.362 64.2412 104.344 64.3067 104.344 64.3734C104.344 64.4402 104.362 64.5057 104.396 64.5632C104.43 64.6207 104.479 64.668 104.537 64.7004C105.021 64.8818 105.544 64.9361 106.055 64.858C106.475 64.858 107.106 64.858 107.386 64.5077C107.425 64.4415 107.441 64.3637 107.431 64.2873C107.42 64.2108 107.384 64.1403 107.327 64.0874Z" fill="#F67A45"/>
<path d="M104.42 54.0109C104.694 54.3612 105.255 54.3612 105.669 54.3612C106.144 54.3582 106.618 54.323 107.088 54.2561C107.185 54.2287 107.27 54.1706 107.33 54.0905C107.391 54.0104 107.423 53.9128 107.423 53.8124C107.423 53.7121 107.391 53.6144 107.33 53.5344C107.27 53.4543 107.185 53.3962 107.088 53.3688C106.618 53.3047 106.144 53.2696 105.669 53.2637C105.255 53.2637 104.694 53.2637 104.42 53.6198C104.38 53.6773 104.359 53.7455 104.359 53.8154C104.359 53.8852 104.38 53.9534 104.42 54.0109Z" fill="#F67A45"/>
<path d="M85.6395 62.8554V61.9797C85.5919 61.9772 85.5444 61.9859 85.5008 62.0052C85.4571 62.0244 85.4187 62.0537 85.3885 62.0906C85.6571 61.1423 85.7637 60.1554 85.7037 59.1716C85.7616 58.1975 85.655 57.2206 85.3885 56.2819C85.4198 56.3174 85.4585 56.3458 85.5018 56.3649C85.5451 56.3841 85.5921 56.3936 85.6395 56.3928V55.5171C85.8964 55.5171 86.5794 55.5171 86.5794 59.1716C86.5794 62.8262 85.8964 62.8554 85.6395 62.8554Z" fill="#F67A45"/>
<path d="M84.6704 62.0615C75.645 61.9506 66.6195 61.9506 57.5941 62.0031C56.6834 62.0031 55.7785 62.0031 54.8678 62.0381C54.5923 62.047 54.3176 62.0704 54.0446 62.1082C53.9278 62.1082 53.6184 62.1666 53.8111 62.1782C53.7445 62.1782 53.6807 62.2047 53.6336 62.2518C53.5865 62.2988 53.5601 62.3627 53.5601 62.4293C53.5601 62.4958 53.5865 62.5597 53.6336 62.6068C53.6807 62.6539 53.7445 62.6803 53.8111 62.6803C54.0705 62.7415 54.3338 62.7844 54.5992 62.8087C55.3406 62.8671 56.0879 62.8554 56.8235 62.8613C59.2871 62.8613 61.7448 62.908 64.2026 62.908C69.7662 62.908 75.3297 62.908 80.8933 62.8613C82.1866 62.9256 83.483 62.8846 84.7697 62.7387C85.1842 62.6628 85.0674 62.0673 84.6704 62.0615Z" fill="#F67A45"/>
<path d="M84.9389 56.3053C84.9843 56.3114 85.0305 56.3078 85.0744 56.2946C85.1183 56.2815 85.1588 56.2591 85.1933 56.2289C85.2278 56.1988 85.2555 56.1616 85.2745 56.1199C85.2934 56.0782 85.3032 56.0329 85.3032 55.9871C85.3032 55.9413 85.2934 55.896 85.2745 55.8543C85.2555 55.8126 85.2278 55.7754 85.1933 55.7453C85.1588 55.7151 85.1183 55.6927 85.0744 55.6796C85.0305 55.6664 84.9843 55.6628 84.9389 55.6689C84.8935 55.6628 84.8473 55.6664 84.8035 55.6796C84.7596 55.6927 84.719 55.7151 84.6845 55.7453C84.65 55.7754 84.6224 55.8126 84.6034 55.8543C84.5845 55.896 84.5746 55.9413 84.5746 55.9871C84.5746 56.0329 84.5845 56.0782 84.6034 56.1199C84.6224 56.1616 84.65 56.1988 84.6845 56.2289C84.719 56.2591 84.7596 56.2815 84.8035 56.2946C84.8473 56.3078 84.8935 56.3114 84.9389 56.3053Z" fill="#F67A45"/>
<path d="M86.27 56.2061L86.0657 55.7565C86.0272 55.6923 85.9723 55.6395 85.9067 55.6035C85.841 55.5676 85.7669 55.5499 85.692 55.5522C82.1893 55.8558 78.4822 55.5522 74.9386 55.5814H57.8976C56.5432 55.5814 55.1713 55.6398 53.8111 55.5814C53.2273 55.5522 53.2273 56.3812 53.8111 56.4104C57.4715 56.5914 61.1786 56.4104 64.8389 56.4104C70.5601 56.4104 76.2813 56.4104 82.0025 56.4104H84.7171C84.9623 56.4104 85.2192 56.4104 85.4644 56.4104C85.9139 56.4512 85.2542 56.0776 85.5111 56.6497C85.7679 57.2219 86.4977 56.7315 86.27 56.2294V56.2061Z" fill="#F67A45"/>
<path d="M85.6453 61.9797H78.8967V62.8554H85.6453V61.9797Z" fill="#F67A45"/>
<path d="M86.2408 58.2844C85.0025 58.1442 83.7563 58.0857 82.5104 58.1093C81.2605 58.014 80.0039 58.0531 78.7624 58.2261C78.7036 58.2387 78.651 58.271 78.6132 58.3178C78.5754 58.3645 78.5548 58.4228 78.5548 58.4829C78.5548 58.543 78.5754 58.6013 78.6132 58.6481C78.651 58.6948 78.7036 58.7272 78.7624 58.7398C80.0037 58.9159 81.2605 58.955 82.5104 58.8566C83.7564 58.8831 85.0028 58.8246 86.2408 58.6814C86.2852 58.6706 86.3248 58.6451 86.353 58.6091C86.3813 58.5731 86.3966 58.5287 86.3966 58.4829C86.3966 58.4372 86.3813 58.3927 86.353 58.3568C86.3248 58.3208 86.2852 58.2953 86.2408 58.2844Z" fill="#F67A45"/>
<path d="M53.811 58.6872C57.4773 58.9615 61.1902 58.8331 64.8623 58.8565C68.5343 58.8798 72.2998 59.1834 75.9193 58.7514C75.9575 58.7571 75.9964 58.7544 76.0335 58.7437C76.0706 58.7329 76.1049 58.7143 76.1342 58.6891C76.1634 58.6639 76.1869 58.6327 76.2029 58.5976C76.219 58.5625 76.2273 58.5244 76.2273 58.4858C76.2273 58.4472 76.219 58.409 76.2029 58.3739C76.1869 58.3388 76.1634 58.3076 76.1342 58.2824C76.1049 58.2572 76.0706 58.2386 76.0335 58.2278C75.9964 58.2171 75.9575 58.2145 75.9193 58.2201C72.2998 57.7881 68.4993 58.0859 64.8623 58.1092C61.2252 58.1326 57.4773 58.01 53.811 58.2785C53.7842 58.2785 53.7576 58.2838 53.7329 58.2941C53.7081 58.3043 53.6855 58.3194 53.6666 58.3384C53.6476 58.3573 53.6325 58.3798 53.6223 58.4046C53.612 58.4294 53.6067 58.456 53.6067 58.4828C53.6067 58.5097 53.612 58.5362 53.6223 58.561C53.6325 58.5858 53.6476 58.6083 53.6666 58.6273C53.6855 58.6463 53.7081 58.6613 53.7329 58.6716C53.7576 58.6819 53.7842 58.6872 53.811 58.6872Z" fill="#F67A45"/>
<path d="M80.8524 58.0217C80.8586 58.0242 80.8653 58.0251 80.8719 58.0244C80.8785 58.0236 80.8849 58.0213 80.8904 58.0176C80.896 58.0138 80.9005 58.0088 80.9036 58.0029C80.9068 57.997 80.9084 57.9904 80.9084 57.9837C80.9084 57.9771 80.9068 57.9705 80.9036 57.9646C80.9005 57.9587 80.896 57.9536 80.8904 57.9499C80.8849 57.9462 80.8785 57.9438 80.8719 57.9431C80.8653 57.9424 80.8586 57.9433 80.8524 57.9458C80.8462 57.9433 80.8394 57.9424 80.8328 57.9431C80.8262 57.9438 80.8198 57.9462 80.8143 57.9499C80.8087 57.9536 80.8042 57.9587 80.8011 57.9646C80.798 57.9705 80.7963 57.9771 80.7963 57.9837C80.7963 57.9904 80.798 57.997 80.8011 58.0029C80.8042 58.0088 80.8087 58.0138 80.8143 58.0176C80.8198 58.0213 80.8262 58.0236 80.8328 58.0244C80.8394 58.0251 80.8462 58.0242 80.8524 58.0217Z" fill="#F67A45"/>
<path d="M14.6969 85.8162H22.2862V87.3515H16.5183V92.0219H21.8892V93.5281H16.5183V99.9498H14.6969V85.8162Z" fill="#F67A45"/>
<path d="M28.311 85.8162V99.944H26.4778V85.8162H28.311Z" fill="#F67A45"/>
<path d="M35.7427 87.369H31.446V85.8162H41.9017V87.369H37.5875V99.944H35.7427V87.369Z" fill="#F67A45"/>
<path d="M45.0483 99.944V85.8162H47.0391L51.5693 92.9676C52.5132 94.4402 53.3595 95.973 54.103 97.5562H54.1438C53.9804 95.6648 53.9337 93.9484 53.9337 91.7183V85.8162H55.6851V99.944H53.8403L49.3275 92.7808C48.3552 91.2642 47.4741 89.691 46.6888 88.0696H46.6246C46.7297 89.8502 46.7705 91.5724 46.7705 93.9075V99.944H45.0483Z" fill="#F67A45"/>
<path d="M67.7287 93.3237H62.2352V98.4144H68.3592V99.944H60.4196V85.8162H68.0498V87.3515H62.2119V91.8117H67.7054L67.7287 93.3237Z" fill="#F67A45"/>
<path d="M72.0488 97.7251C73.037 98.3181 74.1656 98.6365 75.318 98.6475C77.1862 98.6475 78.272 97.6609 78.272 96.2365C78.272 94.9171 77.5189 94.1582 75.6099 93.4284C73.2747 92.6111 71.8795 91.4143 71.8795 89.4236C71.8795 87.2227 73.7068 85.5881 76.4506 85.5881C77.5331 85.5506 78.6075 85.7876 79.5739 86.277L79.0718 87.7656C78.2463 87.3224 77.3234 87.0917 76.3864 87.0943C74.4599 87.0943 73.7243 88.2618 73.7243 89.2134C73.7243 90.5328 74.5824 91.1867 76.5323 91.9397C78.9259 92.8621 80.1402 94.0122 80.1402 96.0905C80.1402 98.2681 78.5231 100.177 75.1896 100.177C73.9315 100.193 72.6908 99.883 71.5876 99.278L72.0488 97.7251Z" fill="#F67A45"/>
<path d="M83.9523 97.7251C84.9427 98.3181 86.0732 98.6364 87.2274 98.6475C89.0897 98.6475 90.1814 97.6609 90.1814 96.2365C90.1814 94.9171 89.4283 94.1582 87.5193 93.4284C85.2133 92.6111 83.7889 91.4143 83.7889 89.4236C83.7889 87.2227 85.6103 85.5881 88.3542 85.5881C89.4367 85.5506 90.5111 85.7876 91.4774 86.277L90.9754 87.7656C90.152 87.3222 89.2309 87.0915 88.2958 87.0943C86.3634 87.0943 85.6337 88.2618 85.6337 89.2134C85.6337 90.5328 86.4918 91.1867 88.4417 91.9397C90.8294 92.8621 92.0437 94.0122 92.0437 96.0905C92.0437 98.2681 90.4325 100.177 87.099 100.177C85.8392 100.192 84.5967 99.8822 83.4911 99.278L83.9523 97.7251Z" fill="#F67A45"/>
<path d="M38.5215 75.6465V75.0335L39.3038 74.2746C41.1895 72.4823 42.0418 71.5307 42.0535 70.4157C42.0731 70.2194 42.0485 70.0213 41.9815 69.8358C41.9144 69.6503 41.8067 69.4822 41.6661 69.3439C41.5255 69.2055 41.3557 69.1004 41.1691 69.0364C40.9826 68.9723 40.7841 68.9509 40.5881 68.9737C40.0103 68.996 39.4578 69.2166 39.0236 69.5984L38.7025 68.8978C39.2889 68.4088 40.0289 68.1421 40.7925 68.1447C41.0862 68.1189 41.3821 68.1558 41.6605 68.2531C41.9389 68.3503 42.1934 68.5057 42.4071 68.7089C42.6208 68.9121 42.7888 69.1585 42.8999 69.4316C43.0111 69.7048 43.0628 69.9984 43.0518 70.2931C43.0518 71.6533 42.0651 72.7567 40.5064 74.2512L39.9226 74.8H43.2386V75.6231L38.5215 75.6465Z" fill="#F67A45"/>
<path d="M50.3842 71.8808C50.3842 74.3911 49.4501 75.7747 47.8214 75.7747C46.3794 75.7747 45.3986 74.4203 45.3811 71.9859C45.3636 69.5515 46.4436 68.1445 47.944 68.1445C49.4443 68.1445 50.3842 69.534 50.3842 71.8808ZM46.3794 71.9917C46.3794 73.9124 46.9632 75.0041 47.8739 75.0041C48.8955 75.0041 49.3859 73.8365 49.3859 71.9275C49.3859 70.0185 48.9189 68.921 47.8856 68.921C46.9924 68.921 46.4086 70.0127 46.4086 71.9917H46.3794Z" fill="#F67A45"/>
<path d="M54.5817 69.2012L53.3032 69.8959L53.1105 69.137L54.7218 68.2729H55.5683V75.6463H54.5817V69.2012Z" fill="#F67A45"/>
<path d="M59.3046 73.7781C59.3114 73.3365 59.4564 72.9081 59.7192 72.5531C59.982 72.1982 60.3495 71.9345 60.7699 71.7991V71.7699C60.4337 71.6391 60.1437 71.412 59.936 71.1171C59.7283 70.8221 59.6122 70.4725 59.6023 70.1119C59.6023 68.9443 60.5889 68.1445 61.8849 68.1445C63.3094 68.1445 64.0275 69.0436 64.0275 69.966C64.0261 70.3465 63.9093 70.7176 63.6925 71.0304C63.4757 71.3431 63.1691 71.5826 62.8132 71.7173V71.7524C63.231 71.8709 63.6003 72.1191 63.8679 72.4612C64.1354 72.8033 64.2874 73.2215 64.3018 73.6555C64.3018 74.9399 63.1985 75.8039 61.7915 75.8039C60.2386 75.7747 59.3046 74.8523 59.3046 73.7781ZM63.2802 73.7314C63.2802 72.8324 62.6555 72.4004 61.6573 72.1202C61.2952 72.1827 60.9655 72.3675 60.7233 72.6437C60.4811 72.9199 60.3409 73.2709 60.3262 73.638C60.3189 73.8308 60.3526 74.0229 60.4252 74.2017C60.4978 74.3804 60.6076 74.5417 60.7473 74.6747C60.887 74.8078 61.0534 74.9096 61.2354 74.9735C61.4175 75.0373 61.611 75.0617 61.8032 75.045C61.9882 75.0645 62.1753 75.0452 62.3524 74.9882C62.5295 74.9313 62.6928 74.8381 62.8318 74.7144C62.9709 74.5908 63.0825 74.4395 63.1597 74.2702C63.2369 74.101 63.278 73.9175 63.2802 73.7314ZM60.5305 70.0419C60.5305 70.7774 61.0851 71.1803 61.9375 71.4021C62.2449 71.3316 62.521 71.1631 62.7243 70.922C62.9275 70.6808 63.0468 70.3801 63.0642 70.0652C63.0695 69.9018 63.0405 69.7392 62.9789 69.5877C62.9174 69.4363 62.8247 69.2995 62.707 69.1861C62.5892 69.0727 62.4489 68.9854 62.2953 68.9296C62.1416 68.8739 61.9779 68.8511 61.8149 68.8626C61.651 68.8461 61.4856 68.8645 61.3293 68.9165C61.1731 68.9685 61.0296 69.0529 60.9083 69.1643C60.787 69.2756 60.6907 69.4114 60.6255 69.5627C60.5604 69.7139 60.5281 69.8772 60.5305 70.0419Z" fill="#F67A45"/>
<path d="M82.02 35.5044C81.1268 35.9715 80.2219 36.3743 79.2995 36.7596C78.5114 37.0923 77.4722 37.3434 76.8826 37.968C76.8449 38.0079 76.8197 38.0579 76.8101 38.1119C76.8006 38.1659 76.8071 38.2215 76.8288 38.2718C76.8506 38.3222 76.8866 38.365 76.9325 38.3951C76.9784 38.4251 77.0321 38.4411 77.0869 38.4409C77.9509 38.5226 78.8383 37.9856 79.6089 37.6294C80.5663 37.1799 81.4829 36.6428 82.3936 36.1116C82.8139 35.8664 82.4286 35.2943 82.02 35.5278V35.5044Z" fill="#F67A45"/>
<path d="M94.2037 29.5793C92.5574 30.274 90.9403 31.0329 89.3232 31.786C87.8812 32.4574 86.27 33.0353 84.9856 33.9869C84.6996 34.1971 85.0323 34.5707 85.3125 34.5123C86.8654 34.1153 88.3366 33.2105 89.7727 32.5157C91.3723 31.7393 92.9778 30.9687 94.5482 30.1339C94.9451 29.9179 94.5482 29.4158 94.2037 29.5501V29.5793Z" fill="#F67A45"/>
<path d="M99.6564 27.1214C99.1019 27.2441 98.5726 27.4613 98.0918 27.7635C97.59 27.9467 97.1367 28.2422 96.7666 28.6275C96.7345 28.6803 96.7175 28.7409 96.7174 28.8027C96.7173 28.8644 96.7341 28.9251 96.766 28.978C96.7978 29.0309 96.8436 29.0741 96.8982 29.1028C96.9529 29.1316 97.0144 29.1449 97.076 29.1413C97.6071 29.0386 98.108 28.8171 98.5413 28.4933C99.0536 28.2607 99.5202 27.9384 99.9191 27.5417C100.1 27.3257 99.9191 27.0863 99.6564 27.1214Z" fill="#F67A45"/>
<path d="M97.8583 19.1293C96.6907 19.3394 95.5815 20.3844 94.6182 21.0616C93.5455 21.7395 92.5423 22.5217 91.6234 23.3968C91.384 23.6478 91.6993 23.9397 91.9737 23.823C93.2238 23.2076 94.409 22.4684 95.5114 21.6162C96.3988 20.9974 97.6014 20.3961 98.1443 19.4562C98.2611 19.2519 98.0568 19.0709 97.8583 19.1118V19.1293Z" fill="#F67A45"/>
<path d="M88.7219 25.0896C86.3867 26.0353 84.2851 27.956 82.1601 29.3279C80.0351 30.6999 77.4897 31.9842 75.6683 33.8348C75.4056 34.1034 75.75 34.4186 76.0478 34.2902C78.5055 33.2977 80.6714 31.3712 82.8548 29.8942C84.8922 28.499 87.385 27.343 89.1131 25.5625C89.3874 25.2823 89.0255 24.9787 88.7219 25.0896Z" fill="#F67A45"/>
<path d="M79.101 25.3232C77.7375 26.3322 76.4604 27.4531 75.283 28.6742C73.952 29.9527 72.5392 31.1378 71.2315 32.4397C70.8345 32.8366 71.4417 33.3504 71.8153 33.0235C73.1638 31.9026 74.3956 30.6474 75.7267 29.5207C77.1071 28.4376 78.3905 27.2363 79.5622 25.9304C79.8249 25.6093 79.4688 25.078 79.0777 25.3466L79.101 25.3232Z" fill="#F67A45"/>
<path d="M93.7542 11.7092C91.53 13.1921 89.6677 15.3988 87.6886 17.1735C86.6786 18.0667 85.6395 18.9249 84.6412 19.8298C83.7363 20.6471 82.6563 21.3593 82.1717 22.5036C82.055 22.7663 82.3936 23.0173 82.6329 22.9356C83.8005 22.5503 84.612 21.4994 85.4935 20.6588C86.4743 19.7305 87.3908 18.7498 88.3658 17.8215C90.2981 15.9768 92.6158 14.2838 94.2563 12.1821C94.4839 11.8902 94.0286 11.5282 93.7542 11.7092Z" fill="#F67A45"/>
<path d="M70.0347 25.4634C69.2933 25.9305 68.8204 26.8003 68.2833 27.4833C67.7462 28.1664 66.8355 28.9954 66.6253 29.8944C66.6145 29.9494 66.6197 30.0063 66.6403 30.0584C66.661 30.1105 66.6962 30.1555 66.7417 30.1882C66.7873 30.2208 66.8413 30.2396 66.8972 30.2424C66.9532 30.2452 67.0088 30.2318 67.0573 30.2038C67.8163 29.766 68.2716 28.8319 68.7678 28.1314C69.2641 27.4308 70.1164 26.596 70.3558 25.7028C70.3658 25.6601 70.3629 25.6153 70.3476 25.5742C70.3322 25.5332 70.305 25.4975 70.2693 25.4719C70.2337 25.4463 70.1913 25.4318 70.1475 25.4303C70.1036 25.4288 70.0603 25.4403 70.023 25.4634H70.0347Z" fill="#F67A45"/>
<path d="M76.7658 15.644C74.9619 18.0259 73.0529 20.3494 71.3774 22.8188C71.0622 23.2742 71.7977 23.6069 72.1071 23.2216C73.987 20.8865 75.6624 18.4112 77.4138 16.006C77.6999 15.6148 77.0344 15.2879 76.7658 15.644Z" fill="#F67A45"/>
<path d="M79.6148 11.575C79.3656 11.8505 79.1336 12.141 78.92 12.4449C78.6764 12.7196 78.4881 13.0387 78.3654 13.3848C78.3523 13.4467 78.3574 13.5112 78.3802 13.5702C78.4029 13.6293 78.4424 13.6805 78.4937 13.7176C78.545 13.7547 78.606 13.7761 78.6693 13.7792C78.7325 13.7823 78.7953 13.767 78.85 13.7351C79.1364 13.5253 79.3768 13.2591 79.5564 12.9528C79.7898 12.6483 80.0024 12.3285 80.1927 11.9954C80.2363 11.9178 80.2498 11.8269 80.2306 11.74C80.2114 11.6531 80.1609 11.5763 80.0887 11.5243C80.0164 11.4723 79.9276 11.4487 79.8391 11.4581C79.7506 11.4674 79.6687 11.5091 79.6089 11.575H79.6148Z" fill="#F67A45"/>
<path d="M69.1298 14.091C67.717 15.9299 66.8822 18.3702 65.9248 20.4718C64.9673 22.5735 64.1092 24.5584 63.2977 26.6309C63.1517 26.9987 63.7823 27.2147 63.9632 26.8936C65.0666 24.7861 66.0941 22.626 67.0807 20.4718C67.9739 18.5103 69.1823 16.3853 69.6085 14.2895C69.6182 14.2301 69.6072 14.1692 69.5774 14.1169C69.5476 14.0647 69.5008 14.0242 69.4447 14.0023C69.3887 13.9805 69.3268 13.9785 69.2695 13.9968C69.2122 14.015 69.1629 14.0524 69.1298 14.1027V14.091Z" fill="#F67A45"/>
<path d="M73.0587 5.095C72.5216 6.08745 72.0254 7.10325 71.5058 8.10737C70.9641 8.97756 70.5457 9.91864 70.2624 10.9037C70.1923 11.289 70.7002 11.6568 70.9921 11.3066C71.63 10.4108 72.1353 9.42765 72.4924 8.38759C72.9303 7.38931 73.3915 6.39686 73.8118 5.38689C73.9928 4.96072 73.2631 4.69802 73.0587 5.08332V5.095Z" fill="#F67A45"/>
<path d="M61.0034 17.8974C60.2328 19.1525 60.0343 20.8922 59.6432 22.3108C59.1936 23.9571 58.855 25.6268 58.4464 27.2847C58.4381 27.3667 58.4595 27.4489 58.5067 27.5165C58.5538 27.584 58.6237 27.6324 58.7035 27.6529C58.7833 27.6734 58.8678 27.6646 58.9416 27.6281C59.0155 27.5916 59.0738 27.5299 59.1061 27.4541C59.5789 25.8136 60.1044 24.1965 60.5305 22.5443C60.8983 21.1082 61.593 19.5145 61.5405 18.0316C61.5357 17.9706 61.5119 17.9126 61.4724 17.8659C61.4329 17.8191 61.3797 17.786 61.3203 17.7712C61.2609 17.7563 61.1984 17.7605 61.1415 17.7832C61.0846 17.8058 61.0363 17.8458 61.0034 17.8974Z" fill="#F67A45"/>
<path d="M65.9306 0.232023C65.2242 0.944251 64.9615 1.92502 64.6171 2.85909C64.1279 4.17563 63.7127 5.5185 63.3736 6.88143C62.7898 9.31585 61.955 11.832 61.8149 14.3482C61.8149 14.6576 62.2702 14.6809 62.3636 14.4182C63.1926 12.083 63.5663 9.53185 64.3369 7.1383C64.7105 5.97071 65.0491 4.80313 65.4052 3.63554C65.7263 2.57887 66.2692 1.41712 66.1641 0.307915C66.1612 0.282297 66.1512 0.257992 66.1353 0.237673C66.1195 0.217355 66.0983 0.201814 66.0742 0.192759C66.05 0.183705 66.0238 0.181489 65.9985 0.186357C65.9732 0.191224 65.9497 0.202987 65.9306 0.220347V0.232023Z" fill="#F67A45"/>
<path d="M26.1159 36.1117C27.0266 36.643 27.949 37.1801 28.9006 37.6296C29.6654 37.9915 30.5644 38.5228 31.4226 38.4411C31.4779 38.4424 31.5324 38.4273 31.5792 38.3977C31.626 38.3681 31.6629 38.3253 31.6854 38.2747C31.7079 38.2241 31.7149 38.168 31.7055 38.1135C31.6962 38.0589 31.6708 38.0084 31.6328 37.9682C31.049 37.3319 30.004 37.0925 29.2159 36.7597C28.2876 36.3744 27.3827 35.9716 26.4954 35.5046C26.0867 35.2944 25.6956 35.8665 26.1159 36.0884V36.1117Z" fill="#F67A45"/>
<path d="M13.9905 30.1336C15.5609 30.9684 17.1663 31.739 18.7659 32.5154C20.2021 33.2102 21.6849 34.115 23.2203 34.512C23.5005 34.5821 23.8041 34.1968 23.5472 33.9866C22.2629 33.035 20.6282 32.4629 19.2154 31.7857C17.5983 31.0326 15.9754 30.2737 14.3349 29.579C13.9555 29.4155 13.5877 29.9176 13.9905 30.1628V30.1336Z" fill="#F67A45"/>
<path d="M8.61961 27.5417C9.01852 27.9384 9.4851 28.2607 9.99736 28.4933C10.428 28.8191 10.9271 29.0427 11.4568 29.1471C11.5183 29.1499 11.5794 29.1362 11.6337 29.1073C11.6881 29.0785 11.7337 29.0356 11.7659 28.9832C11.7981 28.9308 11.8156 28.8707 11.8167 28.8091C11.8178 28.7476 11.8024 28.6869 11.7721 28.6334C11.3989 28.2519 10.9465 27.957 10.4469 27.7694C9.96553 27.4682 9.43647 27.251 8.88232 27.1272C8.62545 27.0922 8.4328 27.3315 8.61961 27.5475V27.5417Z" fill="#F67A45"/>
<path d="M10.3943 19.4738C10.9314 20.4079 12.1457 21.0209 13.0214 21.6339C14.127 22.4814 15.3117 23.2204 16.5592 23.8406C16.8336 23.9574 17.143 23.6655 16.9095 23.4145C15.9916 22.538 14.9883 21.7557 13.9146 21.0793C12.9455 20.3962 11.8596 19.3279 10.6804 19.1469C10.4819 19.1061 10.2776 19.287 10.3943 19.4914V19.4738Z" fill="#F67A45"/>
<path d="M19.4198 25.5627C21.1712 27.3141 23.6464 28.4817 25.6839 29.8944C27.8614 31.389 30.0331 33.298 32.4909 34.2904C32.7828 34.4072 33.1331 34.1094 32.8704 33.835C31.0548 31.9786 28.5328 30.7234 26.3728 29.3282C24.2127 27.9329 22.1636 26.0297 19.8109 25.0898C19.5074 24.9672 19.1454 25.2766 19.4198 25.5627Z" fill="#F67A45"/>
<path d="M28.9298 25.913C30.1009 27.2175 31.3822 28.4187 32.7595 29.5033C34.0963 30.6709 35.3223 31.8969 36.6709 33.0061C37.0737 33.3388 37.6808 32.8251 37.2839 32.4223C35.9762 31.1204 34.5575 29.9353 33.2323 28.6568C32.0528 27.4358 30.7737 26.3149 29.4085 25.3058C29.0232 25.049 28.6612 25.5744 28.9298 25.8896V25.913Z" fill="#F67A45"/>
<path d="M14.2999 12.1821C15.9345 14.2838 18.258 15.9826 20.1904 17.8215C21.1653 18.7498 22.0819 19.7305 23.0568 20.6588C23.9442 21.4994 24.7382 22.5503 25.9233 22.9356C26.1568 23.0173 26.507 22.7663 26.3844 22.5036C25.8999 21.336 24.8199 20.6471 23.915 19.8298C22.9167 18.9191 21.8776 18.0784 20.8676 17.1735C18.8652 15.4222 17.0262 13.1921 14.7961 11.7092C14.5218 11.5282 14.0722 11.8902 14.2999 12.1821Z" fill="#F67A45"/>
<path d="M38.1654 25.7027C38.4106 26.6017 39.2221 27.384 39.7533 28.1312C40.2846 28.8785 40.7107 29.7659 41.4697 30.2037C41.5181 30.2299 41.573 30.242 41.6279 30.2383C41.6829 30.2347 41.7357 30.2156 41.7803 30.1833C41.8248 30.1509 41.8593 30.1066 41.8798 30.0555C41.9002 30.0043 41.9058 29.9485 41.8958 29.8943C41.6857 28.9953 40.7983 28.2013 40.2437 27.4832C39.6891 26.7652 39.2396 25.9245 38.4923 25.4633C38.4546 25.4412 38.4113 25.4305 38.3676 25.4323C38.3239 25.4342 38.2816 25.4486 38.2459 25.4739C38.2102 25.4991 38.1825 25.5341 38.1662 25.5747C38.1498 25.6153 38.1455 25.6597 38.1537 25.7027H38.1654Z" fill="#F67A45"/>
<path d="M31.1482 16.006C32.8996 18.4112 34.5809 20.9098 36.4549 23.2216C36.7701 23.6069 37.4999 23.2742 37.1905 22.8188C35.5091 20.3494 33.6001 18.0551 31.8137 15.644C31.5452 15.2879 30.8855 15.6148 31.1657 16.006H31.1482Z" fill="#F67A45"/>
<path d="M28.3401 11.9951C28.5345 12.3271 28.749 12.6468 28.9823 12.9526C29.1615 13.2573 29.3996 13.5233 29.6829 13.7348C29.738 13.7658 29.8008 13.7805 29.8639 13.7771C29.9271 13.7737 29.9879 13.7523 30.0394 13.7156C30.0909 13.6788 30.1308 13.6282 30.1545 13.5695C30.1782 13.5109 30.1847 13.4468 30.1733 13.3846C30.0451 13.0346 29.8464 12.7147 29.5895 12.4447C29.3779 12.1408 29.1479 11.8503 28.9006 11.5748C28.8382 11.5182 28.7583 11.4848 28.6742 11.4801C28.5901 11.4753 28.507 11.4996 28.4387 11.5488C28.3703 11.598 28.3209 11.6692 28.2988 11.7504C28.2766 11.8316 28.2829 11.918 28.3168 11.9951H28.3401Z" fill="#F67A45"/>
<path d="M38.9302 14.2779C39.3564 16.3971 40.559 18.4987 41.458 20.4603C42.4446 22.6262 43.4721 24.7862 44.5755 26.882C44.7506 27.2148 45.3869 26.9929 45.2352 26.6193C44.4237 24.5468 43.5363 22.4861 42.6081 20.4603C41.6799 18.4345 40.8158 15.9184 39.4031 14.0794C39.3724 14.0258 39.3234 13.9851 39.2651 13.9647C39.2069 13.9442 39.1432 13.9455 39.0858 13.9682C39.0283 13.9909 38.981 14.0335 38.9524 14.0882C38.9239 14.143 38.916 14.2062 38.9302 14.2662V14.2779Z" fill="#F67A45"/>
<path d="M34.7327 5.39855C35.153 6.40851 35.6201 7.40096 36.0579 8.39924C36.413 9.43907 36.9164 10.4222 37.5524 11.3182C37.8502 11.6627 38.358 11.3182 38.288 10.9154C37.9982 9.93341 37.5738 8.99628 37.027 8.1307C36.5133 7.12657 36.017 6.11077 35.4799 5.11833C35.2756 4.73886 34.5459 4.99573 34.721 5.4219L34.7327 5.39855Z" fill="#F67A45"/>
<path d="M47.0215 18.055C46.9748 19.5261 47.6695 21.1432 48.0373 22.5677C48.4635 24.2198 48.9889 25.8369 49.4559 27.4774C49.5727 27.8744 50.2207 27.7167 50.1156 27.3081C49.7128 25.6443 49.3684 23.9863 48.948 22.3342C48.5569 20.9039 48.3643 19.1817 47.5936 17.9207C47.5595 17.8701 47.5107 17.8312 47.4538 17.8092C47.3968 17.7873 47.3345 17.7834 47.2752 17.798C47.216 17.8127 47.1627 17.8452 47.1225 17.8911C47.0824 17.9371 47.0573 17.9943 47.0507 18.055H47.0215Z" fill="#F67A45"/>
<path d="M42.3687 0.319325C42.2695 1.42853 42.8124 2.59028 43.1335 3.64695C43.4838 4.81454 43.8282 5.98212 44.2019 7.14971C44.9666 9.54326 45.3694 12.0653 46.1751 14.4296C46.2685 14.6865 46.7589 14.669 46.718 14.3596C46.5779 11.8434 45.7664 9.32726 45.1651 6.89284C44.839 5.62091 44.4493 4.36612 43.9975 3.13321C43.6414 2.12325 43.3612 1.01404 42.5906 0.214242C42.5715 0.196881 42.548 0.185121 42.5227 0.180254C42.4974 0.175386 42.4712 0.1776 42.4471 0.186654C42.4229 0.195708 42.4017 0.211252 42.3859 0.23157C42.37 0.251889 42.36 0.276195 42.3571 0.301812L42.3687 0.319325Z" fill="#F67A45"/>
<path d="M53.8344 22.1418C53.7819 23.0284 53.7819 23.9173 53.8344 24.8039C53.8033 25.59 53.8859 26.3765 54.0796 27.1391C54.1005 27.1908 54.1364 27.2351 54.1827 27.2663C54.229 27.2976 54.2836 27.3142 54.3394 27.3142C54.3952 27.3142 54.4498 27.2976 54.4961 27.2663C54.5424 27.2351 54.5783 27.1908 54.5992 27.1391C54.742 26.3692 54.7735 25.5827 54.6926 24.8039C54.6887 23.9139 54.6322 23.025 54.5233 22.1418C54.5233 22.0489 54.4864 21.9598 54.4207 21.8941C54.355 21.8284 54.2659 21.7915 54.173 21.7915C54.0801 21.7915 53.991 21.8284 53.9253 21.8941C53.8596 21.9598 53.8227 22.0489 53.8227 22.1418H53.8344Z" fill="#F67A45"/>
<path d="M54.0621 9.42667C53.4783 11.0379 53.7819 13.1221 53.7585 14.8151C53.7352 16.5081 53.3732 18.6039 53.8928 20.1802C53.9119 20.2297 53.9455 20.2723 53.9893 20.3024C54.033 20.3325 54.0849 20.3485 54.138 20.3485C54.1911 20.3485 54.2429 20.3325 54.2867 20.3024C54.3305 20.2723 54.3641 20.2297 54.3832 20.1802C54.967 18.6331 54.7276 16.4672 54.7802 14.8151C54.8327 13.163 55.2122 11.0671 54.7334 9.42667C54.7089 9.35729 54.6634 9.29722 54.6033 9.25474C54.5432 9.21226 54.4714 9.18945 54.3978 9.18945C54.3242 9.18945 54.2524 9.21226 54.1923 9.25474C54.1321 9.29722 54.0867 9.35729 54.0621 9.42667Z" fill="#F67A45"/>
<path d="M54.0796 3.5885C53.8141 4.337 53.699 5.13058 53.741 5.92367C53.706 6.68844 53.5075 7.67505 53.9803 8.31722C54.0112 8.35945 54.0517 8.39379 54.0983 8.41747C54.145 8.44114 54.1966 8.45348 54.2489 8.45348C54.3012 8.45348 54.3528 8.44114 54.3995 8.41747C54.4461 8.39379 54.4865 8.35945 54.5174 8.31722C54.9786 7.73343 54.821 6.82855 54.8035 6.09881C54.8699 5.26338 54.7747 4.42298 54.5233 3.62352C54.4532 3.4659 54.1672 3.36666 54.0796 3.57098V3.5885Z" fill="#F67A45"/>
<path d="M41.8958 47.7935H38.9185V50.5548H42.2344V51.3838H37.9319V43.7419H42.0651V44.5709H38.9185V46.9878H41.8958V47.7935Z" fill="#F67A45"/>
<path d="M44.5171 50.1638C45.0469 50.4806 45.6511 50.6518 46.2685 50.66C47.2784 50.66 47.8681 50.1288 47.8681 49.3581C47.8681 48.5875 47.4594 48.2314 46.4261 47.8345C45.1826 47.3908 44.4062 46.7428 44.4062 45.6686C44.4062 44.501 45.3928 43.5903 46.8814 43.5903C47.4682 43.571 48.0503 43.6995 48.5744 43.9639L48.3001 44.7695C47.8528 44.5307 47.3534 44.4064 46.8464 44.4076C45.8014 44.4076 45.4044 45.0322 45.4044 45.5752C45.4044 46.2932 45.8715 46.6435 46.9281 47.0522C48.2242 47.5542 48.878 48.1789 48.878 49.2998C48.878 50.4207 48.0082 51.5007 46.1984 51.5007C45.5178 51.508 44.8466 51.3412 44.2485 51.0161L44.5171 50.1638Z" fill="#F67A45"/>
<path d="M52.8303 44.5709H50.4951V43.7419H56.1638V44.5826H53.8286V51.3955H52.8303V44.5709Z" fill="#F67A45"/>
<path d="M58.1603 43.8354C58.8558 43.7293 59.5584 43.6766 60.262 43.6778C61.6806 43.6778 62.6906 44.0047 63.3561 44.6293C63.7248 44.9807 64.0124 45.4082 64.1989 45.8821C64.3854 46.3559 64.4664 46.8648 64.4361 47.3732C64.4625 47.9182 64.3783 48.4629 64.1887 48.9746C63.9991 49.4863 63.7079 49.9543 63.3328 50.3505C62.6205 51.0627 61.4413 51.448 59.9526 51.448C59.354 51.4503 58.7558 51.4211 58.1603 51.3605V43.8354ZM59.147 50.6015C59.478 50.6432 59.8116 50.6607 60.1452 50.6541C62.2586 50.6541 63.4028 49.4865 63.4028 47.4082C63.4028 45.6043 62.3928 44.4892 60.3029 44.4892C59.9114 44.484 59.5203 44.5173 59.1353 44.5885L59.147 50.6015Z" fill="#F67A45"/>
<path d="M54.2723 29.6667L55.6967 32.5624L58.8901 33.0236L56.5783 35.277L57.127 38.4528L54.2723 36.9525L51.4175 38.4528L51.9605 35.277L49.6545 33.0236L52.842 32.5624L54.2723 29.6667Z" fill="#F67A45"/>
</svg>
