<svg width="102" height="101" viewBox="0 0 102 101" fill="none" xmlns="http://www.w3.org/2000/svg">
<path d="M11.0894 68.1206C13.3696 67.869 15.66 67.7149 17.9453 67.53C20.0611 67.3503 22.3259 67.4273 24.3955 66.9446C24.4767 66.9198 24.5463 66.8668 24.5917 66.795C24.637 66.7233 24.6551 66.6377 24.6427 66.5537C24.6303 66.4697 24.5881 66.3931 24.5239 66.3376C24.4597 66.2821 24.3777 66.2514 24.2928 66.2513C22.1308 66.1383 19.8506 66.6211 17.6937 66.8162C15.5368 67.0113 13.2926 67.2578 11.0894 67.4016C10.6067 67.4325 10.6118 68.172 11.0894 68.1206Z" fill="#F67A45"/>
<path d="M4.2387 68.7418C4.96233 68.8093 5.69138 68.7921 6.41102 68.6905C7.05809 68.6391 7.83868 68.7213 8.3625 68.3105C8.38574 68.2884 8.40336 68.2612 8.41389 68.2309C8.42442 68.2007 8.42756 68.1684 8.42303 68.1367C8.4185 68.105 8.40645 68.0749 8.38788 68.0488C8.3693 68.0228 8.34475 68.0015 8.31629 67.9869C7.74111 67.6737 6.97079 67.8996 6.33399 67.9612C5.62586 67.985 4.92281 68.0901 4.2387 68.2745C4.023 68.3464 3.96138 68.7008 4.2387 68.7418Z" fill="#F67A45"/>
<path d="M17.9608 71.2275C19.4781 70.9526 20.9784 70.5908 22.4543 70.1439C23.769 69.8049 25.2686 69.6303 26.46 68.9781C26.5064 68.9499 26.5421 68.9072 26.5618 68.8567C26.5814 68.8061 26.5838 68.7505 26.5686 68.6984C26.5533 68.6463 26.5214 68.6007 26.4776 68.5687C26.4338 68.5366 26.3807 68.5199 26.3265 68.5211C24.9707 68.5211 23.5585 69.0962 22.2489 69.4301C20.7421 69.7525 19.254 70.1571 17.7913 70.642C17.7137 70.6645 17.6481 70.7169 17.6091 70.7877C17.5701 70.8585 17.5608 70.9419 17.5833 71.0195C17.6058 71.0971 17.6582 71.1626 17.729 71.2016C17.7998 71.2407 17.8831 71.2499 17.9608 71.2275Z" fill="#F67A45"/>
<path d="M4.43896 74.8376C8.03381 74.0467 11.6287 73.2456 15.1516 72.2184C15.1971 72.2053 15.2396 72.1833 15.2766 72.1537C15.3137 72.1242 15.3445 72.0876 15.3674 72.0461C15.3903 72.0046 15.4048 71.959 15.4101 71.9119C15.4153 71.8649 15.4113 71.8172 15.3981 71.7717C15.385 71.7261 15.363 71.6837 15.3334 71.6466C15.3038 71.6096 15.2673 71.5788 15.2258 71.5559C15.1843 71.533 15.1387 71.5185 15.0916 71.5132C15.0445 71.508 14.9969 71.512 14.9513 71.5252C11.3565 72.239 7.85408 73.4766 4.31571 74.4319C4.03326 74.5089 4.16164 74.894 4.43896 74.8376Z" fill="#F67A45"/>
<path d="M24.3852 73.975C25.1504 73.6052 25.9259 73.2971 26.727 72.9889C27.3125 72.7578 28.0469 72.6192 28.468 72.1313C28.4984 72.1007 28.5201 72.0625 28.5307 72.0207C28.5414 71.9789 28.5406 71.935 28.5286 71.8936C28.5165 71.8522 28.4936 71.8148 28.4622 71.7852C28.4307 71.7557 28.3919 71.7351 28.3498 71.7256C27.6771 71.6023 27.0095 71.9721 26.3984 72.2392C25.5921 72.5884 24.8218 73.0146 24.0566 73.4357C23.6817 73.6411 24.0258 74.1444 24.3852 73.9493V73.975Z" fill="#F67A45"/>
<path d="M14.6586 78.4019C15.8449 77.9448 17.0107 77.4364 18.1816 76.9331C19.4347 76.4196 20.8726 75.906 21.9921 75.1357C22.0602 75.1057 22.1136 75.0499 22.1406 74.9806C22.1676 74.9113 22.1659 74.834 22.1359 74.7659C22.106 74.6978 22.0502 74.6444 21.9808 74.6175C21.9115 74.5905 21.8343 74.5922 21.7662 74.6221C20.5439 74.8943 19.3782 75.5671 18.2432 76.0806C16.9645 76.6661 15.6755 77.2412 14.4275 77.878C14.3652 77.9122 14.3181 77.9686 14.2955 78.036C14.273 78.1034 14.2766 78.1768 14.3058 78.2416C14.3349 78.3064 14.3875 78.3578 14.4529 78.3856C14.5183 78.4134 14.5917 78.4156 14.6586 78.3916V78.4019Z" fill="#F67A45"/>
<path d="M10.3294 80.2044C10.7706 80.1447 11.1951 79.9962 11.5773 79.7679C12.0081 79.6344 12.3973 79.392 12.7072 79.0643C12.7335 79.0176 12.7471 78.9647 12.7463 78.9111C12.7456 78.8574 12.7306 78.8049 12.7029 78.759C12.6752 78.713 12.6358 78.6752 12.5887 78.6495C12.5417 78.6237 12.4886 78.6109 12.435 78.6124C11.9833 78.6793 11.5549 78.8556 11.187 79.126C10.786 79.2998 10.4244 79.5531 10.124 79.8706C10.011 80.0093 10.1753 80.2147 10.3294 80.2044Z" fill="#F67A45"/>
<path d="M11.7622 86.1358C12.6763 86.0382 13.4929 85.3244 14.2478 84.8262C15.1545 84.287 16.0029 83.6554 16.7796 82.9415C16.8184 82.9032 16.8431 82.8528 16.8497 82.7986C16.8562 82.7445 16.8442 82.6897 16.8156 82.6432C16.787 82.5967 16.7435 82.5613 16.6922 82.5427C16.6409 82.5242 16.5848 82.5235 16.5331 82.5409C15.5713 82.9614 14.6543 83.4776 13.7959 84.0816C13.0461 84.5643 12.0138 85.0316 11.5722 85.8225C11.5536 85.8546 11.544 85.8912 11.5445 85.9284C11.545 85.9655 11.5555 86.0018 11.575 86.0334C11.5945 86.065 11.6222 86.0908 11.6552 86.1079C11.6882 86.125 11.7251 86.1329 11.7622 86.1306V86.1358Z" fill="#F67A45"/>
<path d="M19.0135 81.7347C20.9137 81.0773 22.5827 79.6034 24.2928 78.5712C26.003 77.539 28.0212 76.6351 29.4283 75.2023C29.4661 75.16 29.4891 75.1066 29.4938 75.0501C29.4986 74.9936 29.4849 74.937 29.4548 74.889C29.4247 74.8409 29.3798 74.8039 29.3269 74.7836C29.2739 74.7632 29.2158 74.7606 29.1613 74.7761C27.2406 75.4437 25.5664 76.8303 23.8769 77.9293C22.1873 79.0283 20.1279 79.8756 18.7157 81.293C18.6724 81.3357 18.6449 81.3919 18.6379 81.4523C18.6309 81.5127 18.6447 81.5737 18.677 81.6252C18.7093 81.6767 18.7583 81.7156 18.8157 81.7355C18.8732 81.7554 18.9357 81.7551 18.993 81.7347H19.0135Z" fill="#F67A45"/>
<path d="M26.7014 81.5395C27.7802 80.8043 28.7939 79.9779 29.7313 79.0694C30.7944 78.1141 31.9191 77.2308 32.9616 76.25C33.3262 75.911 32.7818 75.4642 32.448 75.7364C31.3747 76.5684 30.3938 77.4979 29.3359 78.3401C28.2459 79.139 27.2301 80.0345 26.3008 81.0157C26.2516 81.0763 26.2248 81.1521 26.225 81.2302C26.2252 81.3083 26.2523 81.3839 26.3018 81.4443C26.3513 81.5047 26.4202 81.5461 26.4967 81.5616C26.5733 81.5771 26.6528 81.5657 26.7219 81.5293L26.7014 81.5395Z" fill="#F67A45"/>
<path d="M15.0849 91.6515C16.795 90.6244 18.2124 89.0119 19.7479 87.7383C20.5234 87.0963 21.3245 86.5006 22.0897 85.8484C22.8549 85.1962 23.8717 84.58 24.3031 83.6042C24.4058 83.368 24.0977 83.1677 23.8923 83.219C23.0552 83.4501 22.5468 84.051 21.9048 84.6262C21.0934 85.3503 20.3231 86.1052 19.5322 86.8396C17.9915 88.2878 16.0452 89.5306 14.6946 91.1739C14.6467 91.2297 14.62 91.3006 14.6191 91.3742C14.6182 91.4477 14.6432 91.5192 14.6897 91.5761C14.7363 91.6331 14.8014 91.6719 14.8736 91.6856C14.9458 91.6994 15.0206 91.6873 15.0849 91.6515Z" fill="#F67A45"/>
<path d="M33.9116 81.4163C34.5381 81.1031 34.9849 80.3122 35.4266 79.7884C35.8682 79.2645 36.4999 78.7613 36.6231 78.1091C36.6307 78.0618 36.625 78.0134 36.6065 77.9692C36.588 77.925 36.5576 77.8869 36.5186 77.8591C36.4796 77.8314 36.4336 77.8151 36.3859 77.812C36.3381 77.809 36.2904 77.8194 36.2483 77.842C35.6525 78.1091 35.252 78.8691 34.8668 79.3827C34.4816 79.8962 33.7832 80.5279 33.6189 81.2058C33.6101 81.2433 33.6126 81.2827 33.6261 81.3188C33.6396 81.355 33.6636 81.3863 33.6949 81.4088C33.7262 81.4314 33.7635 81.4441 33.8021 81.4454C33.8407 81.4468 33.8788 81.4366 33.9116 81.4163Z" fill="#F67A45"/>
<path d="M28.6118 88.7088C30.0395 86.9473 31.5699 85.232 32.8948 83.3884C33.1362 83.0494 32.5713 82.6591 32.3094 82.957C30.7687 84.6825 29.4489 86.5775 28.0366 88.3955C27.7799 88.7242 28.3653 89.0118 28.6118 88.7088Z" fill="#F67A45"/>
<path d="M26.3213 91.7438C26.5213 91.5379 26.7066 91.3182 26.876 91.0865C27.0776 90.8868 27.229 90.6422 27.3176 90.3726C27.327 90.3186 27.321 90.2631 27.3003 90.2123C27.2796 90.1616 27.2451 90.1176 27.2007 90.0855C27.1563 90.0534 27.1037 90.0344 27.049 90.0307C26.9944 90.027 26.9397 90.0387 26.8914 90.0645C26.6397 90.1723 26.4754 90.4651 26.3059 90.6705C26.118 90.8905 25.9464 91.124 25.7924 91.3689C25.6075 91.6822 26.0594 91.9903 26.3059 91.7438H26.3213Z" fill="#F67A45"/>
<path d="M34.6049 89.9001C35.7193 88.6316 36.3767 86.8188 37.111 85.3295C37.8454 83.8402 38.5952 82.1507 39.2782 80.5381C39.4169 80.2146 38.8571 80.0246 38.6979 80.307C37.866 81.8066 37.0545 83.3369 36.3048 84.8776C35.555 86.4182 34.5279 88.0411 34.2198 89.6947C34.1838 89.895 34.4509 90.0747 34.6049 89.9001Z" fill="#F67A45"/>
<path d="M31.5339 96.5455C31.9653 95.8214 32.3556 95.0665 32.7664 94.327C33.2152 93.6872 33.5504 92.975 33.7576 92.2214C33.7732 92.1414 33.763 92.0585 33.7285 91.9847C33.694 91.9108 33.637 91.8498 33.5657 91.8104C33.4943 91.771 33.4123 91.7553 33.3314 91.7655C33.2505 91.7757 33.175 91.8112 33.1156 91.8671C32.5456 92.4269 32.2477 93.3153 31.9139 94.0343C31.5801 94.7532 31.2001 95.5236 30.8868 96.2836C30.7276 96.6585 31.3644 96.8742 31.5544 96.5455H31.5339Z" fill="#F67A45"/>
<path d="M45.8106 88.0053C45.1737 89.6794 45.1481 91.7131 44.9581 93.4849C44.8502 94.512 44.8245 95.5082 44.7732 96.5148C44.7218 97.5214 44.4907 98.3995 44.4496 99.3445C44.4496 99.6834 45.0146 99.7604 45.0762 99.4266C45.4151 97.7011 45.6308 95.8883 45.8208 94.1371C46.0314 92.1958 46.509 90.0287 46.2573 88.0618C46.2521 88.0098 46.2293 87.9611 46.1928 87.9237C46.1563 87.8863 46.1083 87.8624 46.0564 87.8558C46.0046 87.8493 45.952 87.8605 45.9074 87.8876C45.8627 87.9148 45.8286 87.9562 45.8106 88.0053Z" fill="#F67A45"/>
<path d="M46.5552 80.6511C46.3806 81.5447 46.2368 82.4537 46.0878 83.3524C45.905 84.0751 45.8357 84.8218 45.8824 85.5658C45.9067 85.6354 45.95 85.6969 46.0074 85.7432C46.0647 85.7895 46.1339 85.8189 46.2071 85.828C46.2803 85.837 46.3545 85.8255 46.4215 85.7946C46.4884 85.7637 46.5454 85.7147 46.586 85.6531C46.8351 84.9514 46.972 84.2148 46.9917 83.4705C47.0893 82.5615 47.1971 81.6525 47.269 80.7436C47.2998 80.3533 46.6271 80.2711 46.5552 80.6511Z" fill="#F67A45"/>
<path d="M41.1167 87.0346C41.7278 86.0999 41.8922 84.8417 42.2054 83.7787C42.5649 82.541 42.8268 81.2931 43.1504 80.0555C43.2479 79.6908 42.6779 79.5419 42.57 79.9014C42.2003 81.1339 41.7638 82.3305 41.4248 83.5733C41.1321 84.6415 40.6134 85.8021 40.6442 86.9114C40.6475 86.9655 40.6677 87.0171 40.7021 87.059C40.7365 87.1009 40.7833 87.1308 40.8357 87.1445C40.8882 87.1581 40.9436 87.1549 40.994 87.1351C41.0445 87.1154 41.0874 87.0802 41.1167 87.0346Z" fill="#F67A45"/>
<path d="M37.1675 100.146C38.3641 99.0878 38.8314 96.7255 39.2217 95.2362C39.7096 93.4182 40.3361 91.5386 40.4439 89.6487C40.4439 89.3714 40.0536 89.3611 39.9663 89.5871C39.3039 91.3434 38.9803 93.2282 38.3692 95.0102C38.0679 95.9106 37.7735 96.8127 37.4859 97.7166C37.2445 98.4818 36.8645 99.2573 36.9724 100.069C36.9749 100.091 36.9837 100.113 36.9977 100.13C37.0116 100.148 37.0303 100.162 37.0515 100.17C37.0728 100.178 37.0958 100.18 37.1181 100.176C37.1403 100.171 37.161 100.161 37.1778 100.146H37.1675Z" fill="#F67A45"/>
<path d="M84.1317 70.6625C82.669 70.1776 81.1809 69.773 79.6741 69.4506C78.3594 69.1168 76.9574 68.5518 75.5913 68.5416C75.5371 68.5404 75.484 68.5571 75.4402 68.5892C75.3965 68.6212 75.3645 68.6668 75.3493 68.7189C75.3341 68.771 75.3365 68.8266 75.3561 68.8772C75.3757 68.9277 75.4115 68.9704 75.4578 68.9986C76.6493 69.6457 78.1591 69.8254 79.4687 70.1644C80.9444 70.6119 82.4447 70.9737 83.9622 71.248C84.0007 71.2591 84.0409 71.2626 84.0807 71.2581C84.1205 71.2537 84.159 71.2415 84.194 71.2222C84.2291 71.2028 84.26 71.1768 84.285 71.1456C84.31 71.1143 84.3286 71.0784 84.3397 71.04C84.3508 71.0015 84.3543 70.9613 84.3498 70.9215C84.3454 70.8817 84.3332 70.8432 84.3139 70.8082C84.2946 70.7731 84.2685 70.7422 84.2373 70.7172C84.206 70.6922 84.1701 70.6737 84.1317 70.6625Z" fill="#F67A45"/>
<path d="M77.8664 73.4407C77.1012 73.0196 76.3257 72.5934 75.5246 72.2442C74.9135 71.972 74.251 71.6022 73.568 71.7306C73.5263 71.7408 73.4881 71.7619 73.4573 71.7917C73.4264 71.8215 73.4041 71.8591 73.3926 71.9004C73.3811 71.9417 73.3808 71.9853 73.3918 72.0268C73.4027 72.0683 73.4246 72.1061 73.455 72.1363C73.8761 72.6242 74.6105 72.7629 75.1959 72.994C75.9868 73.3021 76.7725 73.6102 77.5377 73.98C77.8972 74.1546 78.2413 73.6513 77.8664 73.4664V73.4407Z" fill="#F67A45"/>
<path d="M87.4954 77.8883C86.2423 77.2515 84.9584 76.6763 83.6797 76.0909C82.5564 75.4897 81.3763 75.0011 80.1568 74.6324C80.0887 74.6024 80.0114 74.6007 79.9421 74.6277C79.8728 74.6547 79.817 74.7081 79.787 74.7762C79.757 74.8443 79.7554 74.9215 79.7823 74.9908C79.8093 75.0602 79.8627 75.116 79.9308 75.146C81.0503 75.9368 82.4985 76.4041 83.7413 76.9434C84.9122 77.4569 86.078 77.9705 87.2643 78.4121C87.3312 78.4361 87.4047 78.434 87.4701 78.4062C87.5355 78.3784 87.588 78.3269 87.6171 78.2621C87.6463 78.1973 87.65 78.1239 87.6274 78.0565C87.6048 77.9892 87.5577 77.9327 87.4954 77.8986V77.8883Z" fill="#F67A45"/>
<path d="M91.799 79.8706C91.4986 79.5531 91.1369 79.2998 90.7359 79.1259C90.3676 78.8564 89.9394 78.6802 89.488 78.6124C89.4339 78.6099 89.3802 78.622 89.3324 78.6474C89.2846 78.6727 89.2444 78.7105 89.2161 78.7566C89.1878 78.8027 89.1724 78.8556 89.1714 78.9097C89.1705 78.9638 89.184 79.0172 89.2107 79.0643C89.5215 79.3909 89.9103 79.6331 90.3405 79.7679C90.7249 79.9955 91.1509 80.1439 91.5936 80.2044C91.7476 80.2044 91.912 80.0092 91.799 79.8706Z" fill="#F67A45"/>
<path d="M90.3508 85.8279C89.9143 85.037 88.8717 84.5645 88.1271 84.0869C87.2674 83.4848 86.3506 82.9688 85.3899 82.5463C85.3382 82.5289 85.2821 82.5295 85.2308 82.5481C85.1794 82.5667 85.1359 82.6021 85.1073 82.6486C85.0787 82.695 85.0667 82.7498 85.0733 82.804C85.0798 82.8582 85.1045 82.9085 85.1434 82.9469C85.9213 83.6592 86.7696 84.2906 87.6752 84.8316C88.4352 85.3451 89.2415 86.0436 90.1607 86.1411C90.1978 86.1434 90.2348 86.1355 90.2678 86.1184C90.3007 86.1013 90.3284 86.0755 90.3479 86.0439C90.3674 86.0123 90.378 85.976 90.3785 85.9388C90.379 85.9017 90.3694 85.8651 90.3508 85.833V85.8279Z" fill="#F67A45"/>
<path d="M83.1868 81.293C81.7694 79.8705 79.6998 79.0129 78.0513 77.9293C76.4028 76.8457 74.6824 75.4386 72.7668 74.7761C72.7123 74.7606 72.6542 74.7632 72.6013 74.7836C72.5483 74.8039 72.5035 74.8409 72.4733 74.889C72.4432 74.937 72.4295 74.9936 72.4343 75.0501C72.4391 75.1066 72.4621 75.16 72.4998 75.2023C73.9326 76.6403 75.9355 77.5287 77.6353 78.5712C79.3352 79.6137 81.0196 81.0773 82.9146 81.7347C82.9719 81.7551 83.0344 81.7554 83.0919 81.7355C83.1493 81.7156 83.1983 81.6767 83.2306 81.6252C83.2629 81.5737 83.2767 81.5127 83.2697 81.4523C83.2627 81.3919 83.2352 81.3357 83.1919 81.293H83.1868Z" fill="#F67A45"/>
<path d="M75.6427 81.0208C74.7109 80.0422 73.6953 79.1469 72.6076 78.3452C71.5497 77.5029 70.5534 76.5734 69.4955 75.7415C69.1411 75.4642 68.5968 75.911 68.9819 76.255C70.009 77.2308 71.1491 78.1192 72.2122 79.0744C73.1485 79.9842 74.1623 80.8107 75.2421 81.5446C75.3112 81.581 75.3907 81.5924 75.4673 81.577C75.5438 81.5615 75.6127 81.52 75.6622 81.4596C75.7117 81.3993 75.7389 81.3236 75.7391 81.2455C75.7392 81.1674 75.7124 81.0917 75.6632 81.031L75.6427 81.0208Z" fill="#F67A45"/>
<path d="M87.2284 91.174C85.8778 89.5255 83.9468 88.2929 82.3908 86.8396C81.6615 86.1617 80.9528 85.4633 80.2082 84.7854C79.4635 84.1075 78.9294 83.4553 78.0307 83.2088C77.8253 83.1574 77.5172 83.3577 77.6199 83.594C78.0256 84.5132 78.8884 85.0422 79.6433 85.679C80.3982 86.3158 81.338 87.0296 82.1751 87.7332C83.7157 89.0119 85.1331 90.609 86.8381 91.6464C86.9024 91.6822 86.9771 91.6943 87.0494 91.6805C87.1216 91.6668 87.1867 91.628 87.2332 91.571C87.2798 91.5141 87.3048 91.4426 87.3039 91.369C87.303 91.2955 87.2763 91.2246 87.2284 91.1688V91.174Z" fill="#F67A45"/>
<path d="M68.304 81.2058C68.1397 80.5279 67.4721 79.9322 67.0561 79.3827C66.6401 78.8332 66.2704 78.1091 65.6746 77.842C65.6325 77.8194 65.5848 77.809 65.537 77.812C65.4893 77.8151 65.4433 77.8314 65.4043 77.8591C65.3653 77.8869 65.3349 77.925 65.3164 77.9692C65.2979 78.0134 65.2922 78.0618 65.2998 78.1091C65.423 78.7407 66.0906 79.3056 66.4963 79.7884C66.902 80.2711 67.3848 81.0979 68.0062 81.4163C68.0394 81.4358 68.0775 81.4452 68.1159 81.4436C68.1544 81.4419 68.1915 81.4292 68.2229 81.407C68.2544 81.3848 68.2787 81.354 68.2931 81.3183C68.3075 81.2826 68.3113 81.2436 68.304 81.2058Z" fill="#F67A45"/>
<path d="M73.8864 88.3955C72.4741 86.5775 71.1338 84.6825 69.6136 82.957C69.3569 82.6591 68.7817 83.0443 69.0282 83.3884C70.3531 85.232 71.8835 86.9473 73.3112 88.7088C73.5577 89.0118 74.1432 88.7087 73.8864 88.3955Z" fill="#F67A45"/>
<path d="M76.11 91.3689C75.956 91.124 75.7844 90.8905 75.5964 90.6705C75.427 90.4651 75.2626 90.1569 75.011 90.0645C74.9626 90.0387 74.908 90.027 74.8533 90.0307C74.7987 90.0344 74.7461 90.0534 74.7017 90.0855C74.6573 90.1176 74.6228 90.1616 74.6021 90.2123C74.5814 90.2631 74.5754 90.3186 74.5848 90.3726C74.6755 90.6412 74.8266 90.8854 75.0264 91.0865C75.1958 91.3182 75.3811 91.5379 75.581 91.7438C75.8275 91.9903 76.2795 91.6873 76.0946 91.3689H76.11Z" fill="#F67A45"/>
<path d="M67.7032 89.6947C67.3951 88.0463 66.3474 86.3721 65.6182 84.8776C64.889 83.3832 64.0775 81.7963 63.225 80.3071C63.0658 80.0195 62.5009 80.2095 62.6447 80.5382C63.3226 82.1507 64.0467 83.7581 64.8119 85.3296C65.5771 86.901 66.2036 88.6317 67.318 89.9002C67.4721 90.0748 67.7392 89.9002 67.7032 89.6947Z" fill="#F67A45"/>
<path d="M71.0567 96.2836C70.7228 95.5236 70.3531 94.7841 70.0296 94.0343C69.706 93.2845 69.3979 92.4269 68.8278 91.8671C68.7685 91.8112 68.6929 91.7757 68.612 91.7655C68.5312 91.7553 68.4492 91.771 68.3778 91.8104C68.3064 91.8498 68.2494 91.9108 68.2149 91.9847C68.1805 92.0585 68.1703 92.1414 68.1859 92.2214C68.393 92.975 68.7283 93.6872 69.1771 94.327C69.5879 95.0665 69.9782 95.8214 70.4096 96.5455C70.5996 96.8691 71.2415 96.6585 71.0772 96.2836H71.0567Z" fill="#F67A45"/>
<path d="M55.6553 88.0618C55.4037 90.0133 55.8813 92.1958 56.0918 94.1371C56.2819 95.8934 56.4976 97.7011 56.8365 99.4266C56.8981 99.7604 57.4733 99.6885 57.463 99.3445C57.4219 98.3995 57.1857 97.4597 57.1395 96.5148C57.0933 95.5699 57.0625 94.5068 56.9546 93.4849C56.7595 91.708 56.7389 89.6794 56.1021 88.0053C56.0841 87.9562 56.0499 87.9148 56.0053 87.8876C55.9606 87.8605 55.9081 87.8493 55.8563 87.8558C55.8044 87.8624 55.7563 87.8863 55.7198 87.9237C55.6834 87.9611 55.6606 88.0098 55.6553 88.0618Z" fill="#F67A45"/>
<path d="M54.6539 80.7436C54.7258 81.6526 54.8337 82.5616 54.9312 83.4706C54.9509 84.2149 55.0878 84.9515 55.3369 85.6532C55.3775 85.7147 55.4345 85.7637 55.5014 85.7946C55.5684 85.8255 55.6427 85.8371 55.7158 85.828C55.789 85.8189 55.8582 85.7896 55.9156 85.7433C55.9729 85.6969 56.0162 85.6355 56.0405 85.5659C56.0872 84.8219 56.0179 84.0751 55.8351 83.3525C55.6861 82.4537 55.5424 81.5448 55.3677 80.6512C55.2958 80.2763 54.6231 80.3482 54.6539 80.7436Z" fill="#F67A45"/>
<path d="M61.2787 86.9111C61.3095 85.8018 60.7908 84.6412 60.4981 83.573C60.154 82.3302 59.7226 81.1336 59.3477 79.9011C59.245 79.557 58.675 79.6905 58.7675 80.0552C59.0961 81.2928 59.358 82.5407 59.7175 83.7784C60.0308 84.8414 60.1951 86.0996 60.8011 87.0343C60.8314 87.079 60.8748 87.1132 60.9253 87.1323C60.9758 87.1514 61.031 87.1544 61.0833 87.1409C61.1356 87.1274 61.1824 87.0981 61.2174 87.0569C61.2524 87.0158 61.2738 86.9648 61.2787 86.9111Z" fill="#F67A45"/>
<path d="M64.9608 100.069C65.0533 99.2572 64.6784 98.4817 64.4473 97.7165C64.1546 96.8127 63.8721 95.9088 63.564 95.0101C62.9477 93.2332 62.6293 91.3434 61.9668 89.587C61.8795 89.3662 61.4533 89.3713 61.4892 89.6486C61.5971 91.5385 62.2288 93.413 62.7115 95.2361C63.1018 96.7151 63.5794 99.0928 64.7657 100.146C64.7825 100.161 64.8031 100.171 64.8254 100.176C64.8477 100.18 64.8707 100.178 64.8919 100.17C64.9132 100.162 64.9318 100.148 64.9458 100.13C64.9597 100.112 64.9685 100.091 64.9711 100.069H64.9608Z" fill="#F67A45"/>
<path d="M90.9516 67.4015C88.7485 67.2577 86.5505 67.0164 84.3525 66.8161C82.1545 66.6158 79.9103 66.1382 77.7483 66.2512C77.3528 66.2512 77.2347 66.8469 77.6507 66.9445C79.7049 67.4221 81.985 67.3502 84.0957 67.5299C86.381 67.7148 88.6715 67.8689 90.9516 68.1205C91.4292 68.1719 91.4652 67.4324 90.9516 67.4015Z" fill="#F67A45"/>
<path d="M97.8076 68.2745C97.1218 68.0897 96.417 67.9846 95.7071 67.9612C95.0755 67.8996 94.3 67.6737 93.7248 67.9869C93.6964 68.0015 93.6718 68.0228 93.6533 68.0488C93.6347 68.0749 93.6226 68.105 93.6181 68.1367C93.6136 68.1684 93.6167 68.2007 93.6272 68.2309C93.6378 68.2612 93.6554 68.2884 93.6786 68.3105C94.1922 68.7213 94.9882 68.6391 95.6301 68.6905C96.3515 68.7921 97.0822 68.8094 97.8076 68.7418C98.0797 68.7008 98.0233 68.3464 97.8076 68.2745Z" fill="#F67A45"/>
<path d="M97.7254 74.432C94.187 73.4768 90.6949 72.2392 87.0897 71.5254C87.0425 71.5011 86.9905 71.4876 86.9374 71.4858C86.8844 71.484 86.8316 71.494 86.7828 71.5151C86.7341 71.5361 86.6906 71.5677 86.6555 71.6076C86.6204 71.6475 86.5946 71.6946 86.58 71.7456C86.5653 71.7967 86.5621 71.8503 86.5706 71.9027C86.5791 71.9551 86.5991 72.005 86.6292 72.0488C86.6593 72.0925 86.6987 72.1291 86.7446 72.1558C86.7904 72.1825 86.8417 72.1987 86.8946 72.2032C90.4278 73.2303 94.0278 74.0315 97.6124 74.8224C97.639 74.8301 97.6669 74.8325 97.6945 74.8295C97.7221 74.8265 97.7488 74.818 97.7731 74.8047C97.7974 74.7913 97.8189 74.7733 97.8363 74.7517C97.8536 74.73 97.8665 74.7052 97.8743 74.6786C97.8821 74.6519 97.8845 74.624 97.8815 74.5964C97.8784 74.5689 97.87 74.5421 97.8566 74.5178C97.8433 74.4935 97.8253 74.472 97.8036 74.4547C97.782 74.4373 97.7571 74.4244 97.7305 74.4166L97.7254 74.432Z" fill="#F67A45"/>
<path d="M51.3466 83.1933C51.3903 82.535 51.3903 81.8745 51.3466 81.2162C51.3728 80.6225 51.2981 80.0286 51.1258 79.4598C51.1096 79.4121 51.0788 79.3707 51.0378 79.3413C50.9968 79.3119 50.9477 79.2961 50.8973 79.2961C50.8469 79.2961 50.7977 79.3119 50.7567 79.3413C50.7157 79.3707 50.685 79.4121 50.6687 79.4598C50.5359 80.0825 50.5081 80.723 50.5866 81.3548C50.5958 81.9979 50.649 82.6397 50.7458 83.2755C50.7971 83.6145 51.3312 83.5066 51.3569 83.1933H51.3466Z" fill="#F67A45"/>
<path d="M51.1412 92.627C51.5674 91.415 51.3877 89.8949 51.4134 88.611C51.439 87.3271 51.6804 85.8173 51.2952 84.6207C51.2795 84.5754 51.25 84.5361 51.2109 84.5083C51.1718 84.4805 51.125 84.4656 51.077 84.4656C51.029 84.4656 50.9822 84.4805 50.9431 84.5083C50.904 84.5361 50.8745 84.5754 50.8587 84.6207C50.4068 85.7865 50.5609 87.3631 50.5095 88.611C50.4582 89.8589 50.1962 91.3842 50.5557 92.627C50.5783 92.6863 50.6184 92.7373 50.6707 92.7734C50.723 92.8094 50.785 92.8287 50.8485 92.8287C50.9119 92.8287 50.9739 92.8094 51.0262 92.7734C51.0785 92.7373 51.1186 92.6863 51.1412 92.627Z" fill="#F67A45"/>
<path d="M51.1001 96.9666C51.3473 96.3689 51.4528 95.722 51.4082 95.0768C51.4339 94.5016 51.5777 93.7929 51.1412 93.3564C51.0889 93.3076 51.0201 93.2805 50.9486 93.2805C50.8771 93.2805 50.8083 93.3076 50.756 93.3564C50.3144 93.7826 50.4479 94.5067 50.4582 95.0768C50.4021 95.7193 50.4952 96.366 50.7303 96.9666C50.7504 96.9973 50.7778 97.0226 50.8101 97.0401C50.8424 97.0575 50.8785 97.0667 50.9152 97.0667C50.9519 97.0667 50.9881 97.0575 51.0203 97.0401C51.0526 97.0226 51.08 96.9973 51.1001 96.9666Z" fill="#F67A45"/>
<path d="M17.9915 56.283C17.8991 54.5369 17.7861 52.4262 17.8118 50.8548H17.7501C17.2982 52.3441 16.723 53.9361 16.0708 55.7386C15.2868 57.8476 14.5045 60.0045 13.7239 62.2094L12.4298 62.3737C11.7245 60.3674 11.0175 58.3132 10.3088 56.2111C9.68228 54.352 9.15846 52.6162 8.76816 50.9986H8.7322C8.69112 52.7087 8.58842 55.0094 8.4703 57.079C8.35048 59.0579 8.23236 61.0402 8.11595 63.0259L6.49313 63.2724C6.80126 58.5443 7.10939 53.8642 7.41752 49.2319H9.59498C10.3448 51.4197 11.0928 53.5595 11.8392 55.6513C12.3887 57.2536 12.8355 58.6556 13.1641 59.9857H13.2206C13.5596 58.6299 14.032 57.1509 14.6226 55.487C15.4135 53.3575 16.2044 51.269 16.9952 49.2217H19.1727C19.4329 53.3746 19.6948 57.5018 19.9584 61.6034L18.2894 61.7677C18.2021 59.9651 18.0788 58.1318 17.9915 56.283Z" fill="#F67A45"/>
<path d="M24.8474 49.2373C24.8474 51.5996 24.8389 53.9637 24.8218 56.3294C24.8218 59.0256 26.1262 60.0681 27.9031 59.9705C29.87 59.8627 31.1282 58.6764 31.1333 56.1086C31.1333 53.8182 31.1333 51.526 31.1333 49.2322H32.8588V55.97C32.8588 59.5135 30.707 61.0438 27.8312 61.2184C25.1196 61.393 23.0808 60.1554 23.0962 56.3808V49.2425L24.8474 49.2373Z" fill="#F67A45"/>
<path d="M36.0839 58.8869C37.0425 59.3575 38.0974 59.5984 39.1652 59.5905C40.9164 59.5905 41.9435 58.7894 41.9435 57.639C41.9435 56.576 41.2348 55.9597 39.4425 55.3743C37.2805 54.722 35.9453 53.772 35.9504 52.1543C35.9504 50.3671 37.6605 49.037 40.2334 49.0422C41.2323 49.0117 42.2253 49.2047 43.1401 49.6071L42.6728 50.8088C41.8842 50.4446 41.025 50.2588 40.1564 50.2644C38.3487 50.2644 37.6605 51.1991 37.6605 51.9797C37.6605 53.0479 38.4668 53.5666 40.295 54.1726C42.5341 54.9172 43.6742 55.857 43.6793 57.5363C43.6793 59.3029 42.1387 60.7922 39.0317 60.8179C37.8671 60.8474 36.7107 60.6158 35.6474 60.14C35.7912 59.7189 35.935 59.3029 36.0839 58.8869Z" fill="#F67A45"/>
<path d="M55.7786 60.7306C54.6457 61.0685 53.4593 61.1905 52.2813 61.0901C48.5427 60.8898 45.7233 58.8099 45.7233 55.0559C45.7233 51.461 48.5221 49.0525 52.6254 49.0422C53.6956 48.9933 54.7643 49.1682 55.7632 49.5558C55.6297 49.9717 55.491 50.3877 55.3575 50.8037C54.511 50.4543 53.6027 50.2796 52.687 50.2901C49.6057 50.2901 47.5258 51.9951 47.5515 55.0097C47.5515 57.8239 49.426 59.6624 52.6511 59.8216C53.596 59.881 54.5436 59.7625 55.4448 59.4724L55.7786 60.7306Z" fill="#F67A45"/>
<path d="M58.3771 49.2373H60.0821C60.0821 52.8698 60.0941 56.4989 60.1181 60.1246C62.0011 60.2684 63.8841 60.4396 65.7671 60.6381V62.0196C63.3175 61.7525 60.8679 61.506 58.4079 61.3263C58.4011 57.2795 58.3908 53.2498 58.3771 49.2373Z" fill="#F67A45"/>
<path d="M74.9853 56.6786C73.2735 56.5348 71.5617 56.4047 69.8498 56.2883C69.8498 57.8803 69.8498 59.4672 69.8498 61.0592C71.7568 61.2817 73.6587 61.5248 75.5554 61.7884V63.3291C73.0903 62.9456 70.6219 62.6032 68.15 62.302L68.1192 49.2732H75.2627V50.8138L69.8293 50.7214C69.8293 52.1131 69.8293 53.51 69.8293 54.9068C71.5445 54.9993 73.2547 55.1071 74.9648 55.2201L74.9853 56.6786Z" fill="#F67A45"/>
<path d="M37.9019 72.8913C37.2077 73.1787 36.4599 73.3136 35.709 73.2868C33.3672 73.2868 31.6006 71.8077 31.6006 69.0859C31.6006 66.4822 33.3621 64.7208 35.9401 64.7208C36.6171 64.6922 37.2916 64.8187 37.9122 65.0905L37.6502 65.9636C37.1242 65.7274 36.5526 65.6099 35.9761 65.6195C34.0297 65.6195 32.7356 66.8674 32.7356 69.0449C32.7356 71.0991 33.9065 72.3881 35.9247 72.3881C36.526 72.3956 37.1222 72.2785 37.6759 72.044L37.9019 72.8913Z" fill="#F67A45"/>
<path d="M40.4799 64.8542H41.5532V72.2648H45.1019V73.1635H40.4799V64.8542Z" fill="#F67A45"/>
<path d="M48.1575 64.8542V69.7741C48.1575 71.6331 48.9843 72.424 50.0936 72.424C51.3261 72.424 52.1169 71.6126 52.1169 69.7741V64.8542H53.2005V69.7022C53.2005 72.2699 51.855 73.297 50.0576 73.297C48.3578 73.297 47.0739 72.3264 47.0739 69.7484V64.8542H48.1575Z" fill="#F67A45"/>
<path d="M56.2921 64.9675C56.9391 64.8477 57.5959 64.7892 58.2539 64.7929C59.0618 64.7181 59.87 64.9328 60.5341 65.3989C60.7597 65.5692 60.9403 65.792 61.0603 66.0479C61.1802 66.3039 61.2358 66.5853 61.2222 66.8676C61.2086 67.28 61.066 67.6777 60.8145 68.0047C60.563 68.3318 60.2153 68.5717 59.8202 68.6908C60.3007 68.7886 60.7328 69.0486 61.0442 69.4274C61.3556 69.8061 61.5272 70.2803 61.5303 70.7706C61.5354 71.0817 61.4754 71.3904 61.3543 71.6769C61.2331 71.9634 61.0534 72.2215 60.8268 72.4345C60.2516 72.9481 59.3118 73.21 57.956 73.21C57.3998 73.2153 56.8439 73.1827 56.2921 73.1124V64.9675ZM57.3655 68.3672H58.3412C59.471 68.3672 60.1386 67.7766 60.1386 66.9755C60.1386 66.0049 59.3991 65.6197 58.3155 65.6197C57.997 65.6099 57.6783 65.6358 57.3655 65.6967V68.3672ZM57.3655 72.3524C57.6634 72.3905 57.9639 72.4059 58.2642 72.3986C59.3734 72.3986 60.3954 71.9929 60.3954 70.786C60.3954 69.5792 59.4248 69.1838 58.2539 69.1838H57.3655V72.3524Z" fill="#F67A45"/>
<path d="M37.0802 22.9023C36.8183 20.5195 36.2175 18.152 35.7707 15.7999C35.2058 12.8162 34.7436 9.67328 36.3921 6.93606C39.3963 1.93408 45.7438 1.287 51.0026 1.10213C51.1252 1.10213 51.2427 1.05343 51.3294 0.966749C51.4161 0.88007 51.4648 0.762508 51.4648 0.639926C51.4648 0.517345 51.4161 0.39979 51.3294 0.313112C51.2427 0.226433 51.1252 0.177734 51.0026 0.177734C45.4973 0.367748 39.3553 1.16376 35.9402 6.04248C34.3481 8.32265 34.1325 11.0136 34.5176 13.7046C34.9433 16.8406 35.6077 19.9394 36.5051 22.9742C36.5924 23.2618 37.1213 23.2259 37.0802 22.9023Z" fill="#F67A45"/>
<path d="M42.7293 17.7671C41.3889 16.6065 40.3721 15.2969 40.2129 13.4636C40.1405 12.5159 40.2957 11.5648 40.6655 10.6893C41.0354 9.81385 41.6091 9.03949 42.339 8.43077C44.804 6.27386 47.9161 6.02222 51.0436 5.86302C51.5829 5.86302 51.5829 5.02079 51.0436 5.05161C47.3204 5.27243 43.3712 5.79626 40.8599 8.8981C38.6209 11.661 38.9958 16.4473 42.3595 18.1933C42.6368 18.3371 43.0014 17.9828 42.7293 17.7466V17.7671Z" fill="#F67A45"/>
<path d="M65.5206 22.9845C66.3858 20.022 67.038 17.0015 67.4721 13.946C67.883 11.1728 67.7135 8.41506 66.0855 6.04759C62.7731 1.23049 56.4462 0.218801 51.0231 0.187988C50.9005 0.187988 50.783 0.236679 50.6963 0.323358C50.6096 0.410036 50.5609 0.527599 50.5609 0.65018C50.5609 0.772762 50.6096 0.890324 50.6963 0.977003C50.783 1.06368 50.9005 1.11238 51.0231 1.11238C56.2305 1.11238 62.7012 2.0111 65.6336 6.94118C67.2256 9.61164 66.8456 12.6621 66.2961 15.5791C65.839 18.003 65.2125 20.4527 64.9403 22.9126C64.9044 23.2361 65.4539 23.2721 65.5206 22.9845Z" fill="#F67A45"/>
<path d="M59.5172 18.2804C62.9529 16.4984 63.5383 11.784 61.2068 8.903C58.6904 5.8217 54.7412 5.27734 51.0231 5.05651C50.4787 5.0257 50.4787 5.84224 51.0231 5.86792C54.1455 6.00658 57.2627 6.26335 59.7227 8.43567C60.4256 9.02021 60.9844 9.75883 61.3558 10.5942C61.7272 11.4296 61.9011 12.3393 61.8642 13.2528C61.7563 15.2453 60.5854 16.6114 59.1526 17.8747C58.8804 18.1058 59.2399 18.4653 59.5172 18.3215V18.2804Z" fill="#F67A45"/>
<path d="M51.778 46.3359C58.1152 46.8495 66.332 44.559 68.4838 37.8007C70.5996 31.1554 67.2513 23.1902 61.7717 19.205C58.8733 17.1309 55.4378 15.9374 51.8778 15.768C48.3177 15.5986 44.7844 16.4603 41.7022 18.2498C35.7655 21.7831 32.1039 29.2039 33.1772 36.0752C33.7678 39.8857 36.2585 42.7513 39.6274 44.4358C43.4174 46.3359 47.6234 46.2691 51.7626 46.4386C51.8498 46.4386 51.9334 46.404 51.995 46.3423C52.0566 46.2807 52.0913 46.1971 52.0913 46.1099C52.0913 46.0228 52.0566 45.9392 51.995 45.8775C51.9334 45.8159 51.8498 45.7813 51.7626 45.7813C45.5743 45.4988 37.7889 45.2677 34.7179 38.7559C31.8471 32.6601 34.8 24.4638 39.7815 20.3862C45.0608 16.0673 52.8667 15.2918 58.9523 18.3063C64.9249 21.2592 68.6019 27.8173 68.2681 34.4523C67.8316 43.0903 59.1423 45.8994 51.7626 45.884C51.7329 45.885 51.7037 45.8918 51.6767 45.9041C51.6497 45.9164 51.6253 45.9339 51.6051 45.9556C51.5848 45.9773 51.569 46.0028 51.5586 46.0306C51.5482 46.0584 51.5433 46.088 51.5444 46.1176C51.5454 46.1473 51.5522 46.1765 51.5645 46.2035C51.5768 46.2306 51.5943 46.2549 51.616 46.2752C51.6377 46.2954 51.6631 46.3112 51.691 46.3216C51.7188 46.3321 51.7483 46.3369 51.778 46.3359Z" fill="#F67A45"/>
<path d="M44.6294 6.29937C40.3361 8.46655 40.182 14.5162 43.5509 17.5307C43.8796 17.8234 44.3931 17.3458 44.0645 17.0172C43.236 16.321 42.5914 15.4318 42.1875 14.4279C41.7836 13.424 41.6328 12.3362 41.7484 11.2603C42.0103 9.20605 43.2377 7.72704 44.8297 6.52019C44.9889 6.40208 44.7783 6.19665 44.6242 6.27368L44.6294 6.29937Z" fill="#F67A45"/>
<path d="M63.8156 20.7043C64.17 19.6772 64.3959 18.5885 64.6681 17.5254C64.8941 16.6165 65.3049 15.651 65.1817 14.7112C65.1784 14.6807 65.1659 14.652 65.1458 14.6289C65.1256 14.6058 65.0988 14.5895 65.069 14.5822C65.0392 14.5749 65.008 14.5769 64.9794 14.5881C64.9509 14.5992 64.9264 14.6189 64.9095 14.6444C64.3959 15.4148 64.2727 16.4624 64.0467 17.3714C63.7848 18.4344 63.4767 19.4923 63.3021 20.5759C63.285 20.644 63.2958 20.7161 63.3319 20.7763C63.368 20.8365 63.4265 20.8799 63.4946 20.8969C63.5627 20.9139 63.6348 20.9032 63.695 20.8671C63.7552 20.831 63.7986 20.7724 63.8156 20.7043Z" fill="#F67A45"/>
<path d="M65.3717 12.4774C65.8391 11.6352 65.5258 9.87885 64.7349 9.28313C64.6425 9.21637 64.4319 9.23691 64.4473 9.39611C64.4987 9.90966 64.776 10.3359 64.8736 10.8289C64.9711 11.3219 64.9455 11.9176 65.0995 12.4466C65.1096 12.4731 65.1267 12.4962 65.1491 12.5136C65.1714 12.5309 65.1981 12.5418 65.2262 12.545C65.2544 12.5482 65.2828 12.5435 65.3085 12.5316C65.3341 12.5197 65.356 12.501 65.3717 12.4774Z" fill="#F67A45"/>
<path d="M35.9555 31.1912C35.1955 32.4134 35.442 34.4933 35.7347 35.8131C36.0274 37.133 36.7361 39.0588 37.9686 39.8907C38.0765 39.9677 38.2716 39.8496 38.2203 39.7161C37.7067 38.3655 36.7977 37.287 36.4331 35.8388C36.2357 35.1007 36.122 34.3427 36.0942 33.5792C36.0942 32.7935 36.2996 32.0129 36.2072 31.2374C36.2037 31.2095 36.1918 31.1834 36.1731 31.1624C36.1544 31.1414 36.1298 31.1266 36.1026 31.1199C36.0753 31.1133 36.0466 31.115 36.0204 31.125C35.9941 31.135 35.9715 31.1527 35.9555 31.1758V31.1912Z" fill="#F67A45"/>
<path d="M39.268 41.4157C39.5511 41.7867 39.91 42.093 40.3207 42.3145C40.6905 42.5866 41.1476 42.7128 41.6046 42.6688C41.6438 42.6587 41.6797 42.6385 41.7087 42.6101C41.7376 42.5818 41.7586 42.5463 41.7696 42.5073C41.7805 42.4683 41.781 42.4271 41.7709 42.3879C41.7609 42.3486 41.7407 42.3127 41.7124 42.2836C41.3903 42.0932 41.0452 41.9448 40.6853 41.842C40.3193 41.6441 39.9751 41.4083 39.6582 41.1384C39.4734 40.9946 39.0934 41.1744 39.268 41.4157Z" fill="#F67A45"/>
<path d="M60.3954 20.7762C61.4225 22.0396 62.6499 23.0307 63.5383 24.4225C64.5038 25.9323 64.9249 27.5397 65.5925 29.1779C65.6953 29.4347 66.1626 29.4296 66.142 29.1112C65.9674 26.1018 63.374 21.8804 60.5854 20.6273C60.5033 20.5862 60.3389 20.6735 60.4211 20.7762H60.3954Z" fill="#F67A45"/>
<path d="M66.0496 31.1913C66.1112 32.0181 65.8236 32.809 65.8082 33.6255C65.8082 33.8053 66.0496 33.831 66.1369 33.7077C66.6864 32.9836 66.6093 32.0387 66.522 31.1913C66.4963 30.9089 66.0085 30.9037 66.0496 31.1913Z" fill="#F67A45"/>
<path d="M58.3155 26.2612C57.6106 25.5525 56.7955 24.9629 55.9018 24.5152C54.3873 23.7569 52.7169 23.3621 51.0231 23.3621C49.3293 23.3621 47.6589 23.7569 46.1444 24.5152C45.2593 24.9626 44.4514 25.5486 43.7512 26.2509C41.9442 28.0826 40.9266 30.5493 40.9164 33.1222C40.8982 34.1847 41.1453 35.235 41.6354 36.1779C42.4622 37.6826 44.0594 38.7456 45.7798 39.3054C47.5001 39.8652 49.6571 39.8446 51.4802 39.9268C53.1059 40.0559 54.7409 39.855 56.287 39.3362C58.0074 38.7662 59.6097 37.7134 60.4365 36.2087C60.9248 35.2653 61.1701 34.2151 61.1503 33.1531C61.1505 30.572 60.1317 28.0952 58.3155 26.2612ZM47.1098 37.9445C44.5935 37.7647 42.4879 35.0275 42.149 32.7165C42.1461 32.691 42.1524 32.6653 42.1668 32.644C42.1813 32.6228 42.2028 32.6074 42.2275 32.6005C42.2523 32.5937 42.2787 32.596 42.3019 32.6069C42.3252 32.6178 42.3438 32.6367 42.3544 32.66C42.7109 33.8627 43.3623 34.9572 44.2494 35.8441C45.1429 36.712 46.129 37.0714 47.1972 37.6364C47.2297 37.6543 47.2552 37.6827 47.2696 37.717C47.2839 37.7513 47.2862 37.7894 47.2761 37.8251C47.2659 37.8609 47.244 37.8922 47.2138 37.9138C47.1836 37.9355 47.147 37.9463 47.1098 37.9445ZM49.164 38.7199C48.9362 38.7372 48.7072 38.7075 48.4913 38.6326C48.2499 38.5762 48.368 38.2629 48.5889 38.2937C48.8017 38.2969 49.0115 38.3441 49.2051 38.4323C49.2315 38.4471 49.2532 38.4691 49.2676 38.4957C49.282 38.5223 49.2884 38.5525 49.2863 38.5827C49.2841 38.6129 49.2734 38.6418 49.2554 38.6661C49.2374 38.6904 49.2128 38.7091 49.1846 38.7199H49.164ZM53.5138 35.5257L51.0231 34.2007L48.5118 35.5205L48.9894 32.7217L46.9609 30.7445L49.7649 30.3337L51.0231 27.7659L52.2762 30.3337L55.0853 30.7445L53.0311 32.7217L53.5138 35.5257ZM58.6493 29.702C58.0331 28.9214 57.6736 27.9713 57.0316 27.1907C56.386 26.4371 55.6514 25.7646 54.8439 25.1879C54.8028 25.152 54.8439 25.1109 54.9004 25.1263C56.6208 25.8041 58.7983 27.6375 58.978 29.6198C59.0088 29.8047 58.752 29.815 58.6493 29.702ZM59.4967 31.8692C59.4885 31.8925 59.474 31.913 59.4548 31.9285C59.4356 31.9441 59.4125 31.954 59.388 31.9572C59.3636 31.9604 59.3387 31.9567 59.3162 31.9466C59.2936 31.9365 59.2744 31.9204 59.2604 31.9C59.1327 31.6884 59.0719 31.4432 59.0858 31.1964C59.0858 30.9191 59.4967 30.9345 59.5326 31.1964C59.5981 31.4171 59.5909 31.6529 59.5121 31.8692H59.4967Z" fill="#F67A45"/>
<path d="M72.0941 39.7725V39.2589L72.7309 38.6376C74.2715 37.1739 74.9597 36.3985 74.9699 35.4946C74.9864 35.3348 74.9667 35.1733 74.9125 35.0221C74.8582 34.8709 74.7706 34.7338 74.6563 34.6209C74.5419 34.508 74.4037 34.4222 74.2518 34.3699C74.0998 34.3176 73.9381 34.3001 73.7785 34.3186C73.3058 34.3374 72.8542 34.5188 72.4998 34.8321L72.243 34.257C72.721 33.8619 73.3227 33.6474 73.9428 33.651C74.1817 33.6297 74.4225 33.6595 74.649 33.7384C74.8755 33.8173 75.0825 33.9436 75.2565 34.1088C75.4304 34.2739 75.5671 34.4742 75.6576 34.6964C75.7481 34.9185 75.7903 35.1573 75.7813 35.397C75.7813 36.5063 74.9802 37.405 73.7271 38.6221L73.2495 39.0689H75.9457V39.7468L72.0941 39.7725Z" fill="#F67A45"/>
<path d="M81.7591 36.7016C81.7591 38.7558 81.0042 39.8753 79.6689 39.8753C78.498 39.8753 77.702 38.7712 77.6815 36.794C77.661 34.8168 78.5494 33.6716 79.7717 33.6716C80.9939 33.6716 81.7591 34.786 81.7591 36.7016ZM78.498 36.794C78.498 38.3347 78.9756 39.2437 79.7152 39.2437C80.5471 39.2437 80.9477 38.273 80.9477 36.7375C80.9477 35.202 80.5677 34.2879 79.7254 34.2879C79.0065 34.2879 78.4929 35.1558 78.4929 36.794H78.498Z" fill="#F67A45"/>
<path d="M85.1948 34.5188L84.1677 35.0837L84.0085 34.4624L85.3231 33.7588H86.0164V39.7725H85.2307L85.1948 34.5188Z" fill="#F67A45"/>
<path d="M89.0207 38.2474C89.0258 37.8878 89.1435 37.5388 89.3572 37.2496C89.5709 36.9604 89.8699 36.7454 90.2121 36.6348V36.6092C89.9382 36.5029 89.7018 36.3179 89.5328 36.0776C89.3637 35.8372 89.2695 35.5523 89.262 35.2585C89.262 34.3084 90.0632 33.6614 91.1211 33.6614C92.2869 33.6614 92.8672 34.3906 92.8672 35.1404C92.8597 35.4461 92.7615 35.7426 92.585 35.9923C92.4085 36.2419 92.1617 36.4334 91.876 36.5424V36.5732C92.2155 36.6679 92.516 36.8683 92.7339 37.1453C92.9519 37.4224 93.0759 37.7616 93.088 38.1138C93.088 39.1409 92.1944 39.8651 91.0338 39.8651C89.7756 39.8753 89.0207 39.1255 89.0207 38.2474ZM92.2561 38.2063C92.2561 37.477 91.7425 37.1278 90.9311 36.8967C90.6368 36.9483 90.3691 37.0994 90.1728 37.3246C89.9765 37.5499 89.8634 37.8358 89.8526 38.1344C89.8462 38.2914 89.8733 38.448 89.9322 38.5937C89.991 38.7393 90.0804 38.8708 90.1941 38.9792C90.3079 39.0876 90.4434 39.1705 90.5918 39.2223C90.7401 39.2741 90.8978 39.2936 91.0543 39.2796C91.2052 39.2954 91.3577 39.2794 91.5021 39.2328C91.6464 39.1861 91.7795 39.1098 91.8926 39.0088C92.0058 38.9077 92.0965 38.7841 92.1591 38.6459C92.2217 38.5077 92.2547 38.358 92.2561 38.2063ZM90.017 35.2277C90.017 35.8286 90.4689 36.1521 91.1622 36.337C91.4159 36.2786 91.6434 36.1383 91.8095 35.9379C91.9756 35.7374 92.0712 35.4878 92.0814 35.2277C92.0888 35.0929 92.0669 34.9582 92.0172 34.8327C91.9675 34.7072 91.8913 34.594 91.7937 34.5008C91.6961 34.4076 91.5795 34.3366 91.4518 34.2928C91.3242 34.249 91.1886 34.2333 91.0543 34.2468C90.9202 34.236 90.7852 34.2535 90.6582 34.2982C90.5312 34.3429 90.415 34.4137 90.3172 34.5062C90.2194 34.5987 90.1421 34.7108 90.0904 34.835C90.0387 34.9593 90.0136 35.0931 90.017 35.2277Z" fill="#F67A45"/>
<path d="M3.85352 36.8502H1.42957V39.0945H4.13085V39.7723H0.618164V33.5378H3.98191V34.2003H1.41416V36.1672H3.83812L3.85352 36.8502Z" fill="#F67A45"/>
<path d="M5.98987 38.7916C6.42628 39.0527 6.92441 39.1927 7.43295 39.1973C8.25463 39.1973 8.73737 38.7659 8.73737 38.1342C8.73737 37.5026 8.40356 37.2201 7.56133 36.8966C6.53423 36.5371 5.91284 36.0081 5.91284 35.13C5.91284 34.1594 6.71911 33.4353 7.93109 33.4353C8.40864 33.4188 8.88247 33.5249 9.30742 33.7434L9.08658 34.4007C8.72397 34.2042 8.31786 34.1018 7.90542 34.1029C7.05293 34.1029 6.72938 34.6164 6.72938 35.0375C6.72938 35.6178 7.10941 35.9054 7.96704 36.2392C9.01982 36.6449 9.55905 37.1534 9.55905 38.0726C9.55905 38.9919 8.83495 39.8495 7.37646 39.8495C6.81993 39.8572 6.27108 39.7191 5.78445 39.4489L5.98987 38.7916Z" fill="#F67A45"/>
<path d="M12.7636 34.226H10.8892V33.5378H15.5111V34.226H13.6058V39.7723H12.7893L12.7636 34.226Z" fill="#F67A45"/>
<path d="M17.098 33.6201C17.6642 33.5361 18.2357 33.4932 18.8081 33.4917C19.7186 33.4168 20.623 33.6944 21.3348 34.2672C21.6338 34.5551 21.8671 34.9043 22.0187 35.2907C22.1702 35.6772 22.2365 36.0918 22.2129 36.5063C22.2344 36.95 22.1659 37.3936 22.0115 37.8102C21.857 38.2268 21.6198 38.6078 21.3142 38.9302C20.5493 39.5779 19.5613 39.9005 18.5616 39.8289C18.0726 39.8308 17.584 39.8051 17.098 39.7519V33.6201ZM17.9042 39.1357C18.1731 39.1722 18.4444 39.1877 18.7156 39.1819C20.436 39.1819 21.3707 38.2164 21.3707 36.5371C21.3707 35.0632 20.549 34.1285 18.8492 34.1285C18.532 34.1244 18.2153 34.1537 17.9042 34.2158V39.1357Z" fill="#F67A45"/>
<path d="M33.6343 30.1178C32.3838 29.9895 31.1267 29.938 29.87 29.9637C28.6117 29.8641 27.3464 29.8986 26.0954 30.0664C26.0461 30.0795 26.0025 30.1085 25.9714 30.1489C25.9403 30.1893 25.9234 30.2388 25.9234 30.2898C25.9234 30.3408 25.9403 30.3904 25.9714 30.4308C26.0025 30.4712 26.0461 30.5002 26.0954 30.5132C27.3464 30.6811 28.6117 30.7155 29.87 30.6159C31.1266 30.6434 32.3837 30.5937 33.6343 30.467C33.6734 30.4575 33.7081 30.4351 33.733 30.4034C33.7579 30.3717 33.7714 30.3327 33.7714 30.2924C33.7714 30.2522 33.7579 30.2131 33.733 30.1814C33.7081 30.1497 33.6734 30.1273 33.6343 30.1178Z" fill="#F67A45"/>
<path d="M0.869778 30.4722C4.57761 30.7084 8.32653 30.5954 12.0395 30.616C15.7525 30.6365 19.5322 30.9036 23.2041 30.5235C23.2377 30.5285 23.2719 30.5262 23.3046 30.5168C23.3372 30.5073 23.3674 30.491 23.3931 30.4688C23.4188 30.4466 23.4394 30.4192 23.4536 30.3883C23.4677 30.3574 23.475 30.3238 23.475 30.2899C23.475 30.2559 23.4677 30.2224 23.4536 30.1915C23.4394 30.1606 23.4188 30.1332 23.3931 30.111C23.3674 30.0888 23.3372 30.0724 23.3046 30.063C23.2719 30.0535 23.2377 30.0512 23.2041 30.0562C19.5322 29.6762 15.7268 29.9432 12.0395 29.9638C8.3522 29.9843 4.57761 29.8713 0.869778 30.1076C0.843274 30.1031 0.816115 30.1045 0.790194 30.1116C0.764273 30.1187 0.740222 30.1314 0.7197 30.1487C0.699177 30.1661 0.682678 30.1877 0.671366 30.2121C0.660055 30.2365 0.654205 30.263 0.654205 30.2899C0.654205 30.3168 0.660055 30.3433 0.671366 30.3677C0.682678 30.3921 0.699177 30.4137 0.7197 30.431C0.740222 30.4484 0.764273 30.4611 0.790194 30.4682C0.816115 30.4753 0.843274 30.4767 0.869778 30.4722Z" fill="#F67A45"/>
<path d="M0.818452 42.0476C2.06888 42.176 3.32602 42.2274 4.58277 42.2016C5.84112 42.2986 7.10615 42.2642 8.35736 42.0989C8.40907 42.0879 8.4554 42.0594 8.48864 42.0182C8.52188 41.9771 8.54001 41.9258 8.54001 41.873C8.54001 41.8201 8.52188 41.7688 8.48864 41.7277C8.4554 41.6866 8.40907 41.6581 8.35736 41.647C7.10636 41.4792 5.84105 41.4447 4.58277 41.5443C3.32602 41.5185 2.06888 41.5699 0.818452 41.6984C0.779351 41.7079 0.744587 41.7303 0.719732 41.762C0.694876 41.7936 0.681366 41.8327 0.681366 41.873C0.681366 41.9132 0.694876 41.9523 0.719732 41.984C0.744587 42.0156 0.779351 42.038 0.818452 42.0476Z" fill="#F67A45"/>
<path d="M36.2431 41.6933C32.0937 41.4519 27.9031 41.57 23.7433 41.5444C19.5836 41.5187 15.3673 41.2568 11.2435 41.6419C11.2132 41.6419 11.1831 41.6479 11.1551 41.6595C11.127 41.6711 11.1016 41.6882 11.0801 41.7096C11.0586 41.7311 11.0416 41.7566 11.03 41.7846C11.0184 41.8126 11.0124 41.8427 11.0124 41.873C11.0124 41.9034 11.0184 41.9334 11.03 41.9615C11.0416 41.9895 11.0586 42.015 11.0801 42.0364C11.1016 42.0579 11.127 42.0749 11.1551 42.0865C11.1831 42.0981 11.2132 42.1041 11.2435 42.1041C15.3519 42.4893 19.6093 42.2222 23.7433 42.2017C27.8774 42.1812 32.0937 42.289 36.2431 42.0528C36.2667 42.0528 36.2901 42.0481 36.3119 42.0391C36.3337 42.0301 36.3536 42.0168 36.3702 42.0001C36.3869 41.9834 36.4002 41.9636 36.4092 41.9418C36.4182 41.92 36.4229 41.8966 36.4229 41.873C36.4229 41.8494 36.4182 41.8261 36.4092 41.8042C36.4002 41.7824 36.3869 41.7626 36.3702 41.7459C36.3536 41.7292 36.3337 41.716 36.3119 41.707C36.2901 41.6979 36.2667 41.6933 36.2431 41.6933Z" fill="#F67A45"/>
<path d="M68.4068 30.4669C69.6556 30.5936 70.911 30.6434 72.166 30.6159C73.426 30.7154 74.693 30.681 75.9457 30.5132C75.995 30.5001 76.0386 30.4711 76.0697 30.4307C76.1007 30.3903 76.1176 30.3408 76.1176 30.2898C76.1176 30.2388 76.1007 30.1892 76.0697 30.1488C76.0386 30.1084 75.995 30.0794 75.9457 30.0664C74.6929 29.8986 73.426 29.8642 72.166 29.9637C70.9109 29.9378 69.6555 29.9893 68.4068 30.1177C68.3677 30.1273 68.3329 30.1497 68.308 30.1813C68.2832 30.213 68.2697 30.2521 68.2697 30.2923C68.2697 30.3326 68.2832 30.3717 68.308 30.4033C68.3329 30.435 68.3677 30.4574 68.4068 30.4669Z" fill="#F67A45"/>
<path d="M101.171 30.0922C97.4634 29.856 93.7197 29.9689 90.0067 29.9484C86.2937 29.9279 82.5089 29.6608 78.837 30.0408C78.8034 30.0358 78.7691 30.0382 78.7365 30.0476C78.7039 30.0571 78.6737 30.0734 78.648 30.0956C78.6223 30.1178 78.6016 30.1452 78.5875 30.1761C78.5733 30.207 78.566 30.2405 78.566 30.2745C78.566 30.3085 78.5733 30.342 78.5875 30.3729C78.6016 30.4038 78.6223 30.4312 78.648 30.4534C78.6737 30.4756 78.7039 30.4919 78.7365 30.5014C78.7691 30.5108 78.8034 30.5132 78.837 30.5082C82.5089 30.8882 86.3194 30.6263 90.0067 30.6006C93.694 30.5749 97.4634 30.693 101.171 30.4568C101.198 30.4613 101.225 30.4599 101.251 30.4528C101.277 30.4457 101.301 30.433 101.321 30.4157C101.342 30.3983 101.358 30.3767 101.37 30.3523C101.381 30.3279 101.387 30.3014 101.387 30.2745C101.387 30.2476 101.381 30.2211 101.37 30.1967C101.358 30.1723 101.342 30.1507 101.321 30.1333C101.301 30.116 101.277 30.1033 101.251 30.0962C101.225 30.0891 101.198 30.0877 101.171 30.0922Z" fill="#F67A45"/>
<path d="M101.223 41.6984C99.9739 41.5699 98.7185 41.5185 97.4635 41.5443C96.2035 41.4447 94.9365 41.4792 93.6837 41.647C93.632 41.6581 93.5857 41.6866 93.5525 41.7277C93.5192 41.7688 93.5011 41.8201 93.5011 41.873C93.5011 41.9258 93.5192 41.9771 93.5525 42.0182C93.5857 42.0593 93.632 42.0878 93.6837 42.0989C94.9367 42.2642 96.2034 42.2986 97.4635 42.2016C98.7185 42.2274 99.9739 42.176 101.223 42.0476C101.262 42.038 101.297 42.0156 101.321 41.9839C101.346 41.9523 101.36 41.9132 101.36 41.873C101.36 41.8327 101.346 41.7936 101.321 41.762C101.297 41.7303 101.262 41.7079 101.223 41.6984Z" fill="#F67A45"/>
<path d="M65.7979 42.0527C69.9525 42.2889 74.138 42.1759 78.2977 42.2016C82.4575 42.2273 86.6737 42.4892 90.7975 42.1041C90.8279 42.1041 90.8579 42.0981 90.886 42.0865C90.914 42.0748 90.9395 42.0578 90.9609 42.0364C90.9824 42.0149 90.9994 41.9894 91.011 41.9614C91.0226 41.9334 91.0286 41.9033 91.0286 41.8729C91.0286 41.8426 91.0226 41.8125 91.011 41.7845C90.9994 41.7565 90.9824 41.731 90.9609 41.7095C90.9395 41.6881 90.914 41.6711 90.886 41.6594C90.8579 41.6478 90.8279 41.6418 90.7975 41.6418C86.6891 41.2567 82.4318 41.5237 78.2977 41.5443C74.1636 41.5648 69.9525 41.4518 65.7979 41.6932C65.7502 41.6932 65.7045 41.7121 65.6708 41.7458C65.6371 41.7796 65.6182 41.8253 65.6182 41.8729C65.6182 41.9206 65.6371 41.9663 65.6708 42.0001C65.7045 42.0338 65.7502 42.0527 65.7979 42.0527Z" fill="#F67A45"/>
</svg>
