<svg width="58" height="51" viewBox="0 0 58 51" fill="none" xmlns="http://www.w3.org/2000/svg">
<g clip-path="url(#clip0_1888_1364)">
<path d="M4.81334 19.8463C6.93426 12.9581 11.253 7.97293 17.7697 4.89087C25.0812 1.88876 32.1808 2.31187 39.0688 6.16019C39.6797 5.75424 40.2699 5.31798 40.8372 4.85303C40.7747 4.75195 40.6969 4.66118 40.6066 4.58394C38.4993 3.13214 36.1586 2.05267 33.6863 1.39252C32.1149 1.03635 30.5228 0.77932 28.9192 0.622951C22.9089 0.357 17.424 1.90766 12.4643 5.27493C7.34673 8.98536 4.02757 13.9193 2.50681 20.0767C1.95798 22.9197 2.54747 25.5084 4.27527 27.8427C3.99126 25.1462 4.17062 22.4807 4.81334 19.8463Z" fill="#F67A45"/>
<path d="M57.4459 12.5417C57.4302 11.7833 57.0458 11.4757 56.2926 11.619C56.2891 11.3838 56.2502 11.1506 56.1772 10.927C55.9974 10.2725 55.5745 9.91383 54.9085 9.85113C54.7322 9.39585 54.5133 8.9582 54.2549 8.54398C53.7784 7.85089 53.1249 7.54331 52.2942 7.62124L51.6021 7.77501C52.8391 8.83979 53.4798 10.1982 53.5243 11.8504C53.611 12.7396 53.5725 13.6367 53.4089 14.5416C53.2734 15.462 52.9017 16.2693 52.294 16.9636C52.0957 17.0917 51.8907 17.1686 51.6788 17.1943C51.9092 17.0013 52.0822 16.7486 52.1787 16.4639C52.6599 15.2925 52.908 14.0386 52.9093 12.7722C52.8921 11.1186 52.3925 9.63204 51.4103 8.3126C50.6049 7.49669 49.7207 7.40695 48.7576 8.04338C47.8577 8.97292 47.358 10.0879 47.2586 11.3882C46.8236 11.5233 46.3672 11.5755 45.913 11.542C45.7916 10.4035 45.3943 9.37826 44.7211 8.46637C44.5012 8.19394 44.2261 7.97118 43.9138 7.81273C42.9149 7.76147 41.914 7.76147 40.915 7.81273C40.5834 7.94147 40.2822 8.1379 40.0307 8.38948C39.7776 8.78027 39.5341 9.17755 39.3003 9.58131C39.0898 9.64287 38.8842 9.71997 38.6851 9.81196C38.0037 10.4706 37.6705 11.2779 37.6855 12.2341C37.0438 12.2085 36.401 12.2342 35.7634 12.3109C36.1905 12.8019 36.2546 13.3401 35.9556 13.9256C35.946 13.5306 35.8676 13.1403 35.724 12.7722C35.6099 12.5018 35.4176 12.3607 35.1472 12.3491C35.0928 12.4453 35.0284 12.5355 34.955 12.6182C34.7455 13.2871 34.8608 13.8895 35.301 14.4253C36.0952 14.4637 36.8898 14.4765 37.6847 14.4637C37.8158 15.0331 38.0364 15.5781 38.3383 16.0784C38.5184 16.3282 38.7619 16.4693 39.0688 16.5015C39.5576 17.0156 40.0196 17.5545 40.4529 18.1162L40.7604 18.2699C41.6571 18.3255 42.5568 18.3126 43.4516 18.2315C43.6598 18.2073 43.8707 18.2338 44.0664 18.3089C43.806 18.7619 43.4676 19.1654 43.0668 19.5007C42.5362 19.6891 42.0219 19.9205 41.529 20.1928C40.6603 20.7024 40.0067 21.4073 39.5682 22.3072C38.8035 20.6595 37.5091 19.8393 35.6852 19.8467C34.3295 17.6603 32.4328 16.9682 29.9951 17.7704C29.4784 17.3834 28.9087 17.0727 28.3036 16.8477C28.1713 16.3973 28.0939 15.9326 28.073 15.4637C28.0604 15.2323 28.0733 15.0002 28.1115 14.7716L28.2268 14.6563C28.7137 14.6613 29.2007 14.6613 29.6879 14.6563C30.0518 14.5742 30.2953 14.3563 30.4183 14.0026C30.4379 13.4092 30.5021 12.818 30.6105 12.2342C30.6861 11.9421 30.7118 11.6345 30.6875 11.3114C30.8423 11.324 30.9981 11.311 31.1488 11.273C31.256 11.1995 31.3072 11.097 31.3025 10.9655C31.0519 10.3489 30.7695 9.74575 30.4563 9.15845C30.5388 8.93698 30.5522 8.69572 30.4948 8.46649C30.3109 8.09914 30.1689 7.71224 30.0717 7.3131C30.1735 7.18504 30.276 7.05686 30.3792 6.92856C30.9728 6.35636 31.1523 5.66436 30.9175 4.85257C30.7723 5.16399 30.5775 5.44978 30.3408 5.69878C30.4542 5.22611 30.4798 4.73913 30.4176 4.23786C30.3611 4.09857 30.2833 3.96889 30.187 3.85343C30.0875 4.30934 29.8697 4.6938 29.5335 5.00682C29.5111 5.06838 29.4709 5.12191 29.418 5.16059C29.3797 4.8546 29.3669 4.54597 29.3796 4.23786C29.2889 3.97998 29.1447 3.74418 28.9565 3.5459C28.9743 4.12543 28.7436 4.58678 28.2645 4.92993C28.2645 4.78632 28.303 4.64529 28.3799 4.50683C28.3542 4.46839 28.3285 4.42995 28.303 4.3915C27.4396 4.88472 26.5168 5.14104 25.5347 5.16047C25.9188 4.95633 26.3032 4.7513 26.688 4.54539C26.4737 4.4702 26.2431 4.44453 25.9961 4.46839C25.1692 4.51515 24.3596 4.72427 23.6135 5.08382C23.5424 5.14556 23.4655 5.15837 23.3827 5.12227C23.741 4.80055 24.159 4.55234 24.613 4.39175C24.5867 4.32727 24.5355 4.30164 24.4592 4.31486C22.0533 4.94347 20.9895 6.50695 21.2678 9.00528C21.4241 9.98659 21.7086 10.9431 22.114 11.8504C22.1887 12.4163 22.1495 12.9914 21.9987 13.5419C21.7302 14.077 21.4218 14.5911 21.076 15.0797C19.4056 15.2615 17.996 15.9535 16.847 17.1559C12.8404 17.3561 10.8027 19.4578 10.7341 23.461C10.6308 23.5508 10.5403 23.6543 10.465 23.7686C9.82831 24.3752 9.43104 25.1185 9.27316 25.9985C9.24753 26.7158 9.2219 27.4334 9.19627 28.1514C8.76688 28.7792 8.35675 29.4199 7.96588 30.0735C7.93904 30.7241 8.08008 31.3392 8.38899 31.9188C8.25083 32.2174 8.13518 32.5258 8.04301 32.8416C7.79226 33.9505 7.70156 35.0897 7.77367 36.2243C6.14667 35.4886 4.62177 34.5452 3.23702 33.4178C1.93789 32.3151 0.887054 31.0207 0.0845245 29.5347C0.0113475 29.6438 -0.0142804 29.772 0.00764048 29.9192C0.0828716 30.7051 0.250614 31.4794 0.507387 32.226C1.58957 34.9867 3.42218 37.0884 6.00521 38.5312C8.96743 40.2677 12.1456 41.4467 15.5398 42.0683C17.9125 42.5888 20.3393 42.8211 22.7677 42.7603C24.9594 42.821 27.1512 42.6405 29.3034 42.222C33.1056 41.6816 36.7452 40.5923 40.2222 38.9541C43.2954 37.5913 45.9992 35.7075 48.3337 33.3026C50.9949 30.3618 52.2509 26.9016 52.1015 22.9222C51.6364 25.1846 50.7137 27.2351 49.3332 29.0735C46.9133 32.0564 43.953 34.3504 40.4522 35.9554C37.9227 37.0729 35.2978 37.9608 32.6092 38.6081C32.0726 38.6922 31.5343 38.7691 30.9945 38.8388C30.8916 38.4537 30.7225 38.0894 30.4947 37.7623C30.4818 37.6469 30.469 37.5316 30.4562 37.4163C30.5897 36.1468 30.5379 34.8647 30.3024 33.6102C30.3439 33.1983 30.3952 32.7882 30.4562 32.3799C30.6374 32.1327 30.7527 31.8507 30.8023 31.5337C30.8278 31.1493 30.8534 30.7648 30.8792 30.3803C31.5636 29.498 31.9737 28.4984 32.1095 27.3816C33.7601 28.4768 35.5542 28.7843 37.4918 28.3042C38.6524 28.5019 39.8057 28.7326 40.952 28.9963C41.3436 28.9596 41.7234 28.8418 42.0669 28.6503C42.5139 28.2929 42.9259 27.8939 43.2972 27.4585C44.2929 26.449 45.1116 25.2793 45.7193 23.9983C46.4182 22.1626 46.9084 20.2541 47.1808 18.3089C47.3163 17.62 47.563 16.9577 47.9113 16.3481C47.9626 16.2968 48.0139 16.2968 48.0651 16.3481C48.1052 16.4204 48.1572 16.4854 48.2189 16.5404C48.5402 17.2335 49.0528 17.7332 49.7568 18.0394C50.8859 18.0418 52.0136 17.9906 53.14 17.8856C53.4408 17.7421 53.7141 17.5469 53.9474 17.3089C54.3341 16.792 54.6448 16.2223 54.8701 15.6173C55.0635 15.5629 55.2557 15.4989 55.4467 15.4251C55.9885 14.9441 56.2705 14.3418 56.2929 13.6181C57.1192 13.7402 57.5035 13.3814 57.4459 12.5417ZM45.3739 12.7722C45.3451 13.4708 45.2551 14.1655 45.1048 14.8484C45.0664 14.3364 45.0536 13.8238 45.0664 13.3106C44.8568 11.8332 44.5877 10.3722 44.259 8.92767C45.0726 10.0747 45.4442 11.3563 45.3739 12.7722ZM38.1461 14.3871H38.3767C38.3054 14.894 38.2285 14.894 38.1461 14.3872V14.3871ZM37.9923 12.1572C38.0631 11.8869 38.1912 11.6562 38.3767 11.4651C38.5849 11.6764 38.713 11.9327 38.7612 12.2341C38.5023 12.2589 38.2411 12.2329 37.9923 12.1573V12.1572ZM38.7232 14.6178C38.6865 14.5469 38.673 14.4662 38.6848 14.3872C38.8808 14.3824 38.9962 14.2799 39.0309 14.0796C39.1058 13.6738 39.1444 13.262 39.1462 12.8493C39.07 12.402 38.9137 11.9722 38.6848 11.5805C38.9147 11.3437 39.1582 11.3309 39.4153 11.5421C39.6444 11.8828 39.765 12.2849 39.7613 12.6955C39.8427 13.4003 39.7273 14.0667 39.4153 14.6947C39.1662 14.9991 38.9355 14.9735 38.7232 14.6178ZM41.4915 15.7712C41.3406 16.2556 41.0458 16.6273 40.6072 16.8862C40.3275 16.9375 40.0407 16.9375 39.761 16.8862C39.6386 16.8403 39.5318 16.7602 39.4535 16.6555C39.8444 16.7587 40.1904 16.6689 40.4915 16.3863C41.0302 15.2207 41.248 13.9904 41.145 12.6955C41.0977 11.8392 40.8753 11.0018 40.4915 10.2349C40.2839 9.79677 39.9379 9.57893 39.4535 9.58143C40.0217 9.18597 40.5471 9.25004 41.0297 9.77364C41.4254 10.4858 41.6739 11.2703 41.7602 12.0804C41.9115 13.3165 41.8219 14.5468 41.4915 15.7712ZM42.4526 17.0784C42.7678 16.5296 42.9887 15.9318 43.1062 15.3099C43.2574 14.447 43.3218 13.5712 43.2984 12.6955C43.2364 11.2151 42.8392 9.83106 42.1066 8.54337C42.0215 8.35573 41.8711 8.20537 41.6835 8.12027C42.3091 8.19739 42.7833 8.51778 43.106 9.08144C43.6504 10.0611 43.9195 11.112 43.9134 12.2341C44.0786 13.5296 43.9632 14.811 43.5673 16.0783C43.4228 16.4132 43.2284 16.7243 42.9906 17.001C42.8127 17.1137 42.6331 17.1395 42.452 17.0784H42.4526ZM28.0347 6.69791C28.64 6.58967 29.1911 6.71785 29.688 7.08245C29.8261 7.59961 29.9799 8.11221 30.1493 8.62026C29.4884 8.43868 28.8733 8.52838 28.3039 8.88935C28.7236 9.18262 29.175 9.42767 29.6495 9.61987C29.8079 9.39554 30.0387 9.23259 30.303 9.15845C30.5283 9.68035 30.7084 10.2206 30.8414 10.7733C30.6279 10.8512 30.4228 10.9281 30.2262 11.0039C30.0842 10.9826 29.9817 11.0338 29.9186 11.1577C30.0329 11.23 30.1698 11.2573 30.303 11.2346C30.3209 11.4427 30.2947 11.6524 30.2262 11.8498C30.0322 11.9629 29.8258 12.0532 29.6111 12.1188C29.8137 12.157 30.0203 12.1699 30.2262 12.1573C30.1819 12.3853 30.1042 12.6055 29.9955 12.8108C30.1692 13.1534 30.182 13.4994 30.0339 13.8489C29.9042 13.9548 29.74 14.0095 29.5726 14.0026C29.2722 13.9493 28.9765 13.8721 28.6884 13.772C27.9197 13.5808 27.1908 13.2554 26.5354 12.8108C26.233 12.3325 26.0364 11.7951 25.9587 11.2346C25.4887 11.5788 25.0786 11.502 24.7285 11.0039C24.398 10.49 24.3852 9.97738 24.69 9.4661C24.7413 9.44047 24.7925 9.41485 24.8438 9.38922C25.1746 9.33506 25.4437 9.43757 25.6511 9.69676C25.8412 10.1284 26.073 10.5404 26.3431 10.927L26.42 10.0808C26.6444 9.16409 27.1826 8.49768 28.0347 8.08158C28.0043 7.79097 27.9658 7.49625 27.9194 7.19741C27.9182 7.02418 27.9577 6.85307 28.0347 6.69791ZM27.6116 17.2321C27.3957 17.5259 27.1364 17.7852 26.8426 18.0011C26.8171 17.9627 26.7914 17.9242 26.7658 17.8858C27.0006 17.3543 27.181 16.8004 27.3041 16.2325C27.3959 16.2687 27.4471 16.3456 27.4578 16.4633L27.6116 17.2321ZM29.8799 27.7664C29.8943 27.8864 29.8302 27.9376 29.6877 27.9201C29.7698 27.9919 29.8723 28.0176 29.9953 27.997C30.1911 27.9663 30.3761 27.887 30.5335 27.7664C30.5591 27.8304 30.5847 27.8945 30.6103 27.9586C30.5767 28.2809 30.4485 28.5501 30.2259 28.766L28.765 27.9586C27.8165 27.6034 26.8682 27.6034 25.92 27.9586C25.3085 28.3028 24.6648 28.5862 23.9979 28.8048C23.4363 28.8925 22.8981 28.8157 22.3832 28.5741C21.7915 28.2249 21.27 27.7686 20.8453 27.2285C20.7341 27.0336 20.6439 26.8274 20.5762 26.6133C21.6647 27.8818 23.036 28.356 24.69 28.0358L24.2286 27.9589C24.5368 27.6254 24.8711 27.3168 25.2282 27.0362C25.7089 26.6839 26.2472 26.4916 26.8429 26.4596C28.0933 26.3504 29.1057 26.786 29.8802 27.7664H29.8799ZM21.8449 29.3042C22.2733 29.4181 22.7106 29.4953 23.1521 29.5348L22.8445 30.15C22.1607 30.1569 21.5456 29.9391 20.9991 29.4964C20.7016 29.1861 20.3941 28.8914 20.0765 28.6122C19.9636 28.4453 19.8731 28.2643 19.8073 28.0739C20.3753 28.672 21.0546 29.0821 21.8449 29.3042ZM24.1901 30.0731C24.3124 29.9057 24.4156 29.7252 24.4977 29.5348C24.6093 29.3838 24.7503 29.2813 24.9208 29.2273C25.3577 28.8558 25.8703 28.6508 26.4586 28.6122C26.9081 28.6087 27.1387 28.8394 27.1507 29.3042C27.1586 29.512 27.1326 29.7198 27.0738 29.9194C27.0044 30.3014 26.825 30.6218 26.5355 30.8805C25.9439 31.1304 25.3288 31.2072 24.6901 31.1112C24.5298 31.0575 24.4017 30.9678 24.3056 30.8421C24.1635 30.6042 24.125 30.3479 24.1901 30.0731ZM29.5342 30.9574C28.3353 31.1303 27.7458 30.6048 27.7656 29.381V28.6122H28.3039C28.6243 28.6898 28.9341 28.806 29.2265 28.9582C29.557 29.1967 29.7364 29.517 29.7649 29.9194H29.8417C29.886 30.312 29.7835 30.658 29.5342 30.9574ZM27.881 33.687C27.7969 33.2693 27.7583 32.8438 27.7656 32.4177C27.7656 32.3176 27.7682 32.2189 27.7722 32.121C27.7722 32.1176 27.7722 32.1142 27.7722 32.1107C27.7763 32.0149 27.7823 31.9202 27.7902 31.8266C27.7902 31.8008 27.7916 31.7747 27.7928 31.7485C27.7936 31.7331 27.7942 31.7177 27.7952 31.7022C27.7969 31.6794 27.799 31.6564 27.8014 31.6333C27.8037 31.6106 27.8067 31.5875 27.8099 31.5644C27.8123 31.5464 27.8146 31.5281 27.8175 31.5102C27.8245 31.4673 27.8324 31.4239 27.8417 31.3797C28.2565 31.4088 28.668 31.4731 29.0719 31.5719C29.327 31.6858 29.4808 31.878 29.5334 32.1486C29.6284 32.4716 29.6284 32.8049 29.5334 33.1483C29.3851 33.4676 29.1762 33.755 28.9182 33.9945C28.5139 34.066 28.1682 33.9636 27.881 33.687ZM26.766 35.7632C26.7426 36.3608 26.4864 36.835 25.9972 37.1856C24.7927 37.4194 24.0879 36.9197 23.8826 35.6866C23.6918 34.8229 23.9866 34.5409 24.7669 34.8404C25.3946 34.8383 26.0178 34.7344 26.6122 34.5329C26.6535 34.5431 26.6921 34.5621 26.7252 34.5887C26.7584 34.6152 26.7855 34.6486 26.8045 34.6867C26.8642 35.0444 26.8511 35.4106 26.766 35.7632ZM25.4204 34.1484C24.3808 34.0566 23.9451 33.4927 24.1133 32.4568C24.2722 32.1822 24.4901 31.9771 24.7669 31.8416C25.4475 31.5568 26.1826 31.4255 26.9198 31.4572C27.0143 31.593 27.0677 31.7531 27.0737 31.9185C27.3382 33.2569 26.7871 34.0002 25.4204 34.1484ZM22.4601 35.9169C22.4472 35.9426 22.4345 35.9682 22.4217 35.9938C21.1322 34.9208 20.2992 33.5624 19.9227 31.9185C19.7361 31.5317 19.619 31.1151 19.5766 30.6877C19.9226 31.3263 20.378 31.8991 20.9222 32.3801C21.3387 32.7549 21.8257 32.9855 22.3832 33.0721C22.3695 33.387 22.4218 33.7014 22.537 33.9948C22.6066 34.0493 22.6322 34.1262 22.6139 34.2255C22.2645 34.2287 21.957 34.1262 21.6912 33.9179C21.4139 33.7567 21.1667 33.5486 20.9606 33.3029C21.3602 34.228 21.8633 35.105 22.4601 35.9169ZM20.2302 30.3038C20.8508 30.7286 21.5428 30.9593 22.3064 30.9959V31.7647C21.1975 31.5046 20.3004 30.9151 19.6151 29.9962C19.6151 29.945 19.6407 29.9194 19.6919 29.9194C19.8488 30.0765 20.0307 30.2065 20.2302 30.3038ZM19.4613 36.0323C19.7414 36.1441 19.9721 36.3363 20.1534 36.6089C20.9198 37.1464 21.7143 37.646 22.537 38.1079C21.5902 37.8523 20.77 37.3781 20.0765 36.6853C19.8336 36.5066 19.6251 36.2854 19.4613 36.0323ZM27.4196 34.5333C27.4742 34.42 27.5639 34.3688 27.6887 34.3795C27.721 34.4349 27.7722 34.4734 27.8425 34.4948C28.3111 34.5173 28.7724 34.5301 29.2265 34.5333C29.4495 35.1867 29.3727 35.8018 28.9959 36.3786C28.8197 36.7748 28.5121 36.9799 28.0732 36.9938C28.0143 36.9897 27.9568 36.974 27.904 36.9476C27.8512 36.9212 27.8042 36.8847 27.7656 36.84C27.4279 36.4392 27.2997 35.9778 27.3812 35.4559C27.3685 35.1477 27.3816 34.8389 27.4202 34.5329L27.4196 34.5333ZM23.4212 15.5406C23.5036 14.796 23.5934 14.0527 23.6904 13.3107C23.8635 13.5701 23.9934 13.8559 24.0748 14.1569C24.0521 14.2901 24.0795 14.4271 24.1517 14.5413C24.3808 13.6344 24.7781 12.8142 25.3435 12.0808C25.3566 12.3377 25.3438 12.5953 25.3051 12.8496C25.4531 14.6226 25.6196 16.3912 25.8048 18.1552C25.5505 17.4052 25.307 16.662 25.0744 15.9253V17.6169C24.8376 17.64 24.5989 17.6003 24.3824 17.5016C24.034 17.1476 23.7777 16.7504 23.6135 16.3098C23.1411 16.8739 22.5772 17.297 21.9218 17.5791C22.431 16.9062 22.9308 16.2267 23.4212 15.5406ZM27.0737 5.46764H27.3812C27.3006 5.60271 27.1724 5.65397 26.9967 5.62141C26.1312 5.65537 25.2699 5.75825 24.4208 5.92907C24.362 5.92359 24.3236 5.89796 24.3055 5.85218C25.1767 5.3937 26.0995 5.26552 27.0737 5.46764ZM20.6915 16.3868C20.923 16.3742 21.155 16.3871 21.3836 16.4252C20.7711 16.9092 20.1816 17.4219 19.6151 17.9631C19.5382 18.0144 19.4613 18.0144 19.3844 17.9631C19.011 17.738 18.626 17.5327 18.231 17.3479C18.9969 16.8664 19.8171 16.546 20.6915 16.3868ZM16.6932 18.1553C17.4669 18.1404 18.1717 18.3454 18.8078 18.7704C18.859 18.8218 18.859 18.8731 18.8078 18.9243C18.7355 18.9644 18.6705 19.0164 18.6154 19.0781C18.6154 19.1293 18.6411 19.155 18.6923 19.155C20.3655 18.5183 22.0828 18.3773 23.8442 18.7319C25.1279 19.2125 25.8968 20.1224 26.1509 21.4616C26.1437 21.4764 26.1381 21.4916 26.132 21.5067C26.1255 21.5145 26.1176 21.521 26.1086 21.5258L26.1077 21.5265C26.0971 21.5321 26.0858 21.5362 26.074 21.5386C25.655 21.2137 25.1936 20.9958 24.69 20.885C25.3114 21.1608 25.7983 21.584 26.1509 22.1543C26.4783 22.6394 26.6064 23.1776 26.5354 23.7691C26.4362 24.5416 26.0261 25.0926 25.3051 25.4222C24.3949 25.605 23.4978 25.5538 22.6139 25.2685C20.89 24.4929 19.6598 23.237 18.9231 21.5008C19.2441 21.1404 19.6053 20.8179 19.9996 20.5396C18.9545 20.6706 17.9677 21.0293 17.0392 21.6155C17.0784 21.3067 17.2194 21.0504 17.4623 20.8465C17.5972 20.5956 17.7801 20.3735 18.0006 20.193C17.2515 20.531 16.5526 20.971 15.9239 21.5003C15.4089 22.0095 14.9219 22.5349 14.463 23.0765C14.3029 23.3705 14.123 23.6532 13.9247 23.9228C13.6825 23.5798 13.5245 23.1847 13.4633 22.7694C13.3631 22.081 13.3631 21.3817 13.4633 20.6933C13.9081 19.0437 14.9847 18.1976 16.6932 18.1549V18.1553ZM12.1566 37.9168C11.7839 37.8311 11.4226 37.7021 11.0801 37.5322C10.891 37.5468 10.7628 37.4699 10.6956 37.3016C10.0618 35.4448 9.92075 33.5481 10.2725 31.6115C10.3442 31.344 10.4475 31.0859 10.5802 30.8427C10.5963 30.9625 10.6347 31.065 10.6955 31.1502C10.7101 31.5162 10.7748 31.8784 10.8877 32.2267C11.3346 33.4001 11.6819 34.609 11.9258 35.8407C12.1202 36.5083 12.1972 37.2003 12.1566 37.9168ZM12.8486 30.535C12.3506 29.8463 12.0685 29.0774 12.0024 28.2283L11.8487 27.9976C11.7672 28.5579 11.7543 29.1259 11.8102 29.6893C11.9898 30.792 12.1692 31.894 12.3484 32.9956C12.3997 33.2493 12.3997 33.5108 12.3484 33.7645C12.018 32.7974 11.6463 31.8491 11.2335 30.9196C11.0054 30.238 10.8129 29.545 10.6568 28.8435C10.557 28.1548 10.6339 27.4884 10.8875 26.8442C10.9025 27.4909 10.9797 28.1345 11.1181 28.7663C11.3159 27.6594 11.7517 26.6598 12.4257 25.7676C12.47 26.6297 12.6251 27.4825 12.8871 28.305C13.3512 26.1876 14.5687 24.6754 16.5394 23.7685C16.2481 24.6984 16.0295 25.6496 15.8858 26.6135C15.4552 28.2986 14.5197 29.6186 13.0793 30.5734C12.992 30.6307 12.9151 30.6178 12.8486 30.5344V30.535ZM12.964 38.1474C12.8715 37.3537 13.0253 36.6104 13.4253 35.9175C13.6116 34.9552 13.6632 33.9716 13.5787 32.995C13.4276 32.5226 13.3501 32.0298 13.349 31.5339C14.171 31.259 14.8246 30.7721 15.3098 30.073C15.7772 30.4728 16.2386 30.8959 16.6938 31.3423C17.186 31.706 17.6995 32.0398 18.2316 32.3419C18.3922 32.6442 18.5088 32.9678 18.5776 33.3031C18.6971 34.8478 18.5932 36.4017 18.2691 37.9168C17.97 38.2929 17.7 38.6913 17.4617 39.1086C15.9318 38.9531 14.4236 38.6305 12.964 38.1465V38.1474ZM32.6483 23.9218C32.0344 25.2354 30.9964 25.7993 29.5342 25.6134C29.1144 25.5694 28.7151 25.4097 28.3808 25.1521C28.0054 24.7605 27.7491 24.2991 27.6119 23.768V23.5372C27.4717 23.0111 27.4326 22.4632 27.4965 21.9226C27.6029 21.5952 27.7951 21.3261 28.0732 21.1151C27.6835 21.1965 27.376 21.4143 27.1505 21.7688C27.012 21.1996 26.8582 20.6358 26.6891 20.0772C26.947 19.3695 27.4596 18.9723 28.2269 18.8854C29.4788 18.7852 30.7376 18.9556 31.9179 19.3848C32.0097 19.3582 32.0097 19.3197 31.9179 19.2694C31.4582 18.9747 30.9684 18.7298 30.4568 18.5389C32.0095 18.044 33.2909 18.4413 34.301 19.7308L34.2241 19.7692C33.8075 19.5747 33.3684 19.4326 32.9169 19.3461C33.2356 19.5877 33.5316 19.858 33.8012 20.1535C33.8403 20.3563 33.7506 20.4589 33.5321 20.461C33.318 20.6395 33.0617 20.7292 32.7631 20.7301C32.364 20.7396 31.9795 20.7524 31.6097 20.7686C32.5338 21.6308 32.88 22.6819 32.6483 23.9218ZM36.4544 20.8076C38.1052 21.2785 38.8998 22.3678 38.838 24.0756C38.5358 23.9577 38.2279 23.8551 37.9154 23.768C36.2102 23.5947 34.8005 22.877 33.6863 21.615C33.5935 21.5366 33.4899 21.4719 33.3788 21.4228C34.336 20.8759 35.3612 20.6708 36.4544 20.8076ZM35.9162 26.6899C35.9342 26.6439 35.9726 26.6184 36.0315 26.613C36.5597 26.8316 37.1163 26.9741 37.6847 27.0361L40.376 27.113C38.836 27.4769 37.3494 27.3359 35.9162 26.6899ZM47.6044 14.8187C46.6996 15.7038 46.2531 16.9606 45.9529 18.194C45.5595 19.8091 45.2654 21.4013 44.4333 22.8641C43.6924 24.1668 42.5568 25.2456 41.2089 25.9032C43.124 23.8379 45.0699 21.5714 45.5433 18.7951C44.8699 20.4126 43.9395 21.9414 42.6797 23.1591C41.4199 24.3768 39.8158 25.2704 38.0825 25.5295C36.4683 25.7712 34.6586 25.3773 33.6169 24.1206C35.4966 24.8653 37.6004 24.7071 39.6068 24.4579C39.6986 24.4466 39.796 24.4327 39.8673 24.3733C39.9575 24.2988 39.9825 24.1736 40.0064 24.059C40.2649 22.8259 41.0738 21.7184 42.1703 21.0973C42.5592 20.877 42.9817 20.7149 43.3489 20.4602C43.8464 20.1152 44.2178 19.6166 44.5241 19.0942C44.9856 18.3075 45.3186 17.4512 45.7748 16.6615C46.231 15.8719 46.841 15.1283 47.672 14.7525C47.6495 14.7749 47.6268 14.7966 47.6044 14.8185V14.8187ZM49.8337 13.6953C49.0123 13.7364 48.1921 13.7877 47.3732 13.8491C46.938 13.8805 46.5022 13.9061 46.0659 13.926V13.5416C46.0396 12.9989 46.0396 12.4606 46.0659 11.9269C46.3867 12.1313 46.6174 12.4133 46.758 12.7731C46.8092 12.7731 46.8348 12.7476 46.8348 12.6962C46.6036 12.3766 46.5267 12.0306 46.6042 11.6581C47.2086 11.5502 47.6443 11.768 47.9113 12.3118C47.9626 12.3118 47.9882 12.2862 47.9882 12.2349C47.8729 11.9392 47.6883 11.6756 47.45 11.4659C47.7626 11.3396 48.0446 11.378 48.2962 11.5813C48.9843 11.553 49.3943 11.8734 49.5265 12.5424C49.6879 12.787 49.8294 13.0442 49.9496 13.3114C49.9985 13.4678 49.9598 13.5956 49.8337 13.6951V13.6953ZM50.7179 13.5416C50.5571 13.297 50.3771 13.0656 50.1797 12.8495C50.0973 12.6552 50.0579 12.4454 50.0643 12.2344C49.9435 11.8019 49.7128 11.4302 49.3723 11.1195C49.9812 10.9244 50.3913 11.1166 50.6025 11.6962C50.8692 12.2846 50.9077 12.8997 50.7179 13.5413V13.5416ZM54.5621 15.0025C54.5925 14.2369 54.6053 13.4679 54.6005 12.6957C54.5872 12.3856 54.5486 12.077 54.4852 11.7731C54.2146 10.8274 53.9841 9.87901 53.7936 8.92803C54.6526 10.0296 55.0757 11.2855 55.0629 12.6957C55.03 13.4876 54.8607 14.2679 54.5625 15.0022L54.5621 15.0025Z" fill="#F67A45"/>
<path d="M6.85102 34.3793C6.90542 33.7244 6.95667 33.0708 7.00479 32.4185C6.567 32.0065 6.10478 31.6214 5.62063 31.2651L4.27503 29.9195C2.09496 27.5306 1.05694 24.7112 1.16098 21.4614C1.1742 21.3851 1.14857 21.3339 1.0841 21.3076C0.771398 22.1056 0.527013 22.9288 0.353577 23.7682C0.00195679 25.5792 0.258278 27.2964 1.12254 28.9199C2.54127 31.2486 4.45076 33.0684 6.85102 34.3793Z" fill="#F67A45"/>
<path d="M49.2185 36.3785C49.1469 36.5421 49.0566 36.697 48.9494 36.8399C47.8859 38.0575 46.715 39.1769 45.4508 40.1846C37.0225 46.4833 27.5392 49.2258 17.0007 48.4121C23.0791 51.0692 29.2561 51.2999 35.5318 49.1041C41.9368 46.8254 46.5503 42.5963 49.3722 36.4169C49.351 36.3996 49.3262 36.3872 49.2996 36.3806C49.2731 36.3739 49.2454 36.3732 49.2185 36.3785Z" fill="#F67A45"/>
<path d="M33.6863 45.0289C38.056 43.5371 42.0031 41.3329 45.5277 38.4163C46.2721 37.7236 46.9659 36.9784 47.6038 36.1864C47.5825 36.1692 47.5578 36.1568 47.5312 36.1501C47.5046 36.1435 47.4769 36.1427 47.45 36.148C45.8112 37.3794 44.0899 38.4969 42.2982 39.4928C33.8496 43.8324 24.9302 45.2421 15.5398 43.7218C10.5277 42.8161 6.11932 40.753 2.31476 37.5324C4.54319 41.9547 8.0546 44.8125 12.849 46.1058C19.8976 47.798 26.8434 47.439 33.6863 45.0289Z" fill="#F67A45"/>
</g>
<defs>
<clipPath id="clip0_1888_1364">
<rect width="57.4515" height="50" fill="white" transform="translate(0 0.594238)"/>
</clipPath>
</defs>
</svg>
