<svg width="16" height="17" viewBox="0 0 16 17" fill="none" xmlns="http://www.w3.org/2000/svg">
<g clip-path="url(#clip0_1888_103)">
<path d="M14.7162 11.2854C13.7366 11.2854 12.7748 11.1322 11.8633 10.831C11.4167 10.6786 10.8676 10.8184 10.595 11.0983L8.796 12.4564C6.70963 11.3427 5.42446 10.058 4.32596 7.98725L5.64408 6.23508C5.98654 5.89308 6.10938 5.3935 5.96221 4.92475C5.65971 4.0085 5.50604 3.04712 5.50604 2.06712C5.50608 1.35916 4.93013 0.783203 4.22221 0.783203H1.28388C0.575958 0.783203 0 1.35916 0 2.06708C0 10.1817 6.60158 16.7832 14.7162 16.7832C15.4241 16.7832 16 16.2072 16 15.4993V12.5692C16 11.8613 15.424 11.2854 14.7162 11.2854Z" fill="white"/>
</g>
<defs>
<clipPath id="clip0_1888_103">
<rect width="16" height="16" fill="white" transform="translate(0 0.783203)"/>
</clipPath>
</defs>
</svg>
