<svg width="101" height="101" viewBox="0 0 101 101" fill="none" xmlns="http://www.w3.org/2000/svg">
<g clip-path="url(#clip0_1888_869)">
<path fill-rule="evenodd" clip-rule="evenodd" d="M50.9327 98.0494C75.7855 98.0494 98.9328 74.9026 98.9328 50.0493C98.9328 25.1965 75.786 2.04921 50.9327 2.04921C26.0799 2.04921 2.9326 25.1965 2.9326 50.0493C2.9326 74.9021 26.0799 98.0494 50.9327 98.0494ZM50.9327 100.049C78.5466 100.049 100.933 77.6632 100.933 50.0493C100.933 22.4349 78.5466 0.0493164 50.9327 0.0493164C23.3183 0.0493164 0.932709 22.4349 0.932709 50.0493C0.932709 77.6632 23.3183 100.049 50.9327 100.049Z" fill="white"/>
<path fill-rule="evenodd" clip-rule="evenodd" d="M68.9253 50.0493L37.9324 29.7209V70.3782L68.9253 50.0493ZM68.5706 47.1373C70.6489 48.5229 70.6489 51.5763 68.5706 52.9619L41.3735 71.0936C39.0477 72.6443 35.932 70.9765 35.932 68.1811V31.9181C35.932 29.1227 39.0477 27.4553 41.3735 29.0061L68.5706 47.1373Z" fill="white"/>
</g>
<defs>
<clipPath id="clip0_1888_869">
<rect width="100" height="100" fill="white" transform="translate(0.932709 0.0493164)"/>
</clipPath>
</defs>
</svg>
