<svg width="56" height="56" viewBox="0 0 56 56" fill="none" xmlns="http://www.w3.org/2000/svg">
<g clip-path="url(#clip0_1888_909)">
<path fill-rule="evenodd" clip-rule="evenodd" d="M10.0059 17.3598L11.5806 3.08915C11.7774 1.67849 12.7944 0.661499 14.041 0.661499H28.1148C29.3615 0.661499 30.3456 1.67849 30.5753 3.08915L32.15 17.2942C28.9022 15.457 25.1295 14.4401 21.0943 14.4401C17.0592 14.4401 13.2865 15.4899 10.0059 17.3598ZM28.3117 12.8654C28.246 12.8654 28.1804 12.8654 28.1148 12.7998C23.5876 11.3235 18.6339 11.3235 14.1066 12.7998C13.8442 12.8654 13.6145 12.7998 13.4177 12.6685C13.1881 12.5045 13.1224 12.2421 13.1224 11.9468L14.2707 3.84369C14.3363 3.48282 14.5987 3.18757 15.0252 3.18757H27.2619C27.5899 3.18757 27.9508 3.48282 28.0164 3.84369L29.1646 11.9468C29.2302 12.2421 29.099 12.4389 28.8694 12.6685C28.6725 12.7998 28.5085 12.8654 28.3117 12.8654Z" fill="white"/>
<path fill-rule="evenodd" clip-rule="evenodd" d="M20.5038 55.3165C9.1529 54.9884 0 45.6715 0 34.2222C0 22.576 9.44815 13.095 21.0943 13.095C32.7733 13.095 42.2214 22.576 42.2214 34.2222C42.2214 34.7471 42.1886 35.3048 42.1558 35.8297C41.6637 36.617 41.4013 37.5356 41.4013 38.5198V40.1601C41.3029 40.4225 41.2373 40.685 41.1388 40.9474H29.1974V38.5198C29.1974 35.764 26.901 33.4676 24.1453 33.4676C21.9801 33.4676 20.0773 34.8455 19.3884 36.8138C17.7481 37.4372 16.5343 38.8478 16.0094 40.5537C14.2378 41.1442 13.024 42.883 13.024 44.8841V45.3106C13.024 47.279 14.2706 49.0177 16.0422 49.641C16.5671 51.2485 17.7481 52.5936 19.29 53.2497C19.5524 54.037 19.9461 54.726 20.5038 55.3165ZM5.01933 34.9767C4.59285 34.9767 4.23199 34.6486 4.23199 34.2222C4.23199 28.9076 6.62683 24.0523 10.8588 20.8045C11.2197 20.5092 11.7118 20.5748 11.9414 20.9357C12.2039 21.2966 12.1383 21.7886 11.7774 21.9855C7.97188 24.9052 5.77387 29.334 5.77387 34.2222C5.77387 34.6486 5.44581 34.9767 5.01933 34.9767ZM17.0264 19.3938C16.6655 19.3938 16.3702 19.1642 16.239 18.8361C16.1078 18.4096 16.3702 17.9831 16.7967 17.9175C18.2074 17.5567 19.618 17.327 21.0287 17.327C21.4552 17.327 21.816 17.6879 21.816 18.1144C21.816 18.5408 21.4552 18.9017 21.0287 18.9017C19.6837 18.9017 18.437 19.0329 17.1576 19.3938C17.1576 19.3938 17.092 19.3938 17.0264 19.3938Z" fill="white"/>
<path fill-rule="evenodd" clip-rule="evenodd" d="M43.6321 47.8367H26.9666C26.5401 47.8367 26.1793 47.4758 26.1793 47.0493V43.2438C26.1793 42.8173 26.5401 42.4893 26.9666 42.4893H43.6321C44.0586 42.4893 44.4194 42.8173 44.4194 43.2438V47.0493C44.4194 47.4758 44.0586 47.8367 43.6321 47.8367Z" fill="white"/>
<path fill-rule="evenodd" clip-rule="evenodd" d="M24.1453 55.3165C22.1769 55.3165 20.6022 53.709 20.6022 51.8062V38.5197C20.6022 36.5514 22.2425 34.9767 24.1453 34.9767C26.048 34.9767 27.6883 36.617 27.6883 38.5197V51.8062C27.754 53.7746 26.1137 55.3165 24.1453 55.3165Z" fill="white"/>
<path fill-rule="evenodd" clip-rule="evenodd" d="M19.0932 51.3797C18.0106 50.5924 17.2888 49.2801 17.2888 47.8366V42.2596C17.2888 40.7833 18.0106 39.4711 19.0932 38.7166V51.3797Z" fill="white"/>
<path fill-rule="evenodd" clip-rule="evenodd" d="M15.7797 47.7711C15.0252 47.2134 14.5331 46.2948 14.5331 45.3106V44.8841C14.5331 43.8343 15.0252 42.9158 15.7797 42.3909V47.7711Z" fill="white"/>
<path fill-rule="evenodd" clip-rule="evenodd" d="M46.3878 55.3165C48.3562 55.3165 49.9309 53.709 49.9309 51.8062V38.5197C49.9309 36.5514 48.2906 34.9767 46.3878 34.9767C44.4851 34.9767 42.8448 36.617 42.8448 38.5197V51.8062C42.7792 53.7746 44.4195 55.3165 46.3878 55.3165Z" fill="white"/>
<path fill-rule="evenodd" clip-rule="evenodd" d="M51.4399 51.3797C52.5225 50.5924 53.2443 49.2801 53.2443 47.8366V42.2596C53.2443 40.7833 52.5225 39.4711 51.4399 38.7166V51.3797Z" fill="white"/>
<path fill-rule="evenodd" clip-rule="evenodd" d="M54.7534 47.7711C55.5079 47.2134 56 46.2948 56 45.3106V44.8841C56 43.8343 55.5079 42.9158 54.7534 42.3909V47.7711Z" fill="white"/>
</g>
<defs>
<clipPath id="clip0_1888_909">
<rect width="56" height="56" fill="white" transform="translate(0 0.00537109)"/>
</clipPath>
</defs>
</svg>
