<svg width="56" height="56" viewBox="0 0 56 56" fill="none" xmlns="http://www.w3.org/2000/svg">
<g clip-path="url(#clip0_1888_892)">
<path d="M6.02886 39.6619C4.97941 38.6124 4.04742 37.4982 3.21956 36.3496C1.78183 37.2504 0.715971 38.0944 0.196768 38.5281C-0.0117011 38.7022 -0.0610292 39.0017 0.0805021 39.2336C1.15949 41.0012 5.85397 48.0546 12.6861 49.181C15.7065 49.679 18.7024 48.9453 21.243 47.8575C16.709 46.6966 10.7232 44.3565 6.02886 39.6619Z" fill="white"/>
<path d="M52.7805 36.3496C51.9526 37.4983 51.0206 38.6125 49.9711 39.662C45.2766 44.3566 39.291 46.6968 34.757 47.8575C37.2977 48.9453 40.2935 49.679 43.3139 49.181C50.146 48.0547 54.8405 41.0013 55.9195 39.2336C56.061 39.0017 56.0117 38.7023 55.8032 38.5281C55.2841 38.0944 54.2183 37.2503 52.7805 36.3496Z" fill="white"/>
<path d="M17.4523 19.473C18.0475 17.0993 18.8991 14.9071 19.83 12.9662C17.192 10.5246 14.7146 8.95454 13.641 8.32246C13.3465 8.149 12.9678 8.28451 12.85 8.60542C12.4121 9.79935 11.4632 12.6773 10.9809 16.3454C13.0867 17.1132 15.3078 18.1295 17.4523 19.473Z" fill="white"/>
<path d="M45.0191 16.3454C44.5368 12.6773 43.5879 9.79935 43.15 8.60542C43.0323 8.28451 42.6535 8.149 42.359 8.32246C41.2855 8.95443 38.8081 10.5246 36.17 12.9662C37.1009 14.9071 37.9524 17.0992 38.5477 19.473C40.6922 18.1295 42.9133 17.1132 45.0191 16.3454Z" fill="white"/>
<path d="M16.5969 26.1807C16.5969 25.0889 16.6684 24.0179 16.7972 22.9718C10.4136 18.514 2.84221 17.5208 0.606151 17.3185C0.260089 17.2872 -0.0289893 17.5763 0.00229192 17.9223C0.240401 20.5523 1.57117 30.564 8.34892 37.3417C12.8562 41.849 18.7928 43.947 23.0384 44.917C20.3689 41.0443 16.5969 34.1586 16.5969 26.1807Z" fill="white"/>
<path d="M55.3938 17.3185C53.1578 17.5208 45.5864 18.514 39.2028 22.9719C39.3317 24.0179 39.4031 25.0889 39.4031 26.1807C39.4031 34.1587 35.631 41.0444 32.9615 44.917C37.2071 43.9469 43.1437 41.849 47.6511 37.3416C54.4288 30.5639 55.7597 20.5522 55.9977 17.9222C56.029 17.5763 55.7399 17.2872 55.3938 17.3185Z" fill="white"/>
<path d="M36.1218 26.1807C36.1218 35.6095 30.0838 43.4989 28.42 45.4939C28.201 45.7564 27.7988 45.7564 27.5799 45.4939C25.9161 43.4989 19.878 35.6095 19.878 26.1807C19.878 16.7519 25.9162 8.86256 27.58 6.86756C27.799 6.60506 28.2011 6.60506 28.4201 6.86756C30.0838 8.86256 36.1218 16.752 36.1218 26.1807Z" fill="white"/>
</g>
<defs>
<clipPath id="clip0_1888_892">
<rect width="56" height="56" fill="white" transform="translate(0 0.00537109)"/>
</clipPath>
</defs>
</svg>
