<svg width="56" height="56" viewBox="0 0 56 56" fill="none" xmlns="http://www.w3.org/2000/svg">
<g clip-path="url(#clip0_1888_929)">
<path d="M28.9625 21.6179C29.225 21.2679 29.575 21.1804 29.925 21.3554C30.0125 21.3554 33.8625 22.7554 36.8375 23.3679C36.6625 22.1429 36.225 21.0054 35.525 20.0429C33.1625 16.6304 28.4375 16.5429 27.825 16.5429C27.3 16.5429 22.6625 16.6304 20.2125 20.0429C19.3375 21.1804 18.9 22.6679 18.8125 24.3304C22.225 24.3304 27.3 23.9804 28.9625 21.6179Z" fill="white"/>
<path d="M19.775 25.9929C19.5125 25.9929 19.25 25.9929 19.075 25.9929C19.1625 26.5179 19.1625 27.0429 19.3375 27.5679C19.6 28.7054 19.95 30.0179 20.475 31.3304C21.525 34.7429 25.2 38.5054 28 38.5054C30.8875 38.5054 34.5625 34.7429 35.525 31.3304C36.05 30.0179 36.4 28.7054 36.6625 27.5679C36.8375 26.6929 36.925 25.9054 36.925 25.1179C34.3875 24.5929 31.2375 23.6304 29.925 23.1929C27.65 25.5554 22.8375 25.9929 19.775 25.9929Z" fill="white"/>
<path d="M28.875 10.3304V14.7929C28.4375 14.7929 28.175 14.7929 28 14.7929C27.825 14.7929 27.5625 14.7929 27.125 14.7929V10.3304C27.3875 10.4179 27.7375 10.4179 28 10.4179C28.2625 10.4179 28.6125 10.4179 28.875 10.3304Z" fill="white"/>
<path d="M40.075 16.5429L37.275 19.3429C37.1875 19.2554 37.1 19.0804 37.0125 18.9929C36.75 18.6429 36.4875 18.2929 36.1375 17.9429L38.7625 15.3179C39.1125 15.8429 39.55 16.2804 40.075 16.5429Z" fill="white"/>
<path d="M44.3625 27.3929C44.3625 27.6554 44.3625 28.0054 44.45 28.2679H38.325C38.325 28.1804 38.4125 28.0054 38.4125 27.9179C38.5 27.4804 38.5875 26.9554 38.675 26.5179H44.45C44.45 26.7804 44.3625 27.1304 44.3625 27.3929Z" fill="white"/>
<path d="M19.775 17.9429C19.5125 18.2054 19.1625 18.5554 18.9 18.9054C18.8125 18.9929 18.725 19.1679 18.6375 19.2554L15.925 16.6304C16.1875 16.4554 16.3625 16.2804 16.5375 16.1054C16.8 15.8429 16.975 15.6679 17.15 15.4054L19.775 17.9429Z" fill="white"/>
<path d="M11.55 28.2679C11.6375 28.0054 11.6375 27.6554 11.6375 27.3929C11.6375 27.1304 11.6375 26.7804 11.55 26.5179H17.325C17.4125 27.0429 17.4125 27.4804 17.5875 27.9179C17.5875 28.0054 17.675 28.1804 17.675 28.2679H11.55Z" fill="white"/>
<path d="M32.375 4.38037C32.375 6.74287 30.45 8.75537 28 8.75537C25.55 8.75537 23.625 6.83037 23.625 4.38037C23.625 2.01787 25.55 0.00537109 28 0.00537109C30.45 0.00537109 32.375 1.93037 32.375 4.38037Z" fill="white"/>
<path d="M9.88751 27.3929C9.88751 29.7554 7.96251 31.7679 5.51251 31.7679C3.15001 31.7679 1.13751 29.8429 1.13751 27.3929C1.13751 25.0304 3.06251 23.0179 5.51251 23.0179C7.87501 23.0179 9.88751 25.0304 9.88751 27.3929Z" fill="white"/>
<path d="M43.575 16.0179C41.2125 16.0179 39.2 14.0929 39.2 11.6429C39.2 9.28038 41.125 7.26788 43.575 7.26788C45.9375 7.26788 47.95 9.19288 47.95 11.6429C47.95 14.0054 46.025 16.0179 43.575 16.0179Z" fill="white"/>
<path d="M54.8625 27.3929C54.8625 29.7554 52.9375 31.7679 50.4875 31.7679C48.125 31.7679 46.1125 29.8429 46.1125 27.3929C46.1125 25.0304 48.0375 23.0179 50.4875 23.0179C52.85 23.0179 54.8625 25.0304 54.8625 27.3929Z" fill="white"/>
<path d="M16.7125 11.6429C16.7125 12.8679 16.1875 14.0054 15.3125 14.7929C14.525 15.5804 13.475 16.0179 12.3375 16.0179C9.97502 16.0179 7.96252 14.0929 7.96252 11.6429C7.96252 9.28038 9.88752 7.26788 12.3375 7.26788C14.7875 7.26788 16.7125 9.28038 16.7125 11.6429Z" fill="white"/>
<path d="M20.7375 43.1429L22.05 44.2804C22.3125 44.5429 22.4 44.8929 22.3125 45.2429L21.35 48.0429L25.9875 53.5554L21.9625 39.2929C21.35 40.5179 20.7375 42.0054 20.7375 43.1429Z" fill="white"/>
<path d="M19.6 47.9554L20.5625 45.2429L19.425 44.2804C19.25 44.1054 19.1625 43.9304 19.1625 43.7554C18.9 42.2679 19.6 40.5179 20.3 39.0304C13.2125 41.2179 9.625 44.3679 9.625 48.4804V55.1304C9.625 55.5679 9.975 56.0054 10.5 56.0054H25.9L19.8625 48.7429C19.5125 48.5679 19.5125 48.2179 19.6 47.9554Z" fill="white"/>
<path d="M33.6875 45.1554L34.65 47.9554L30.0125 53.4679L34.0375 39.2054C34.65 40.4304 35.2625 41.9179 35.2625 42.9679L33.95 44.1054C33.6 44.4554 33.5125 44.8929 33.6875 45.1554Z" fill="white"/>
<path d="M32.4625 38.5054L28 54.0804L23.5375 38.5054C24.9375 39.5554 26.3375 40.2554 28 40.2554C29.6625 40.2554 31.0625 39.5554 32.4625 38.5054Z" fill="white"/>
<path d="M46.4625 48.4804V55.1304C46.4625 55.5679 46.025 56.0054 45.5875 56.0054H30.1875L36.225 48.7429C36.4 48.4804 36.4875 48.2179 36.4 47.8679L35.4375 45.1554L36.575 44.1929C36.75 44.0179 36.8375 43.8429 36.8375 43.6679C37.1 42.1804 36.4 40.4304 35.7 38.9429C42.875 41.2179 46.4625 44.3679 46.4625 48.4804Z" fill="white"/>
</g>
<defs>
<clipPath id="clip0_1888_929">
<rect width="56" height="56" fill="white" transform="translate(0 0.00537109)"/>
</clipPath>
</defs>
</svg>
