<svg width="56" height="56" viewBox="0 0 56 56" fill="none" xmlns="http://www.w3.org/2000/svg">
<g clip-path="url(#clip0_1888_878)">
<path d="M38.0712 22.4228L37.625 22.0903C37.3572 21.9072 37.0379 21.8143 36.7137 21.8253C36.3895 21.8364 36.0772 21.9507 35.8225 22.1516L35.6212 22.3178C34.5373 23.1232 33.3362 23.7577 32.06 24.1991C31.9025 24.2516 30.9925 24.5053 30.765 24.5491C29.8571 24.7509 28.93 24.8536 28 24.8553C27.2398 24.8545 26.4812 24.7842 25.7337 24.6453C24.9383 24.4678 24.1526 24.2487 23.38 23.9891C22.8621 23.7889 22.3592 23.552 21.875 23.2803C21.3819 23.0071 20.9083 22.7001 20.4575 22.3616L20.1862 22.1428C19.9308 21.9399 19.6168 21.8244 19.2907 21.8134C18.9646 21.8023 18.6436 21.8964 18.375 22.0816L18.2962 22.1428C16.1641 23.6718 14.4288 25.6889 13.2353 28.0255C12.0419 30.3621 11.425 32.9504 11.4362 35.5741C11.4362 36.9566 11.9962 38.9428 14.6475 40.5878C14.805 40.6841 14.9625 40.7803 15.1287 40.8678C15.4521 41.0544 15.7851 41.2238 16.1262 41.3753C16.071 41.8429 16.0417 42.3132 16.0387 42.7841C16.0387 45.9564 17.2989 48.9988 19.5421 51.242C21.7853 53.4851 24.8277 54.7453 28 54.7453C31.1723 54.7453 34.2147 53.4851 36.4579 51.242C38.701 48.9988 39.9612 45.9564 39.9612 42.7841C39.9588 42.3103 39.9296 41.8371 39.8737 41.3666C40.2237 41.2091 40.5562 41.0428 40.8712 40.8678C41.0287 40.7803 41.1862 40.6928 41.335 40.5966C43.96 38.9428 44.5637 36.9566 44.5637 35.5741C44.5725 33.2848 44.103 31.0189 43.1854 28.9215C42.2678 26.8241 40.9223 24.9414 39.235 23.3941C38.8675 23.0528 38.5 22.7553 38.0712 22.4228ZM28 51.2366C26.4135 51.2391 24.8583 50.7955 23.5119 49.9565C22.1655 49.1174 21.0821 47.9168 20.3853 46.4915C19.6885 45.0663 19.4065 43.4738 19.5714 41.896C19.7362 40.3181 20.3414 38.8184 21.3178 37.568C22.2941 36.3175 23.6024 35.3668 25.0932 34.8243C26.584 34.2817 28.1973 34.1692 29.749 34.4996C31.3006 34.83 32.7281 35.59 33.8686 36.6928C35.009 37.7956 35.8165 39.1969 36.1987 40.7366C36.3753 41.4136 36.4636 42.1107 36.4612 42.8103C36.4497 45.0476 35.5534 47.1895 33.9681 48.7682C32.3828 50.3469 30.2373 51.2343 28 51.2366Z" fill="white"/>
<path d="M21 20.5591L21.1837 20.7079C22.2879 21.6009 23.5576 22.267 24.92 22.6679H25.0512C26.0107 22.9424 27.0021 23.0895 28 23.1054C29.0057 23.1032 30.0064 22.9649 30.975 22.6941H31.08C32.4458 22.2952 33.7187 21.629 34.825 20.7341C34.8891 20.6952 34.9479 20.6481 35 20.5941C35.5035 20.1781 35.9664 19.7152 36.3825 19.2116C37.663 17.6863 38.5028 15.8402 38.8112 13.8727C39.1196 11.9051 38.8849 9.89062 38.1325 8.04662C37.8417 7.37198 37.481 6.72972 37.0562 6.13037C36.0554 4.64878 34.7064 3.43535 33.1275 2.59649C31.5485 1.75763 29.7879 1.31897 28 1.31897C26.212 1.31897 24.4514 1.75763 22.8725 2.59649C21.2935 3.43535 19.9445 4.64878 18.9437 6.13037C18.5286 6.73281 18.1795 7.3782 17.9025 8.05537C17.146 9.89588 16.9052 11.9077 17.2058 13.8747C17.5064 15.8418 18.3371 17.6898 19.6087 19.2204C20.0296 19.7091 20.4954 20.1573 21 20.5591Z" fill="white"/>
<path d="M50.75 22.9654C50.4769 22.743 50.1354 22.6215 49.7831 22.6215C49.4309 22.6215 49.0894 22.743 48.8163 22.9654C47.7345 23.8588 46.4893 24.5334 45.15 24.9516L44.9313 25.0216C44.7425 25.079 44.569 25.1779 44.4234 25.3111C44.2779 25.4442 44.164 25.6083 44.0901 25.7913C44.0163 25.9742 43.9843 26.1714 43.9967 26.3683C44.009 26.5652 44.0652 26.7568 44.1613 26.9291C45.5699 29.5859 46.3003 32.5496 46.2875 35.5566C46.2868 36.3727 46.1386 37.182 45.85 37.9454C45.7307 38.2354 45.6915 38.552 45.7365 38.8623C45.7815 39.1726 45.9091 39.4651 46.1058 39.7093C46.3025 39.9534 46.5612 40.1402 46.8549 40.2501C47.1485 40.3601 47.4663 40.3891 47.775 40.3341C50.4 39.8179 52.8675 38.9079 54.3813 37.4554C54.8726 37.0125 55.2676 36.4732 55.5416 35.871C55.8155 35.2689 55.9626 34.6168 55.9738 33.9554C55.9742 31.8505 55.5056 29.772 54.602 27.8709C53.6984 25.9699 52.3825 24.2941 50.75 22.9654Z" fill="white"/>
<path d="M40.4162 22.1079C40.7837 22.4491 41.1337 22.7904 41.475 23.1579C41.6617 23.3519 41.8908 23.5003 42.1442 23.5913C42.3977 23.6824 42.6687 23.7137 42.9362 23.6829C43.4524 23.6204 43.9619 23.5121 44.4587 23.3591C45.8273 22.9532 47.0825 22.2342 48.125 21.2591C49.4957 20.01 50.4685 18.3851 50.9223 16.5869C51.3761 14.7888 51.2908 12.8968 50.677 11.1468C50.0632 9.39683 48.948 7.86611 47.4704 6.74537C45.9929 5.62464 44.2182 4.96344 42.3675 4.84414C41.9742 4.8179 41.5796 4.8179 41.1862 4.84414C40.9022 4.86094 40.6265 4.94674 40.3831 5.09413C40.1397 5.24151 39.9359 5.44602 39.7894 5.68994C39.6429 5.93387 39.558 6.20984 39.5422 6.49395C39.5264 6.77806 39.5802 7.06173 39.6987 7.32039C40.3301 8.85235 40.6541 10.4935 40.6525 12.1504C40.6108 14.7602 39.8046 17.3004 38.3337 19.4566C38.2361 19.6345 38.1994 19.8396 38.2294 20.0403C38.2595 20.241 38.3545 20.4264 38.5 20.5679C39.1719 21.0386 39.812 21.553 40.4162 22.1079Z" fill="white"/>
<path d="M16.2925 7.32034C16.4111 7.06168 16.4648 6.778 16.449 6.4939C16.4332 6.20979 16.3483 5.93381 16.2018 5.68989C16.0553 5.44597 15.8515 5.24146 15.6081 5.09408C15.3647 4.94669 15.089 4.86089 14.805 4.84409C12.8545 4.728 10.916 5.21936 9.25639 6.25051C7.59673 7.28166 6.29751 8.8019 5.53757 10.602C4.77763 12.402 4.59434 14.3934 5.01293 16.3019C5.43153 18.2105 6.43142 19.9423 7.87497 21.2591C8.92747 22.2324 10.1914 22.9483 11.5675 23.3503C12.0696 23.5078 12.5851 23.6191 13.1075 23.6828C13.3792 23.7143 13.6545 23.6816 13.9113 23.5874C14.1681 23.4932 14.3993 23.34 14.5862 23.1403C14.9187 22.7903 15.2512 22.4403 15.61 22.1166C16.2267 21.5022 16.9106 20.9592 17.6487 20.4978C17.7845 20.4023 17.8784 20.2582 17.911 20.0953C17.9436 19.9324 17.9123 19.7633 17.8237 19.6228L17.4475 19.0978C16.0926 17.0375 15.3716 14.625 15.3737 12.1591C15.3739 10.4967 15.6978 8.85017 16.3275 7.31159L16.2925 7.32034Z" fill="white"/>
<path d="M9.68625 35.5741C9.68963 32.578 10.4256 29.6282 11.83 26.9816C11.9256 26.8049 11.9808 26.6092 11.9915 26.4086C12.0023 26.2081 11.9683 26.0076 11.8921 25.8217C11.8159 25.6358 11.6994 25.4692 11.551 25.3339C11.4025 25.1985 11.2259 25.0978 11.0338 25.0391C9.65318 24.631 8.366 23.9562 7.245 23.0529C6.9484 22.8113 6.57755 22.6793 6.195 22.6793C5.81245 22.6793 5.4416 22.8113 5.145 23.0529C3.5372 24.3808 2.24239 26.0473 1.35302 27.9335C0.463648 29.8196 0.00164767 31.8788 0 33.9641C0.011123 34.6256 0.158246 35.2776 0.432216 35.8798C0.706185 36.4819 1.10114 37.0212 1.5925 37.4641C3.10625 38.9166 5.53875 39.8266 8.19875 40.3429C8.50744 40.3978 8.82523 40.3688 9.11887 40.2589C9.41252 40.1489 9.67124 39.9622 9.86798 39.718C10.0647 39.4739 10.1923 39.1814 10.2372 38.8711C10.2822 38.5608 10.243 38.2441 10.1238 37.9541C9.8375 37.1931 9.68934 36.3872 9.68625 35.5741Z" fill="white"/>
<path d="M32.1212 39.5729L26.4337 44.3591L24.0712 41.9441C23.7463 41.6123 23.3029 41.4231 22.8385 41.4182C22.3742 41.4132 21.9268 41.593 21.595 41.9179C21.2631 42.2428 21.0739 42.6862 21.069 43.1506C21.0641 43.615 21.2438 44.0623 21.5687 44.3941L25.0687 47.9729C25.2318 48.1393 25.4265 48.2714 25.6414 48.3616C25.8563 48.4517 26.087 48.4981 26.32 48.4979C26.7276 48.5106 27.1268 48.3806 27.4487 48.1304L34.3787 42.2941C34.5545 42.1459 34.6994 41.9645 34.8051 41.7603C34.9108 41.556 34.9753 41.333 34.9948 41.1039C35.0143 40.8747 34.9884 40.644 34.9188 40.4249C34.8491 40.2057 34.737 40.0024 34.5887 39.8266C34.4405 39.6508 34.2591 39.5059 34.0549 39.4002C33.8506 39.2945 33.6276 39.2301 33.3985 39.2106C33.1693 39.1911 32.9386 39.2169 32.7195 39.2866C32.5003 39.3562 32.297 39.4684 32.1212 39.6166V39.5729Z" fill="white"/>
</g>
<defs>
<clipPath id="clip0_1888_878">
<rect width="56" height="56" fill="white" transform="translate(0 0.00537109)"/>
</clipPath>
</defs>
</svg>
