<svg width="41" height="41" viewBox="0 0 41 41" fill="none" xmlns="http://www.w3.org/2000/svg">
<g clip-path="url(#clip0_2297_73)">
<path d="M22.7929 15.4927H18.2617V10.9615C18.2617 10.5446 17.9233 10.2063 17.5065 10.2063C17.0896 10.2063 16.7513 10.5446 16.7513 10.9615V15.4927H12.22C11.8032 15.4927 11.4648 15.831 11.4648 16.2479C11.4648 16.6648 11.8032 17.0031 12.22 17.0031H16.7513V21.5343C16.7513 21.9512 17.0896 22.2895 17.5065 22.2895C17.9233 22.2895 18.2617 21.9512 18.2617 21.5343V17.0031H22.7929C23.2097 17.0031 23.5481 16.6648 23.5481 16.2479C23.5481 15.831 23.2097 15.4927 22.7929 15.4927Z" fill="white"/>
<path d="M39.9511 39.1101L28.7295 27.44C31.5917 24.5695 33.3649 20.6122 33.3649 16.2479C33.3649 7.50267 26.2509 0.388672 17.5057 0.388672C8.76048 0.388672 1.64648 7.50267 1.64648 16.2479C1.64648 24.9931 8.76048 32.1071 17.5057 32.1071C21.3444 32.1071 24.8674 30.7349 27.6133 28.458L38.8621 40.1568C39.0101 40.3116 39.2079 40.3887 39.4066 40.3887C39.5954 40.3887 39.7834 40.3184 39.9299 40.178C40.2305 39.8887 40.2395 39.4107 39.9511 39.1101ZM3.15689 16.2479C3.15689 8.33566 9.59347 1.89907 17.5057 1.89907C25.418 1.89907 31.8545 8.33566 31.8545 16.2479C31.8545 24.1601 25.418 30.5967 17.5057 30.5967C9.59347 30.5967 3.15689 24.1601 3.15689 16.2479Z" fill="white"/>
</g>
<defs>
<clipPath id="clip0_2297_73">
<rect width="40" height="40" fill="white" transform="translate(0.904297 0.388672)"/>
</clipPath>
</defs>
</svg>
