<svg width="56" height="56" viewBox="0 0 56 56" fill="none" xmlns="http://www.w3.org/2000/svg">
<g clip-path="url(#clip0_1891_149)">
<path d="M3.76364 40.7767H1.89311C1.30194 40.7767 0.820251 41.2711 0.820251 41.875V46.0518C0.820251 46.6556 1.30194 47.15 1.89311 47.15H3.76364" stroke="white" stroke-width="2" stroke-miterlimit="10" stroke-linecap="round" stroke-linejoin="round"/>
<path d="M52.2332 40.9958H54.1037C54.6949 40.9958 55.1796 41.4902 55.1796 42.094V46.2678C55.1796 46.8716 54.6949 47.3659 54.1037 47.3659H52.2332" stroke="white" stroke-width="2" stroke-miterlimit="10" stroke-linecap="round" stroke-linejoin="round"/>
<path d="M24.4577 15.1711V14.2388" stroke="white" stroke-width="2" stroke-miterlimit="10" stroke-linecap="round" stroke-linejoin="round"/>
<path d="M32.1929 15.1711V14.2388" stroke="white" stroke-width="2" stroke-miterlimit="10" stroke-linecap="round" stroke-linejoin="round"/>
<path d="M16.9257 31.7191V25.424M16.9257 39.8726V35.5392M39.0742 35.5392V39.8038M39.0742 25.4397V31.7191" stroke="white" stroke-width="2" stroke-miterlimit="10" stroke-linecap="round" stroke-linejoin="round"/>
<path d="M16.9257 39.8726L20.4665 40.4733C22.315 40.7893 22.2368 42.0032 22.2368 42.3818V45.0506C22.2368 48.3202 13.751 48.0104 13.751 45.0506V41.2555C13.751 40.8769 13.804 39.3439 16.9257 39.8726Z" stroke="white" stroke-width="2" stroke-miterlimit="10" stroke-linecap="round" stroke-linejoin="round"/>
<path d="M33.7631 42.1003H22.2306" stroke="white" stroke-width="2" stroke-miterlimit="10" stroke-linecap="round" stroke-linejoin="round"/>
<path d="M22.0148 45.8954H34.0258" stroke="white" stroke-width="2" stroke-miterlimit="10" stroke-linecap="round" stroke-linejoin="round"/>
<path d="M10.1132 42.1003H13.7509" stroke="white" stroke-width="2" stroke-miterlimit="10" stroke-linecap="round" stroke-linejoin="round"/>
<path d="M14.0106 45.8954H10.1132" stroke="white" stroke-width="2" stroke-miterlimit="10" stroke-linecap="round" stroke-linejoin="round"/>
<path d="M45.8837 42.1003H42.2491" stroke="white" stroke-width="2" stroke-miterlimit="10" stroke-linecap="round" stroke-linejoin="round"/>
<path d="M41.9362 45.8954H45.8837" stroke="white" stroke-width="2" stroke-miterlimit="10" stroke-linecap="round" stroke-linejoin="round"/>
<path d="M39.0742 39.8037L35.5304 40.4044C33.6818 40.7173 33.7631 41.9344 33.7631 42.3129V44.9818C33.7631 48.2513 42.2491 47.9416 42.2491 44.9818V41.1867C42.2491 40.808 42.1959 39.275 39.0742 39.8037Z" stroke="white" stroke-width="2" stroke-miterlimit="10" stroke-linecap="round" stroke-linejoin="round"/>
<path d="M23.0689 23.259C22.4496 24.4197 21.1046 25.1113 19.5062 25.1831C20.2506 27.3451 23.8947 28.9877 28.2769 28.9877C32.659 28.9877 36.2811 27.367 37.0255 25.2019" stroke="white" stroke-width="2" stroke-miterlimit="10" stroke-linecap="round" stroke-linejoin="round"/>
<path d="M18.3615 9.79909C27.0132 7.46503 26.3125 14.3107 38.1797 9.79909C38.1797 1.91775 29.4498 -0.550735 23.5787 2.03041C20.6042 3.3382 18.3615 5.9445 18.3615 9.79909Z" stroke="white" stroke-width="2" stroke-miterlimit="10" stroke-linecap="round" stroke-linejoin="round"/>
<path d="M39.0742 47.2314V48.9177C39.0742 50.7325 38.3737 51.8118 36.5156 52.4032C32.1929 53.7735 23.1253 53.736 19.4812 52.4032C17.6514 51.7305 16.9258 50.7325 16.9258 48.9177V47.3002" stroke="white" stroke-width="2" stroke-miterlimit="10" stroke-linecap="round" stroke-linejoin="round"/>
<path d="M10.1132 34.5818C11.5082 28.9345 12.0682 25.5711 19.0903 25.1956C19.1434 25.1926 19.4812 25.1831 19.5375 25.18" stroke="white" stroke-width="2" stroke-miterlimit="10" stroke-linecap="round" stroke-linejoin="round"/>
<path d="M47.4382 33.0269H50.6817C51.5357 33.0269 52.2332 33.7277 52.2332 34.5818V53.4169C52.2332 54.271 51.5357 54.9687 50.6817 54.9687H47.4382C46.5842 54.9687 45.8837 54.271 45.8837 53.4169V34.5818C45.8837 33.7277 46.5842 33.0269 47.4382 33.0269Z" stroke="white" stroke-width="2" stroke-miterlimit="10" stroke-linecap="round" stroke-linejoin="round"/>
<path d="M45.8837 34.5818C44.4792 28.8906 43.9225 25.521 36.744 25.1894C35.1674 25.1831 33.8069 24.5855 33.0937 23.5311" stroke="white" stroke-width="2" stroke-miterlimit="10" stroke-linecap="round" stroke-linejoin="round"/>
<path d="M39.5684 47.1438C40.3285 48.6362 41.8768 49.6561 43.6629 49.6561C44.4698 49.6561 45.2267 49.4496 45.8836 49.0835" stroke="white" stroke-width="2" stroke-miterlimit="10" stroke-linecap="round" stroke-linejoin="round"/>
<path d="M16.3971 47.2063C15.6277 48.6644 14.095 49.6561 12.3341 49.6561C11.5271 49.6561 10.7701 49.4496 10.1132 49.0837" stroke="white" stroke-width="2" stroke-miterlimit="10" stroke-linecap="round" stroke-linejoin="round"/>
<path d="M8.56178 33.0269H5.31816C4.46427 33.0269 3.76361 33.7277 3.76361 34.5818V53.4169C3.76361 54.271 4.46427 54.9687 5.31816 54.9687H8.56178C9.41261 54.9687 10.1133 54.271 10.1133 53.4169V34.5818C10.1133 33.7277 9.41261 33.0269 8.56178 33.0269Z" stroke="white" stroke-width="2" stroke-miterlimit="10" stroke-linecap="round" stroke-linejoin="round"/>
<path d="M38.1797 11.4542H39.8687C40.4912 11.4542 41.001 11.9642 41.001 12.5868V13.7069C41.001 15.1398 39.4184 16.5979 38.0014 16.5791" stroke="white" stroke-width="2" stroke-miterlimit="10" stroke-linecap="round" stroke-linejoin="round"/>
<path d="M18.3614 11.4542H16.6724C16.0499 11.4542 15.5401 11.9642 15.5401 12.5868V13.7069C15.5401 15.1398 17.1228 16.5979 18.5366 16.5791" stroke="white" stroke-width="2" stroke-miterlimit="10" stroke-linecap="round" stroke-linejoin="round"/>
<path d="M18.3615 9.7991V15.1868C18.3615 18.7661 21.7114 23.259 25.7995 24.7764C27.6012 25.446 28.9524 25.4428 30.7509 24.7732C34.8359 23.2496 38.1797 18.7598 38.1797 15.1868V9.7991" stroke="white" stroke-width="2" stroke-miterlimit="10" stroke-linecap="round" stroke-linejoin="round"/>
</g>
<defs>
<clipPath id="clip0_1891_149">
<rect width="56" height="56" fill="white" transform="translate(0 0.0078125)"/>
</clipPath>
</defs>
</svg>
