<svg width="58" height="58" viewBox="0 0 58 58" fill="none" xmlns="http://www.w3.org/2000/svg">
<path d="M11.2685 50.0296L23.2809 35.3417C23.5715 34.9862 23.5189 34.4629 23.1639 34.1723C22.8084 33.8818 22.285 33.9344 21.9945 34.2894L9.99188 48.9657C9.26044 49.8014 9.08868 50.9473 9.54498 51.9612C10.0034 52.981 10.9831 53.6142 12.1008 53.6142C12.8784 53.6142 13.6277 53.2869 14.1562 52.7161C14.1639 52.708 14.1712 52.6999 14.1785 52.6913L26.1995 38.6336C26.4977 38.285 26.4567 37.7604 26.1076 37.4621C25.7594 37.1639 25.2347 37.2049 24.9365 37.5536L12.9279 51.5976C12.713 51.8232 12.4127 51.9526 12.1008 51.9526C11.6389 51.9526 11.2497 51.701 11.0604 51.2797C10.8707 50.8584 10.9404 50.4004 11.2471 50.0548C11.2544 50.0467 11.2617 50.0381 11.2685 50.0296Z" fill="white" stroke="white"/>
<path d="M12.7942 6.24756L20.4141 12.4025C18.2958 12.8293 16.6958 14.704 16.6958 16.9462C16.6958 19.5016 18.7748 21.5806 21.3306 21.5806C23.8859 21.5806 25.9653 19.5016 25.9653 16.9462C25.9653 15.3727 25.1766 13.9807 23.9744 13.1425L13.8384 4.95514C13.4086 4.60822 13.303 3.9917 13.5923 3.52173C13.7602 3.24872 14.0268 3.068 14.343 3.01374C14.6591 2.95905 14.9706 3.0398 15.2205 3.24103L24.643 10.8268C27.5367 13.157 29.5149 16.4459 30.2164 20.0933L30.7338 28.7331C30.7436 28.8946 30.8005 29.0501 30.897 29.18L46.3685 49.9403C46.3744 49.9484 46.3808 49.9565 46.3873 49.9647C46.706 50.3611 46.7649 50.8717 46.5453 51.3306C46.3257 51.7894 45.8908 52.0633 45.3819 52.0633C45.0171 52.0633 44.6693 51.9086 44.4253 51.6386L35.1682 39.7539C34.8862 39.3916 34.3637 39.3271 34.0022 39.6091C33.6399 39.891 33.5754 40.4131 33.857 40.775L43.1308 52.6807C43.1406 52.6935 43.1509 52.7054 43.1611 52.7174C43.7217 53.3578 44.5309 53.7248 45.3819 53.7248C46.5287 53.7248 47.5485 53.0827 48.0437 52.0483C48.5367 51.0191 48.4017 49.8284 47.6925 48.9363L32.3779 28.3862L31.872 19.9404C31.8699 19.9053 31.8656 19.8703 31.8592 19.8357C31.0923 15.7798 28.8996 12.1209 25.6851 9.53265L16.2626 1.94647C15.6448 1.44916 14.842 1.24152 14.0605 1.3761C13.2791 1.51068 12.5925 1.97553 12.1772 2.651C11.4514 3.83063 11.7162 5.37683 12.7942 6.24756ZM21.3306 19.919C19.6912 19.919 18.3574 18.5851 18.3574 16.9462C18.3574 15.3069 19.6912 13.973 21.3306 13.973C21.9364 13.973 22.5004 14.1555 22.9708 14.4682L23.4023 14.8164C23.9577 15.3569 24.3038 16.1118 24.3038 16.9462C24.3038 18.5856 22.9699 19.919 21.3306 19.919Z" fill="white" stroke="white"/>
<path d="M30.6514 39.997C31.1952 39.997 31.7438 39.8428 32.2258 39.5228C32.8824 39.0865 33.3204 38.4188 33.4579 37.642C33.5955 36.8657 33.4139 36.0877 32.9478 35.4541L26.0358 26.0038C25.7645 25.6334 25.245 25.5531 24.8746 25.824C24.5041 26.0948 24.4238 26.6148 24.6947 26.9852L31.608 36.4363C31.8032 36.7021 31.8793 37.0272 31.8216 37.3524C31.7639 37.6771 31.5811 37.9561 31.3063 38.1389C30.7855 38.4846 30.0793 38.3671 29.6982 37.871L22.6969 28.7686C22.0338 27.8581 21.6835 26.7814 21.6835 25.6548V23.4288C21.6835 22.97 21.3113 22.5983 20.8525 22.5983C20.3936 22.5983 20.0215 22.97 20.0215 23.4288V25.6548C20.0215 27.1399 20.485 28.5583 21.3609 29.7568C21.3652 29.7623 21.369 29.7679 21.3733 29.773L28.381 38.8832C28.939 39.6103 29.7896 39.997 30.6514 39.997Z" fill="white" stroke="white"/>
<path d="M56.9167 55.4458L48.8943 38.8947C48.7555 38.608 48.465 38.426 48.1467 38.426H43.2795C42.8206 38.426 42.4489 38.7982 42.4489 39.257C42.4489 39.7159 42.8206 40.088 43.2795 40.088H47.6258L54.8429 54.9775H3.17645L10.6383 40.088H14.8138C15.2726 40.088 15.6443 39.7159 15.6443 39.257C15.6443 38.7982 15.2726 38.426 14.8138 38.426H10.1252C9.81072 38.426 9.52319 38.6038 9.38262 38.8849L1.08807 55.436C0.959043 55.6936 0.972714 55.9999 1.12396 56.2447C1.2752 56.49 1.54266 56.6391 1.83105 56.6391H56.169C56.4553 56.6391 56.7215 56.4921 56.8732 56.2494C57.0253 56.0072 57.0415 55.7034 56.9167 55.4458Z" fill="white" stroke="white"/>
<path d="M8.60034 37.4327C8.70801 37.4327 8.81781 37.4117 8.92334 37.3669C9.34631 37.1883 9.5437 36.7008 9.36511 36.2783C8.26794 33.684 7.71167 30.9283 7.71167 28.0871C7.71167 21.9454 10.3858 16.1251 15.0488 12.1188C15.397 11.8197 15.4363 11.295 15.1376 10.9473C14.8386 10.5991 14.3139 10.5593 13.9661 10.8584C8.9353 15.1808 6.05011 21.4605 6.05011 28.0871C6.05011 31.1517 6.65039 34.1254 7.83472 36.9255C7.96887 37.2425 8.27649 37.4327 8.60034 37.4327Z" fill="white" stroke="white"/>
<path d="M26.8138 7.13153C27.4547 7.073 28.108 7.04309 28.7557 7.04309C40.3597 7.04309 49.7997 16.4835 49.7997 28.0871C49.7997 30.7544 49.3079 33.3533 48.3372 35.8117C48.1684 36.2385 48.3778 36.7209 48.8046 36.8896C48.905 36.9289 49.008 36.9477 49.1097 36.9477C49.4408 36.9477 49.7535 36.7486 49.8826 36.4218C50.9306 33.7686 51.4617 30.9642 51.4617 28.0871C51.4617 15.5671 41.2761 5.3811 28.7557 5.3811C28.058 5.3811 27.3534 5.41357 26.6622 5.47638C26.2054 5.51825 25.8688 5.92285 25.9106 6.37958C25.9525 6.83673 26.355 7.1734 26.8138 7.13153Z" fill="white" stroke="white"/>
</svg>
