<svg width="57" height="57" viewBox="0 0 57 57" fill="none" xmlns="http://www.w3.org/2000/svg">
<g clip-path="url(#clip0_1891_96)">
<path d="M2.38 56.0745C5.40517 56.0786 8.37273 55.2472 10.9555 53.6721C14.435 55.7151 18.3677 56.8614 22.4 57.0078C28.9875 57.0078 32.9467 55.1178 35.1708 53.4089C41.5763 54.9741 50.1275 53.1625 52.0408 50.5585C53.1459 49.0465 53.4632 46.7981 52.9844 43.8721C54.9938 40.5096 56.0373 36.6581 56 32.7411C56 27.8822 54.2472 22.5529 52.5523 17.3999C51.3191 13.9741 50.3462 10.4601 49.6421 6.88781C49.5458 6.29306 49.2556 5.7468 48.8168 5.33395C48.3779 4.9211 47.815 4.6648 47.2155 4.60488C41.8334 3.96249 36.522 2.82523 31.3488 1.20755L31.0688 1.12075C30.5584 0.968839 30.0143 0.972308 29.5058 1.13071C28.9974 1.28911 28.5476 1.59528 28.2137 2.01021L25.7871 5.04541C25.4849 5.42508 25.2907 5.87924 25.225 6.36004C25.1593 6.84083 25.2245 7.33045 25.4137 7.77728L27.3607 12.3245C27.053 12.7072 26.8335 13.153 26.7179 13.6302C26.6022 14.1074 26.5932 14.6042 26.6915 15.0853C26.8419 15.8535 27.255 16.5453 27.86 17.0421C28.4649 17.5389 29.2239 17.8096 30.0067 17.8078H38.2667V21.0465C38.2803 22.7584 37.7599 24.4321 36.778 25.8345C35.9625 26.9669 35.2725 28.1846 34.72 29.4661C30.8039 26.0344 25.7385 24.2045 20.5333 24.3411C17.2711 24.2572 14.0517 25.0986 11.2476 26.7678C8.71785 25.1764 5.78868 24.335 2.8 24.3411H2.38C1.74909 24.3421 1.1443 24.5932 0.698176 25.0393C0.252054 25.4854 0.000987345 26.0902 0 26.7211L0 53.6945C0.000741032 54.3255 0.251728 54.9304 0.697904 55.3766C1.14408 55.8228 1.74901 56.0737 2.38 56.0745ZM1.86667 26.7211C1.86604 26.6536 1.8789 26.5865 1.90447 26.524C1.93005 26.4614 1.96784 26.4046 2.01563 26.3568C2.06342 26.309 2.12026 26.2712 2.18282 26.2456C2.24538 26.22 2.31241 26.2072 2.38 26.2078H2.8C5.18 26.2066 7.5207 26.8145 9.59933 27.9737C7.84334 29.4096 6.48339 31.2704 5.64853 33.3795C5.57066 33.6137 5.5887 33.8692 5.69872 34.0901C5.80874 34.3111 6.00178 34.4794 6.2356 34.5583C6.46978 34.6372 6.72567 34.62 6.94718 34.5105C7.16868 34.4009 7.33771 34.208 7.4172 33.9741C8.31484 31.813 9.82961 29.9645 11.7721 28.6597C14.3741 26.9679 17.4312 26.1123 20.5333 26.2078C23.0188 26.1299 25.4948 26.5494 27.816 27.4417C30.1371 28.3339 32.2565 29.681 34.0499 31.4037C33.7589 32.4471 33.6076 33.5246 33.6 34.6078C33.6 40.4878 35.5852 41.7777 35.9828 41.9812C36.1174 42.0477 36.2657 42.0822 36.4159 42.0819C36.589 42.0839 36.7593 42.0376 36.9077 41.9482C37.056 41.8589 37.1766 41.73 37.2559 41.5761C37.3127 41.4692 37.3477 41.3521 37.3586 41.2316C37.3696 41.1111 37.3564 40.9896 37.3198 40.8742C37.2832 40.7588 37.224 40.6519 37.1455 40.5598C37.067 40.4676 36.971 40.3921 36.8629 40.3375C36.8508 40.3235 35.4667 39.3491 35.4667 34.6078C35.4732 33.5249 35.647 32.4494 35.9819 31.4195C36.5222 29.8096 37.3035 28.2909 38.2993 26.9153C39.5059 25.1972 40.147 23.1458 40.1333 21.0465V17.7014C40.9776 17.5379 41.7674 17.1655 42.4306 16.6182C43.0939 16.0709 43.6094 15.3661 43.9301 14.5682L44.7337 12.5522C44.8231 12.3227 44.8181 12.0672 44.7199 11.8413C44.6217 11.6155 44.4382 11.4376 44.2094 11.3464C43.9805 11.2553 43.725 11.2583 43.4984 11.3548C43.2718 11.4513 43.0925 11.6334 42.9996 11.8615L42.1979 13.8747C41.9557 14.4781 41.5404 14.9962 41.0042 15.3639C40.4681 15.7317 39.8351 15.9325 39.1851 15.9411H30.0067C29.6591 15.9424 29.3217 15.8233 29.0519 15.6042C28.7791 15.3802 28.5924 15.0685 28.5236 14.7222C28.4678 14.4548 28.4871 14.1772 28.5796 13.9202C28.672 13.6632 28.8339 13.4368 29.0472 13.2662L29.0575 13.2541L29.0696 13.2475C29.3021 13.055 29.5882 12.9383 29.8891 12.9134L36.5409 12.3534C36.8954 12.3242 37.2387 12.2151 37.5449 12.0341C37.8512 11.8531 38.1124 11.6051 38.3089 11.3086C38.5055 11.0122 38.6323 10.675 38.6798 10.3225C38.7272 9.97 38.6942 9.61131 38.5831 9.27341L38.2191 8.18141C38.1803 8.06497 38.1191 7.9573 38.0387 7.86455C37.9584 7.7718 37.8605 7.69578 37.7508 7.64083C37.6411 7.58588 37.5216 7.55308 37.3992 7.54431C37.2768 7.53553 37.1539 7.55095 37.0375 7.58968C36.921 7.62841 36.8134 7.6897 36.7206 7.77004C36.6279 7.85038 36.5518 7.94821 36.4969 8.05793C36.4419 8.16765 36.4091 8.28712 36.4004 8.40952C36.3916 8.53191 36.407 8.65484 36.4457 8.77128L36.8097 9.86328C36.833 9.93215 36.84 10.0055 36.8303 10.0775C36.8206 10.1495 36.7944 10.2184 36.7537 10.2786C36.7133 10.3407 36.6591 10.3926 36.5953 10.4304C36.5315 10.4681 36.4599 10.4906 36.386 10.4961L34.7844 10.6305L33.5067 8.05821C33.396 7.83667 33.2019 7.66815 32.967 7.58974C32.7321 7.51132 32.4757 7.52943 32.2541 7.64008C32.0326 7.75073 31.8641 7.94485 31.7857 8.17975C31.7072 8.41464 31.7254 8.67107 31.836 8.89261L32.788 10.7957L29.7304 11.0533C29.4572 11.0805 29.1883 11.1407 28.9296 11.2325L27.1376 7.04741C27.0789 6.9103 27.0583 6.75986 27.078 6.612C27.0977 6.46413 27.157 6.32435 27.2496 6.20741L29.6707 3.18061C29.7713 3.05412 29.9074 2.96047 30.0615 2.9116C30.2156 2.86273 30.3807 2.86085 30.5359 2.90621L30.8159 2.99208C36.0949 4.64369 41.515 5.8047 47.0073 6.46035C47.2008 6.47736 47.3832 6.55775 47.5263 6.68904C47.6695 6.82033 47.7652 6.99519 47.7988 7.18648C48.5212 10.8547 49.517 14.4637 50.778 17.9833C52.4281 22.9971 54.1333 28.1809 54.1333 32.7411C54.1745 36.4276 53.1627 40.0492 51.2167 43.1805C51.2114 43.1905 51.2068 43.2008 51.2027 43.2113C50.7785 43.9023 50.2887 44.5509 49.7401 45.1479C49.651 45.234 49.5799 45.337 49.531 45.4509C49.4821 45.5648 49.4563 45.6872 49.4552 45.8112C49.4542 45.9351 49.4778 46.058 49.5247 46.1727C49.5716 46.2874 49.6409 46.3916 49.7286 46.4793C49.8162 46.5669 49.9204 46.6362 50.0351 46.6831C50.1498 46.73 50.2727 46.7537 50.3966 46.7526C50.5206 46.7515 50.643 46.7258 50.7569 46.6768C50.8708 46.6279 50.9738 46.5568 51.0599 46.4677C51.0711 46.4565 51.1709 46.3547 51.3249 46.1793C51.4154 47.3273 51.1389 48.4745 50.5353 49.4553C49.2763 51.168 41.3887 53.1886 35.2044 51.489C33.824 51.1286 32.5177 50.5284 31.3451 49.7157C31.1439 49.5714 30.8937 49.5129 30.6495 49.553C30.4052 49.5932 30.1869 49.7288 30.0426 49.9299C29.8983 50.131 29.8398 50.3812 29.88 50.6255C29.9201 50.8697 30.0557 51.088 30.2568 51.2323C31.0898 51.8158 31.9885 52.2992 32.9345 52.6725C30.8187 53.9539 27.4904 55.1411 22.4 55.1411C18.1067 55.1411 14.0476 53.3109 11.3969 51.7812C9.89623 50.9291 8.47471 49.9445 7.14933 48.8393C6.96204 48.6884 6.72374 48.6157 6.48413 48.6362C6.24452 48.6568 6.02208 48.769 5.86321 48.9496C5.70433 49.1301 5.62128 49.365 5.63136 49.6053C5.64145 49.8456 5.74389 50.0727 5.91733 50.2393C6.92502 51.0851 7.98966 51.8607 9.10373 52.5605C7.02752 53.6422 4.72109 54.2072 2.38 54.2078C2.31238 54.2086 2.24529 54.1958 2.18267 54.1703C2.12005 54.1447 2.06316 54.107 2.01535 54.0591C1.96753 54.0113 1.92975 53.9544 1.90421 53.8918C1.87868 53.8292 1.86592 53.7621 1.86667 53.6945V26.7211Z" fill="white" stroke="white"/>
<path d="M15.2712 41.2251C17.0291 41.7039 18.843 41.9465 20.6649 41.9466C24.3682 41.9195 28.0053 40.9624 31.2424 39.1634C31.3504 39.1053 31.4458 39.0265 31.5234 38.9315C31.6009 38.8365 31.659 38.7272 31.6942 38.6097C31.7295 38.4923 31.7413 38.3691 31.729 38.2471C31.7166 38.1251 31.6803 38.0067 31.6223 37.8987C31.5642 37.7908 31.4854 37.6953 31.3904 37.6178C31.2954 37.5402 31.186 37.4822 31.0686 37.4469C30.8314 37.3756 30.5757 37.4015 30.3576 37.5189C18.9401 43.6649 10.2779 36.9663 9.91759 36.6789C9.72414 36.5244 9.47725 36.4531 9.23124 36.4807C8.98523 36.5083 8.76025 36.6324 8.60579 36.8259C8.45132 37.0193 8.38004 37.2662 8.4076 37.5122C8.43517 37.7582 8.55934 37.9832 8.75279 38.1377C10.7126 39.5667 12.9239 40.6141 15.2712 41.2251Z" fill="white"/>
</g>
<defs>
<clipPath id="clip0_1891_96">
<rect width="56" height="56" fill="white" transform="translate(0.325195 0.923096)"/>
</clipPath>
</defs>
</svg>
