<svg width="54" height="54" viewBox="0 0 54 54" fill="none" xmlns="http://www.w3.org/2000/svg">
<path d="M51.231 38.4036H50.5857V35.4439C50.5857 34.2703 49.6308 33.3155 48.4573 33.3155H46.3069V32.6691C46.3069 31.4955 45.3521 30.5406 44.1785 30.5406H41.4354C40.2618 30.5406 39.3069 31.4955 39.3069 32.6691V38.4462H14.6954V32.6691C14.6954 31.4955 13.7405 30.5406 12.5669 30.5406H9.82272C8.64913 30.5406 7.69428 31.4955 7.69428 32.6691V33.3155H5.54397C4.37038 33.3155 3.41553 34.2703 3.41553 35.4439V38.4036H2.77022C1.59663 38.4036 0.641785 39.3584 0.641785 40.532V43.3736C0.641785 44.5472 1.59663 45.502 2.77022 45.502H3.41553V48.4617C3.41553 49.6353 4.37038 50.5902 5.54397 50.5902H7.69428V51.2366C7.69428 52.4102 8.64913 53.365 9.82272 53.365H12.5658C13.7394 53.365 14.6943 52.4102 14.6943 51.2366V45.4594H39.3048V51.2366C39.3048 52.4102 40.2596 53.365 41.4332 53.365H44.1763C45.3499 53.365 46.3048 52.4102 46.3048 51.2366V50.5902H48.4551C49.6287 50.5902 50.5835 49.6353 50.5835 48.4617V45.5031H51.2288C52.4024 45.5031 53.3573 44.5483 53.3573 43.3747V40.5331C53.3594 39.3584 52.4046 38.4036 51.231 38.4036ZM2.76913 44.1906C2.3185 44.1906 1.95319 43.8242 1.95319 43.3747V40.5331C1.95319 40.0825 2.3196 39.7172 2.76913 39.7172H3.41444V44.1917H2.76913V44.1906ZM5.54397 49.2787C5.09335 49.2787 4.72803 48.9123 4.72803 48.4628V35.4428C4.72803 34.9922 5.09444 34.6269 5.54397 34.6269H7.69428V49.2787H5.54397ZM13.3829 51.2388C13.3829 51.6894 13.0165 52.0547 12.5669 52.0547H9.82272C9.3721 52.0547 9.00678 51.6883 9.00678 51.2388V32.668C9.00678 32.2173 9.37319 31.852 9.82272 31.852H12.5658C13.0165 31.852 13.3818 32.2184 13.3818 32.668V51.2388H13.3829ZM14.6954 44.148V39.7577H39.3048V44.148H14.6954ZM44.9933 51.2388C44.9933 51.6894 44.6269 52.0547 44.1774 52.0547H41.4343C40.9837 52.0547 40.6183 51.6883 40.6183 51.2388V32.668C40.6183 32.2173 40.9848 31.852 41.4343 31.852H44.1774C44.628 31.852 44.9933 32.2184 44.9933 32.668V51.2388ZM49.2721 48.4628C49.2721 48.9134 48.9057 49.2787 48.4562 49.2787H46.3058V34.6269H48.4562C48.9068 34.6269 49.2721 34.9933 49.2721 35.4428V48.4628ZM52.0469 43.3736C52.0469 43.8242 51.6805 44.1895 51.231 44.1895H50.5857V39.715H51.231C51.6816 39.715 52.0469 40.0814 52.0469 40.5309V43.3736ZM7.78507 25.5159C10.4921 27.1336 13.3873 28.0064 16.3929 28.1092C16.593 28.1158 16.7932 28.1191 16.9923 28.1191C18.8735 28.1191 20.7383 27.8139 22.5671 27.2102C21.1693 28.7009 19.8251 29.8647 18.7499 30.6391L17.5588 31.4233C17.3477 31.5622 17.2351 31.8105 17.2701 32.0609L17.5949 34.4103C17.6288 34.6553 17.7973 34.8598 18.0313 34.9408C18.9818 35.2678 19.9607 35.492 20.9374 35.6047C21.4569 35.6648 21.9787 35.6944 22.5015 35.6944C26.3351 35.6944 30.1883 34.0887 33.498 31.0777C36.7673 28.1048 39.0893 24.1269 39.9665 20.0428C40.7748 20.4256 41.676 20.64 42.6287 20.64C46.0707 20.64 48.8707 17.84 48.8707 14.398C48.8707 10.9559 46.0707 8.15594 42.6287 8.15594C41.0351 8.15594 39.5793 8.7575 38.4746 9.74406C38.1388 9.08016 37.7648 8.45672 37.3535 7.87703H37.4038C38.9613 7.87703 40.229 6.60937 40.229 5.05187V3.47359C40.229 1.91609 38.9613 0.648438 37.4038 0.648438H29.1493C27.5918 0.648438 26.3241 1.91609 26.3241 3.47359V5.05516C26.3241 6.27797 27.1051 7.32141 28.1933 7.71406C24.899 13.7242 17.5358 18.248 8.7246 19.6108V19.6119C8.72022 19.613 8.71694 19.6119 8.71257 19.613L6.6585 19.9684C6.43538 20.0067 6.24835 20.1577 6.16303 20.3677L5.17757 22.7903C5.08678 23.0123 5.12507 23.2661 5.276 23.4509C5.86991 24.1816 6.71319 24.8761 7.78507 25.5159ZM20.4069 34.2047C19.8808 34.1139 19.3558 33.987 18.8385 33.8262L18.6263 32.2928L19.6479 31.6202L20.5218 32.5291L20.4069 34.2047ZM20.6837 30.8053C23.1708 28.7633 25.6198 25.9611 27.5458 22.9248C30.3404 18.5225 31.9329 13.8117 32.1516 9.30109C32.1615 9.09109 32.2785 8.83078 32.4032 8.55516C32.4973 8.34625 32.5979 8.12094 32.669 7.88031H33.0901C35.3148 18.3705 30.8544 27.3512 21.3541 31.502L20.6837 30.8053ZM42.6287 9.47172C45.3466 9.47172 47.5582 11.6833 47.5582 14.4013C47.5582 17.1192 45.3466 19.3308 42.6287 19.3308C39.9107 19.3308 37.6991 17.1192 37.6991 14.4013C37.6991 11.6833 39.9107 9.47172 42.6287 9.47172ZM37.5296 10.8083C36.811 11.8255 36.3866 13.0647 36.3866 14.4013C36.3866 16.3897 37.3229 18.1637 38.7765 19.3067C37.3305 27.0658 29.916 34.8817 21.7118 34.3567L21.8233 32.7292C26.9323 30.5133 30.7713 26.963 32.938 22.4403C34.9855 18.167 35.4963 13.1489 34.4299 7.88031H35.6976C36.4096 8.73125 37.0243 9.71234 37.5296 10.8083ZM27.6377 5.05516V3.47359C27.6377 2.63906 28.3158 1.96094 29.1504 1.96094H37.4049C38.2394 1.96094 38.9176 2.63906 38.9176 3.47359V5.05516C38.9176 5.88969 38.2394 6.56781 37.4049 6.56781H37.2343C37.2343 6.56781 37.2332 6.56781 37.2321 6.56781C36.4096 6.55688 35.7402 5.87766 35.7402 5.05516V3.88703C35.7402 3.525 35.446 3.23078 35.084 3.23078C34.7219 3.23078 34.4277 3.525 34.4277 3.88703V5.05516C34.4277 5.60969 34.5918 6.12922 34.8718 6.56781H29.1504C28.3158 6.56781 27.6377 5.88969 27.6377 5.05516ZM29.5912 7.88031H31.2679C31.2482 7.92516 31.2285 7.97 31.2077 8.01594C31.0469 8.37359 30.8643 8.77828 30.8413 9.23766C30.534 15.5661 27.5951 21.0556 24.4473 25.0292C19.3526 27.5142 13.9123 27.4016 9.04178 24.723L9.95507 23.2716C10.7316 23.5855 11.6198 23.7277 12.5801 23.7277C18.0455 23.7277 25.8418 19.1536 28.4985 15.8056C28.7238 15.5213 28.6757 15.1089 28.3924 14.8836C28.1091 14.6583 27.6957 14.7053 27.4704 14.9897C25.9883 16.8578 22.578 19.217 19.1765 20.7286C15.3527 22.4283 12.113 22.8691 10.2285 21.9569L9.74397 20.7702C14.178 19.9816 18.3168 18.4066 21.7588 16.1895C25.2676 13.9309 27.9669 11.0642 29.5912 7.88031ZM7.24257 21.2L8.41725 20.9966L8.97616 22.3648L7.91741 24.047C7.37053 23.6784 6.91116 23.2989 6.54694 22.9106L7.24257 21.2ZM39.4196 14.865C39.1637 14.6091 39.1637 14.1934 39.4196 13.9375C39.6755 13.6816 40.0912 13.6816 40.3471 13.9375L41.7121 15.3025L44.9069 12.1077C45.1629 11.8517 45.5785 11.8517 45.8344 12.1077C46.0904 12.3636 46.0904 12.7792 45.8344 13.0352L42.1758 16.6937C42.0479 16.8217 41.8794 16.8863 41.7121 16.8863C41.5437 16.8863 41.3763 16.8217 41.2483 16.6937L39.4196 14.865Z" fill="white" stroke="white"/>
</svg>
