<svg width="56" height="56" viewBox="0 0 56 56" fill="none" xmlns="http://www.w3.org/2000/svg">
<path d="M10.5 53.3828H3.5C3.01875 53.3828 2.625 52.9891 2.625 52.5078V7.00781C2.625 4.59281 4.585 2.63281 7 2.63281C9.415 2.63281 11.375 4.59281 11.375 7.00781V52.5078C11.375 52.9891 10.9813 53.3828 10.5 53.3828ZM4.375 51.6328H9.625V7.00781C9.625 5.56406 8.44375 4.38281 7 4.38281C5.55625 4.38281 4.375 5.56406 4.375 7.00781V51.6328Z" fill="white" stroke="white"/>
<path d="M52.5 53.3828H45.5C45.0187 53.3828 44.625 52.9891 44.625 52.5078V7.00781C44.625 4.59281 46.585 2.63281 49 2.63281C51.415 2.63281 53.375 4.59281 53.375 7.00781V52.5078C53.375 52.9891 52.9813 53.3828 52.5 53.3828ZM46.375 51.6328H51.625V7.00781C51.625 5.56406 50.4437 4.38281 49 4.38281C47.5563 4.38281 46.375 5.56406 46.375 7.00781V51.6328Z" fill="white" stroke="white"/>
<path d="M45.5 18.3828H38.5C38.0187 18.3828 37.625 17.9891 37.625 17.5078C37.625 17.0266 38.0187 16.6328 38.5 16.6328H45.5C45.9813 16.6328 46.375 17.0266 46.375 17.5078C46.375 17.9891 45.9813 18.3828 45.5 18.3828Z" fill="white" stroke="white"/>
<path d="M16.625 18.3828H10.5C10.0187 18.3828 9.625 17.9891 9.625 17.5078C9.625 17.0266 10.0187 16.6328 10.5 16.6328H16.625C17.1063 16.6328 17.5 17.0266 17.5 17.5078C17.5 17.9891 17.1063 18.3828 16.625 18.3828Z" fill="white" stroke="white"/>
<path d="M28 13.1328C25.1038 13.1328 22.75 10.7791 22.75 7.88281C22.75 4.98656 25.1038 2.63281 28 2.63281C30.8962 2.63281 33.25 4.98656 33.25 7.88281C33.25 10.7791 30.8962 13.1328 28 13.1328ZM28 4.38281C26.0662 4.38281 24.5 5.94906 24.5 7.88281C24.5 9.81656 26.0662 11.3828 28 11.3828C29.9338 11.3828 31.5 9.81656 31.5 7.88281C31.5 5.94906 29.9338 4.38281 28 4.38281Z" fill="white" stroke="white"/>
<path d="M20.125 21.0078C19.2587 21.0078 18.4275 20.6841 17.7887 20.1066C17.0537 19.4678 16.625 18.5141 16.625 17.5078C16.625 15.5741 18.1912 14.0078 20.125 14.0078C22.0588 14.0078 23.625 15.5741 23.625 17.5078C23.625 18.5141 23.1962 19.4678 22.4525 20.1153C21.8225 20.6841 20.9913 21.0078 20.125 21.0078ZM20.125 15.7578C19.1625 15.7578 18.375 16.5453 18.375 17.5078C18.375 18.0066 18.585 18.4791 18.9525 18.8028C19.6175 19.3978 20.65 19.3891 21.2887 18.8116C21.665 18.4791 21.875 18.0066 21.875 17.5078C21.875 16.5453 21.0875 15.7578 20.125 15.7578Z" fill="white" stroke="white"/>
<path d="M35.875 21.0078C35.0087 21.0078 34.1775 20.6841 33.5388 20.1066C32.8038 19.4678 32.375 18.5141 32.375 17.5078C32.375 15.5741 33.9412 14.0078 35.875 14.0078C37.8088 14.0078 39.375 15.5741 39.375 17.5078C39.375 18.5141 38.9462 19.4678 38.2025 20.1153C37.5725 20.6841 36.7413 21.0078 35.875 21.0078ZM35.875 15.7578C34.9125 15.7578 34.125 16.5453 34.125 17.5078C34.125 18.0066 34.335 18.4791 34.7025 18.8028C35.3675 19.3978 36.4 19.3891 37.0388 18.8116C37.415 18.4791 37.625 18.0066 37.625 17.5078C37.625 16.5453 36.8375 15.7578 35.875 15.7578Z" fill="white" stroke="white"/>
<path d="M33.25 18.3828H22.75C22.2687 18.3828 21.875 17.9891 21.875 17.5078C21.875 17.0266 22.2687 16.6328 22.75 16.6328H33.25C33.7313 16.6328 34.125 17.0266 34.125 17.5078C34.125 17.9891 33.7313 18.3828 33.25 18.3828Z" fill="white" stroke="white"/>
<path d="M20.125 25.3828C18.6813 25.3828 17.5 24.2016 17.5 22.7578V19.4591C17.5 19.1091 17.7013 18.8028 18.0163 18.6628C18.3313 18.5228 18.6988 18.5841 18.9613 18.8116C19.6 19.3891 20.65 19.3891 21.2887 18.8116C21.5425 18.5753 21.9187 18.5228 22.2337 18.6628C22.5487 18.8028 22.75 19.1178 22.75 19.4591V22.7578C22.75 24.2016 21.5687 25.3828 20.125 25.3828ZM19.25 20.8941V22.7578C19.25 23.2391 19.6437 23.6328 20.125 23.6328C20.6063 23.6328 21 23.2391 21 22.7578V20.8941C20.4313 21.0428 19.8187 21.0428 19.25 20.8941Z" fill="white" stroke="white"/>
<path d="M35.875 25.3828C34.4313 25.3828 33.25 24.2016 33.25 22.7578V19.4591C33.25 19.1091 33.4513 18.8028 33.7663 18.6628C34.0813 18.5228 34.4487 18.5841 34.7112 18.8116C35.35 19.3891 36.4 19.3891 37.0388 18.8116C37.2925 18.5753 37.6687 18.5228 37.9837 18.6628C38.2987 18.8028 38.5 19.1178 38.5 19.4591V22.7578C38.5 24.2016 37.3187 25.3828 35.875 25.3828ZM35 20.8941V22.7578C35 23.2391 35.3937 23.6328 35.875 23.6328C36.3563 23.6328 36.75 23.2391 36.75 22.7578V20.8941C36.1813 21.0428 35.5687 21.0428 35 20.8941Z" fill="white" stroke="white"/>
<path d="M28 30.6328C26.4862 30.6328 25.0337 30.0728 23.9137 29.0578C22.6187 27.9116 21.875 26.2491 21.875 24.5078V18.3828C21.875 15.0053 24.6225 12.2578 28 12.2578C29.645 12.2578 31.185 12.8966 32.3313 14.0603C33.4863 15.1978 34.125 16.7378 34.125 18.3828V24.5078C34.125 26.2491 33.3812 27.9116 32.0775 29.0666C30.9662 30.0728 29.5138 30.6328 28 30.6328ZM28 14.0078C25.585 14.0078 23.625 15.9678 23.625 18.3828V24.5078C23.625 25.7503 24.1587 26.9316 25.0775 27.7541C26.6875 29.2153 29.3125 29.2066 30.9138 27.7628C31.8413 26.9316 32.375 25.7503 32.375 24.5078V18.3828C32.375 17.2103 31.92 16.1166 31.0975 15.2941C30.2663 14.4628 29.1725 14.0078 28 14.0078Z" fill="white" stroke="white"/>
<path d="M26.25 45.5078C24.8063 45.5078 23.625 44.3266 23.625 42.8828V28.4103C23.625 28.0603 23.8263 27.7541 24.1413 27.6141C24.4563 27.4741 24.8238 27.5353 25.0863 27.7628C25.8825 28.4803 26.9237 28.8828 28 28.8828C28.4813 28.8828 28.875 29.2766 28.875 29.7578V42.8828C28.875 44.3266 27.6937 45.5078 26.25 45.5078ZM25.375 30.0378V42.8828C25.375 43.3641 25.7687 43.7578 26.25 43.7578C26.7313 43.7578 27.125 43.3641 27.125 42.8828V30.5716C26.5125 30.4841 25.9262 30.3003 25.375 30.0378Z" fill="white" stroke="white"/>
<path d="M29.75 45.5078C28.3063 45.5078 27.125 44.3266 27.125 42.8828V29.7578C27.125 29.2766 27.5187 28.8828 28 28.8828C29.0763 28.8828 30.1175 28.4803 30.9138 27.7628C31.1675 27.5266 31.5437 27.4741 31.8587 27.6141C32.1737 27.7541 32.375 28.0691 32.375 28.4103V42.8828C32.375 44.3266 31.1937 45.5078 29.75 45.5078ZM28.875 30.5716V42.8828C28.875 43.3641 29.2687 43.7578 29.75 43.7578C30.2313 43.7578 30.625 43.3641 30.625 42.8828V30.0378C30.0738 30.3003 29.4875 30.4841 28.875 30.5716Z" fill="white" stroke="white"/>
</svg>
