<svg width="56" height="56" viewBox="0 0 56 56" fill="none" xmlns="http://www.w3.org/2000/svg">
<g clip-path="url(#clip0_1891_124)">
<path d="M53.706 12.2536H51.0792V10.0708C51.0792 8.34018 49.6713 6.93227 47.9408 6.93227H45.4373C43.7067 6.93227 42.2989 8.34018 42.2989 10.0708V19.0566H38.1036V16.6441C38.1036 14.8932 36.6792 13.4689 34.9284 13.4689C34.2405 13.4689 33.6037 13.6896 33.0834 14.0629C32.5719 12.9939 31.4796 12.2536 30.2175 12.2536C29.0244 12.2536 27.9831 12.9151 27.4407 13.8906C26.9047 13.4773 26.2342 13.2302 25.5065 13.2302C24.4021 13.2302 23.4286 13.7976 22.8597 14.6556C22.3041 14.1791 21.5831 13.8903 20.7956 13.8903C19.0447 13.8903 17.6204 15.3146 17.6204 17.0655V19.0569H13.7015V16.7427C13.7015 16.2899 13.3345 15.923 12.8818 15.923C12.429 15.923 12.062 16.2899 12.062 16.7427V35.7865C12.062 36.6131 11.3896 37.2854 10.5632 37.2854H8.05929C7.23275 37.2854 6.56044 36.6131 6.56044 35.7865V10.0708C6.56044 9.24422 7.23286 8.57179 8.05929 8.57179H10.5628C11.3894 8.57179 12.0617 9.24422 12.0617 10.0708V13.249C12.0617 13.7019 12.4287 14.0688 12.8814 14.0688C13.3342 14.0688 13.7012 13.7019 13.7012 13.249V10.0708C13.7012 8.34018 12.2933 6.93227 10.5628 6.93227H8.05929C6.32872 6.93227 4.92092 8.34018 4.92092 10.0708V12.2536H2.29408C1.02913 12.2536 6.10352e-05 13.2827 6.10352e-05 14.5475V31.3095C6.10352e-05 32.5745 1.02913 33.6036 2.29408 33.6036H4.92092V35.7864C4.92092 37.5169 6.32883 38.9248 8.05929 38.9248H10.5628C12.2934 38.9248 13.7012 37.5169 13.7012 35.7864V26.8005H16.5105V28.2974C16.5105 29.0667 16.7796 29.8176 17.2684 30.4118L19.8142 33.507V48.2635C19.8142 48.7163 20.1812 49.0832 20.634 49.0832C21.0867 49.0832 21.4537 48.7163 21.4537 48.2635V33.2132C21.4537 33.0233 21.3877 32.8392 21.267 32.6924L18.5345 29.3702C18.2865 29.0687 18.1499 28.6877 18.1499 28.2974V26.8005L33.653 26.8953C34.1057 26.8953 34.4727 26.5284 34.4727 26.0755C34.4727 25.6227 34.1057 25.2558 33.653 25.2558H29.9231C29.1536 25.2558 28.5275 24.6297 28.5275 23.8603C28.5275 23.0908 29.1536 22.4648 29.9231 22.4648H36.9716C37.4559 22.4648 37.8499 22.8587 37.8499 23.343V28.2973C37.8499 28.6876 37.7133 29.0687 37.4653 29.3701L34.7327 32.6923C34.6121 32.8391 34.5461 33.0231 34.5461 33.2131V35.3752C34.5461 35.8281 34.9131 36.195 35.3658 36.195C35.8185 36.195 36.1856 35.8281 36.1856 35.3752V33.5069L38.7314 30.4117C39.2201 29.8175 39.4893 29.0666 39.4893 28.2973V26.8004H42.2986V35.7863C42.2986 37.5168 43.7065 38.9247 45.437 38.9247H47.9405C49.6711 38.9247 51.0789 37.5168 51.0789 35.7863V33.6034H53.7057C54.9707 33.6034 55.9997 32.5744 55.9997 31.3094V14.5475C56.0001 13.2827 54.971 12.2536 53.706 12.2536ZM2.29408 31.964C1.93316 31.964 1.63958 31.6703 1.63958 31.3095V14.5475C1.63958 14.1866 1.93316 13.8931 2.29408 13.8931H4.92092V31.964H2.29408ZM34.9283 15.1085C35.7752 15.1085 36.464 15.7974 36.464 16.6441V19.6962C36.464 20.129 36.2803 20.5362 35.9661 20.8254H33.8904C33.5761 20.5362 33.3925 20.129 33.3925 19.6962V16.6441C33.3925 15.7974 34.0814 15.1085 34.9283 15.1085ZM28.6816 15.4288C28.6816 14.5821 29.3705 13.8931 30.2173 13.8931C31.0641 13.8931 31.753 14.5821 31.753 15.4288V19.6962C31.753 20.129 31.5693 20.5362 31.2551 20.8254H29.9232C29.6969 20.8254 29.4766 20.851 29.2643 20.8983C28.8993 20.6101 28.6815 20.1716 28.6815 19.6962L28.6816 15.4288ZM23.9706 16.4053C23.9706 15.5586 24.6595 14.8696 25.5063 14.8696C26.3531 14.8696 27.0421 15.5586 27.0421 16.4053V19.696C27.0421 20.5429 26.3532 21.2318 25.5063 21.2318C24.6594 21.2318 23.9706 20.5429 23.9706 19.696V16.4053ZM19.2596 17.0654C19.2596 16.2186 19.9485 15.5297 20.7953 15.5297C21.6421 15.5297 22.331 16.2186 22.331 17.0654V19.6962C22.331 20.543 21.6421 21.2319 20.7953 21.2319C19.9485 21.2319 19.2596 20.543 19.2596 19.6962V17.0654ZM13.7013 20.6962H17.7824C18.2025 21.9584 19.3939 22.8714 20.7954 22.8714C21.7291 22.8714 22.5698 22.4661 23.1513 21.8225C23.7328 22.466 24.5729 22.8714 25.5064 22.8714C26.1827 22.8714 26.8086 22.6568 27.3241 22.295C27.0477 22.7523 26.8883 23.288 26.8883 23.8603C26.8883 24.3255 26.9938 24.7665 27.1817 25.1609H13.7013V20.6962ZM39.4897 25.161V23.3431C39.4897 22.2571 38.7984 21.3296 37.8329 20.9771C37.8733 20.8854 37.9093 20.7916 37.941 20.6962H42.2989V25.161H39.4897ZM54.3605 31.3095C54.3605 31.6704 54.067 31.964 53.706 31.964H51.0792V29.595C51.0792 29.1422 50.7122 28.7753 50.2594 28.7753C49.8067 28.7753 49.4397 29.1422 49.4397 29.595V35.7864C49.4397 36.6129 48.7673 37.2853 47.9408 37.2853H45.4373C44.6107 37.2853 43.9384 36.6129 43.9384 35.7864V10.0708C43.9384 9.24422 44.6109 8.57179 45.4373 8.57179H47.9408C48.7674 8.57179 49.4397 9.24422 49.4397 10.0708V26.1014C49.4397 26.5543 49.8067 26.9212 50.2594 26.9212C50.7122 26.9212 51.0792 26.5543 51.0792 26.1014V13.8931H53.706C54.067 13.8931 54.3605 14.1867 54.3605 14.5475V31.3095Z" fill="white" stroke="white"/>
<path d="M35.366 38.0491C34.9133 38.0491 34.5463 38.416 34.5463 38.8688V48.2634C34.5463 48.7162 34.9133 49.0831 35.366 49.0831C35.8188 49.0831 36.1858 48.7162 36.1858 48.2634V38.8688C36.1858 38.416 35.8189 38.0491 35.366 38.0491Z" fill="white" stroke="white"/>
</g>
<defs>
<clipPath id="clip0_1891_124">
<rect width="56" height="56" fill="white" transform="translate(6.10352e-05 0.0078125)"/>
</clipPath>
</defs>
</svg>
